<svg width="383" height="390" viewBox="0 0 383 390" fill="none" xmlns="http://www.w3.org/2000/svg">
    <g clip-path="url(#clip0_142_19917)">
        <path d="M220.527 17.594C222.328 18.01 223.726 19.4304 224.114 21.2382L233.899 66.8874C234.463 69.5189 232.738 72.0951 230.089 72.5749L134.576 89.881C131.41 90.4545 128.598 87.7915 128.998 84.5997L139.077 4.17406C139.428 1.37184 142.125 -0.511823 144.877 0.123649L220.527 17.594Z" fill="#E94F2E"/>
        <path fill-rule="evenodd" clip-rule="evenodd" d="M3.91755 188.553C1.07914 189.068 -0.654943 191.966 0.233892 194.71L62.4181 386.705C63.0547 388.67 64.8854 390.001 66.9515 390.001H122.386C124.457 390.001 126.291 388.664 126.923 386.692L161.505 278.879C168.158 257.322 172.649 241.98 175.802 230.522C177.199 225.444 185.906 225.618 187.153 230.736C190.236 243.383 194.559 259.195 200.293 277.83L234.88 386.679C235.509 388.658 237.346 390.001 239.422 390.001H292.297C294.328 390.001 296.136 388.714 296.8 386.795L383.134 137.388C384.205 134.293 381.906 131.064 378.631 131.064H321.213C319.127 131.064 317.283 132.421 316.663 134.413L283.111 242.187C280.032 252.79 275.392 269.643 271.373 285.462C270.09 290.516 261.828 290.451 260.581 285.388C256.341 268.185 251.106 249.076 249.04 242.187L215.488 134.413C214.868 132.421 213.024 131.064 210.938 131.064H152.925C150.854 131.064 149.02 132.402 148.387 134.374L113.806 242.187C108.406 258.723 104.527 271.349 101.19 284.959C99.9398 290.06 92.0529 290.056 90.9188 284.928C87.5907 269.879 84.0376 255.583 80.2593 242.187L61.9032 182.318C61.1955 180.01 58.8734 178.596 56.4978 179.026L3.91755 188.553Z" fill="#140505"/>
    </g>
    <defs>
        <clipPath id="clip0_142_19917">
            <rect width="383" height="390" fill="white"/>
        </clipPath>
    </defs>
</svg>
