<svg xmlns="http://www.w3.org/2000/svg" xmlns:xlink="http://www.w3.org/1999/xlink" width="500" zoomAndPan="magnify" viewBox="0 0 375 74.999997" height="100" preserveAspectRatio="xMidYMid meet" version="1.0"><defs><g/><clipPath id="d40211fd8d"><path d="M 17 11.625 L 65.660156 11.625 L 65.660156 61 L 17 61 Z M 17 11.625 " clip-rule="nonzero"/></clipPath><clipPath id="18a240d41a"><path d="M 17 19 L 54 19 L 54 63.375 L 17 63.375 Z M 17 19 " clip-rule="nonzero"/></clipPath></defs><g clip-path="url(#d40211fd8d)"><path fill="#ac79f2" d="M 17.664062 35.746094 C 17.664062 22.421875 28.460938 11.625 41.78125 11.625 C 55.105469 11.625 65.902344 22.421875 65.902344 35.746094 C 65.902344 43.84375 61.910156 51.015625 55.78125 55.386719 C 55.730469 55.425781 58.714844 60.574219 58.714844 60.574219 L 55.578125 55.40625 L 52.285156 48.878906 L 50.167969 47.589844 L 52.480469 46.25 L 50.1875 44.535156 L 57.171875 45.851562 L 52.308594 37.800781 L 48.390625 36.78125 C 47.085938 33.140625 45.003906 29.832031 41.84375 27.40625 C 40.410156 26.308594 38.792969 25.425781 37.082031 24.855469 C 36.402344 24.628906 35.574219 24.402344 34.855469 24.328125 L 34.148438 24.257812 L 33.859375 24.90625 C 33.5625 25.5625 33.347656 26.394531 33.203125 27.09375 C 32.839844 28.867188 32.792969 30.707031 33.03125 32.496094 C 33.550781 36.445312 35.375 39.898438 37.875 42.847656 L 36.800781 46.753906 L 41.34375 54.992188 L 43.695312 48.285156 L 44.035156 51.128906 L 46.351562 49.792969 L 46.410156 52.273438 L 50.355469 58.296875 C 50.285156 58.320312 50.214844 58.347656 50.144531 58.375 C 47.542969 59.335938 44.726562 59.859375 41.789062 59.859375 C 28.46875 59.859375 17.667969 49.0625 17.667969 35.742188 Z M 49.734375 48.433594 L 49.136719 48.183594 L 49.667969 47.878906 L 49.738281 48.433594 Z M 46.84375 49.507812 L 47.375 49.203125 L 47.289062 49.84375 Z M 46.84375 49.507812 " fill-opacity="1" fill-rule="evenodd"/></g><g clip-path="url(#18a240d41a)"><path fill="#7326e4" d="M 17.664062 35.746094 C 17.664062 29.546875 20 23.894531 23.847656 19.621094 C 23.816406 19.722656 16.214844 45.410156 40.507812 53.488281 L 41.339844 54.996094 L 41.734375 53.871094 C 43.734375 54.464844 45.941406 54.949219 48.375 55.289062 L 53.691406 63.367188 C 53.691406 63.367188 50.160156 58.371094 50.160156 58.371094 C 47.550781 59.335938 44.726562 59.863281 41.78125 59.863281 C 28.460938 59.863281 17.660156 49.066406 17.660156 35.746094 Z M 17.664062 35.746094 " fill-opacity="1" fill-rule="evenodd"/></g><path fill="#7326e4" d="M 49.09375 44.515625 C 47.175781 26.578125 34.753906 25.308594 34.753906 25.308594 C 34.753906 25.308594 29.640625 36.703125 44.214844 47.332031 Z M 37.90625 30.769531 C 36.285156 31.703125 35.730469 33.773438 36.664062 35.394531 C 37.601562 37.011719 39.671875 37.570312 41.289062 36.632812 C 42.910156 35.699219 43.464844 33.628906 42.53125 32.007812 C 41.59375 30.390625 39.523438 29.832031 37.90625 30.769531 Z M 53.796875 58.296875 L 48.265625 49.953125 L 48.402344 48.945312 L 49.339844 49.332031 Z M 44.832031 49.535156 L 44.648438 48.011719 L 49.46875 45.230469 L 50.695312 46.148438 L 44.832031 49.53125 Z M 48.390625 37.800781 L 51.671875 38.65625 L 55.191406 44.480469 L 49.933594 43.488281 C 49.933594 43.488281 49.234375 39.867188 48.390625 37.796875 Z M 47.359375 51.136719 L 47.382812 51.972656 L 50.988281 57.480469 L 48.011719 51.628906 L 47.359375 51.132812 Z M 38.753906 43.367188 L 37.851562 46.636719 L 41.140625 52.597656 L 42.910156 47.550781 C 42.910156 47.550781 40.121094 45.132812 38.753906 43.367188 Z M 50.816406 49.140625 L 51.535156 49.578125 L 54.5 55.453125 L 50.917969 49.953125 L 50.820312 49.140625 Z M 50.816406 49.140625 " fill-opacity="1" fill-rule="evenodd"/><path fill="#7326e4" d="M 42.875 19.191406 C 42.875 19.621094 42.957031 20.03125 43.121094 20.429688 C 43.285156 20.824219 43.519531 21.175781 43.824219 21.476562 C 44.125 21.78125 44.476562 22.015625 44.871094 22.179688 C 45.269531 22.34375 45.679688 22.425781 46.109375 22.425781 C 46.539062 22.425781 46.953125 22.34375 47.347656 22.179688 C 47.746094 22.015625 48.09375 21.78125 48.398438 21.476562 C 48.699219 21.175781 48.933594 20.824219 49.097656 20.429688 C 49.261719 20.03125 49.34375 19.621094 49.34375 19.191406 C 49.34375 18.761719 49.261719 18.347656 49.097656 17.953125 C 48.933594 17.558594 48.699219 17.207031 48.398438 16.902344 C 48.09375 16.601562 47.746094 16.367188 47.347656 16.203125 C 46.953125 16.039062 46.539062 15.957031 46.109375 15.957031 C 45.679688 15.957031 45.269531 16.039062 44.871094 16.203125 C 44.476562 16.367188 44.125 16.601562 43.824219 16.902344 C 43.519531 17.207031 43.285156 17.558594 43.121094 17.953125 C 42.957031 18.347656 42.875 18.761719 42.875 19.191406 Z M 42.875 19.191406 " fill-opacity="1" fill-rule="nonzero"/><path fill="#7326e4" d="M 51.207031 29.769531 C 51.207031 30.066406 51.265625 30.355469 51.378906 30.628906 C 51.492188 30.90625 51.65625 31.148438 51.867188 31.359375 C 52.078125 31.570312 52.320312 31.730469 52.597656 31.847656 C 52.871094 31.960938 53.15625 32.015625 53.457031 32.015625 C 53.753906 32.015625 54.039062 31.960938 54.316406 31.847656 C 54.589844 31.730469 54.835938 31.570312 55.046875 31.359375 C 55.257812 31.148438 55.417969 30.90625 55.53125 30.628906 C 55.648438 30.355469 55.703125 30.066406 55.703125 29.769531 C 55.703125 29.472656 55.648438 29.183594 55.53125 28.910156 C 55.417969 28.632812 55.257812 28.390625 55.046875 28.179688 C 54.835938 27.96875 54.589844 27.808594 54.316406 27.695312 C 54.039062 27.578125 53.753906 27.523438 53.457031 27.523438 C 53.15625 27.523438 52.871094 27.578125 52.597656 27.695312 C 52.320312 27.808594 52.078125 27.96875 51.867188 28.179688 C 51.65625 28.390625 51.492188 28.632812 51.378906 28.910156 C 51.265625 29.183594 51.207031 29.472656 51.207031 29.769531 Z M 51.207031 29.769531 " fill-opacity="1" fill-rule="nonzero"/><path fill="#051d40" d="M 47.964844 43.902344 L 47.445312 43.019531 L 47.914062 42.726562 L 48.4375 43.617188 Z M 47.964844 43.902344 " fill-opacity="1" fill-rule="evenodd"/><path fill="#7326e4" d="M 47.914062 42.726562 L 47.445312 43.019531 L 47.226562 43.035156 L 47.695312 42.757812 Z M 47.914062 42.726562 " fill-opacity="1" fill-rule="evenodd"/><path fill="#ac79f2" d="M 47.445312 43.019531 L 47.964844 43.902344 L 47.746094 43.9375 L 47.226562 43.035156 Z M 47.445312 43.019531 " fill-opacity="1" fill-rule="evenodd"/><path fill="#051d40" d="M 47.25 44.324219 L 46.609375 43.230469 L 47.074219 42.9375 L 47.722656 44.039062 Z M 47.25 44.324219 " fill-opacity="1" fill-rule="evenodd"/><path fill="#7326e4" d="M 47.074219 42.9375 L 46.609375 43.230469 L 46.390625 43.242188 L 46.859375 42.96875 Z M 47.074219 42.9375 " fill-opacity="1" fill-rule="evenodd"/><path fill="#ac79f2" d="M 46.609375 43.230469 L 47.25 44.324219 L 47.03125 44.355469 L 46.390625 43.242188 Z M 46.609375 43.230469 " fill-opacity="1" fill-rule="evenodd"/><path fill="#051d40" d="M 46.527344 44.746094 L 45.734375 43.394531 L 46.199219 43.101562 L 47 44.460938 Z M 46.527344 44.746094 " fill-opacity="1" fill-rule="evenodd"/><path fill="#7326e4" d="M 46.199219 43.101562 L 45.734375 43.394531 L 45.515625 43.40625 L 45.984375 43.132812 Z M 46.199219 43.101562 " fill-opacity="1" fill-rule="evenodd"/><path fill="#ac79f2" d="M 45.734375 43.394531 L 46.527344 44.746094 L 46.308594 44.777344 L 45.515625 43.40625 Z M 45.734375 43.394531 " fill-opacity="1" fill-rule="evenodd"/><path fill="#051d40" d="M 45.796875 45.179688 L 44.792969 43.472656 L 45.261719 43.179688 L 46.265625 44.890625 Z M 45.796875 45.179688 " fill-opacity="1" fill-rule="evenodd"/><path fill="#7326e4" d="M 45.261719 43.179688 L 44.792969 43.472656 L 44.574219 43.484375 L 45.042969 43.210938 Z M 45.261719 43.179688 " fill-opacity="1" fill-rule="evenodd"/><path fill="#ac79f2" d="M 44.792969 43.472656 L 45.796875 45.179688 L 45.574219 45.210938 L 44.574219 43.484375 Z M 44.792969 43.472656 " fill-opacity="1" fill-rule="evenodd"/><path fill="#051d40" d="M 45.078125 45.601562 L 43.816406 43.453125 L 44.28125 43.160156 L 45.546875 45.316406 Z M 45.078125 45.601562 " fill-opacity="1" fill-rule="evenodd"/><path fill="#7326e4" d="M 44.28125 43.160156 L 43.816406 43.453125 L 43.597656 43.464844 L 44.066406 43.191406 Z M 44.28125 43.160156 " fill-opacity="1" fill-rule="evenodd"/><path fill="#ac79f2" d="M 43.816406 43.453125 L 45.078125 45.601562 L 44.855469 45.632812 L 43.597656 43.464844 Z M 43.816406 43.453125 " fill-opacity="1" fill-rule="evenodd"/><path fill="#051d40" d="M 44.351562 46.027344 L 42.777344 43.347656 L 43.242188 43.054688 L 44.820312 45.738281 Z M 44.351562 46.027344 " fill-opacity="1" fill-rule="evenodd"/><path fill="#7326e4" d="M 43.242188 43.054688 L 42.777344 43.347656 L 42.558594 43.363281 L 43.03125 43.085938 Z M 43.242188 43.054688 " fill-opacity="1" fill-rule="evenodd"/><path fill="#ac79f2" d="M 42.777344 43.347656 L 44.351562 46.027344 L 44.128906 46.058594 L 42.558594 43.363281 Z M 42.777344 43.347656 " fill-opacity="1" fill-rule="evenodd"/><path fill="#051d40" d="M 43.628906 46.449219 L 41.695312 43.160156 L 42.160156 42.863281 L 44.101562 46.164062 Z M 43.628906 46.449219 " fill-opacity="1" fill-rule="evenodd"/><path fill="#7326e4" d="M 42.160156 42.863281 L 41.695312 43.160156 L 41.476562 43.171875 L 41.945312 42.898438 Z M 42.160156 42.863281 " fill-opacity="1" fill-rule="evenodd"/><path fill="#ac79f2" d="M 41.695312 43.160156 L 43.628906 46.449219 L 43.40625 46.484375 L 41.476562 43.171875 Z M 41.695312 43.160156 " fill-opacity="1" fill-rule="evenodd"/><g fill="#000000" fill-opacity="1"><g transform="translate(92.757393, 49.124995)"><g><path d="M 11.546875 -12.828125 L 20.609375 -12.828125 L 20.609375 -0.984375 C 19.410156 -0.585938 18.164062 -0.269531 16.875 -0.03125 C 15.582031 0.195312 14.117188 0.3125 12.484375 0.3125 C 10.210938 0.3125 8.285156 -0.132812 6.703125 -1.03125 C 5.117188 -1.925781 3.914062 -3.25 3.09375 -5 C 2.269531 -6.75 1.859375 -8.898438 1.859375 -11.453125 C 1.859375 -13.847656 2.316406 -15.921875 3.234375 -17.671875 C 4.160156 -19.421875 5.507812 -20.773438 7.28125 -21.734375 C 9.0625 -22.691406 11.234375 -23.171875 13.796875 -23.171875 C 15.003906 -23.171875 16.195312 -23.039062 17.375 -22.78125 C 18.550781 -22.519531 19.617188 -22.179688 20.578125 -21.765625 L 18.96875 -17.890625 C 18.269531 -18.242188 17.472656 -18.539062 16.578125 -18.78125 C 15.679688 -19.019531 14.742188 -19.140625 13.765625 -19.140625 C 12.359375 -19.140625 11.132812 -18.816406 10.09375 -18.171875 C 9.0625 -17.523438 8.257812 -16.617188 7.6875 -15.453125 C 7.125 -14.296875 6.84375 -12.929688 6.84375 -11.359375 C 6.84375 -9.867188 7.046875 -8.546875 7.453125 -7.390625 C 7.859375 -6.242188 8.5 -5.34375 9.375 -4.6875 C 10.25 -4.039062 11.390625 -3.71875 12.796875 -3.71875 C 13.484375 -3.71875 14.0625 -3.75 14.53125 -3.8125 C 15.007812 -3.882812 15.457031 -3.957031 15.875 -4.03125 L 15.875 -8.796875 L 11.546875 -8.796875 Z M 11.546875 -12.828125 "/></g></g></g><g fill="#000000" fill-opacity="1"><g transform="translate(115.923608, 49.124995)"><g><path d="M 9.703125 -17.796875 C 11.316406 -17.796875 12.707031 -17.484375 13.875 -16.859375 C 15.039062 -16.242188 15.941406 -15.347656 16.578125 -14.171875 C 17.210938 -12.992188 17.53125 -11.554688 17.53125 -9.859375 L 17.53125 -7.546875 L 6.265625 -7.546875 C 6.316406 -6.203125 6.71875 -5.144531 7.46875 -4.375 C 8.226562 -3.613281 9.28125 -3.234375 10.625 -3.234375 C 11.738281 -3.234375 12.757812 -3.347656 13.6875 -3.578125 C 14.613281 -3.804688 15.566406 -4.148438 16.546875 -4.609375 L 16.546875 -0.921875 C 15.679688 -0.492188 14.773438 -0.179688 13.828125 0.015625 C 12.890625 0.210938 11.75 0.3125 10.40625 0.3125 C 8.65625 0.3125 7.101562 -0.0078125 5.75 -0.65625 C 4.40625 -1.300781 3.347656 -2.285156 2.578125 -3.609375 C 1.816406 -4.929688 1.4375 -6.597656 1.4375 -8.609375 C 1.4375 -10.648438 1.78125 -12.347656 2.46875 -13.703125 C 3.164062 -15.066406 4.132812 -16.085938 5.375 -16.765625 C 6.613281 -17.453125 8.054688 -17.796875 9.703125 -17.796875 Z M 9.734375 -14.40625 C 8.804688 -14.40625 8.035156 -14.109375 7.421875 -13.515625 C 6.816406 -12.921875 6.46875 -11.988281 6.375 -10.71875 L 13.0625 -10.71875 C 13.050781 -11.425781 12.921875 -12.054688 12.671875 -12.609375 C 12.429688 -13.160156 12.066406 -13.597656 11.578125 -13.921875 C 11.097656 -14.242188 10.484375 -14.40625 9.734375 -14.40625 Z M 9.734375 -14.40625 "/></g></g></g><g fill="#000000" fill-opacity="1"><g transform="translate(134.825241, 49.124995)"><g><path d="M 9.859375 -3.484375 C 10.378906 -3.484375 10.882812 -3.535156 11.375 -3.640625 C 11.875 -3.742188 12.367188 -3.875 12.859375 -4.03125 L 12.859375 -0.484375 C 12.347656 -0.253906 11.710938 -0.0664062 10.953125 0.078125 C 10.203125 0.234375 9.378906 0.3125 8.484375 0.3125 C 7.441406 0.3125 6.503906 0.144531 5.671875 -0.1875 C 4.847656 -0.53125 4.195312 -1.117188 3.71875 -1.953125 C 3.25 -2.796875 3.015625 -3.96875 3.015625 -5.46875 L 3.015625 -13.890625 L 0.734375 -13.890625 L 0.734375 -15.90625 L 3.359375 -17.5 L 4.734375 -21.1875 L 7.78125 -21.1875 L 7.78125 -17.46875 L 12.671875 -17.46875 L 12.671875 -13.890625 L 7.78125 -13.890625 L 7.78125 -5.46875 C 7.78125 -4.800781 7.96875 -4.300781 8.34375 -3.96875 C 8.726562 -3.644531 9.234375 -3.484375 9.859375 -3.484375 Z M 9.859375 -3.484375 "/></g></g></g><g fill="#000000" fill-opacity="1"><g transform="translate(148.712474, 49.124995)"><g><path d="M 16.359375 -6.34375 C 16.359375 -4.988281 16.03125 -3.8125 15.375 -2.8125 C 14.71875 -1.8125 13.757812 -1.039062 12.5 -0.5 C 11.25 0.0390625 9.726562 0.3125 7.9375 0.3125 C 7.144531 0.3125 6.367188 0.257812 5.609375 0.15625 C 4.859375 0.0507812 4.132812 -0.0976562 3.4375 -0.296875 C 2.75 -0.503906 2.09375 -0.757812 1.46875 -1.0625 L 1.46875 -5.5625 C 2.550781 -5.082031 3.675781 -4.648438 4.84375 -4.265625 C 6.007812 -3.878906 7.164062 -3.6875 8.3125 -3.6875 C 9.101562 -3.6875 9.738281 -3.789062 10.21875 -4 C 10.707031 -4.207031 11.0625 -4.492188 11.28125 -4.859375 C 11.5 -5.222656 11.609375 -5.640625 11.609375 -6.109375 C 11.609375 -6.679688 11.414062 -7.171875 11.03125 -7.578125 C 10.644531 -7.984375 10.113281 -8.363281 9.4375 -8.71875 C 8.769531 -9.070312 8.015625 -9.453125 7.171875 -9.859375 C 6.640625 -10.109375 6.0625 -10.410156 5.4375 -10.765625 C 4.8125 -11.128906 4.21875 -11.570312 3.65625 -12.09375 C 3.09375 -12.613281 2.628906 -13.242188 2.265625 -13.984375 C 1.910156 -14.734375 1.734375 -15.628906 1.734375 -16.671875 C 1.734375 -18.035156 2.046875 -19.203125 2.671875 -20.171875 C 3.296875 -21.140625 4.1875 -21.878906 5.34375 -22.390625 C 6.507812 -22.910156 7.882812 -23.171875 9.46875 -23.171875 C 10.65625 -23.171875 11.785156 -23.03125 12.859375 -22.75 C 13.941406 -22.476562 15.070312 -22.082031 16.25 -21.5625 L 14.6875 -17.796875 C 13.632812 -18.222656 12.691406 -18.550781 11.859375 -18.78125 C 11.023438 -19.019531 10.175781 -19.140625 9.3125 -19.140625 C 8.707031 -19.140625 8.191406 -19.039062 7.765625 -18.84375 C 7.335938 -18.65625 7.015625 -18.382812 6.796875 -18.03125 C 6.578125 -17.6875 6.46875 -17.285156 6.46875 -16.828125 C 6.46875 -16.285156 6.625 -15.828125 6.9375 -15.453125 C 7.257812 -15.085938 7.738281 -14.734375 8.375 -14.390625 C 9.019531 -14.046875 9.820312 -13.644531 10.78125 -13.1875 C 11.945312 -12.632812 12.941406 -12.054688 13.765625 -11.453125 C 14.597656 -10.859375 15.238281 -10.15625 15.6875 -9.34375 C 16.132812 -8.539062 16.359375 -7.539062 16.359375 -6.34375 Z M 16.359375 -6.34375 "/></g></g></g><g fill="#000000" fill-opacity="1"><g transform="translate(166.33317, 49.124995)"><g><path d="M 12.21875 -17.796875 C 14.1875 -17.796875 15.773438 -17.03125 16.984375 -15.5 C 18.203125 -13.96875 18.8125 -11.722656 18.8125 -8.765625 C 18.8125 -6.785156 18.523438 -5.117188 17.953125 -3.765625 C 17.378906 -2.421875 16.585938 -1.40625 15.578125 -0.71875 C 14.566406 -0.03125 13.40625 0.3125 12.09375 0.3125 C 11.25 0.3125 10.523438 0.207031 9.921875 0 C 9.316406 -0.21875 8.800781 -0.492188 8.375 -0.828125 C 7.945312 -1.171875 7.578125 -1.535156 7.265625 -1.921875 L 7.015625 -1.921875 C 7.097656 -1.503906 7.160156 -1.078125 7.203125 -0.640625 C 7.242188 -0.203125 7.265625 0.222656 7.265625 0.640625 L 7.265625 7.6875 L 2.5 7.6875 L 2.5 -17.46875 L 6.375 -17.46875 L 7.046875 -15.203125 L 7.265625 -15.203125 C 7.578125 -15.671875 7.957031 -16.101562 8.40625 -16.5 C 8.851562 -16.894531 9.390625 -17.207031 10.015625 -17.4375 C 10.648438 -17.675781 11.382812 -17.796875 12.21875 -17.796875 Z M 10.6875 -13.984375 C 9.851562 -13.984375 9.191406 -13.8125 8.703125 -13.46875 C 8.210938 -13.125 7.851562 -12.609375 7.625 -11.921875 C 7.40625 -11.234375 7.285156 -10.363281 7.265625 -9.3125 L 7.265625 -8.796875 C 7.265625 -7.671875 7.367188 -6.71875 7.578125 -5.9375 C 7.796875 -5.15625 8.15625 -4.5625 8.65625 -4.15625 C 9.164062 -3.75 9.863281 -3.546875 10.75 -3.546875 C 11.476562 -3.546875 12.078125 -3.75 12.546875 -4.15625 C 13.015625 -4.5625 13.363281 -5.15625 13.59375 -5.9375 C 13.832031 -6.726562 13.953125 -7.691406 13.953125 -8.828125 C 13.953125 -10.535156 13.6875 -11.820312 13.15625 -12.6875 C 12.625 -13.550781 11.800781 -13.984375 10.6875 -13.984375 Z M 10.6875 -13.984375 "/></g></g></g><g fill="#000000" fill-opacity="1"><g transform="translate(186.578224, 49.124995)"><g><path d="M 7.265625 -24.3125 L 7.265625 -19.359375 C 7.265625 -18.492188 7.234375 -17.671875 7.171875 -16.890625 C 7.117188 -16.109375 7.078125 -15.554688 7.046875 -15.234375 L 7.296875 -15.234375 C 7.671875 -15.835938 8.113281 -16.328125 8.625 -16.703125 C 9.144531 -17.078125 9.71875 -17.351562 10.34375 -17.53125 C 10.96875 -17.707031 11.640625 -17.796875 12.359375 -17.796875 C 13.617188 -17.796875 14.71875 -17.570312 15.65625 -17.125 C 16.59375 -16.6875 17.320312 -15.992188 17.84375 -15.046875 C 18.363281 -14.109375 18.625 -12.890625 18.625 -11.390625 L 18.625 0 L 13.859375 0 L 13.859375 -10.203125 C 13.859375 -11.453125 13.628906 -12.394531 13.171875 -13.03125 C 12.710938 -13.664062 12.003906 -13.984375 11.046875 -13.984375 C 10.085938 -13.984375 9.332031 -13.757812 8.78125 -13.3125 C 8.226562 -12.875 7.835938 -12.222656 7.609375 -11.359375 C 7.378906 -10.503906 7.265625 -9.457031 7.265625 -8.21875 L 7.265625 0 L 2.5 0 L 2.5 -24.3125 Z M 7.265625 -24.3125 "/></g></g></g><g fill="#000000" fill-opacity="1"><g transform="translate(207.604338, 49.124995)"><g><path d="M 9.703125 -17.796875 C 11.316406 -17.796875 12.707031 -17.484375 13.875 -16.859375 C 15.039062 -16.242188 15.941406 -15.347656 16.578125 -14.171875 C 17.210938 -12.992188 17.53125 -11.554688 17.53125 -9.859375 L 17.53125 -7.546875 L 6.265625 -7.546875 C 6.316406 -6.203125 6.71875 -5.144531 7.46875 -4.375 C 8.226562 -3.613281 9.28125 -3.234375 10.625 -3.234375 C 11.738281 -3.234375 12.757812 -3.347656 13.6875 -3.578125 C 14.613281 -3.804688 15.566406 -4.148438 16.546875 -4.609375 L 16.546875 -0.921875 C 15.679688 -0.492188 14.773438 -0.179688 13.828125 0.015625 C 12.890625 0.210938 11.75 0.3125 10.40625 0.3125 C 8.65625 0.3125 7.101562 -0.0078125 5.75 -0.65625 C 4.40625 -1.300781 3.347656 -2.285156 2.578125 -3.609375 C 1.816406 -4.929688 1.4375 -6.597656 1.4375 -8.609375 C 1.4375 -10.648438 1.78125 -12.347656 2.46875 -13.703125 C 3.164062 -15.066406 4.132812 -16.085938 5.375 -16.765625 C 6.613281 -17.453125 8.054688 -17.796875 9.703125 -17.796875 Z M 9.734375 -14.40625 C 8.804688 -14.40625 8.035156 -14.109375 7.421875 -13.515625 C 6.816406 -12.921875 6.46875 -11.988281 6.375 -10.71875 L 13.0625 -10.71875 C 13.050781 -11.425781 12.921875 -12.054688 12.671875 -12.609375 C 12.429688 -13.160156 12.066406 -13.597656 11.578125 -13.921875 C 11.097656 -14.242188 10.484375 -14.40625 9.734375 -14.40625 Z M 9.734375 -14.40625 "/></g></g></g><g fill="#000000" fill-opacity="1"><g transform="translate(226.505971, 49.124995)"><g><path d="M 12.25 -17.796875 C 12.488281 -17.796875 12.765625 -17.78125 13.078125 -17.75 C 13.398438 -17.726562 13.660156 -17.695312 13.859375 -17.65625 L 13.5 -13.1875 C 13.34375 -13.238281 13.117188 -13.273438 12.828125 -13.296875 C 12.546875 -13.328125 12.300781 -13.34375 12.09375 -13.34375 C 11.476562 -13.34375 10.878906 -13.265625 10.296875 -13.109375 C 9.722656 -12.953125 9.207031 -12.695312 8.75 -12.34375 C 8.289062 -12 7.925781 -11.539062 7.65625 -10.96875 C 7.394531 -10.40625 7.265625 -9.710938 7.265625 -8.890625 L 7.265625 0 L 2.5 0 L 2.5 -17.46875 L 6.109375 -17.46875 L 6.8125 -14.53125 L 7.046875 -14.53125 C 7.390625 -15.125 7.816406 -15.664062 8.328125 -16.15625 C 8.847656 -16.65625 9.4375 -17.050781 10.09375 -17.34375 C 10.757812 -17.644531 11.476562 -17.796875 12.25 -17.796875 Z M 12.25 -17.796875 "/></g></g></g><g fill="#000000" fill-opacity="1"><g transform="translate(241.033672, 49.124995)"><g><path d="M 9.703125 -17.796875 C 11.316406 -17.796875 12.707031 -17.484375 13.875 -16.859375 C 15.039062 -16.242188 15.941406 -15.347656 16.578125 -14.171875 C 17.210938 -12.992188 17.53125 -11.554688 17.53125 -9.859375 L 17.53125 -7.546875 L 6.265625 -7.546875 C 6.316406 -6.203125 6.71875 -5.144531 7.46875 -4.375 C 8.226562 -3.613281 9.28125 -3.234375 10.625 -3.234375 C 11.738281 -3.234375 12.757812 -3.347656 13.6875 -3.578125 C 14.613281 -3.804688 15.566406 -4.148438 16.546875 -4.609375 L 16.546875 -0.921875 C 15.679688 -0.492188 14.773438 -0.179688 13.828125 0.015625 C 12.890625 0.210938 11.75 0.3125 10.40625 0.3125 C 8.65625 0.3125 7.101562 -0.0078125 5.75 -0.65625 C 4.40625 -1.300781 3.347656 -2.285156 2.578125 -3.609375 C 1.816406 -4.929688 1.4375 -6.597656 1.4375 -8.609375 C 1.4375 -10.648438 1.78125 -12.347656 2.46875 -13.703125 C 3.164062 -15.066406 4.132812 -16.085938 5.375 -16.765625 C 6.613281 -17.453125 8.054688 -17.796875 9.703125 -17.796875 Z M 9.734375 -14.40625 C 8.804688 -14.40625 8.035156 -14.109375 7.421875 -13.515625 C 6.816406 -12.921875 6.46875 -11.988281 6.375 -10.71875 L 13.0625 -10.71875 C 13.050781 -11.425781 12.921875 -12.054688 12.671875 -12.609375 C 12.429688 -13.160156 12.066406 -13.597656 11.578125 -13.921875 C 11.097656 -14.242188 10.484375 -14.40625 9.734375 -14.40625 Z M 9.734375 -14.40625 "/></g></g></g><g fill="#000000" fill-opacity="1"><g transform="translate(259.935305, 49.124995)"><g><path d="M 1.828125 -2.234375 C 1.828125 -3.210938 2.09375 -3.898438 2.625 -4.296875 C 3.164062 -4.691406 3.816406 -4.890625 4.578125 -4.890625 C 5.316406 -4.890625 5.953125 -4.691406 6.484375 -4.296875 C 7.023438 -3.898438 7.296875 -3.210938 7.296875 -2.234375 C 7.296875 -1.296875 7.023438 -0.617188 6.484375 -0.203125 C 5.953125 0.210938 5.316406 0.421875 4.578125 0.421875 C 3.816406 0.421875 3.164062 0.210938 2.625 -0.203125 C 2.09375 -0.617188 1.828125 -1.296875 1.828125 -2.234375 Z M 1.828125 -2.234375 "/></g></g></g><g fill="#000000" fill-opacity="1"><g transform="translate(269.058076, 49.124995)"><g><path d="M 8.03125 0.3125 C 6.082031 0.3125 4.492188 -0.445312 3.265625 -1.96875 C 2.046875 -3.5 1.4375 -5.742188 1.4375 -8.703125 C 1.4375 -11.691406 2.054688 -13.953125 3.296875 -15.484375 C 4.535156 -17.023438 6.15625 -17.796875 8.15625 -17.796875 C 8.988281 -17.796875 9.722656 -17.679688 10.359375 -17.453125 C 10.992188 -17.222656 11.539062 -16.914062 12 -16.53125 C 12.46875 -16.144531 12.863281 -15.710938 13.1875 -15.234375 L 13.34375 -15.234375 C 13.28125 -15.566406 13.203125 -16.054688 13.109375 -16.703125 C 13.023438 -17.359375 12.984375 -18.03125 12.984375 -18.71875 L 12.984375 -24.3125 L 17.765625 -24.3125 L 17.765625 0 L 14.109375 0 L 13.1875 -2.265625 L 12.984375 -2.265625 C 12.679688 -1.785156 12.300781 -1.347656 11.84375 -0.953125 C 11.394531 -0.566406 10.859375 -0.257812 10.234375 -0.03125 C 9.609375 0.195312 8.875 0.3125 8.03125 0.3125 Z M 9.703125 -3.484375 C 11.003906 -3.484375 11.921875 -3.867188 12.453125 -4.640625 C 12.992188 -5.421875 13.28125 -6.59375 13.3125 -8.15625 L 13.3125 -8.671875 C 13.3125 -10.367188 13.050781 -11.664062 12.53125 -12.5625 C 12.007812 -13.46875 11.039062 -13.921875 9.625 -13.921875 C 8.570312 -13.921875 7.75 -13.46875 7.15625 -12.5625 C 6.5625 -11.65625 6.265625 -10.347656 6.265625 -8.640625 C 6.265625 -6.929688 6.5625 -5.644531 7.15625 -4.78125 C 7.757812 -3.914062 8.609375 -3.484375 9.703125 -3.484375 Z M 9.703125 -3.484375 "/></g></g></g><g fill="#000000" fill-opacity="1"><g transform="translate(289.303131, 49.124995)"><g><path d="M 9.703125 -17.796875 C 11.316406 -17.796875 12.707031 -17.484375 13.875 -16.859375 C 15.039062 -16.242188 15.941406 -15.347656 16.578125 -14.171875 C 17.210938 -12.992188 17.53125 -11.554688 17.53125 -9.859375 L 17.53125 -7.546875 L 6.265625 -7.546875 C 6.316406 -6.203125 6.71875 -5.144531 7.46875 -4.375 C 8.226562 -3.613281 9.28125 -3.234375 10.625 -3.234375 C 11.738281 -3.234375 12.757812 -3.347656 13.6875 -3.578125 C 14.613281 -3.804688 15.566406 -4.148438 16.546875 -4.609375 L 16.546875 -0.921875 C 15.679688 -0.492188 14.773438 -0.179688 13.828125 0.015625 C 12.890625 0.210938 11.75 0.3125 10.40625 0.3125 C 8.65625 0.3125 7.101562 -0.0078125 5.75 -0.65625 C 4.40625 -1.300781 3.347656 -2.285156 2.578125 -3.609375 C 1.816406 -4.929688 1.4375 -6.597656 1.4375 -8.609375 C 1.4375 -10.648438 1.78125 -12.347656 2.46875 -13.703125 C 3.164062 -15.066406 4.132812 -16.085938 5.375 -16.765625 C 6.613281 -17.453125 8.054688 -17.796875 9.703125 -17.796875 Z M 9.734375 -14.40625 C 8.804688 -14.40625 8.035156 -14.109375 7.421875 -13.515625 C 6.816406 -12.921875 6.46875 -11.988281 6.375 -10.71875 L 13.0625 -10.71875 C 13.050781 -11.425781 12.921875 -12.054688 12.671875 -12.609375 C 12.429688 -13.160156 12.066406 -13.597656 11.578125 -13.921875 C 11.097656 -14.242188 10.484375 -14.40625 9.734375 -14.40625 Z M 9.734375 -14.40625 "/></g></g></g><g fill="#000000" fill-opacity="1"><g transform="translate(308.204763, 49.124995)"><g><path d="M 6.65625 0 L 0 -17.46875 L 4.984375 -17.46875 L 8.359375 -7.515625 C 8.546875 -6.929688 8.691406 -6.316406 8.796875 -5.671875 C 8.910156 -5.023438 8.988281 -4.445312 9.03125 -3.9375 L 9.15625 -3.9375 C 9.1875 -4.488281 9.257812 -5.078125 9.375 -5.703125 C 9.5 -6.328125 9.660156 -6.929688 9.859375 -7.515625 L 13.21875 -17.46875 L 18.203125 -17.46875 L 11.546875 0 Z M 6.65625 0 "/></g></g></g></svg>