<?xml version="1.0" encoding="utf-8"?>

<svg width="82" height="20" viewBox="0 0 82 20" fill="none" xmlns="http://www.w3.org/2000/svg">
    <g id="Logo">
        <path id="Vector" d="M3.97228 16.0277V8.03696H0V20H11.963V16.0277H3.97228Z" fill="#0094FF" />
        <path id="Vector_2"
            d="M19.9076 0.0461731H0V6.05079H3.97228V4.06465H15.9353V16.0277H13.9492V20H19.9076V0.0461731Z"
            fill="#003778" />
        <path id="Vector_3" d="M23.9261 0H30.0693V14.873H38.9377V20H23.9261V0Z" fill="#003778" />
        <path id="Vector_4"
            d="M42.8638 0H58.3372V5.12702H49.0531V7.62124H57.0439V12.3787H49.0531V20H42.8638V0Z"
            fill="#003778" />
        <path id="Vector_5"
            d="M67.4364 9.37642L60.8776 0.0461731H68.0831L71.0854 5.45033L74.0415 0.0461731H80.8314L74.4572 9.42261L81.5704 19.9538H74.1801L70.8083 14.0415L67.2979 20H60.2771L67.4364 9.37642Z"
            fill="#0094FF" />
    </g>
</svg>