<?xml version="1.0" encoding="utf-8"?>
<!-- Generator: Adobe Illustrator 27.6.1, SVG Export Plug-In . SVG Version: 6.00 Build 0)  -->
<svg version="1.1" id="Layer_1" xmlns="http://www.w3.org/2000/svg" xmlns:xlink="http://www.w3.org/1999/xlink" x="0px" y="0px"
	 viewBox="0 0 923.3 74.2" style="enable-background:new 0 0 923.3 74.2;" xml:space="preserve">
<style type="text/css">
	.st0{fill:#009ADE;}
	.st1{fill:#003764;}
	.st2{fill:none;stroke:#E0E0E0;stroke-width:0.79;stroke-miterlimit:10;}
</style>
<g>
	<polygon class="st0" points="8.6,50.7 8.6,33.4 0,33.4 0,59.3 25.9,59.3 25.9,50.7 	"/>
	<polygon class="st1" points="43.2,16.1 0,16.1 0,29.1 8.6,29.1 8.6,24.8 34.5,24.8 34.5,50.7 30.2,50.7 30.2,59.3 43.2,59.3 	"/>
	<path class="st1" d="M51.9,16h13.3v32.2h19.2v11.1H51.9V16z"/>
	<path class="st1" d="M92.9,16h33.5V27h-20.1v5.4h17.3v10.3h-17.3v16.5H92.9V16z"/>
	<path class="st0" d="M146.1,36.3l-14.2-20.2h15.6l6.5,11.7l6.4-11.7h14.7l-13.8,20.3l15.4,22.8h-16l-7.4-12.9l-7.6,12.9h-15.2
		L146.1,36.3z"/>
	<line class="st2" x1="188.3" y1="72" x2="188.3" y2="0"/>
	<g>
		<path class="st0" d="M222.1,19.8c-4.8,0-8.6,1.6-11.4,4.8s-4.2,7.6-4.2,13.1c0,5.7,1.3,10.1,4,13.2c2.7,3.1,6.5,4.7,11.5,4.7
			c3,0,6.5-0.5,10.4-1.6v4.5c-3,1.1-6.8,1.7-11.2,1.7c-6.4,0-11.4-2-14.9-5.9c-3.5-3.9-5.2-9.4-5.2-16.6c0-4.5,0.8-8.4,2.5-11.8
			c1.7-3.4,4.1-6,7.3-7.8c3.2-1.8,6.9-2.7,11.2-2.7c4.6,0,8.6,0.8,12,2.5l-2.2,4.4C228.7,20.5,225.4,19.8,222.1,19.8z"/>
		<path class="st0" d="M269.5,43.1c0,5.3-1.3,9.5-4,12.5c-2.7,3-6.4,4.5-11.1,4.5c-2.9,0-5.5-0.7-7.8-2.1c-2.3-1.4-4-3.3-5.3-5.9
			c-1.2-2.6-1.9-5.6-1.9-9c0-5.3,1.3-9.5,4-12.5c2.7-3,6.4-4.5,11.1-4.5c4.6,0,8.2,1.5,10.9,4.6S269.5,37.9,269.5,43.1z M244.5,43.1
			c0,4.2,0.8,7.4,2.5,9.6s4.1,3.3,7.4,3.3c3.2,0,5.7-1.1,7.4-3.3c1.7-2.2,2.5-5.4,2.5-9.6c0-4.2-0.8-7.3-2.5-9.5
			c-1.7-2.2-4.2-3.2-7.5-3.2c-3.2,0-5.7,1.1-7.3,3.2C245.4,35.7,244.5,38.9,244.5,43.1z"/>
		<path class="st0" d="M319.9,59.5V38.2c0-2.6-0.6-4.6-1.7-5.9c-1.1-1.3-2.8-2-5.2-2c-3.1,0-5.4,0.9-6.8,2.7
			c-1.5,1.8-2.2,4.5-2.2,8.2v18.3h-5V38.2c0-2.6-0.6-4.6-1.7-5.9c-1.1-1.3-2.9-2-5.2-2c-3.1,0-5.4,0.9-6.8,2.8s-2.2,4.9-2.2,9.2
			v17.2h-5V26.8h4l0.8,4.5h0.2c0.9-1.6,2.3-2.8,4-3.7c1.7-0.9,3.6-1.3,5.7-1.3c5.1,0,8.5,1.9,10,5.6h0.2c1-1.7,2.4-3.1,4.2-4.1
			c1.9-1,4-1.5,6.3-1.5c3.7,0,6.5,1,8.3,2.9c1.8,1.9,2.8,4.9,2.8,9.1v21.4H319.9z"/>
		<path class="st0" d="M376.8,59.5V38.2c0-2.6-0.6-4.6-1.7-5.9c-1.1-1.3-2.8-2-5.2-2c-3.1,0-5.4,0.9-6.8,2.7
			c-1.5,1.8-2.2,4.5-2.2,8.2v18.3h-5V38.2c0-2.6-0.6-4.6-1.7-5.9c-1.1-1.3-2.9-2-5.2-2c-3.1,0-5.4,0.9-6.8,2.8s-2.2,4.9-2.2,9.2
			v17.2h-5V26.8h4l0.8,4.5h0.2c0.9-1.6,2.3-2.8,4-3.7c1.7-0.9,3.6-1.3,5.7-1.3c5.1,0,8.5,1.9,10,5.6h0.2c1-1.7,2.4-3.1,4.2-4.1
			c1.9-1,4-1.5,6.3-1.5c3.7,0,6.5,1,8.3,2.9c1.8,1.9,2.8,4.9,2.8,9.1v21.4H376.8z"/>
		<path class="st0" d="M396.6,26.8V48c0,2.7,0.6,4.7,1.8,6c1.2,1.3,3.1,2,5.7,2c3.4,0,5.9-0.9,7.5-2.8c1.6-1.9,2.4-4.9,2.4-9.2V26.8
			h5v32.7h-4.1l-0.7-4.4h-0.3c-1,1.6-2.4,2.8-4.2,3.7c-1.8,0.9-3.9,1.3-6.2,1.3c-4,0-7-0.9-8.9-2.8c-2-1.9-3-4.9-3-9.1V26.8H396.6z"
			/>
		<path class="st0" d="M451.9,59.5V38.3c0-2.7-0.6-4.7-1.8-6c-1.2-1.3-3.1-2-5.7-2c-3.4,0-5.9,0.9-7.5,2.8c-1.6,1.9-2.4,4.9-2.4,9.2
			v17.2h-5V26.8h4l0.8,4.5h0.2c1-1.6,2.4-2.9,4.3-3.7c1.8-0.9,3.9-1.3,6.1-1.3c3.9,0,6.9,1,8.9,2.9c2,1.9,3,4.9,3,9.1v21.4H451.9z"
			/>
		<path class="st0" d="M466.6,17.9c0-1.1,0.3-2,0.8-2.5s1.3-0.8,2.1-0.8c0.8,0,1.5,0.3,2.1,0.8c0.6,0.5,0.9,1.4,0.9,2.5
			s-0.3,1.9-0.9,2.5c-0.6,0.5-1.3,0.8-2.1,0.8c-0.8,0-1.5-0.3-2.1-0.8S466.6,19,466.6,17.9z M472,59.5h-5V26.8h5V59.5z"/>
		<path class="st0" d="M493.1,56c0.9,0,1.7-0.1,2.5-0.2c0.8-0.1,1.5-0.3,1.9-0.4v3.8c-0.5,0.3-1.3,0.5-2.4,0.6c-1,0.2-2,0.3-2.8,0.3
			c-6.3,0-9.5-3.3-9.5-10V30.6h-4.7v-2.4l4.7-2.1l2.1-7h2.9v7.6h9.5v3.9h-9.5v19.3c0,2,0.5,3.5,1.4,4.5
			C490.2,55.5,491.5,56,493.1,56z"/>
		<path class="st0" d="M498.9,26.8h5.3l7.2,18.7c1.6,4.3,2.5,7.3,2.9,9.2h0.2c0.3-1,0.8-2.8,1.6-5.2c0.8-2.5,3.5-10,8.1-22.7h5.3
			l-14.1,37.3c-1.4,3.7-3,6.3-4.9,7.8c-1.9,1.5-4.1,2.3-6.9,2.3c-1.5,0-3-0.2-4.5-0.5v-4c1.1,0.2,2.3,0.4,3.7,0.4
			c3.4,0,5.8-1.9,7.3-5.7l1.8-4.7L498.9,26.8z"/>
		<path class="st0" d="M570.9,59.5l-14.8-38.7h-0.2c0.3,3.1,0.4,6.7,0.4,10.9v27.8h-4.7V15.8h7.6l13.8,36h0.2l14-36h7.6v43.7h-5.1
			V31.4c0-3.2,0.1-6.7,0.4-10.5h-0.2L575,59.5H570.9z"/>
		<path class="st0" d="M626.2,59.5l-1-4.7H625c-1.6,2.1-3.3,3.4-4.9,4.2c-1.6,0.7-3.6,1.1-6.1,1.1c-3.2,0-5.8-0.8-7.6-2.5
			c-1.8-1.7-2.8-4.1-2.8-7.1c0-6.6,5.3-10.1,15.9-10.4l5.6-0.2v-2c0-2.6-0.6-4.5-1.7-5.7c-1.1-1.2-2.9-1.8-5.3-1.8
			c-2.7,0-5.8,0.8-9.3,2.5l-1.5-3.8c1.6-0.9,3.4-1.6,5.3-2.1c1.9-0.5,3.8-0.7,5.8-0.7c3.9,0,6.8,0.9,8.7,2.6s2.8,4.5,2.8,8.3v22.3
			H626.2z M615,56c3.1,0,5.5-0.8,7.3-2.5c1.8-1.7,2.6-4.1,2.6-7.1v-3l-5,0.2c-3.9,0.1-6.8,0.8-8.5,1.8c-1.7,1.1-2.6,2.8-2.6,5.1
			c0,1.8,0.5,3.2,1.6,4.1S613.1,56,615,56z"/>
		<path class="st0" d="M662.5,59.5V38.3c0-2.7-0.6-4.7-1.8-6c-1.2-1.3-3.1-2-5.7-2c-3.4,0-5.9,0.9-7.5,2.8c-1.6,1.9-2.4,4.9-2.4,9.2
			v17.2h-5V26.8h4l0.8,4.5h0.2c1-1.6,2.4-2.9,4.3-3.7c1.8-0.9,3.9-1.3,6.1-1.3c3.9,0,6.9,1,8.9,2.9c2,1.9,3,4.9,3,9.1v21.4H662.5z"
			/>
		<path class="st0" d="M697.8,59.5l-1-4.7h-0.2c-1.6,2.1-3.3,3.4-4.9,4.2c-1.6,0.7-3.6,1.1-6.1,1.1c-3.2,0-5.8-0.8-7.6-2.5
			c-1.8-1.7-2.8-4.1-2.8-7.1c0-6.6,5.3-10.1,15.9-10.4l5.6-0.2v-2c0-2.6-0.6-4.5-1.7-5.7c-1.1-1.2-2.9-1.8-5.3-1.8
			c-2.7,0-5.8,0.8-9.3,2.5l-1.5-3.8c1.6-0.9,3.4-1.6,5.3-2.1c1.9-0.5,3.8-0.7,5.8-0.7c3.9,0,6.8,0.9,8.7,2.6s2.8,4.5,2.8,8.3v22.3
			H697.8z M686.6,56c3.1,0,5.5-0.8,7.3-2.5c1.8-1.7,2.6-4.1,2.6-7.1v-3l-5,0.2c-3.9,0.1-6.8,0.8-8.5,1.8c-1.7,1.1-2.6,2.8-2.6,5.1
			c0,1.8,0.5,3.2,1.6,4.1S684.6,56,686.6,56z"/>
		<path class="st0" d="M738.5,26.8v3.1l-6.1,0.7c0.6,0.7,1.1,1.6,1.5,2.7c0.4,1.1,0.7,2.4,0.7,3.8c0,3.2-1.1,5.8-3.3,7.7
			c-2.2,1.9-5.2,2.9-9,2.9c-1,0-1.9-0.1-2.7-0.2c-2.1,1.1-3.2,2.5-3.2,4.2c0,0.9,0.4,1.6,1.1,2c0.7,0.4,2,0.6,3.8,0.6h5.8
			c3.5,0,6.3,0.7,8.2,2.2s2.9,3.7,2.9,6.5c0,3.6-1.5,6.4-4.4,8.3c-2.9,1.9-7.1,2.9-12.7,2.9c-4.3,0-7.6-0.8-9.9-2.4
			c-2.3-1.6-3.5-3.8-3.5-6.8c0-2,0.6-3.7,1.9-5.2c1.3-1.5,3.1-2.4,5.4-3c-0.8-0.4-1.5-1-2.1-1.8c-0.6-0.8-0.9-1.7-0.9-2.8
			c0-1.2,0.3-2.2,1-3.1c0.6-0.9,1.6-1.8,3-2.6c-1.7-0.7-3.1-1.9-4.1-3.6c-1.1-1.7-1.6-3.6-1.6-5.7c0-3.6,1.1-6.3,3.2-8.3
			c2.2-1.9,5.2-2.9,9.1-2.9c1.7,0,3.3,0.2,4.6,0.6H738.5z M712.3,65c0,1.8,0.7,3.1,2.2,4c1.5,0.9,3.6,1.4,6.4,1.4
			c4.2,0,7.2-0.6,9.2-1.9c2-1.2,3-2.9,3-5.1c0-1.8-0.5-3-1.6-3.7c-1.1-0.7-3.2-1-6.2-1h-5.9c-2.3,0-4,0.5-5.3,1.6
			C713,61.5,712.3,63,712.3,65z M715,37.3c0,2.3,0.6,4,1.9,5.2c1.3,1.2,3.1,1.8,5.4,1.8c4.8,0,7.3-2.3,7.3-7c0-4.9-2.4-7.4-7.3-7.4
			c-2.3,0-4.1,0.6-5.4,1.9C715.7,32.9,715,34.8,715,37.3z"/>
		<path class="st0" d="M759,60.1c-4.8,0-8.7-1.5-11.5-4.4s-4.2-7-4.2-12.3c0-5.3,1.3-9.5,3.9-12.6s6.1-4.7,10.5-4.7
			c4.1,0,7.3,1.3,9.7,4s3.6,6.3,3.6,10.7V44h-22.6c0.1,3.8,1.1,6.8,2.9,8.8c1.8,2,4.4,3,7.8,3c3.5,0,7-0.7,10.5-2.2V58
			c-1.8,0.8-3.4,1.3-5,1.6C763.1,59.9,761.2,60.1,759,60.1z M757.7,30.3c-2.6,0-4.7,0.9-6.3,2.6c-1.6,1.7-2.5,4.1-2.8,7.1h17.1
			c0-3.1-0.7-5.5-2.1-7.2C762.2,31.2,760.3,30.3,757.7,30.3z"/>
		<path class="st0" d="M821.2,59.5V38.2c0-2.6-0.6-4.6-1.7-5.9c-1.1-1.3-2.8-2-5.2-2c-3.1,0-5.4,0.9-6.8,2.7
			c-1.5,1.8-2.2,4.5-2.2,8.2v18.3h-5V38.2c0-2.6-0.6-4.6-1.7-5.9c-1.1-1.3-2.9-2-5.2-2c-3.1,0-5.4,0.9-6.8,2.8s-2.2,4.9-2.2,9.2
			v17.2h-5V26.8h4l0.8,4.5h0.2c0.9-1.6,2.3-2.8,4-3.7c1.7-0.9,3.6-1.3,5.7-1.3c5.1,0,8.5,1.9,10,5.6h0.2c1-1.7,2.4-3.1,4.2-4.1
			c1.9-1,4-1.5,6.3-1.5c3.7,0,6.5,1,8.3,2.9c1.8,1.9,2.8,4.9,2.8,9.1v21.4H821.2z"/>
		<path class="st0" d="M850.2,60.1c-4.8,0-8.7-1.5-11.5-4.4s-4.2-7-4.2-12.3c0-5.3,1.3-9.5,3.9-12.6s6.1-4.7,10.5-4.7
			c4.1,0,7.3,1.3,9.7,4s3.6,6.3,3.6,10.7V44h-22.6c0.1,3.8,1.1,6.8,2.9,8.8c1.8,2,4.4,3,7.8,3c3.5,0,7-0.7,10.5-2.2V58
			c-1.8,0.8-3.4,1.3-5,1.6C854.3,59.9,852.4,60.1,850.2,60.1z M848.9,30.3c-2.6,0-4.7,0.9-6.3,2.6c-1.6,1.7-2.5,4.1-2.8,7.1h17.1
			c0-3.1-0.7-5.5-2.1-7.2C853.5,31.2,851.5,30.3,848.9,30.3z"/>
		<path class="st0" d="M893.1,59.5V38.3c0-2.7-0.6-4.7-1.8-6c-1.2-1.3-3.1-2-5.7-2c-3.4,0-5.9,0.9-7.5,2.8c-1.6,1.9-2.4,4.9-2.4,9.2
			v17.2h-5V26.8h4l0.8,4.5h0.2c1-1.6,2.4-2.9,4.3-3.7c1.8-0.9,3.9-1.3,6.1-1.3c3.9,0,6.9,1,8.9,2.9c2,1.9,3,4.9,3,9.1v21.4H893.1z"
			/>
		<path class="st0" d="M918.8,56c0.9,0,1.7-0.1,2.5-0.2c0.8-0.1,1.5-0.3,1.9-0.4v3.8c-0.5,0.3-1.3,0.5-2.4,0.6c-1,0.2-2,0.3-2.8,0.3
			c-6.3,0-9.5-3.3-9.5-10V30.6h-4.7v-2.4l4.7-2.1l2.1-7h2.9v7.6h9.5v3.9h-9.5v19.3c0,2,0.5,3.5,1.4,4.5
			C915.9,55.5,917.2,56,918.8,56z"/>
	</g>
</g>
</svg>
