<svg width="24" height="24" viewBox="0 0 24 24" fill="none" xmlns="http://www.w3.org/2000/svg">
<path d="M12 24C18.6274 24 24 18.6274 24 12C24 5.37258 18.6274 0 12 0C5.37258 0 0 5.37258 0 12C0 18.6274 5.37258 24 12 24Z" fill="#FF4500"/>
<path d="M20.0048 12C20.0048 11.0263 19.2172 10.253 18.2578 10.253C17.7852 10.253 17.3556 10.4391 17.0406 10.7399C15.8377 9.88067 14.1909 9.3222 12.358 9.2506L13.1599 5.49881L15.7661 6.05728C15.7947 6.716 16.3389 7.24583 17.0119 7.24583C17.6993 7.24583 18.2578 6.68736 18.2578 6C18.2578 5.31265 17.6993 4.75418 17.0119 4.75418C16.5251 4.75418 16.0955 5.04058 15.895 5.45585L12.9881 4.8401C12.9021 4.82578 12.8162 4.8401 12.7589 4.88306C12.6873 4.92602 12.6444 4.99762 12.6301 5.08354L11.7422 9.26492C9.88066 9.3222 8.20525 9.88067 6.98806 10.7542C6.67303 10.4535 6.24343 10.2673 5.77088 10.2673C4.79713 10.2673 4.02386 11.0549 4.02386 12.0143C4.02386 12.7303 4.45346 13.3317 5.05489 13.6038C5.02625 13.7757 5.01193 13.9475 5.01193 14.1337C5.01193 16.8258 8.14797 19.0167 12.0143 19.0167C15.8807 19.0167 19.0167 16.8401 19.0167 14.1337C19.0167 13.9618 19.0024 13.7757 18.9737 13.6038C19.5752 13.3317 20.0048 12.716 20.0048 12ZM8.00477 13.2458C8.00477 12.5585 8.56324 12 9.25059 12C9.93794 12 10.4964 12.5585 10.4964 13.2458C10.4964 13.9332 9.93794 14.4917 9.25059 14.4917C8.56324 14.506 8.00477 13.9332 8.00477 13.2458ZM14.9785 16.5537C14.1193 17.4129 12.4869 17.4702 12.0143 17.4702C11.5274 17.4702 9.89498 17.3986 9.05012 16.5537C8.92124 16.4248 8.92124 16.2243 9.05012 16.0955C9.17899 15.9666 9.37947 15.9666 9.50835 16.0955C10.0525 16.6396 11.1981 16.8258 12.0143 16.8258C12.8305 16.8258 13.9904 16.6396 14.5203 16.0955C14.6492 15.9666 14.8496 15.9666 14.9785 16.0955C15.0931 16.2243 15.0931 16.4248 14.9785 16.5537ZM14.7494 14.506C14.062 14.506 13.5036 13.9475 13.5036 13.2601C13.5036 12.5728 14.062 12.0143 14.7494 12.0143C15.4368 12.0143 15.9952 12.5728 15.9952 13.2601C15.9952 13.9332 15.4368 14.506 14.7494 14.506Z" fill="white"/>
</svg>
