<svg width="16" height="16" viewBox="0 0 16 16" fill="none" xmlns="http://www.w3.org/2000/svg">
<path d="M9 1.33333C9 1.62949 8.87127 1.89559 8.66667 2.0787V3.33333H12C13.1046 3.33333 14 4.22876 14 5.33333V12C14 13.1046 13.1046 14 12 14H4C2.89543 14 2 13.1046 2 12V5.33333C2 4.22876 2.89543 3.33333 4 3.33333H7.33333V2.0787C7.12873 1.89559 7 1.62949 7 1.33333C7 0.781042 7.44773 0.333328 8 0.333328C8.55227 0.333328 9 0.781042 9 1.33333ZM4 4.66666C3.63181 4.66666 3.33333 4.96514 3.33333 5.33333V12C3.33333 12.3682 3.63181 12.6667 4 12.6667H12C12.3682 12.6667 12.6667 12.3682 12.6667 12V5.33333C12.6667 4.96514 12.3682 4.66666 12 4.66666H8.66667H7.33333H4ZM1.33333 6.66666H0V10.6667H1.33333V6.66666ZM14.6667 6.66666H16V10.6667H14.6667V6.66666ZM6 9.66666C6.55229 9.66666 7 9.21893 7 8.66666C7 8.1144 6.55229 7.66666 6 7.66666C5.44771 7.66666 5 8.1144 5 8.66666C5 9.21893 5.44771 9.66666 6 9.66666ZM10 9.66666C10.5523 9.66666 11 9.21893 11 8.66666C11 8.1144 10.5523 7.66666 10 7.66666C9.44773 7.66666 9 8.1144 9 8.66666C9 9.21893 9.44773 9.66666 10 9.66666Z" fill="#6B7280"/>
</svg>
