<svg width="120" height="148" viewBox="0 0 120 148" fill="none" xmlns="http://www.w3.org/2000/svg">
<path d="M60 0.666626L114.78 12.84C116.26 13.1691 117.584 13.9931 118.533 15.176C119.482 16.3589 120 17.8301 120 19.3466V85.9266C120 92.5115 118.373 98.9945 115.266 104.8C112.158 110.606 107.666 115.554 102.187 119.207L60 147.333L17.8133 119.207C12.3352 115.555 7.84307 110.607 4.73565 104.803C1.62824 98.9987 0.00157571 92.5171 0 85.9333V19.3466C0.000260252 17.8301 0.517586 16.3589 1.4666 15.176C2.41561 13.9931 3.73958 13.1691 5.22 12.84L60 0.666626ZM60 14.3266L13.3333 24.6933V85.9266C13.3334 90.3164 14.4172 94.6382 16.4884 98.5085C18.5597 102.379 21.5543 105.678 25.2067 108.113L60 131.313L94.7933 108.113C98.4447 105.679 101.439 102.381 103.51 98.5115C105.581 94.6424 106.665 90.3219 106.667 85.9333V24.6933L60 14.3333V14.3266ZM60 40.6666C62.9356 40.6653 65.7896 41.6328 68.1191 43.419C70.4487 45.2053 72.1237 47.7104 72.8842 50.5458C73.6447 53.3811 73.4482 56.3882 72.3252 59.1005C71.2023 61.8128 69.2156 64.0787 66.6733 65.5466L66.6667 94H53.3333V65.5466C50.7916 64.079 48.8052 61.8137 47.6821 59.1021C46.5589 56.3904 46.3619 53.384 47.1216 50.549C47.8812 47.714 49.5551 45.2089 51.8835 43.4221C54.212 41.6353 57.065 40.6668 60 40.6666Z" fill="#E5E7EB"/>
</svg>
