<svg width="300" height="187" viewBox="0 0 300 187" fill="none" xmlns="http://www.w3.org/2000/svg">
<g clip-path="url(#clip0_1789_16898)">
<path d="M259.286 124.758C258.981 124.263 258.789 123.707 258.723 123.131C258.657 122.554 258.719 121.969 258.904 121.419C259.089 120.868 259.393 120.365 259.794 119.944C260.196 119.523 260.685 119.195 261.227 118.983L260.664 104.881L266.964 108.672L266.533 121.483C266.83 122.414 266.774 123.422 266.375 124.315C265.976 125.208 265.263 125.925 264.369 126.328C263.476 126.732 262.465 126.795 261.528 126.506C260.591 126.216 259.793 125.594 259.286 124.758Z" fill="#A0616A"/>
<path d="M267.695 115.616L262.094 116.508C261.858 116.545 261.618 116.535 261.387 116.478C261.156 116.422 260.938 116.32 260.747 116.178C260.556 116.036 260.396 115.858 260.275 115.653C260.154 115.448 260.076 115.222 260.045 114.987L257.675 97.2018L245.966 81.2331C245.532 80.6417 245.225 79.968 245.062 79.2537C244.9 78.5393 244.886 77.7994 245.022 77.0795C245.158 76.3597 245.44 75.6751 245.851 75.0681C246.262 74.4611 246.794 73.9444 247.413 73.55L247.413 73.55C248.616 72.7841 250.074 72.5257 251.468 72.8316C252.862 73.1375 254.077 73.9826 254.845 75.1812L266.804 93.8303L269.184 113.65C269.2 113.776 269.201 113.904 269.19 114.031C269.153 114.423 268.986 114.792 268.715 115.079C268.444 115.366 268.085 115.555 267.695 115.616Z" fill="#E94F2E"/>
<path d="M248.385 181.626H243.526L241.215 162.949L248.386 162.95L248.385 181.626Z" fill="#A0616A"/>
<path d="M240.055 180.242H249.426V186.122H234.155C234.155 184.562 234.777 183.067 235.883 181.964C236.99 180.862 238.491 180.242 240.055 180.242Z" fill="#2F2E41"/>
<path d="M268.885 173.338L265.254 176.556L251.722 163.259L256.429 159.384L268.885 173.338Z" fill="#A0616A"/>
<path d="M261.739 177.822L268.74 171.615L272.661 176.008L261.252 186.123C260.737 185.546 260.341 184.873 260.087 184.144C259.832 183.415 259.725 182.642 259.77 181.872C259.815 181.101 260.012 180.346 260.35 179.652C260.688 178.957 261.16 178.335 261.739 177.822Z" fill="#2F2E41"/>
<path d="M199.557 74.8273C200.125 74.6955 200.714 74.6893 201.284 74.8091C201.854 74.929 202.391 75.1719 202.857 75.5209C203.322 75.8698 203.706 76.3163 203.98 76.8288C204.253 77.3413 204.411 77.9074 204.442 78.4872L218.046 82.4092L212.447 87.1688L200.386 82.7147C199.405 82.7012 198.463 82.3297 197.739 81.6704C197.015 81.0112 196.558 80.1101 196.456 79.1379C196.354 78.1656 196.613 77.1898 197.185 76.3953C197.756 75.6009 198.6 75.0429 199.557 74.8273V74.8273Z" fill="#A0616A"/>
<path d="M241.973 61.2927C247.349 61.2927 251.707 56.9496 251.707 51.5921C251.707 46.2347 247.349 41.8916 241.973 41.8916C236.597 41.8916 232.239 46.2347 232.239 51.5921C232.239 56.9496 236.597 61.2927 241.973 61.2927Z" fill="#A0616A"/>
<path d="M248.981 178.128L242.219 177.589C241.782 177.554 241.373 177.361 241.07 177.045C240.768 176.729 240.593 176.313 240.578 175.876L238.691 119.068C238.675 118.629 238.824 118.2 239.108 117.864C239.391 117.528 239.79 117.309 240.227 117.249L253.71 115.375C253.987 115.336 254.27 115.363 254.536 115.454C254.801 115.545 255.041 115.697 255.236 115.897C255.431 116.098 255.577 116.342 255.66 116.609C255.743 116.875 255.761 117.158 255.714 117.434L250.555 147.549C250.54 147.632 250.534 147.715 250.535 147.799L250.907 176.333C250.91 176.569 250.866 176.802 250.778 177.021C250.689 177.239 250.558 177.438 250.392 177.605C250.226 177.773 250.029 177.906 249.811 177.997C249.593 178.087 249.359 178.134 249.122 178.134C249.075 178.134 249.028 178.132 248.981 178.128Z" fill="#2F2E41"/>
<path d="M257.643 171.315L234.41 145.549C234.243 145.364 234.117 145.145 234.04 144.908C233.963 144.671 233.937 144.421 233.964 144.173L236.898 116.761C236.946 116.304 237.17 115.884 237.523 115.588C237.876 115.292 238.33 115.145 238.79 115.176L253.048 116.123C253.32 116.141 253.585 116.222 253.822 116.358C254.058 116.494 254.26 116.683 254.412 116.909C254.564 117.135 254.661 117.393 254.697 117.663C254.733 117.933 254.706 118.208 254.619 118.466L246.076 143.651C245.994 143.891 245.98 144.149 246.036 144.397C246.091 144.644 246.215 144.871 246.392 145.053L266.126 165.435C266.313 165.628 266.453 165.861 266.537 166.116C266.621 166.371 266.646 166.642 266.609 166.907C266.573 167.173 266.477 167.428 266.328 167.652C266.179 167.875 265.981 168.062 265.75 168.199L259.876 171.657C259.521 171.866 259.105 171.945 258.698 171.883C258.291 171.82 257.918 171.62 257.643 171.315L257.643 171.315Z" fill="#2F2E41"/>
<path d="M240.229 67.2849C240.229 67.2849 246.174 62.1504 248.948 64.9151C248.948 64.9151 261.828 73.0117 256.28 95.1293C256.28 95.1293 261.036 116.457 259.054 117.247C257.072 118.037 237.058 120.999 235.473 118.629C233.888 116.259 233.095 79.9235 240.229 67.2849Z" fill="#E94F2E"/>
<path d="M205.605 85.6663L206.525 80.0887C206.564 79.8545 206.649 79.6304 206.776 79.4296C206.903 79.2288 207.069 79.0554 207.265 78.9196C207.46 78.7838 207.681 78.6884 207.914 78.6389C208.146 78.5895 208.387 78.587 208.621 78.6317L226.302 82.0088L245.204 75.9815C245.904 75.7584 246.643 75.6805 247.374 75.7527C248.105 75.8248 248.814 76.0456 249.457 76.4012C250.099 76.7568 250.662 77.2398 251.11 77.8205C251.558 78.4011 251.882 79.067 252.062 79.7772L252.062 79.7768C252.411 81.1559 252.196 82.6168 251.465 83.8381C250.733 85.0594 249.545 85.9411 248.161 86.2892L226.628 91.7058L207.007 87.6959C206.881 87.6704 206.759 87.6317 206.642 87.5805C206.28 87.4217 205.982 87.1473 205.794 86.8006C205.606 86.454 205.54 86.0548 205.605 85.6663Z" fill="#E94F2E"/>
<path d="M246.15 59.4612C247.04 57.4096 247.793 54.6773 246.086 53.2268C245.097 52.3854 243.671 52.3837 242.375 52.279C238.722 51.9841 234.961 50.3091 233.176 47.1195C231.39 43.9299 232.387 39.187 235.756 37.7479C238.026 36.7779 240.63 37.4387 243.006 38.1104L250.142 40.127C252.263 40.7262 254.489 41.387 256.015 42.9713C258.45 45.4979 258.268 49.7691 256.334 52.6943C254.401 55.6195 251.489 58.6703 248.155 59.7809L246.15 59.4612Z" fill="#2F2E41"/>
<path d="M299.604 186.957H201.316C201.211 186.957 201.11 186.915 201.036 186.841C200.961 186.767 200.919 186.667 200.919 186.562C200.919 186.457 200.961 186.357 201.036 186.283C201.11 186.209 201.211 186.167 201.316 186.167H299.604C299.709 186.167 299.81 186.209 299.884 186.283C299.958 186.357 300 186.457 300 186.562C300 186.667 299.958 186.767 299.884 186.841C299.81 186.915 299.709 186.957 299.604 186.957Z" fill="#3F3D56"/>
<path d="M195.783 0H2.77425C2.03873 0.000813314 1.33356 0.292351 0.813459 0.810656C0.293362 1.32896 0.000816126 2.0317 0 2.76469V144.949C0.000816126 145.682 0.293362 146.385 0.813459 146.903C1.33356 147.421 2.03873 147.713 2.77425 147.714H195.783C196.519 147.713 197.224 147.421 197.744 146.903C198.264 146.385 198.556 145.682 198.557 144.949V2.76469C198.556 2.0317 198.264 1.32896 197.744 0.810656C197.224 0.292351 196.519 0.000813314 195.783 0ZM197.765 144.949C197.764 145.473 197.556 145.975 197.184 146.345C196.812 146.715 196.309 146.924 195.783 146.924H2.77425C2.24876 146.924 1.74485 146.715 1.37327 146.345C1.00169 145.975 0.792854 145.473 0.792644 144.949V2.76469C0.792854 2.24101 1.00169 1.73884 1.37327 1.36854C1.74485 0.998242 2.24876 0.790122 2.77425 0.789913H195.783C196.309 0.790122 196.812 0.998242 197.184 1.36854C197.556 1.73884 197.764 2.24101 197.765 2.76469V144.949Z" fill="#3F3D56"/>
<path d="M198.161 11.0742H0.396362V11.8641H198.161V11.0742Z" fill="#3F3D56"/>
<path d="M7.13379 8.29416C8.44709 8.29416 9.51172 7.23319 9.51172 5.92442C9.51172 4.61566 8.44709 3.55469 7.13379 3.55469C5.8205 3.55469 4.75586 4.61566 4.75586 5.92442C4.75586 7.23319 5.8205 8.29416 7.13379 8.29416Z" fill="#3F3D56"/>
<path d="M13.9703 8.29416C15.2836 8.29416 16.3483 7.23319 16.3483 5.92442C16.3483 4.61566 15.2836 3.55469 13.9703 3.55469C12.657 3.55469 11.5924 4.61566 11.5924 5.92442C11.5924 7.23319 12.657 8.29416 13.9703 8.29416Z" fill="#3F3D56"/>
<path d="M20.8069 8.29416C22.1202 8.29416 23.1848 7.23319 23.1848 5.92442C23.1848 4.61566 22.1202 3.55469 20.8069 3.55469C19.4936 3.55469 18.429 4.61566 18.429 5.92442C18.429 7.23319 19.4936 8.29416 20.8069 8.29416Z" fill="#3F3D56"/>
<path d="M119.619 122.952C119.514 122.952 119.413 122.91 119.339 122.836C119.264 122.762 119.223 122.662 119.223 122.557V106.364C119.223 106.259 119.264 106.159 119.339 106.084C119.413 106.01 119.514 105.969 119.619 105.969C119.724 105.969 119.825 106.01 119.899 106.084C119.974 106.159 120.015 106.259 120.015 106.364V122.557C120.015 122.662 119.974 122.762 119.899 122.836C119.825 122.91 119.724 122.952 119.619 122.952Z" fill="#3F3D56"/>
<path d="M119.076 100.044C119.006 100.044 118.937 100.026 118.877 99.9904L96.3595 86.9157C96.2688 86.8629 96.2029 86.7764 96.1762 86.6752C96.1495 86.574 96.1642 86.4663 96.2171 86.3759C96.2699 86.2855 96.3566 86.2196 96.4582 86.1928C96.5597 86.1661 96.6677 86.1805 96.7585 86.233L119.276 99.3077C119.351 99.3514 119.41 99.4186 119.443 99.499C119.476 99.5793 119.481 99.6683 119.459 99.7521C119.436 99.836 119.386 99.91 119.317 99.9627C119.248 100.015 119.163 100.044 119.076 100.044Z" fill="#3F3D56"/>
<path d="M74.0423 100.044C73.9552 100.045 73.8705 100.016 73.8012 99.9632C73.732 99.9104 73.6821 99.8364 73.6594 99.7526C73.6366 99.6688 73.6422 99.5798 73.6753 99.4994C73.7084 99.4191 73.7672 99.3519 73.8425 99.3081L96.3595 86.2335C96.4503 86.1813 96.5581 86.1671 96.6595 86.194C96.7608 86.2208 96.8473 86.2866 96.9 86.3769C96.9528 86.4671 96.9675 86.5746 96.941 86.6757C96.9145 86.7767 96.8489 86.8632 96.7585 86.9162L74.2414 99.9908C74.181 100.026 74.1123 100.044 74.0423 100.044Z" fill="#3F3D56"/>
<path d="M142.459 119.792C142.389 119.792 142.32 119.774 142.26 119.738L119.742 106.664C119.652 106.611 119.586 106.524 119.559 106.423C119.532 106.322 119.547 106.214 119.6 106.124C119.653 106.034 119.74 105.968 119.841 105.941C119.943 105.914 120.051 105.929 120.141 105.981L142.659 119.056C142.734 119.099 142.793 119.167 142.826 119.247C142.859 119.327 142.864 119.416 142.842 119.5C142.819 119.584 142.769 119.658 142.7 119.711C142.631 119.764 142.546 119.792 142.459 119.792V119.792Z" fill="#3F3D56"/>
<path d="M97.4254 119.792C97.3383 119.793 97.2535 119.764 97.1843 119.711C97.1151 119.658 97.0652 119.584 97.0424 119.501C97.0197 119.417 97.0253 119.328 97.0584 119.247C97.0915 119.167 97.1502 119.1 97.2255 119.056L119.743 105.982C119.833 105.929 119.941 105.915 120.043 105.942C120.144 105.969 120.23 106.035 120.283 106.125C120.336 106.215 120.351 106.323 120.324 106.424C120.298 106.525 120.232 106.611 120.142 106.664L97.6245 119.739C97.5641 119.774 97.4954 119.792 97.4254 119.792Z" fill="#3F3D56"/>
<path d="M96.6323 79.9015C96.5274 79.9015 96.4267 79.86 96.3524 79.7862C96.2781 79.7123 96.2363 79.6121 96.236 79.5075L96.1993 65.1362C96.1992 65.0843 96.2093 65.0329 96.2291 64.9849C96.2489 64.937 96.278 64.8933 96.3147 64.8566C96.3514 64.8198 96.3951 64.7906 96.4431 64.7707C96.4911 64.7507 96.5426 64.7404 96.5947 64.7402H96.5957C96.7006 64.7402 96.8013 64.7817 96.8756 64.8556C96.9499 64.9294 96.9917 65.0296 96.992 65.1342L97.0287 79.5056C97.0288 79.5574 97.0187 79.6088 96.9989 79.6568C96.9791 79.7048 96.95 79.7484 96.9133 79.7852C96.8766 79.8219 96.8329 79.8511 96.7849 79.8711C96.7369 79.891 96.6854 79.9014 96.6333 79.9015L96.6323 79.9015Z" fill="#3F3D56"/>
<path d="M101.758 87.3729H91.4332C90.9604 87.3723 90.5071 87.1849 90.1727 86.8517C89.8384 86.5185 89.6503 86.0668 89.6498 85.5956V80.3105C89.6503 79.8393 89.8384 79.3875 90.1727 79.0544C90.5071 78.7212 90.9604 78.5337 91.4332 78.5332H101.758C102.231 78.5337 102.684 78.7212 103.019 79.0544C103.353 79.3875 103.541 79.8393 103.542 80.3105V85.5956C103.541 86.0668 103.353 86.5185 103.019 86.8517C102.684 87.1849 102.231 87.3723 101.758 87.3729Z" fill="#CCCCCC"/>
<path d="M84.6693 60.5077H62.6998C62.5947 60.5077 62.4939 60.4661 62.4195 60.392C62.3452 60.3179 62.3035 60.2175 62.3035 60.1127C62.3035 60.008 62.3452 59.9075 62.4195 59.8335C62.4939 59.7594 62.5947 59.7178 62.6998 59.7178H84.6693C84.7744 59.7178 84.8752 59.7594 84.9495 59.8335C85.0239 59.9075 85.0656 60.008 85.0656 60.1127C85.0656 60.2175 85.0239 60.3179 84.9495 60.392C84.8752 60.4661 84.7744 60.5077 84.6693 60.5077Z" fill="#3F3D56"/>
<path d="M96.5957 54.8667C96.4906 54.8667 96.3898 54.8251 96.3154 54.751C96.2411 54.6769 96.1993 54.5765 96.1993 54.4717V40.8012C96.1993 40.6965 96.2411 40.596 96.3154 40.5219C96.3897 40.4479 96.4906 40.4062 96.5957 40.4062C96.7008 40.4062 96.8016 40.4479 96.8759 40.5219C96.9502 40.596 96.992 40.6965 96.992 40.8012V54.4717C96.992 54.5765 96.9502 54.6769 96.8759 54.751C96.8016 54.8251 96.7008 54.8667 96.5957 54.8667Z" fill="#3F3D56"/>
<path d="M54.1521 60.5081C54.0812 60.5081 54.0115 60.489 53.9504 60.4529L32.6224 47.8554C32.5322 47.8018 32.4671 47.7148 32.4412 47.6135C32.4153 47.5121 32.4308 47.4047 32.4843 47.3147C32.5378 47.2247 32.625 47.1596 32.7266 47.1335C32.8282 47.1075 32.9361 47.1227 33.0265 47.1758L54.3546 59.7733C54.4294 59.8175 54.4875 59.8849 54.52 59.9652C54.5525 60.0454 54.5577 60.1342 54.5347 60.2177C54.5117 60.3012 54.4618 60.3748 54.3927 60.4273C54.3235 60.4797 54.239 60.5081 54.1521 60.5081Z" fill="#3F3D56"/>
<path d="M32.8249 73.1052C32.738 73.1053 32.6535 73.077 32.5844 73.0245C32.5153 72.972 32.4654 72.8984 32.4424 72.8149C32.4194 72.7314 32.4245 72.6426 32.4571 72.5624C32.4896 72.4821 32.5477 72.4146 32.6225 72.3705L53.9505 59.773C54.041 59.7196 54.149 59.7041 54.2508 59.7301C54.3527 59.7561 54.44 59.8213 54.4936 59.9114C54.5472 60.0015 54.5627 60.1091 54.5366 60.2106C54.5106 60.3121 54.4451 60.3992 54.3547 60.4526L33.0266 73.0501C32.9656 73.0862 32.8959 73.1053 32.8249 73.1052Z" fill="#3F3D56"/>
<path d="M61.1145 66.8781H55.8112C55.3383 66.8776 54.885 66.6901 54.5506 66.357C54.2163 66.0238 54.0282 65.572 54.0277 65.1008V54.8115C54.0282 54.3403 54.2163 53.8885 54.5506 53.5553C54.885 53.2221 55.3383 53.0347 55.8112 53.0342H61.1145C61.5874 53.0347 62.0407 53.2221 62.375 53.5553C62.7094 53.8885 62.8975 54.3403 62.898 54.8115V65.1008C62.8975 65.572 62.7094 66.0238 62.375 66.357C62.0407 66.6901 61.5874 66.8776 61.1145 66.8781Z" fill="#CCCCCC"/>
<path d="M101.758 41.8633H91.4332C90.9604 41.8628 90.5071 41.6753 90.1727 41.3421C89.8384 41.009 89.6503 40.5572 89.6498 40.086V34.8007C89.6503 34.3295 89.8384 33.8778 90.1727 33.5446C90.5071 33.2114 90.9604 33.024 91.4332 33.0234H101.758C102.231 33.024 102.684 33.2114 103.019 33.5446C103.353 33.8778 103.541 34.3295 103.542 34.8007V40.086C103.541 40.5572 103.353 41.009 103.019 41.3421C102.684 41.6753 102.231 41.8628 101.758 41.8633Z" fill="#CCCCCC"/>
<path d="M31.3904 54.6349H26.087C25.6142 54.6344 25.1609 54.447 24.8265 54.1138C24.4922 53.7806 24.3041 53.3288 24.3036 52.8576V42.5683C24.3041 42.0971 24.4922 41.6454 24.8265 41.3122C25.1609 40.979 25.6142 40.7915 26.087 40.791H31.3904C31.8632 40.7915 32.3166 40.979 32.6509 41.3122C32.9853 41.6454 33.1733 42.0971 33.1739 42.5683V52.8576C33.1733 53.3288 32.9853 53.7806 32.6509 54.1138C32.3166 54.447 31.8632 54.6344 31.3904 54.6349Z" fill="#CCCCCC"/>
<path d="M31.3904 79.5168H26.087C25.6142 79.5162 25.1609 79.3288 24.8265 78.9956C24.4922 78.6624 24.3041 78.2107 24.3036 77.7395V67.4502C24.3041 66.9789 24.4922 66.5272 24.8265 66.194C25.1609 65.8608 25.6142 65.6734 26.087 65.6729H31.3904C31.8632 65.6734 32.3166 65.8608 32.6509 66.194C32.9853 66.5272 33.1733 66.9789 33.1739 67.4502V77.7395C33.1733 78.2107 32.9853 78.6624 32.6509 78.9956C32.3166 79.3288 31.8632 79.5162 31.3904 79.5168Z" fill="#CCCCCC"/>
<path d="M130.492 60.5077H108.522C108.417 60.5077 108.316 60.4661 108.242 60.392C108.167 60.3179 108.126 60.2175 108.126 60.1127C108.126 60.008 108.167 59.9075 108.242 59.8335C108.316 59.7594 108.417 59.7178 108.522 59.7178H130.492C130.597 59.7178 130.698 59.7594 130.772 59.8335C130.846 59.9075 130.888 60.008 130.888 60.1127C130.888 60.2175 130.846 60.3179 130.772 60.392C130.698 60.4661 130.597 60.5077 130.492 60.5077Z" fill="#3F3D56"/>
<path d="M139.039 60.5076C138.952 60.5077 138.868 60.4793 138.799 60.4268C138.73 60.3743 138.68 60.3007 138.657 60.2172C138.634 60.1337 138.639 60.0449 138.671 59.9646C138.704 59.8844 138.762 59.8169 138.837 59.7728L160.165 47.1753C160.21 47.1488 160.259 47.1315 160.311 47.1241C160.362 47.1168 160.415 47.1196 160.465 47.1324C160.516 47.1453 160.563 47.1679 160.605 47.199C160.646 47.2301 160.681 47.2691 160.708 47.3137C160.734 47.3584 160.752 47.4078 160.759 47.4591C160.767 47.5105 160.764 47.5628 160.751 47.613C160.738 47.6633 160.715 47.7105 160.684 47.752C160.653 47.7935 160.614 47.8284 160.569 47.8549L139.241 60.4524C139.18 60.4885 139.11 60.5076 139.039 60.5076Z" fill="#3F3D56"/>
<path d="M160.366 73.1052C160.295 73.1052 160.226 73.0862 160.165 73.0501L138.837 60.4525C138.746 60.3991 138.681 60.3121 138.655 60.2107C138.629 60.1092 138.644 60.0015 138.698 59.9114C138.751 59.8213 138.839 59.7561 138.941 59.7301C139.042 59.7041 139.15 59.7195 139.241 59.7729L160.569 72.3705C160.644 72.4146 160.702 72.482 160.734 72.5623C160.767 72.6426 160.772 72.7313 160.749 72.8148C160.726 72.8983 160.676 72.972 160.607 73.0245C160.538 73.077 160.453 73.1053 160.366 73.1052V73.1052Z" fill="#3F3D56"/>
<path d="M137.38 66.8781H132.077C131.604 66.8776 131.151 66.6901 130.816 66.357C130.482 66.0238 130.294 65.572 130.293 65.1008V54.8115C130.294 54.3403 130.482 53.8885 130.816 53.5553C131.151 53.2221 131.604 53.0347 132.077 53.0342H137.38C137.853 53.0347 138.306 53.2221 138.641 53.5553C138.975 53.8885 139.163 54.3403 139.164 54.8115V65.1008C139.163 65.572 138.975 66.0238 138.641 66.357C138.306 66.6901 137.853 66.8776 137.38 66.8781Z" fill="#CCCCCC"/>
<path d="M167.104 54.6349H161.801C161.328 54.6344 160.875 54.447 160.541 54.1138C160.206 53.7806 160.018 53.3288 160.018 52.8576V42.5683C160.018 42.0971 160.206 41.6454 160.541 41.3122C160.875 40.979 161.328 40.7915 161.801 40.791H167.104C167.577 40.7915 168.031 40.979 168.365 41.3122C168.699 41.6454 168.887 42.0971 168.888 42.5683V52.8576C168.887 53.3288 168.699 53.7806 168.365 54.1138C168.031 54.447 167.577 54.6344 167.104 54.6349Z" fill="#CCCCCC"/>
<path d="M167.104 79.5168H161.801C161.328 79.5162 160.875 79.3288 160.541 78.9956C160.206 78.6624 160.018 78.2107 160.018 77.7395V67.4502C160.018 66.9789 160.206 66.5272 160.541 66.194C160.875 65.8608 161.328 65.6734 161.801 65.6729H167.104C167.577 65.6734 168.031 65.8608 168.365 66.194C168.699 66.5272 168.887 66.9789 168.888 67.4502V77.7395C168.887 78.2107 168.699 78.6624 168.365 78.9956C168.031 79.3288 167.577 79.5162 167.104 79.5168Z" fill="#CCCCCC"/>
<path d="M78.7715 107.515H68.4465C67.9737 107.515 67.5204 107.328 67.186 106.994C66.8517 106.661 66.6636 106.209 66.6631 105.738V100.453C66.6636 99.9819 66.8517 99.5301 67.186 99.1969C67.5204 98.8637 67.9737 98.6763 68.4465 98.6758H78.7715C79.2444 98.6763 79.6977 98.8637 80.032 99.1969C80.3664 99.5301 80.5544 99.9819 80.555 100.453V105.738C80.5544 106.209 80.3664 106.661 80.032 106.994C79.6977 107.328 79.2444 107.515 78.7715 107.515Z" fill="#CCCCCC"/>
<path d="M124.672 107.515H114.347C113.874 107.515 113.42 107.327 113.086 106.994C112.752 106.661 112.564 106.209 112.563 105.738V100.453C112.564 99.9819 112.752 99.5301 113.086 99.1969C113.42 98.8637 113.874 98.6763 114.347 98.6758H124.672C125.144 98.6763 125.598 98.8637 125.932 99.1969C126.266 99.5301 126.454 99.9819 126.455 100.453V105.738C126.454 106.209 126.266 106.661 125.932 106.994C125.598 107.327 125.144 107.515 124.672 107.515Z" fill="#CCCCCC"/>
<path d="M103.667 126.868H93.3416C92.8687 126.867 92.4154 126.68 92.081 126.347C91.7467 126.014 91.5586 125.562 91.5581 125.091V119.806C91.5586 119.334 91.7467 118.883 92.081 118.549C92.4154 118.216 92.8687 118.029 93.3416 118.028H103.667C104.139 118.029 104.593 118.216 104.927 118.549C105.261 118.883 105.449 119.334 105.45 119.806V125.091C105.449 125.562 105.261 126.014 104.927 126.347C104.593 126.68 104.139 126.867 103.667 126.868Z" fill="#CCCCCC"/>
<path d="M147.658 126.868H137.333C136.86 126.867 136.407 126.68 136.073 126.347C135.738 126.014 135.55 125.562 135.55 125.091V119.806C135.55 119.334 135.738 118.883 136.073 118.549C136.407 118.216 136.86 118.029 137.333 118.028H147.658C148.131 118.029 148.584 118.216 148.919 118.549C149.253 118.883 149.441 119.334 149.442 119.806V125.091C149.441 125.562 149.253 126.014 148.919 126.347C148.584 126.68 148.131 126.867 147.658 126.868Z" fill="#CCCCCC"/>
<path d="M124.672 126.868H114.347C113.874 126.867 113.42 126.68 113.086 126.347C112.752 126.014 112.564 125.562 112.563 125.091V119.806C112.564 119.334 112.752 118.883 113.086 118.549C113.42 118.216 113.874 118.029 114.347 118.028H124.672C125.144 118.029 125.598 118.216 125.932 118.549C126.266 118.883 126.454 119.334 126.455 119.806V125.091C126.454 125.562 126.266 126.014 125.932 126.347C125.598 126.68 125.144 126.867 124.672 126.868Z" fill="#CCCCCC"/>
<path d="M109.147 66.9835H84.0444C83.5716 66.983 83.1183 66.7956 82.7839 66.4624C82.4496 66.1292 82.2615 65.6774 82.261 65.2062V55.0195C82.2615 54.5483 82.4496 54.0965 82.7839 53.7633C83.1183 53.4301 83.5716 53.2427 84.0444 53.2422H109.147C109.62 53.2427 110.073 53.4301 110.407 53.7633C110.742 54.0965 110.93 54.5483 110.93 55.0195V65.2062C110.93 65.6774 110.742 66.1292 110.407 66.4624C110.073 66.7956 109.62 66.983 109.147 66.9835Z" fill="#E94F2E"/>
</g>
<defs>
<clipPath id="clip0_1789_16898">
<rect width="300" height="186.957" fill="white"/>
</clipPath>
</defs>
</svg>
