<svg width="300" height="229" viewBox="0 0 300 229" fill="none" xmlns="http://www.w3.org/2000/svg">
<g clip-path="url(#clip0_1749_9531)">
<path d="M211.057 175.704C184.541 175.704 160.58 157.309 154.623 130.372C149.108 105.436 164.909 80.6624 189.845 75.1476C194.605 74.0949 199.526 73.99 204.326 74.839C209.127 75.688 213.713 77.4743 217.824 80.0958C221.934 82.7173 225.487 86.1227 228.282 90.1176C231.076 94.1125 233.056 98.6186 234.108 103.379C235.804 111.087 234.373 119.153 230.129 125.807C225.885 132.461 219.175 137.16 211.47 138.873C206.147 140.029 200.59 139.34 195.71 136.92C190.831 134.5 186.919 130.492 184.618 125.556C184.598 125.514 184.587 125.468 184.585 125.422C184.583 125.376 184.591 125.33 184.606 125.286C184.622 125.243 184.647 125.203 184.678 125.169C184.71 125.135 184.747 125.108 184.789 125.088C184.831 125.069 184.877 125.058 184.923 125.056C184.969 125.055 185.015 125.062 185.059 125.078C185.102 125.094 185.142 125.119 185.176 125.151C185.21 125.182 185.237 125.22 185.256 125.262C187.489 130.054 191.286 133.943 196.022 136.292C200.758 138.641 206.152 139.309 211.319 138.187C218.841 136.515 225.393 131.927 229.537 125.429C233.681 118.932 235.078 111.057 233.423 103.53C231.337 94.0988 225.59 85.8822 217.446 80.6881C209.302 75.4939 199.428 73.7477 189.996 75.8335C178.191 78.4583 167.91 85.6585 161.407 95.8545C154.904 106.051 152.711 118.41 155.309 130.221C162.108 160.965 192.652 180.447 223.397 173.647C233.555 171.408 243.101 166.975 251.366 160.66C259.631 154.344 266.415 146.299 271.245 137.086C271.266 137.045 271.295 137.009 271.331 136.979C271.366 136.949 271.407 136.927 271.451 136.913C271.495 136.9 271.542 136.895 271.588 136.899C271.634 136.903 271.679 136.916 271.72 136.938C271.76 136.959 271.797 136.989 271.826 137.024C271.856 137.06 271.878 137.101 271.892 137.145C271.905 137.189 271.91 137.235 271.906 137.281C271.901 137.327 271.888 137.372 271.867 137.413C266.99 146.716 260.138 154.841 251.792 161.218C243.446 167.596 233.807 172.072 223.549 174.333C219.447 175.243 215.259 175.702 211.057 175.704Z" fill="#F6B9AB"/>
<path d="M279.391 96.644C279.304 96.6439 279.221 96.6118 279.156 96.5539C279.092 96.496 279.051 96.4163 279.042 96.3302C278.756 93.6756 278.324 91.0387 277.748 88.4317C268.575 46.9582 231.144 17.4537 188.745 18.3161C188.652 18.3179 188.562 18.2827 188.494 18.2182C188.427 18.1536 188.388 18.065 188.387 17.9719C188.385 17.8788 188.42 17.7887 188.484 17.7215C188.549 17.6544 188.638 17.6156 188.731 17.6137C209.542 17.2272 229.846 24.0537 246.196 36.9344C262.547 49.8152 273.937 67.9567 278.433 88.2801C279.015 90.9125 279.452 93.575 279.74 96.2555C279.745 96.3013 279.741 96.3477 279.728 96.3919C279.715 96.4361 279.693 96.4774 279.665 96.5133C279.636 96.5492 279.6 96.579 279.559 96.6011C279.519 96.6232 279.474 96.6371 279.429 96.642C279.416 96.6433 279.403 96.644 279.391 96.644Z" fill="#F6B9AB"/>
<path d="M85.7077 154.239C85.6277 154.239 85.5502 154.212 85.488 154.162C85.4257 154.112 85.3824 154.042 85.3651 153.964C80.945 134.046 82.0259 113.3 88.492 93.9496C94.9582 74.5987 106.566 57.3711 122.073 44.1116C122.108 44.0812 122.148 44.0581 122.192 44.0435C122.236 44.0289 122.283 44.0232 122.329 44.0266C122.375 44.03 122.42 44.0425 122.461 44.0634C122.503 44.0843 122.539 44.1131 122.57 44.1483C122.6 44.1834 122.623 44.2242 122.637 44.2682C122.651 44.3123 122.657 44.3587 122.653 44.4048C122.649 44.451 122.636 44.496 122.615 44.5372C122.594 44.5784 122.565 44.615 122.53 44.6449C107.12 57.8217 95.5843 74.9419 89.1584 94.1721C82.7325 113.402 81.6583 134.018 86.0509 153.812C86.0623 153.864 86.062 153.917 86.05 153.968C86.0381 154.019 86.0148 154.067 85.9818 154.108C85.9489 154.149 85.9071 154.182 85.8597 154.205C85.8122 154.228 85.7603 154.239 85.7077 154.239Z" fill="#F6B9AB"/>
<path d="M182.767 56.5418H127.982C126.399 56.54 124.881 55.9104 123.762 54.7911C122.643 53.6719 122.013 52.1544 122.011 50.5715V5.97025C122.013 4.38738 122.643 2.86986 123.762 1.75061C124.881 0.631357 126.399 0.0017819 127.982 0H182.767C184.35 0.0017819 185.868 0.631357 186.987 1.75061C188.106 2.86986 188.736 4.38738 188.738 5.97025V50.5715C188.736 52.1544 188.106 53.6719 186.987 54.7911C185.868 55.9104 184.35 56.54 182.767 56.5418ZM127.982 0.702382C126.585 0.703962 125.246 1.25948 124.258 2.24705C123.271 3.23462 122.715 4.57361 122.714 5.97025V50.5715C122.715 51.9682 123.271 53.3071 124.258 54.2947C125.246 55.2823 126.585 55.8378 127.982 55.8394H182.767C184.164 55.8378 185.503 55.2823 186.491 54.2947C187.478 53.3071 188.034 51.9682 188.035 50.5715V5.97025C188.034 4.57361 187.478 3.23462 186.491 2.24705C185.503 1.25948 184.164 0.703962 182.767 0.702382H127.982Z" fill="#3F3D56"/>
<path d="M176.54 13.3938H148.891C148.648 13.3987 148.412 13.3112 148.231 13.1489C148.05 12.9866 147.937 12.7617 147.916 12.5196C147.909 12.3943 147.928 12.2689 147.971 12.1511C148.015 12.0333 148.081 11.9256 148.168 11.8345C148.254 11.7434 148.358 11.6709 148.473 11.6213C148.589 11.5717 148.713 11.5461 148.838 11.5461H176.984C177.911 12.3609 177.346 13.3938 176.54 13.3938L176.54 13.3938Z" fill="#CCCCCC"/>
<path d="M176.54 18.2436H148.891C148.648 18.2485 148.412 18.161 148.231 17.9988C148.05 17.8365 147.937 17.6116 147.916 17.3695C147.909 17.2442 147.928 17.1188 147.971 17.001C148.015 16.8832 148.081 16.7755 148.168 16.6844C148.254 16.5933 148.358 16.5207 148.473 16.4712C148.589 16.4216 148.713 16.396 148.838 16.396H176.984C177.911 17.2108 177.346 18.2436 176.54 18.2436H176.54Z" fill="#CCCCCC"/>
<path d="M142.913 21.0051H134.475C134.199 21.0048 133.935 20.8953 133.74 20.7004C133.546 20.5056 133.436 20.2415 133.436 19.9659V10.0079C133.436 9.7324 133.546 9.46825 133.74 9.27343C133.935 9.0786 134.199 8.96903 134.475 8.96875H142.913C143.189 8.96912 143.453 9.07873 143.648 9.27353C143.843 9.46833 143.952 9.73243 143.953 10.0079V19.9659C143.952 20.2415 143.843 20.5056 143.648 20.7004C143.453 20.8953 143.189 21.0048 142.913 21.0051Z" fill="#E94F2E"/>
<path d="M176.46 28.174H134.261C134.018 28.179 133.783 28.0914 133.602 27.9292C133.421 27.7669 133.308 27.542 133.287 27.2999C133.28 27.1746 133.299 27.0492 133.342 26.9314C133.385 26.8136 133.452 26.7059 133.539 26.6148C133.625 26.5237 133.729 26.4512 133.844 26.4016C133.959 26.352 134.084 26.3264 134.209 26.3264H176.904C177.831 27.1412 177.266 28.174 176.46 28.174V28.174Z" fill="#CCCCCC"/>
<path d="M176.46 33.0253H134.261C134.018 33.0303 133.783 32.9428 133.602 32.7805C133.421 32.6182 133.308 32.3933 133.287 32.1512C133.28 32.0259 133.299 31.9005 133.342 31.7827C133.385 31.6649 133.452 31.5572 133.539 31.4661C133.625 31.375 133.729 31.3025 133.844 31.2529C133.959 31.2033 134.084 31.1777 134.209 31.1777H176.904C177.831 31.9925 177.266 33.0254 176.46 33.0254V33.0253Z" fill="#CCCCCC"/>
<path d="M176.46 37.8735H134.261C134.018 37.8784 133.783 37.7909 133.602 37.6286C133.421 37.4664 133.308 37.2415 133.287 36.9994C133.28 36.874 133.299 36.7487 133.342 36.6309C133.385 36.5131 133.452 36.4054 133.539 36.3143C133.625 36.2232 133.729 36.1506 133.844 36.101C133.959 36.0515 134.084 36.0259 134.209 36.0259H176.904C177.831 36.8406 177.266 37.8735 176.46 37.8735V37.8735Z" fill="#CCCCCC"/>
<path d="M176.46 42.7245H134.261C134.018 42.7295 133.783 42.642 133.602 42.4797C133.421 42.3174 133.308 42.0925 133.287 41.8504C133.28 41.7251 133.299 41.5997 133.342 41.482C133.385 41.3642 133.452 41.2564 133.539 41.1653C133.625 41.0742 133.729 41.0017 133.844 40.9521C133.959 40.9025 134.084 40.877 134.209 40.877H176.904C177.831 41.6917 177.266 42.7246 176.46 42.7246V42.7245Z" fill="#CCCCCC"/>
<path d="M176.46 47.5729H134.261C134.018 47.5779 133.783 47.4904 133.602 47.3281C133.421 47.1658 133.308 46.9409 133.287 46.6988C133.28 46.5735 133.299 46.4481 133.342 46.3303C133.385 46.2126 133.452 46.1048 133.539 46.0137C133.625 45.9226 133.729 45.8501 133.844 45.8005C133.959 45.7509 134.084 45.7253 134.209 45.7253H176.904C177.831 46.5401 177.266 47.573 176.46 47.573V47.5729Z" fill="#CCCCCC"/>
<path d="M295.324 137.6H255.64C254.4 137.599 253.211 137.106 252.335 136.229C251.458 135.353 250.965 134.164 250.964 132.925V100.617C250.965 99.3775 251.458 98.189 252.335 97.3125C253.211 96.4359 254.4 95.9428 255.64 95.9414H295.324C296.564 95.9428 297.752 96.4359 298.629 97.3124C299.506 98.189 299.999 99.3775 300 100.617V132.925C299.999 134.164 299.506 135.353 298.629 136.229C297.752 137.106 296.564 137.599 295.324 137.6ZM255.64 96.6438C254.586 96.645 253.576 97.064 252.831 97.8089C252.086 98.5538 251.667 99.5637 251.666 100.617V132.925C251.667 133.978 252.086 134.988 252.831 135.733C253.576 136.478 254.586 136.897 255.64 136.898H295.324C296.378 136.897 297.388 136.478 298.133 135.733C298.877 134.988 299.296 133.978 299.298 132.925V100.617C299.296 99.5637 298.877 98.5537 298.133 97.8088C297.388 97.0639 296.378 96.6449 295.324 96.6438L255.64 96.6438Z" fill="#3F3D56"/>
<path d="M290.814 105.995H270.785C270.609 105.998 270.438 105.935 270.307 105.817C270.176 105.7 270.095 105.537 270.079 105.361C270.074 105.271 270.088 105.18 270.119 105.094C270.151 105.009 270.199 104.931 270.262 104.865C270.324 104.799 270.399 104.747 270.483 104.711C270.566 104.675 270.656 104.656 270.747 104.656H291.135C291.807 105.246 291.397 105.995 290.813 105.995L290.814 105.995Z" fill="#CCCCCC"/>
<path d="M290.814 109.508H270.785C270.609 109.511 270.438 109.448 270.307 109.33C270.176 109.213 270.095 109.05 270.079 108.875C270.074 108.784 270.088 108.693 270.119 108.608C270.151 108.522 270.199 108.444 270.262 108.378C270.324 108.312 270.399 108.26 270.483 108.224C270.566 108.188 270.656 108.169 270.747 108.169H291.135C291.807 108.76 291.397 109.508 290.813 109.508L290.814 109.508Z" fill="#CCCCCC"/>
<path d="M266.456 111.508H260.343C260.143 111.508 259.952 111.428 259.811 111.287C259.67 111.146 259.591 110.955 259.59 110.755V103.542C259.591 103.342 259.67 103.151 259.811 103.01C259.952 102.869 260.143 102.79 260.343 102.789H266.456C266.655 102.79 266.846 102.869 266.987 103.01C267.129 103.151 267.208 103.342 267.208 103.542V110.755C267.208 110.955 267.129 111.146 266.988 111.287C266.846 111.428 266.655 111.508 266.456 111.508Z" fill="#E94F2E"/>
<path d="M290.755 116.701H260.188C260.012 116.704 259.841 116.641 259.71 116.524C259.579 116.406 259.498 116.243 259.482 116.068C259.477 115.977 259.491 115.886 259.522 115.801C259.554 115.715 259.602 115.637 259.665 115.571C259.727 115.505 259.803 115.453 259.886 115.417C259.97 115.381 260.06 115.363 260.15 115.363H291.077C291.749 115.953 291.339 116.701 290.755 116.701V116.701Z" fill="#CCCCCC"/>
<path d="M290.755 120.215H260.188C260.012 120.219 259.841 120.155 259.71 120.038C259.579 119.92 259.498 119.757 259.482 119.582C259.477 119.491 259.491 119.4 259.522 119.315C259.554 119.23 259.602 119.152 259.665 119.086C259.727 119.02 259.803 118.967 259.886 118.931C259.97 118.895 260.06 118.877 260.15 118.877H291.077C291.749 119.467 291.339 120.215 290.755 120.215V120.215Z" fill="#CCCCCC"/>
<path d="M290.755 123.727H260.188C260.012 123.73 259.841 123.667 259.71 123.549C259.579 123.432 259.498 123.269 259.482 123.094C259.477 123.003 259.491 122.912 259.522 122.827C259.554 122.741 259.602 122.663 259.665 122.597C259.727 122.531 259.803 122.479 259.886 122.443C259.97 122.407 260.06 122.388 260.15 122.388H291.077C291.749 122.979 291.339 123.727 290.755 123.727V123.727Z" fill="#CCCCCC"/>
<path d="M290.755 127.241H260.188C260.012 127.244 259.841 127.181 259.71 127.063C259.579 126.946 259.498 126.783 259.482 126.608C259.477 126.517 259.491 126.426 259.522 126.341C259.554 126.255 259.602 126.177 259.665 126.111C259.727 126.045 259.803 125.993 259.886 125.957C259.97 125.921 260.06 125.902 260.15 125.902H291.077C291.749 126.493 291.339 127.241 290.755 127.241V127.241Z" fill="#CCCCCC"/>
<path d="M290.755 130.753H260.188C260.012 130.756 259.841 130.693 259.71 130.576C259.579 130.458 259.498 130.295 259.482 130.12C259.477 130.029 259.491 129.938 259.522 129.853C259.554 129.767 259.602 129.689 259.665 129.623C259.727 129.557 259.803 129.505 259.886 129.469C259.97 129.433 260.06 129.415 260.15 129.415H291.077C291.749 130.005 291.339 130.753 290.755 130.753V130.753Z" fill="#CCCCCC"/>
<path d="M197.806 125.891H172.646C171.826 125.89 171.04 125.564 170.46 124.984C169.88 124.404 169.554 123.618 169.553 122.798V102.315C169.554 101.495 169.88 100.709 170.46 100.129C171.04 99.5495 171.826 99.2233 172.646 99.2224H197.806C198.626 99.2233 199.412 99.5495 199.992 100.129C200.572 100.709 200.898 101.495 200.899 102.315V122.798C200.898 123.618 200.572 124.404 199.992 124.984C199.412 125.564 198.626 125.89 197.806 125.891ZM172.646 99.9248C172.012 99.9255 171.404 100.178 170.956 100.626C170.508 101.074 170.256 101.682 170.255 102.315V122.798C170.256 123.432 170.508 124.039 170.956 124.488C171.404 124.936 172.012 125.188 172.646 125.189H197.806C198.439 125.188 199.047 124.936 199.495 124.488C199.943 124.039 200.196 123.432 200.196 122.798V102.315C200.196 101.682 199.943 101.074 199.495 100.626C199.047 100.178 198.439 99.9255 197.806 99.9248H172.646Z" fill="#3F3D56"/>
<path d="M193.83 114.752H176.622C176.202 114.752 175.8 114.585 175.504 114.289C175.208 113.993 175.041 113.591 175.041 113.171C175.041 112.752 175.208 112.35 175.504 112.054C175.8 111.758 176.202 111.591 176.622 111.591H193.83C194.249 111.591 194.651 111.758 194.947 112.054C195.244 112.35 195.41 112.752 195.41 113.171C195.41 113.591 195.244 113.993 194.947 114.289C194.651 114.585 194.249 114.752 193.83 114.752Z" fill="#E94F2E"/>
<path d="M190.318 108.255H180.133C179.714 108.255 179.312 108.088 179.016 107.792C178.72 107.495 178.553 107.093 178.553 106.674C178.553 106.255 178.72 105.853 179.016 105.557C179.312 105.26 179.714 105.094 180.133 105.094H190.318C190.737 105.094 191.139 105.26 191.436 105.557C191.732 105.853 191.898 106.255 191.898 106.674C191.898 107.093 191.732 107.495 191.436 107.792C191.139 108.088 190.737 108.255 190.318 108.255Z" fill="#E94F2E"/>
<path d="M193.83 120.02H176.622C176.202 120.02 175.8 119.853 175.504 119.557C175.208 119.26 175.041 118.858 175.041 118.439C175.041 118.02 175.208 117.618 175.504 117.322C175.8 117.025 176.202 116.859 176.622 116.859H193.83C194.249 116.859 194.651 117.025 194.947 117.322C195.244 117.618 195.41 118.02 195.41 118.439C195.41 118.858 195.244 119.26 194.947 119.557C194.651 119.853 194.249 120.02 193.83 120.02Z" fill="#E94F2E"/>
<path d="M44.3896 166.325C44.1467 165.869 44.0066 165.366 43.9792 164.851C43.9518 164.335 44.0378 163.82 44.2311 163.341C44.4244 162.862 44.7203 162.432 45.098 162.08C45.4756 161.728 45.9259 161.463 46.417 161.304L46.6758 148.757L52.0449 152.458L50.9761 163.806C51.1887 164.649 51.0849 165.54 50.6841 166.311C50.2834 167.083 49.6137 167.68 48.8018 167.991C47.9899 168.301 47.0924 168.303 46.2792 167.996C45.466 167.689 44.7937 167.095 44.3896 166.325H44.3896Z" fill="#DFC1C6"/>
<path d="M50.3265 118.012L45.071 157.525L51.3977 157.764L56.6851 116.284L55.4161 115.536C54.9333 115.251 54.3875 115.09 53.8274 115.067C53.2673 115.045 52.7104 115.162 52.2063 115.407C51.7023 115.652 51.2668 116.018 50.9388 116.473C50.6107 116.927 50.4004 117.456 50.3265 118.012Z" fill="#ED7258"/>
<path d="M67.1 223.903L71.4052 223.902L73.4537 207.295L67.0989 207.296L67.1 223.903Z" fill="#A0616A"/>
<path d="M79.709 227.9L66.1774 227.901L66.1771 222.672L74.4806 222.672C75.8672 222.672 77.197 223.223 78.1776 224.203C79.1581 225.184 79.709 226.513 79.709 227.9Z" fill="#2F2E41"/>
<path d="M31.2774 218.757L35.1844 220.565L44.0204 206.356L38.2538 203.687L31.2774 218.757Z" fill="#A0616A"/>
<path d="M41.0401 227.682L28.7605 221.997L30.9568 217.253L38.492 220.741C39.7503 221.324 40.7257 222.382 41.2036 223.684C41.6814 224.986 41.6226 226.424 41.0401 227.682Z" fill="#2F2E41"/>
<path d="M71.6135 220.393C71.5505 220.393 71.4875 220.39 71.4249 220.382L68.0185 219.982C67.6603 219.938 67.3275 219.774 67.0751 219.516C66.8227 219.257 66.6657 218.921 66.6299 218.562L62.5409 175.667C62.5302 175.555 62.4839 175.449 62.4088 175.366C62.3337 175.282 62.2337 175.224 62.1235 175.201C62.0133 175.179 61.8987 175.192 61.7964 175.239C61.6942 175.286 61.6097 175.364 61.5553 175.463L38.8048 216.681C38.6337 216.993 38.362 217.238 38.0339 217.376C37.7059 217.513 37.3408 217.536 36.9982 217.44L33.1715 216.377C32.965 216.32 32.7722 216.221 32.605 216.087C32.4378 215.953 32.2996 215.786 32.1989 215.597C32.0982 215.407 32.0371 215.2 32.0193 214.986C32.0015 214.772 32.0273 214.557 32.0952 214.354C35.4279 204.382 52.1249 154.406 53.5525 149.806C55.2583 144.31 67.9916 142.144 69.0888 141.967L69.719 141.337L69.8404 141.5C75.4607 149.066 78.1803 159.086 77.4982 169.715L77.4979 169.719L73.1839 218.951C73.1493 219.344 72.9691 219.71 72.6785 219.977C72.388 220.244 72.0081 220.392 71.6135 220.393Z" fill="#2F2E41"/>
<path d="M53.6678 109.013C58.4316 109.013 62.2934 105.151 62.2934 100.387C62.2934 95.6235 58.4316 91.7617 53.6678 91.7617C48.904 91.7617 45.0422 95.6235 45.0422 100.387C45.0422 105.151 48.904 109.013 53.6678 109.013Z" fill="#DFC1C6"/>
<path d="M54.1079 148.484L48.9898 121.807C48.5615 119.554 49.0058 117.222 50.2327 115.283C51.4595 113.345 53.3771 111.946 55.5972 111.368C56.9692 111.012 58.4126 111.036 59.7719 111.438C61.1313 111.84 62.3552 112.606 63.312 113.652C65.9246 116.504 69.243 120.654 70.2166 124.231C71.0407 127.267 73.3601 138.646 73.3834 138.76L73.4018 138.851L73.3377 138.917C73.3255 138.93 72.0828 140.214 70.1486 141.817C69.0136 142.758 67.8535 143.631 66.7005 144.412C63.4631 146.598 54.6548 148.375 54.2814 148.45L54.1079 148.484Z" fill="#ED7258"/>
<path opacity="0.2" d="M66.602 144.267C67.8872 143.396 69.0533 142.497 70.0365 141.682C69.6819 136.435 61.9521 125.45 58.8195 125.45C58.8195 125.45 58.0785 142.381 66.602 144.267Z" fill="black"/>
<path d="M82.5123 158.047C82.0269 157.871 81.5861 157.591 81.2207 157.226C80.8554 156.861 80.5745 156.421 80.3978 155.936C80.2211 155.45 80.1529 154.932 80.1981 154.418C80.2432 153.904 80.4006 153.406 80.659 152.959L72.4556 143.461L78.9226 142.62L85.7212 151.768C86.4432 152.252 86.9626 152.984 87.181 153.825C87.3993 154.666 87.3014 155.559 86.9059 156.333C86.5103 157.107 85.8446 157.709 85.0348 158.025C84.2251 158.341 83.3275 158.348 82.5123 158.047H82.5123Z" fill="#DFC1C6"/>
<path d="M59.5774 111.938C59.9347 111.946 60.2905 111.986 60.6402 112.06C61.3481 112.222 62.0048 112.557 62.5514 113.035C63.098 113.513 63.5175 114.119 63.7721 114.799L73.9137 135.986L84.8006 147.575L79.3572 151.965L62.1488 136.513L55.2739 117.801C55.0544 117.125 54.9988 116.407 55.1116 115.705C55.2245 115.004 55.5027 114.339 55.9231 113.767C56.3436 113.194 56.8942 112.729 57.5296 112.411C58.165 112.093 58.867 111.931 59.5774 111.938Z" fill="#ED7258"/>
<path d="M53.1573 108.934C51.9297 107.096 50.9608 104.548 52.3125 102.8C53.6467 101.074 56.2782 101.328 58.3215 100.564C61.1676 99.5008 62.8182 96.1572 62.3034 93.1629C61.7886 90.1685 59.3849 87.6862 56.5214 86.6706C53.6578 85.6549 50.4288 85.9853 47.6246 87.1548C44.1726 88.5946 41.2114 91.3798 39.9697 94.9078C38.728 98.4359 39.3918 102.672 41.9678 105.384C44.7295 108.291 49.0638 109.066 53.0734 109.019" fill="#2F2E41"/>
<path d="M39.6122 98.7631C39.2608 100.727 37.1069 101.842 35.1273 102.087C33.1477 102.332 31.0999 102.018 29.1727 102.533C25.7753 103.44 23.5344 106.708 22.301 110.001C21.0677 113.294 20.5207 116.848 18.9182 119.979C17.3157 123.109 14.2085 125.869 10.7041 125.576C11.3906 127.304 12.5937 128.779 14.1492 129.798C15.7047 130.818 17.5368 131.332 19.3956 131.272C21.2544 131.212 23.0493 130.58 24.5355 129.461C26.0216 128.343 27.1267 126.794 27.6998 125.025C28.9872 121.05 27.5093 116.311 29.7607 112.792C31.0065 110.844 33.1578 109.699 35.2321 108.678C37.3063 107.657 39.4835 106.61 40.8742 104.763C42.2649 102.916 42.5428 100 40.829 98.4485" fill="#2F2E41"/>
<path d="M0.418169 228.085H112.903C113.013 228.085 113.119 228.04 113.197 227.962C113.276 227.884 113.32 227.777 113.32 227.667C113.32 227.556 113.276 227.45 113.197 227.371C113.119 227.293 113.013 227.249 112.903 227.249H0.418169C0.307477 227.249 0.20143 227.293 0.123272 227.371C0.0451134 227.45 0.0012207 227.556 0.0012207 227.667C0.0012207 227.777 0.0451134 227.884 0.123272 227.962C0.20143 228.04 0.307477 228.085 0.418169 228.085Z" fill="#3F3D56"/>
<path d="M92.7318 88.9178C95.4472 88.9178 97.6485 86.7166 97.6485 84.0011C97.6485 81.2857 95.4472 79.0845 92.7318 79.0845C90.0164 79.0845 87.8152 81.2857 87.8152 84.0011C87.8152 86.7166 90.0164 88.9178 92.7318 88.9178Z" fill="#F6B9AB"/>
<path d="M249.012 45.7213C251.727 45.7213 253.929 43.52 253.929 40.8046C253.929 38.0892 251.727 35.8879 249.012 35.8879C246.296 35.8879 244.095 38.0892 244.095 40.8046C244.095 43.52 246.296 45.7213 249.012 45.7213Z" fill="#F6B9AB"/>
<path d="M195.28 178.472C197.995 178.472 200.196 176.27 200.196 173.555C200.196 170.839 197.995 168.638 195.28 168.638C192.564 168.638 190.363 170.839 190.363 173.555C190.363 176.27 192.564 178.472 195.28 178.472Z" fill="#F6B9AB"/>
</g>
<defs>
<clipPath id="clip0_1749_9531">
<rect width="300" height="228.085" fill="white"/>
</clipPath>
</defs>
</svg>
