<svg width="24" height="24" viewBox="0 0 24 24" fill="none" xmlns="http://www.w3.org/2000/svg">
<path d="M0 1.71921C0 0.769972 0.789018 0 1.76237 0H22.0863C23.0596 0 23.8487 0.769972 23.8487 1.71921V22.2808C23.8487 23.2303 23.0596 24 22.0863 24H1.76237C0.789018 24 0 23.2303 0 22.2808V1.71921Z" fill="#2867B2"/>
<path fill-rule="evenodd" clip-rule="evenodd" d="M7.22928 20.0905V9.25314H3.62715V20.0905H7.22928ZM5.4282 7.77349C6.68434 7.77349 7.46618 6.9413 7.46618 5.90131C7.44277 4.8379 6.68434 4.02881 5.45203 4.02881C4.21985 4.02881 3.41422 4.8379 3.41422 5.90131C3.41422 6.9413 4.19589 7.77349 5.40472 7.77349H5.42813H5.4282Z" fill="white"/>
<path fill-rule="evenodd" clip-rule="evenodd" d="M9.22244 20.0905H12.8245V14.0385C12.8245 13.7146 12.8479 13.391 12.9431 13.1594C13.2035 12.5123 13.7962 11.8421 14.7913 11.8421C16.0947 11.8421 16.6161 12.8359 16.6161 14.2928V20.0905H20.2179V13.8765C20.2179 10.5478 18.4408 8.99884 16.0709 8.99884C14.1277 8.99884 13.2746 10.085 12.8006 10.8248H12.8246V9.25314H9.22254C9.26981 10.27 9.22254 20.0905 9.22254 20.0905H9.22244Z" fill="white"/>
</svg>
