<svg width="24" height="18" viewBox="0 0 24 18" fill="none" xmlns="http://www.w3.org/2000/svg">
<path d="M23.4227 16.7946H19.2473C19.0943 16.7942 18.9476 16.7333 18.8394 16.6251C18.7313 16.5169 18.6703 16.3703 18.67 16.2173V0.79475C18.67 0.641645 18.7308 0.494811 18.8391 0.38655C18.9473 0.278289 19.0942 0.21747 19.2473 0.21747H23.4227C23.4986 0.217307 23.5737 0.232126 23.6438 0.26108C23.7139 0.290033 23.7776 0.33255 23.8313 0.386188C23.8849 0.439826 23.9274 0.50353 23.9564 0.573642C23.9853 0.643755 24.0001 0.718895 24 0.79475V16.2136C24.0005 16.2897 23.9859 16.3652 23.9571 16.4356C23.9283 16.5061 23.8859 16.5702 23.8322 16.6242C23.7786 16.6782 23.7148 16.721 23.6445 16.7503C23.5742 16.7795 23.4988 16.7946 23.4227 16.7946Z" fill="url(#paint0_linear_170_1292)"/>
<path d="M4.05665 16.8513L0.317892 14.9801C0.181195 14.9113 0.0773858 14.7911 0.0292764 14.6459C-0.0188329 14.5006 -0.00730624 14.3422 0.0613224 14.2054L6.9887 0.421011C7.05745 0.284314 7.17766 0.180505 7.32291 0.132395C7.46817 0.0842859 7.62658 0.0958127 7.76334 0.164441L11.4972 2.04061C11.565 2.07454 11.6254 2.1215 11.675 2.17879C11.7247 2.23609 11.7626 2.3026 11.7865 2.37453C11.8104 2.44646 11.82 2.52241 11.8146 2.59803C11.8092 2.67365 11.7889 2.74746 11.755 2.81525L4.82636 16.5948C4.7576 16.7302 4.63826 16.833 4.49418 16.8811C4.3501 16.9291 4.1929 16.9184 4.05665 16.8513Z" fill="url(#paint1_linear_170_1292)"/>
<path d="M15.0805 16.5417L18.0409 1.51636C18.0704 1.36659 18.0395 1.21124 17.9549 1.08416C17.8703 0.957087 17.739 0.868582 17.5895 0.837932L13.493 0.0114805C13.4184 -0.00360919 13.3417 -0.00382568 13.2671 0.0108425C13.1925 0.0255106 13.1215 0.0547746 13.0582 0.0969542C12.9949 0.139134 12.9406 0.193398 12.8984 0.256629C12.8561 0.31986 12.8268 0.390813 12.8121 0.465412L9.85413 15.4908C9.82469 15.6404 9.85563 15.7956 9.94022 15.9224C10.0248 16.0493 10.1562 16.1376 10.3056 16.168L14.4021 16.9956C14.5522 17.025 14.7079 16.9938 14.835 16.9087C14.9621 16.8237 15.0504 16.6917 15.0805 16.5417Z" fill="url(#paint2_linear_170_1292)"/>
<defs>
<linearGradient id="paint0_linear_170_1292" x1="13.5991" y1="11.356" x2="24.877" y2="7.19788" gradientUnits="userSpaceOnUse">
<stop offset="0.02" stop-color="#B02DE9"/>
<stop offset="0.8" stop-color="#6D00CC"/>
</linearGradient>
<linearGradient id="paint1_linear_170_1292" x1="3.70017" y1="9.46015" x2="15.8243" y2="4.21774" gradientUnits="userSpaceOnUse">
<stop stop-color="#FF00FF"/>
<stop offset="0.18" stop-color="#E80DF9"/>
<stop offset="0.54" stop-color="#C024ED"/>
<stop offset="0.73" stop-color="#B02DE9"/>
</linearGradient>
<linearGradient id="paint2_linear_170_1292" x1="0.871736" y1="13.3173" x2="25.7244" y2="4.1684" gradientUnits="userSpaceOnUse">
<stop offset="0.02" stop-color="#FF00FF"/>
<stop offset="0.09" stop-color="#E80DF9"/>
<stop offset="0.23" stop-color="#C024ED"/>
<stop offset="0.3" stop-color="#B02DE9"/>
<stop offset="0.42" stop-color="#A42BE3"/>
<stop offset="0.63" stop-color="#8527D5"/>
<stop offset="0.85" stop-color="#6021C3"/>
</linearGradient>
</defs>
</svg>
