<svg width="943" height="602" viewBox="0 0 943 602" fill="none" xmlns="http://www.w3.org/2000/svg">
<rect width="943" height="602" fill="white"/>
<g clip-path="url(#clip0_1111_3014)">
<path d="M167.723 596.506C176.715 588.907 182.177 576.903 180.745 565.218C179.312 553.532 170.44 542.79 158.932 540.308C147.423 537.827 134.304 544.696 130.808 555.938C128.885 534.263 126.668 511.681 115.144 493.223C104.71 476.51 86.6376 464.551 67.0512 462.412C47.4649 460.272 26.8429 468.353 14.6276 483.812C2.41233 499.271 -0.578556 521.746 7.97672 539.494C14.2791 552.569 25.8903 562.299 38.056 570.215C77.3675 595.58 124.517 605.895 170.828 599.262L167.723 596.506Z" fill="#F2F2F2"/>
<path d="M33.9961 468.801C50.1573 481.964 64.9835 496.687 78.2602 512.755C91.5391 528.807 103.23 546.109 113.168 564.418C118.723 574.688 123.713 585.254 128.116 596.069C129.014 598.269 125.441 599.227 124.554 597.051C116.755 577.985 107.106 559.729 95.7458 542.546C84.4408 525.424 71.5016 509.439 57.11 494.817C48.9701 486.55 40.3817 478.737 31.3839 471.413C29.5396 469.911 32.167 467.311 33.9961 468.801V468.801Z" fill="white"/>
<path d="M704.354 0H217.354C215.499 0.00205925 213.719 0.740212 212.407 2.05252C211.095 3.36483 210.357 5.14412 210.354 7V337C210.357 338.856 211.095 340.635 212.407 341.947C213.719 343.26 215.499 343.998 217.354 344H704.354C706.21 343.998 707.99 343.26 709.302 341.947C710.614 340.635 711.352 338.856 711.354 337V7C711.352 5.14412 710.614 3.36483 709.302 2.05252C707.99 0.740212 706.21 0.00205925 704.354 0V0ZM709.354 337C709.354 338.326 708.827 339.597 707.889 340.535C706.952 341.473 705.68 341.999 704.354 342H217.354C216.029 341.999 214.757 341.473 213.82 340.535C212.882 339.597 212.355 338.326 212.354 337V7C212.355 5.67408 212.882 4.40262 213.82 3.46506C214.757 2.52749 216.029 2.00053 217.354 2H704.354C705.68 2.00053 706.952 2.52749 707.889 3.46506C708.827 4.40262 709.354 5.67408 709.354 7V337Z" fill="#3F3D56"/>
<path d="M710.354 28.0391H211.354V30.0391H710.354V28.0391Z" fill="#3F3D56"/>
<path d="M228.354 21C231.668 21 234.354 18.3137 234.354 15C234.354 11.6863 231.668 9 228.354 9C225.041 9 222.354 11.6863 222.354 15C222.354 18.3137 225.041 21 228.354 21Z" fill="#3F3D56"/>
<path d="M245.604 21C248.918 21 251.604 18.3137 251.604 15C251.604 11.6863 248.918 9 245.604 9C242.291 9 239.604 11.6863 239.604 15C239.604 18.3137 242.291 21 245.604 21Z" fill="#3F3D56"/>
<path d="M262.854 21C266.168 21 268.854 18.3137 268.854 15C268.854 11.6863 266.168 9 262.854 9C259.541 9 256.854 11.6863 256.854 15C256.854 18.3137 259.541 21 262.854 21Z" fill="#3F3D56"/>
<path d="M502.854 74.5H418.854C416.998 74.5 415.217 73.7625 413.905 72.4498C412.592 71.137 411.854 69.3565 411.854 67.5C411.854 65.6435 412.592 63.863 413.905 62.5502C415.217 61.2375 416.998 60.5 418.854 60.5H502.854C504.711 60.5 506.492 61.2375 507.804 62.5502C509.117 63.863 509.854 65.6435 509.854 67.5C509.854 69.3565 509.117 71.137 507.804 72.4498C506.492 73.7625 504.711 74.5 502.854 74.5V74.5Z" fill="#CCCCCC"/>
<path d="M560.354 108.5H361.354C359.498 108.5 357.718 107.763 356.405 106.45C355.092 105.137 354.354 103.357 354.354 101.5C354.354 99.6435 355.092 97.863 356.405 96.5502C357.718 95.2375 359.498 94.5 361.354 94.5H560.354C562.211 94.5 563.992 95.2375 565.304 96.5502C566.617 97.863 567.354 99.6435 567.354 101.5C567.354 103.357 566.617 105.137 565.304 106.45C563.992 107.763 562.211 108.5 560.354 108.5Z" fill="#CCCCCC"/>
<path d="M620.035 317.452C612.492 317.452 605.119 315.215 598.847 311.024C592.575 306.834 587.687 300.877 584.801 293.908C581.914 286.94 581.159 279.271 582.63 271.873C584.102 264.475 587.734 257.68 593.068 252.346C598.401 247.012 605.197 243.38 612.595 241.909C619.993 240.437 627.661 241.192 634.63 244.079C641.599 246.965 647.555 251.854 651.746 258.125C655.937 264.397 658.173 271.771 658.173 279.314C658.162 289.425 654.14 299.119 646.99 306.269C639.841 313.418 630.147 317.44 620.035 317.452V317.452ZM620.035 243.806C613.013 243.806 606.148 245.889 600.308 249.79C594.469 253.692 589.918 259.237 587.231 265.726C584.543 272.214 583.84 279.353 585.21 286.241C586.58 293.129 589.962 299.456 594.928 304.421C599.894 309.387 606.22 312.769 613.108 314.139C619.996 315.509 627.135 314.806 633.624 312.119C640.112 309.431 645.657 304.88 649.559 299.041C653.461 293.202 655.543 286.336 655.543 279.314C655.532 269.9 651.788 260.874 645.131 254.218C638.475 247.561 629.449 243.817 620.035 243.806V243.806Z" fill="#3F3D56"/>
<path d="M300.299 215.307C292.756 215.307 285.383 213.07 279.111 208.88C272.839 204.689 267.951 198.733 265.064 191.764C262.178 184.795 261.422 177.127 262.894 169.729C264.366 162.331 267.998 155.535 273.331 150.202C278.665 144.868 285.461 141.236 292.859 139.764C300.257 138.293 307.925 139.048 314.894 141.934C321.863 144.821 327.819 149.709 332.01 155.981C336.2 162.253 338.437 169.626 338.437 177.169C338.426 187.281 334.404 196.974 327.254 204.124C320.104 211.274 310.41 215.296 300.299 215.307V215.307ZM300.299 141.661C293.276 141.661 286.411 143.744 280.572 147.646C274.733 151.547 270.182 157.093 267.494 163.581C264.807 170.069 264.104 177.209 265.474 184.096C266.844 190.984 270.225 197.311 275.191 202.277C280.157 207.243 286.484 210.625 293.372 211.995C300.26 213.365 307.399 212.662 313.887 209.974C320.375 207.287 325.921 202.735 329.823 196.896C333.724 191.057 335.807 184.192 335.807 177.169C335.796 167.755 332.052 158.73 325.395 152.073C318.738 145.417 309.713 141.672 300.299 141.661V141.661Z" fill="#3F3D56"/>
<path d="M878.843 599.307C871.3 599.307 863.926 597.07 857.654 592.88C851.383 588.689 846.494 582.733 843.608 575.764C840.721 568.795 839.966 561.127 841.437 553.729C842.909 546.331 846.541 539.535 851.875 534.202C857.209 528.868 864.004 525.236 871.402 523.764C878.8 522.293 886.468 523.048 893.437 525.934C900.406 528.821 906.362 533.709 910.553 539.981C914.744 546.253 916.98 553.626 916.98 561.169C916.969 571.28 912.947 580.974 905.798 588.124C898.648 595.274 888.954 599.296 878.843 599.307ZM878.843 525.661C871.82 525.661 864.955 527.744 859.116 531.646C853.276 535.547 848.725 541.093 846.038 547.581C843.35 554.069 842.647 561.209 844.017 568.096C845.387 574.984 848.769 581.311 853.735 586.277C858.701 591.243 865.027 594.625 871.915 595.995C878.803 597.365 885.943 596.662 892.431 593.974C898.919 591.287 904.464 586.735 908.366 580.896C912.268 575.057 914.35 568.192 914.35 561.169C914.34 551.755 910.595 542.73 903.939 536.073C897.282 529.417 888.257 525.672 878.843 525.661V525.661Z" fill="#3F3D56"/>
<path d="M462.367 215.307C454.824 215.307 447.45 213.07 441.179 208.88C434.907 204.689 430.019 198.733 427.132 191.764C424.246 184.795 423.49 177.127 424.962 169.729C426.433 162.331 430.066 155.535 435.399 150.202C440.733 144.868 447.529 141.236 454.927 139.764C462.325 138.293 469.993 139.048 476.962 141.934C483.93 144.821 489.887 149.709 494.077 155.981C498.268 162.253 500.505 169.626 500.505 177.169C500.493 187.281 496.472 196.974 489.322 204.124C482.172 211.274 472.478 215.296 462.367 215.307V215.307ZM462.367 141.661C455.344 141.661 448.479 143.744 442.64 147.646C436.801 151.547 432.25 157.093 429.562 163.581C426.875 170.069 426.171 177.209 427.541 184.096C428.912 190.984 432.293 197.311 437.259 202.277C442.225 207.243 448.552 210.625 455.44 211.995C462.328 213.365 469.467 212.662 475.955 209.974C482.443 207.287 487.989 202.735 491.891 196.896C495.792 191.057 497.875 184.192 497.875 177.169C497.864 167.755 494.12 158.73 487.463 152.073C480.806 145.417 471.781 141.672 462.367 141.661V141.661Z" fill="#3F3D56"/>
<path d="M462.367 315.307C454.824 315.307 447.45 313.07 441.179 308.88C434.907 304.689 430.019 298.733 427.132 291.764C424.246 284.795 423.49 277.127 424.962 269.729C426.433 262.331 430.066 255.535 435.399 250.202C440.733 244.868 447.529 241.236 454.927 239.764C462.325 238.293 469.993 239.048 476.962 241.934C483.93 244.821 489.887 249.709 494.077 255.981C498.268 262.253 500.505 269.626 500.505 277.169C500.493 287.281 496.472 296.974 489.322 304.124C482.172 311.274 472.478 315.296 462.367 315.307V315.307Z" fill="#E6E6E6"/>
<path d="M620.367 212.307C612.824 212.307 605.45 210.07 599.179 205.88C592.907 201.689 588.019 195.733 585.132 188.764C582.246 181.795 581.49 174.127 582.962 166.729C584.433 159.331 588.066 152.535 593.399 147.202C598.733 141.868 605.529 138.236 612.927 136.764C620.325 135.293 627.993 136.048 634.962 138.934C641.93 141.821 647.887 146.709 652.077 152.981C656.268 159.253 658.505 166.626 658.505 174.169C658.493 184.281 654.472 193.974 647.322 201.124C640.172 208.274 630.478 212.296 620.367 212.307V212.307Z" fill="#E6E6E6"/>
<path d="M300.3 239.031C293.754 239.04 287.319 240.727 281.61 243.931C289.86 244.66 297.596 248.249 303.479 254.078C309.363 259.906 313.025 267.608 313.832 275.85C314.638 284.093 312.539 292.358 307.897 299.217C303.255 306.076 296.362 311.096 288.411 313.411C289.9 313.905 291.42 314.302 292.96 314.601C295.378 315.077 297.836 315.315 300.3 315.311C310.416 315.311 320.117 311.293 327.269 304.14C334.422 296.988 338.44 287.287 338.44 277.171C338.44 267.056 334.422 257.355 327.269 250.202C320.117 243.05 310.416 239.031 300.3 239.031V239.031Z" fill="#E6E6E6"/>
<path d="M285.83 241.892C283.414 241.408 280.955 241.167 278.49 241.172C268.684 241.162 259.249 244.925 252.143 251.682C245.036 258.439 240.801 267.672 240.317 277.466C239.833 287.261 243.136 296.866 249.541 304.291C255.947 311.716 264.964 316.392 274.723 317.349C284.483 318.307 294.236 315.472 301.963 309.433C309.689 303.394 314.795 294.614 316.223 284.912C317.651 275.21 315.292 265.331 309.633 257.321C303.975 249.312 295.452 243.787 285.83 241.892V241.892ZM288.41 313.412C283.526 314.833 278.394 315.188 273.36 314.453C268.327 313.718 263.51 311.91 259.236 309.152C254.962 306.394 251.331 302.749 248.588 298.466C245.844 294.183 244.053 289.36 243.335 284.324C242.618 279.288 242.99 274.157 244.428 269.278C245.865 264.398 248.334 259.885 251.668 256.043C255.001 252.2 259.121 249.119 263.748 247.007C268.376 244.895 273.403 243.802 278.49 243.802C279.54 243.802 280.58 243.852 281.61 243.932C289.86 244.661 297.595 248.25 303.479 254.079C309.363 259.907 313.025 267.609 313.831 275.851C314.638 284.094 312.539 292.359 307.897 299.218C303.255 306.076 296.362 311.097 288.41 313.412V313.412Z" fill="#3F3D56"/>
<path d="M692.237 457.452C684.694 457.452 677.32 455.215 671.048 451.024C664.777 446.834 659.888 440.877 657.002 433.908C654.115 426.94 653.36 419.271 654.831 411.873C656.303 404.475 659.935 397.68 665.269 392.346C670.603 387.012 677.398 383.38 684.796 381.909C692.194 380.437 699.863 381.192 706.831 384.079C713.8 386.965 719.756 391.854 723.947 398.125C728.138 404.397 730.374 411.771 730.374 419.314C730.363 429.425 726.341 439.119 719.192 446.269C712.042 453.418 702.348 457.44 692.237 457.452V457.452ZM692.237 383.806C685.214 383.806 678.349 385.889 672.51 389.79C666.67 393.692 662.119 399.237 659.432 405.726C656.744 412.214 656.041 419.353 657.411 426.241C658.781 433.129 662.163 439.456 667.129 444.421C672.095 449.387 678.422 452.769 685.309 454.139C692.197 455.509 699.337 454.806 705.825 452.119C712.313 449.431 717.859 444.88 721.76 439.041C725.662 433.202 727.744 426.336 727.744 419.314C727.734 409.9 723.989 400.874 717.333 394.218C710.676 387.561 701.651 383.817 692.237 383.806V383.806Z" fill="#3F3D56"/>
<path d="M208.63 590.417L220.255 589.098L220.699 543.633L203.542 545.58L208.63 590.417Z" fill="#A0616A"/>
<path d="M243.898 597.348L207.364 601.493L205.763 587.378L228.181 584.834C231.925 584.409 235.684 585.489 238.631 587.836C241.579 590.182 243.474 593.604 243.898 597.348V597.348L243.898 597.348Z" fill="#2F2E41"/>
<path d="M89.0811 589.69L100.78 589.689L106.345 544.564L89.0791 544.565L89.0811 589.69Z" fill="#A0616A"/>
<path d="M123.343 600.553L86.5743 600.554L86.5737 586.348L109.136 586.347C112.904 586.347 116.517 587.844 119.181 590.508C121.846 593.172 123.343 596.785 123.343 600.553V600.553L123.343 600.553Z" fill="#2F2E41"/>
<path d="M173.019 387.896L179.698 409.623L215.96 488.093L225.503 562.526L203.555 563.48L190.195 494.773L144.391 445.151L104.312 574.931L86.1807 573.023C86.1807 573.023 101.449 405.072 122.443 387.896C122.443 387.896 156.796 371.673 173.019 387.896Z" fill="#2F2E41"/>
<path d="M143.388 294.143C156.332 294.143 166.826 283.65 166.826 270.705C166.826 257.761 156.332 247.268 143.388 247.268C130.444 247.268 119.95 257.761 119.95 270.705C119.95 283.65 130.444 294.143 143.388 294.143Z" fill="#A0616A"/>
<path d="M175.404 392.189C175.404 392.189 178.267 294.854 138.188 301.534C98.1091 308.214 114.809 402.209 114.809 402.209C114.809 402.209 123.397 419.385 144.391 400.3C165.385 381.215 175.404 392.189 175.404 392.189Z" fill="#E94F2E"/>
<path d="M258.378 311.172C257.626 312.356 256.623 313.36 255.44 314.115C254.258 314.869 252.924 315.355 251.533 315.539C250.142 315.722 248.728 315.598 247.39 315.176C246.053 314.754 244.824 314.043 243.79 313.094L213.77 329.268L215.341 311.618L243.609 298.965C245.317 297.334 247.565 296.387 249.925 296.303C252.286 296.219 254.595 297.003 256.415 298.508C258.236 300.013 259.441 302.133 259.803 304.467C260.165 306.801 259.658 309.187 258.378 311.172L258.378 311.172Z" fill="#A0616A"/>
<path d="M143.164 313.417L191.895 321.655L235.565 301.039L242.195 315.216L194.389 345.667C194.389 345.667 143.776 349.103 132.075 335.756C127.687 330.751 127.185 326.195 128.272 322.456C129.225 319.392 131.264 316.782 134.007 315.117C136.749 313.453 140.006 312.848 143.164 313.417V313.417Z" fill="#E94F2E"/>
<path d="M140.6 295.332C140.712 295.232 140.799 295.107 140.855 294.967C140.91 294.827 140.932 294.676 140.918 294.527C140.905 294.377 140.857 294.232 140.778 294.104C140.699 293.976 140.592 293.869 140.464 293.789C138.382 292.501 136.687 290.675 135.555 288.504C134.423 286.334 133.896 283.898 134.031 281.454C134.165 279.009 134.955 276.646 136.318 274.613C137.681 272.579 139.567 270.95 141.777 269.897C148.668 266.612 158.005 269.168 163.099 262.854C164.135 261.504 164.868 259.945 165.247 258.286C165.626 256.626 165.643 254.905 165.296 253.238C164.197 247.275 159.715 242.847 154.694 239.812C148.527 236.084 141.439 234.158 134.234 234.251C127.028 234.345 119.993 236.455 113.925 240.342C107.857 244.229 102.999 249.738 99.9014 256.245C96.804 262.752 95.5907 269.996 96.3993 277.156C97.0473 282.896 98.8181 289.331 95.4056 293.99C92.4022 298.091 86.7331 298.86 81.7532 299.879C71.072 302.065 60.7674 307.107 53.5189 315.251C46.2705 323.395 42.4036 334.821 44.5891 345.502C46.7745 356.183 55.5421 365.57 66.3182 367.226C75.0895 368.574 84.1464 364.849 90.5875 358.744C97.0287 352.64 101.1 344.397 103.668 335.902C106.716 325.82 107.918 314.956 113.421 305.975C118.806 297.186 130.411 290.886 139.506 295.463C139.68 295.554 139.878 295.59 140.074 295.567C140.269 295.544 140.452 295.462 140.6 295.332V295.332Z" fill="#2F2E41"/>
<path d="M819.809 468.816C821.077 468.185 822.192 467.284 823.074 466.175C823.956 465.066 824.584 463.778 824.915 462.4C825.245 461.023 825.27 459.589 824.986 458.201C824.703 456.813 824.118 455.504 823.274 454.366L845.856 329.391L824.783 329.113L809.101 452.698C807.284 454.242 806.096 456.4 805.763 458.762C805.43 461.124 805.976 463.526 807.295 465.513C808.615 467.5 810.618 468.933 812.924 469.542C815.231 470.151 817.68 469.893 819.809 468.816H819.809Z" fill="#FFB8B8"/>
<path d="M754.406 462.891L746.406 500.891L747.406 585.891H762.406L769.406 502.891L780.406 467.891L754.406 462.891Z" fill="#FFB8B8"/>
<path d="M803.98 465.742L795.98 503.742L796.98 588.742H811.98L818.98 505.742L829.98 470.742L803.98 465.742Z" fill="#FFB8B8"/>
<path d="M742.167 584.926L765.811 584.866L765.848 599.753L727.318 599.85C727.313 597.895 727.693 595.958 728.437 594.15C729.18 592.342 730.273 590.698 731.651 589.312C733.03 587.926 734.669 586.826 736.473 586.073C738.277 585.32 740.212 584.93 742.167 584.926V584.926Z" fill="#2F2E41"/>
<path d="M792.11 586.533L815.754 586.474L815.791 601.36L777.26 601.457C777.256 599.502 777.636 597.565 778.379 595.757C779.123 593.949 780.215 592.305 781.594 590.92C782.973 589.534 784.612 588.433 786.416 587.68C788.22 586.928 790.155 586.538 792.11 586.533V586.533Z" fill="#2F2E41"/>
<path d="M790.906 276.534C804.47 276.534 815.467 265.538 815.467 251.973C815.467 238.408 804.47 227.412 790.906 227.412C777.341 227.412 766.345 238.408 766.345 251.973C766.345 265.538 777.341 276.534 790.906 276.534Z" fill="#FFB8B8"/>
<path d="M845.184 312.723C837.711 300.997 814.249 273.189 779.337 289.151C776.586 290.423 774.291 292.507 772.759 295.122C771.228 297.737 770.533 300.759 770.77 303.78C772.459 326.079 774.59 382.893 756.406 416.891C756.406 416.891 809.406 432.891 838.406 417.891C838.406 417.891 828.406 350.891 838.406 337.891C841.74 333.736 844.441 329.111 846.419 324.165C847.113 322.292 847.363 320.284 847.149 318.298C846.935 316.312 846.262 314.404 845.184 312.723V312.723Z" fill="#3F3D56"/>
<path d="M835.406 311.891L845.219 315.98C845.873 316.252 846.435 316.705 846.839 317.285C847.244 317.866 847.475 318.55 847.504 319.257L848.406 340.891L826.406 338.891L835.406 311.891Z" fill="#3F3D56"/>
<path d="M760.406 414.891C760.406 414.891 738.406 455.891 742.406 493.891L773.406 498.891L795.406 445.891L790.406 499.891L822.406 500.891C822.406 500.891 843.406 422.891 836.406 415.891L760.406 414.891Z" fill="#2F2E41"/>
<path d="M729.16 418.551C730.561 418.336 731.897 417.818 733.075 417.031C734.254 416.245 735.245 415.209 735.98 413.998C736.715 412.787 737.175 411.429 737.329 410.021C737.482 408.612 737.325 407.187 736.868 405.846L781.497 321.716L761.513 315.023L723.88 399.934C721.678 400.851 719.889 402.543 718.851 404.691C717.814 406.839 717.6 409.293 718.251 411.588C718.902 413.882 720.372 415.859 722.383 417.142C724.393 418.425 726.805 418.926 729.16 418.551H729.16Z" fill="#FFB8B8"/>
<path d="M787.59 298.941L779.324 295.243C779.324 295.243 772.315 290.898 766.103 300.458C759.89 310.019 753.179 330.97 753.179 330.97L780.15 338.559L787.59 298.941Z" fill="#3F3D56"/>
<path d="M794.841 263.797C795.723 260.735 795.468 256.592 792.499 255.434C790.953 254.831 789.227 255.307 787.575 255.476C784.344 255.793 781.109 254.903 778.495 252.976C775.424 250.694 773.528 247.205 771.727 243.829L769.003 238.723C768.397 237.659 767.88 236.546 767.457 235.396C765.942 230.889 767.587 225.671 770.956 222.315C774.477 219.039 779.11 217.223 783.919 217.232C788.69 217.267 793.404 218.277 797.77 220.2C805.531 223.363 812.561 228.086 818.424 234.075C822.256 237.995 825.744 243.102 824.943 248.525C824.32 252.746 821.243 256.127 818.308 259.224L807.664 270.461C805.779 272.451 803.764 274.522 801.132 275.288C798.5 276.053 795.109 274.929 794.391 272.283C794.391 272.283 793.959 266.859 794.841 263.797Z" fill="#2F2E41"/>
<path d="M942 601.742H1C0.734784 601.742 0.480429 601.637 0.292892 601.449C0.105356 601.262 0 601.007 0 600.742C0 600.477 0.105356 600.223 0.292892 600.035C0.480429 599.848 0.734784 599.742 1 599.742H942C942.265 599.742 942.52 599.848 942.707 600.035C942.895 600.223 943 600.477 943 600.742C943 601.007 942.895 601.262 942.707 601.449C942.52 601.637 942.265 601.742 942 601.742Z" fill="#3F3D56"/>
<path d="M300 158C288.95 158 280 166.95 280 178C279.998 182.199 281.318 186.291 283.772 189.697C286.227 193.103 289.692 195.65 293.676 196.976C294.676 197.15 295.05 196.55 295.05 196.024C295.05 195.55 295.024 193.976 295.024 192.3C290 193.226 288.7 191.076 288.3 189.95C288.074 189.374 287.1 187.6 286.25 187.124C285.55 186.75 284.55 185.824 286.224 185.8C287.8 185.774 288.924 187.25 289.3 187.85C291.1 190.874 293.976 190.024 295.124 189.5C295.3 188.2 295.824 187.326 296.4 186.826C291.95 186.326 287.3 184.6 287.3 176.95C287.3 174.774 288.074 172.976 289.35 171.574C289.15 171.074 288.45 169.024 289.55 166.274C289.55 166.274 291.224 165.75 295.05 168.326C296.678 167.874 298.36 167.647 300.05 167.65C301.75 167.65 303.45 167.874 305.05 168.324C308.874 165.724 310.55 166.276 310.55 166.276C311.65 169.026 310.95 171.076 310.75 171.576C312.024 172.976 312.8 174.75 312.8 176.95C312.8 184.626 308.126 186.326 303.676 186.826C304.4 187.45 305.026 188.65 305.026 190.526C305.026 193.2 305 195.35 305 196.026C305 196.55 305.376 197.174 306.376 196.974C310.346 195.634 313.796 193.082 316.24 189.678C318.684 186.275 319.999 182.19 320 178C320 166.95 311.05 158 300 158Z" fill="#E94F2E"/>
<path d="M451.054 183.028C451.05 184.07 450.635 185.068 449.898 185.805C449.161 186.541 448.162 186.956 447.12 186.96C446.078 186.956 445.079 186.541 444.342 185.804C443.605 185.067 443.189 184.068 443.186 183.026C443.186 180.86 444.954 179.09 447.12 179.09H451.056V183.026L451.054 183.028ZM453.038 183.028C453.038 180.862 454.806 179.092 456.972 179.092C459.138 179.092 460.908 180.862 460.908 183.028V192.882C460.905 193.924 460.489 194.923 459.752 195.661C459.014 196.398 458.015 196.813 456.972 196.816C455.93 196.812 454.931 196.397 454.194 195.66C453.457 194.923 453.041 193.924 453.038 192.882V183.028ZM456.972 167.054C455.93 167.05 454.932 166.634 454.195 165.897C453.458 165.16 453.043 164.162 453.04 163.12C453.04 160.954 454.808 159.186 456.974 159.186C459.14 159.186 460.91 160.954 460.91 163.12V167.056H456.972V167.054ZM456.972 169.038C459.138 169.038 460.908 170.806 460.908 172.972C460.905 174.015 460.49 175.014 459.752 175.752C459.015 176.489 458.015 176.905 456.972 176.908H447.12C446.077 176.904 445.078 176.489 444.341 175.751C443.604 175.014 443.189 174.014 443.186 172.972C443.186 170.806 444.954 169.038 447.12 169.038H456.974H456.972ZM472.946 172.972C472.946 170.806 474.716 169.038 476.882 169.038C479.048 169.038 480.816 170.806 480.816 172.972C480.813 174.014 480.398 175.014 479.661 175.751C478.924 176.489 477.925 176.904 476.882 176.908H472.946V172.972V172.972ZM470.962 172.972C470.959 174.014 470.544 175.014 469.807 175.751C469.07 176.489 468.071 176.904 467.028 176.908C465.985 176.905 464.985 176.489 464.248 175.752C463.51 175.014 463.095 174.015 463.092 172.972V163.12C463.092 160.954 464.862 159.186 467.028 159.186C469.194 159.186 470.962 160.954 470.962 163.12V172.974V172.972ZM467.028 188.946C469.194 188.946 470.962 190.716 470.962 192.882C470.959 193.924 470.543 194.923 469.806 195.66C469.069 196.397 468.07 196.812 467.028 196.816C465.985 196.813 464.986 196.398 464.248 195.661C463.511 194.923 463.095 193.924 463.092 192.882V188.946H467.028ZM467.028 186.962C465.985 186.959 464.986 186.544 464.248 185.807C463.511 185.069 463.095 184.07 463.092 183.028C463.092 180.862 464.862 179.092 467.028 179.092H476.882C479.048 179.092 480.816 180.862 480.816 183.028C480.813 184.07 480.397 185.069 479.66 185.806C478.923 186.543 477.924 186.958 476.882 186.962H467.028V186.962Z" fill="#E94F2E"/>
<path d="M274.152 277C275.352 277 276.324 277.9 276.302 279C276.302 280.1 275.354 281 274.152 281C272.972 281 272 280.1 272 279C272 277.9 272.95 277 274.152 277ZM281.848 277C283.05 277 284 277.9 284 279C284 280.1 283.05 281 281.848 281C280.668 281 279.698 280.1 279.698 279C279.698 277.9 280.646 277 281.848 277ZM291.782 259C294.108 259 296 260.932 296 263.326V301L291.578 297.01L289.088 294.658L286.454 292.158L287.546 296.044H264.218C261.892 296.044 260 294.112 260 291.718V263.326C260 260.932 261.892 259 264.218 259H291.78H291.782ZM283.842 286.426C288.388 286.28 290.138 283.234 290.138 283.234C290.138 276.472 287.174 270.99 287.174 270.99C284.214 268.724 281.394 268.786 281.394 268.786L281.106 269.122C284.604 270.214 286.228 271.79 286.228 271.79C284.318 270.714 282.213 270.029 280.036 269.774C278.655 269.618 277.26 269.631 275.882 269.814C275.758 269.814 275.654 269.836 275.532 269.856C274.812 269.92 273.062 270.192 270.862 271.18C270.102 271.536 269.648 271.79 269.648 271.79C269.648 271.79 271.356 270.13 275.058 269.038L274.852 268.786C274.852 268.786 272.034 268.724 269.072 270.992C269.072 270.992 266.11 276.472 266.11 283.234C266.11 283.234 267.838 286.278 272.384 286.426C272.384 286.426 273.144 285.482 273.764 284.684C271.15 283.884 270.164 282.204 270.164 282.204C270.164 282.204 270.368 282.352 270.738 282.562C270.758 282.582 270.778 282.604 270.82 282.624C270.882 282.668 270.944 282.688 271.006 282.73C271.52 283.024 272.034 283.254 272.506 283.444C273.35 283.78 274.358 284.116 275.532 284.348C277.291 284.693 279.099 284.7 280.86 284.368C281.886 284.185 282.887 283.882 283.842 283.466C284.562 283.192 285.364 282.792 286.208 282.226C286.208 282.226 285.18 283.948 282.484 284.726C283.102 285.524 283.844 286.426 283.844 286.426H283.842Z" fill="#E94F2E"/>
<path d="M640.324 267.312C638.797 267.987 637.178 268.431 635.52 268.628C637.268 267.583 638.576 265.938 639.2 264C637.56 264.976 635.762 265.66 633.888 266.03C632.629 264.683 630.961 263.79 629.142 263.489C627.323 263.188 625.456 263.497 623.831 264.367C622.205 265.237 620.913 266.619 620.154 268.299C619.396 269.98 619.214 271.863 619.636 273.658C616.31 273.491 613.057 272.627 610.087 271.121C607.117 269.615 604.496 267.502 602.396 264.918C601.653 266.195 601.262 267.646 601.264 269.124C601.264 272.024 602.74 274.586 604.984 276.086C603.656 276.044 602.357 275.685 601.196 275.04V275.144C601.197 277.075 601.865 278.947 603.088 280.442C604.311 281.937 606.013 282.963 607.906 283.346C606.673 283.68 605.381 283.729 604.126 283.49C604.66 285.152 605.7 286.606 607.101 287.648C608.502 288.69 610.194 289.267 611.94 289.3C610.205 290.663 608.218 291.67 606.094 292.264C603.969 292.859 601.748 293.028 599.558 292.764C603.382 295.223 607.832 296.528 612.378 296.524C627.764 296.524 636.178 283.778 636.178 272.724C636.178 272.364 636.168 272 636.152 271.644C637.79 270.46 639.203 268.994 640.326 267.314L640.324 267.312Z" fill="#E94F2E"/>
<path d="M702 433.003V422.339H706V437.005H674V422.339H678V433.005H702V433.003ZM681.198 422.471L681.824 418.511L699.498 421.911L699.272 425.083L681.198 422.471V422.471ZM683.598 413.407L685.062 410.207L701.058 417.673L699.592 420.871L683.596 413.407H683.598ZM688.128 405.543L690.394 402.877L703.99 414.207L701.724 416.873L688.128 405.543V405.543ZM696.792 397.279L707.322 411.407L704.522 413.541L693.994 399.411L696.794 397.279H696.792ZM680.664 430.335V426.335H699.324V430.335H680.664V430.335Z" fill="#E94F2E"/>
<path d="M878 582C866.954 582 858 573.046 858 562C858 550.954 866.954 542 878 542C889.046 542 898 550.954 898 562C898 573.046 889.046 582 878 582ZM891.34 562C891.319 561.437 891.136 560.892 890.813 560.431C890.49 559.969 890.04 559.611 889.518 559.4C888.996 559.189 888.423 559.133 887.87 559.239C887.317 559.346 886.806 559.61 886.4 560C884.125 558.453 881.45 557.599 878.7 557.54L880 551.3L884.28 552.2C884.331 552.673 884.549 553.112 884.894 553.439C885.24 553.766 885.691 553.959 886.166 553.983C886.641 554.008 887.109 553.862 887.486 553.573C887.864 553.283 888.125 552.868 888.225 552.403C888.324 551.938 888.254 551.452 888.027 551.034C887.801 550.616 887.433 550.292 886.989 550.12C886.545 549.949 886.055 549.941 885.606 550.099C885.157 550.257 884.779 550.569 884.54 550.98L879.64 550C879.56 549.982 879.477 549.981 879.396 549.996C879.316 550.01 879.239 550.041 879.17 550.085C879.101 550.13 879.042 550.188 878.995 550.256C878.949 550.323 878.917 550.4 878.9 550.48L877.42 557.42C874.636 557.462 871.925 558.317 869.62 559.88C869.312 559.59 868.944 559.37 868.542 559.236C868.141 559.103 867.715 559.058 867.294 559.105C866.873 559.152 866.468 559.29 866.106 559.509C865.744 559.729 865.434 560.024 865.197 560.375C864.961 560.726 864.803 561.125 864.736 561.543C864.669 561.961 864.693 562.388 864.808 562.796C864.922 563.203 865.124 563.581 865.399 563.903C865.674 564.225 866.015 564.483 866.4 564.66C866.377 564.953 866.377 565.247 866.4 565.54C866.4 570.02 871.62 573.66 878.06 573.66C884.5 573.66 889.72 570.02 889.72 565.54C889.743 565.247 889.743 564.953 889.72 564.66C890.214 564.415 890.628 564.035 890.914 563.564C891.201 563.093 891.349 562.551 891.34 562V562ZM871.34 564C871.34 563.47 871.551 562.961 871.926 562.586C872.301 562.211 872.81 562 873.34 562C873.87 562 874.379 562.211 874.754 562.586C875.129 562.961 875.34 563.47 875.34 564C875.34 564.53 875.129 565.039 874.754 565.414C874.379 565.789 873.87 566 873.34 566C872.81 566 872.301 565.789 871.926 565.414C871.551 565.039 871.34 564.53 871.34 564ZM882.96 569.5C881.541 570.569 879.795 571.114 878.02 571.04C876.245 571.114 874.499 570.569 873.08 569.5C872.995 569.396 872.951 569.265 872.958 569.131C872.965 568.997 873.021 568.87 873.116 568.776C873.21 568.681 873.337 568.625 873.471 568.618C873.605 568.611 873.736 568.655 873.84 568.74C875.042 569.622 876.51 570.067 878 570C879.492 570.081 880.966 569.651 882.18 568.78C882.231 568.723 882.294 568.677 882.363 568.644C882.433 568.612 882.509 568.595 882.585 568.593C882.662 568.591 882.739 568.606 882.81 568.635C882.881 568.664 882.945 568.707 882.999 568.762C883.052 568.817 883.094 568.882 883.121 568.954C883.149 569.026 883.161 569.103 883.157 569.179C883.153 569.256 883.134 569.331 883.1 569.4C883.066 569.469 883.019 569.53 882.96 569.58V569.5V569.5ZM882.6 566.08C882.204 566.08 881.818 565.963 881.489 565.743C881.16 565.523 880.904 565.211 880.752 564.845C880.601 564.48 880.561 564.078 880.638 563.69C880.716 563.302 880.906 562.945 881.186 562.666C881.465 562.386 881.822 562.196 882.21 562.118C882.598 562.041 883 562.081 883.365 562.232C883.731 562.384 884.043 562.64 884.263 562.969C884.483 563.298 884.6 563.684 884.6 564.08C884.611 564.351 884.566 564.621 884.47 564.875C884.373 565.128 884.225 565.359 884.036 565.553C883.847 565.748 883.621 565.902 883.371 566.006C883.12 566.111 882.851 566.163 882.58 566.16L882.6 566.08Z" fill="#E94F2E"/>
</g>
<defs>
<clipPath id="clip0_1111_3014">
<rect width="943" height="601.742" fill="white"/>
</clipPath>
</defs>
</svg>
