<svg width="855" height="611" viewBox="0 0 855 611" fill="none" xmlns="http://www.w3.org/2000/svg">
<rect width="855" height="611" fill="white"/>
<path d="M73.9899 3.18821C74.8344 3.18918 75.6441 3.52539 76.2413 4.12308C76.8385 4.72077 77.1744 5.53112 77.1753 6.37638V75.4644C77.1744 76.3097 76.8385 77.12 76.2413 77.7177C75.6441 78.3154 74.8344 78.6516 73.9899 78.6526H6.371C5.52646 78.6516 4.71679 78.3154 4.11961 77.7177C3.52244 77.12 3.18651 76.3097 3.18554 75.4644V6.37644C3.18651 5.53118 3.52244 4.72082 4.11961 4.12313C4.71679 3.52544 5.52646 3.18923 6.371 3.18826H73.9899V3.18821ZM73.9899 4.57932e-05H6.371C4.68131 4.57932e-05 3.06082 0.671845 1.86603 1.86766C0.671239 3.06348 0 4.68535 0 6.37649V75.4644C0 77.1555 0.671239 78.7774 1.86603 79.9732C3.06082 81.169 4.68131 81.8408 6.371 81.8408H73.9899C75.6796 81.8408 77.3001 81.169 78.4949 79.9732C79.6897 78.7774 80.3609 77.1555 80.3609 75.4644V6.37644C80.3609 4.68531 79.6897 3.06343 78.4949 1.86761C77.3001 0.6718 75.6796 2.65313e-06 73.9899 0V4.57932e-05Z" fill="#3F3D56"/>
<path d="M63.4429 21.3484H18.3281C18.1181 21.3496 17.91 21.3094 17.7156 21.2298C17.5212 21.1503 17.3445 21.0331 17.1956 20.8849C17.0466 20.7368 16.9284 20.5606 16.8478 20.3666C16.7671 20.1725 16.7256 19.9644 16.7256 19.7543C16.7256 19.5441 16.7671 19.336 16.8478 19.142C16.9284 18.9479 17.0466 18.7718 17.1956 18.6236C17.3445 18.4755 17.5212 18.3582 17.7156 18.2787C17.91 18.1992 18.1181 18.1589 18.3281 18.1602H63.4429C63.6529 18.1589 63.8611 18.1992 64.0555 18.2787C64.2498 18.3582 64.4266 18.4755 64.5755 18.6236C64.7244 18.7718 64.8426 18.9479 64.9233 19.142C65.0039 19.336 65.0455 19.5441 65.0455 19.7543C65.0455 19.9644 65.0039 20.1725 64.9233 20.3666C64.8426 20.5606 64.7244 20.7368 64.5755 20.8849C64.4266 21.0331 64.2498 21.1503 64.0555 21.2298C63.8611 21.3094 63.6529 21.3496 63.4429 21.3484V21.3484Z" fill="#E94F2E"/>
<path d="M63.4429 32.6374H18.3281C18.1181 32.6387 17.91 32.5984 17.7156 32.5189C17.5212 32.4394 17.3445 32.3221 17.1956 32.174C17.0466 32.0258 16.9284 31.8497 16.8478 31.6556C16.7671 31.4616 16.7256 31.2535 16.7256 31.0433C16.7256 30.8332 16.7671 30.6251 16.8478 30.431C16.9284 30.237 17.0466 30.0608 17.1956 29.9127C17.3445 29.7645 17.5212 29.6473 17.7156 29.5678C17.91 29.4882 18.1181 29.448 18.3281 29.4492H63.4429C63.6529 29.448 63.8611 29.4882 64.0555 29.5678C64.2498 29.6473 64.4266 29.7645 64.5755 29.9127C64.7244 30.0608 64.8426 30.237 64.9233 30.431C65.0039 30.6251 65.0455 30.8332 65.0455 31.0433C65.0455 31.2535 65.0039 31.4616 64.9233 31.6556C64.8426 31.8497 64.7244 32.0258 64.5755 32.174C64.4266 32.3221 64.2498 32.4394 64.0555 32.5189C63.8611 32.5984 63.6529 32.6387 63.4429 32.6374V32.6374Z" fill="#E94F2E"/>
<path d="M63.4429 43.9245H18.3281C18.1181 43.9258 17.91 43.8855 17.7156 43.806C17.5212 43.7265 17.3445 43.6093 17.1956 43.4611C17.0466 43.3129 16.9284 43.1368 16.8478 42.9427C16.7671 42.7487 16.7256 42.5406 16.7256 42.3304C16.7256 42.1203 16.7671 41.9122 16.8478 41.7181C16.9284 41.5241 17.0466 41.3479 17.1956 41.1998C17.3445 41.0516 17.5212 40.9344 17.7156 40.8549C17.91 40.7753 18.1181 40.7351 18.3281 40.7364H63.4429C63.6529 40.7351 63.8611 40.7753 64.0555 40.8549C64.2498 40.9344 64.4266 41.0516 64.5755 41.1998C64.7244 41.3479 64.8426 41.5241 64.9233 41.7181C65.0039 41.9122 65.0455 42.1203 65.0455 42.3304C65.0455 42.5406 65.0039 42.7487 64.9233 42.9427C64.8426 43.1368 64.7244 43.3129 64.5755 43.4611C64.4266 43.6093 64.2498 43.7265 64.0555 43.806C63.8611 43.8855 63.6529 43.9258 63.4429 43.9245V43.9245Z" fill="#E94F2E"/>
<path d="M63.4429 55.2136H18.3281C18.1181 55.2149 17.91 55.1746 17.7156 55.0951C17.5212 55.0155 17.3445 54.8983 17.1956 54.7502C17.0466 54.602 16.9284 54.4258 16.8478 54.2318C16.7671 54.0378 16.7256 53.8297 16.7256 53.6195C16.7256 53.4093 16.7671 53.2012 16.8478 53.0072C16.9284 52.8132 17.0466 52.637 17.1956 52.4888C17.3445 52.3407 17.5212 52.2235 17.7156 52.1439C17.91 52.0644 18.1181 52.0241 18.3281 52.0254H63.4429C63.6529 52.0241 63.8611 52.0644 64.0555 52.1439C64.2498 52.2235 64.4266 52.3407 64.5755 52.4888C64.7244 52.637 64.8426 52.8132 64.9233 53.0072C65.0039 53.2012 65.0455 53.4093 65.0455 53.6195C65.0455 53.8297 65.0039 54.0378 64.9233 54.2318C64.8426 54.4258 64.7244 54.602 64.5755 54.7502C64.4266 54.8983 64.2498 55.0155 64.0555 55.0951C63.8611 55.1746 63.6529 55.2149 63.4429 55.2136V55.2136Z" fill="#E94F2E"/>
<path d="M63.4429 66.5027H18.3281C17.9057 66.5027 17.5005 66.3347 17.2018 66.0358C16.9031 65.7368 16.7354 65.3314 16.7354 64.9086C16.7354 64.4858 16.9031 64.0803 17.2018 63.7814C17.5005 63.4824 17.9057 63.3145 18.3281 63.3145H63.4429C63.8654 63.3145 64.2705 63.4824 64.5692 63.7814C64.8679 64.0803 65.0357 64.4858 65.0357 64.9086C65.0357 65.3314 64.8679 65.7368 64.5692 66.0358C64.2705 66.3347 63.8654 66.5027 63.4429 66.5027V66.5027Z" fill="#E94F2E"/>
<path d="M304.938 3.18821C305.783 3.18918 306.592 3.52539 307.19 4.12308C307.787 4.72077 308.123 5.53112 308.124 6.37638V75.4644C308.123 76.3097 307.787 77.12 307.19 77.7177C306.592 78.3154 305.783 78.6516 304.938 78.6526H237.319C236.475 78.6516 235.665 78.3154 235.068 77.7177C234.471 77.12 234.135 76.3097 234.134 75.4644V6.37644C234.135 5.53118 234.471 4.72082 235.068 4.12313C235.665 3.52544 236.475 3.18923 237.319 3.18826H304.938V3.18821ZM304.938 4.57932e-05H237.319C235.63 4.57932e-05 234.009 0.671845 232.814 1.86766C231.619 3.06348 230.948 4.68535 230.948 6.37649V75.4644C230.948 77.1555 231.619 78.7774 232.814 79.9732C234.009 81.169 235.63 81.8408 237.319 81.8408H304.938C306.628 81.8408 308.248 81.169 309.443 79.9732C310.638 78.7774 311.309 77.1555 311.309 75.4644V6.37644C311.309 4.68531 310.638 3.06343 309.443 1.86761C308.248 0.671799 306.628 0 304.938 0V4.57932e-05Z" fill="#3F3D56"/>
<path d="M294.391 21.3484H249.276C249.066 21.3496 248.858 21.3094 248.664 21.2298C248.469 21.1503 248.293 21.0331 248.144 20.8849C247.995 20.7368 247.877 20.5606 247.796 20.3666C247.715 20.1725 247.674 19.9644 247.674 19.7543C247.674 19.5441 247.715 19.336 247.796 19.142C247.877 18.9479 247.995 18.7718 248.144 18.6236C248.293 18.4755 248.469 18.3582 248.664 18.2787C248.858 18.1992 249.066 18.1589 249.276 18.1602H294.391C294.812 18.1628 295.215 18.3319 295.511 18.6305C295.808 18.9292 295.974 19.3332 295.974 19.7543C295.974 20.1754 295.808 20.5793 295.511 20.878C295.215 21.1767 294.812 21.3458 294.391 21.3484H294.391Z" fill="#E94F2E"/>
<path d="M294.391 32.6374H249.276C249.066 32.6387 248.858 32.5984 248.664 32.5189C248.469 32.4394 248.293 32.3221 248.144 32.174C247.995 32.0258 247.877 31.8497 247.796 31.6556C247.715 31.4616 247.674 31.2535 247.674 31.0433C247.674 30.8332 247.715 30.6251 247.796 30.431C247.877 30.237 247.995 30.0608 248.144 29.9127C248.293 29.7645 248.469 29.6473 248.664 29.5678C248.858 29.4882 249.066 29.448 249.276 29.4492H294.391C294.812 29.4518 295.215 29.6209 295.511 29.9196C295.808 30.2183 295.974 30.6222 295.974 31.0433C295.974 31.4644 295.808 31.8684 295.511 32.1671C295.215 32.4657 294.812 32.6348 294.391 32.6374H294.391Z" fill="#E94F2E"/>
<path d="M294.391 43.9245H249.276C249.066 43.9258 248.858 43.8855 248.664 43.806C248.469 43.7265 248.293 43.6093 248.144 43.4611C247.995 43.3129 247.877 43.1368 247.796 42.9427C247.715 42.7487 247.674 42.5406 247.674 42.3304C247.674 42.1203 247.715 41.9122 247.796 41.7181C247.877 41.5241 247.995 41.3479 248.144 41.1998C248.293 41.0516 248.469 40.9344 248.664 40.8549C248.858 40.7753 249.066 40.7351 249.276 40.7364H294.391C294.812 40.7389 295.215 40.908 295.511 41.2067C295.808 41.5054 295.974 41.9093 295.974 42.3304C295.974 42.7515 295.808 43.1555 295.511 43.4542C295.215 43.7529 294.812 43.9219 294.391 43.9245H294.391Z" fill="#E94F2E"/>
<path d="M294.391 55.2136H249.276C249.066 55.2149 248.858 55.1746 248.664 55.0951C248.469 55.0155 248.293 54.8983 248.144 54.7502C247.995 54.602 247.877 54.4258 247.796 54.2318C247.715 54.0378 247.674 53.8297 247.674 53.6195C247.674 53.4093 247.715 53.2012 247.796 53.0072C247.877 52.8132 247.995 52.637 248.144 52.4888C248.293 52.3407 248.469 52.2235 248.664 52.1439C248.858 52.0644 249.066 52.0241 249.276 52.0254H294.391C294.812 52.028 295.215 52.1971 295.511 52.4958C295.808 52.7944 295.974 53.1984 295.974 53.6195C295.974 54.0406 295.808 54.4446 295.511 54.7433C295.215 55.0419 294.812 55.211 294.391 55.2136H294.391Z" fill="#E94F2E"/>
<path d="M294.391 66.5027H249.276C248.854 66.5027 248.449 66.3347 248.15 66.0358C247.851 65.7368 247.684 65.3314 247.684 64.9086C247.684 64.4858 247.851 64.0803 248.15 63.7814C248.449 63.4824 248.854 63.3145 249.276 63.3145H294.391C294.814 63.3145 295.219 63.4824 295.517 63.7814C295.816 64.0803 295.984 64.4858 295.984 64.9086C295.984 65.3314 295.816 65.7368 295.517 66.0358C295.219 66.3347 294.814 66.5027 294.391 66.5027H294.391Z" fill="#E94F2E"/>
<path d="M534.764 136.028C535.609 136.029 536.419 136.365 537.016 136.963C537.613 137.561 537.949 138.371 537.95 139.216V208.304C537.949 209.149 537.613 209.96 537.016 210.558C536.419 211.155 535.609 211.491 534.764 211.492H467.145C466.301 211.491 465.491 211.155 464.894 210.558C464.297 209.96 463.961 209.149 463.96 208.304V139.216C463.961 138.371 464.297 137.561 464.894 136.963C465.491 136.365 466.301 136.029 467.145 136.028H534.764V136.028ZM534.764 132.84H467.145C465.456 132.84 463.835 133.512 462.64 134.708C461.446 135.903 460.774 137.525 460.774 139.216V208.304C460.774 209.995 461.446 211.617 462.64 212.813C463.835 214.009 465.456 214.681 467.145 214.681H534.764C536.454 214.681 538.074 214.009 539.269 212.813C540.464 211.617 541.135 209.995 541.135 208.304V139.216C541.135 137.525 540.464 135.903 539.269 134.707C538.074 133.512 536.454 132.84 534.764 132.84V132.84Z" fill="#E94F2E"/>
<path d="M524.217 154.188H479.103C478.893 154.189 478.684 154.149 478.49 154.07C478.296 153.99 478.119 153.873 477.97 153.725C477.821 153.577 477.703 153.4 477.622 153.206C477.542 153.012 477.5 152.804 477.5 152.594C477.5 152.384 477.542 152.176 477.622 151.982C477.703 151.788 477.821 151.612 477.97 151.463C478.119 151.315 478.296 151.198 478.49 151.119C478.684 151.039 478.893 150.999 479.103 151H524.217C524.638 151.003 525.041 151.172 525.337 151.47C525.634 151.769 525.8 152.173 525.8 152.594C525.8 153.015 525.634 153.419 525.337 153.718C525.041 154.017 524.638 154.186 524.217 154.188V154.188Z" fill="#E94F2E"/>
<path d="M524.217 165.477H479.103C478.68 165.477 478.275 165.309 477.976 165.01C477.678 164.711 477.51 164.306 477.51 163.883C477.51 163.46 477.678 163.055 477.976 162.756C478.275 162.457 478.68 162.289 479.103 162.289H524.217C524.64 162.289 525.045 162.457 525.344 162.756C525.642 163.055 525.81 163.46 525.81 163.883C525.81 164.306 525.642 164.711 525.344 165.01C525.045 165.309 524.64 165.477 524.217 165.477V165.477Z" fill="#E94F2E"/>
<path d="M524.218 176.766H479.103C478.893 176.767 478.685 176.727 478.491 176.647C478.297 176.568 478.12 176.45 477.971 176.302C477.823 176.154 477.705 175.978 477.624 175.784C477.543 175.59 477.502 175.382 477.502 175.172C477.502 174.962 477.543 174.754 477.624 174.56C477.705 174.366 477.823 174.19 477.971 174.042C478.12 173.894 478.297 173.777 478.491 173.697C478.685 173.618 478.893 173.577 479.103 173.578H524.218C524.638 173.581 525.041 173.75 525.337 174.048C525.634 174.347 525.801 174.751 525.801 175.172C525.801 175.593 525.634 175.997 525.337 176.296C525.041 176.595 524.638 176.764 524.218 176.766V176.766Z" fill="#E94F2E"/>
<path d="M524.217 188.053H479.103C478.893 188.055 478.684 188.014 478.49 187.935C478.296 187.855 478.119 187.738 477.97 187.59C477.821 187.442 477.703 187.266 477.622 187.072C477.542 186.878 477.5 186.669 477.5 186.459C477.5 186.249 477.542 186.041 477.622 185.847C477.703 185.653 477.821 185.477 477.97 185.329C478.119 185.181 478.296 185.063 478.49 184.984C478.684 184.904 478.893 184.864 479.103 184.865H524.217C524.638 184.868 525.041 185.037 525.337 185.336C525.634 185.634 525.8 186.038 525.8 186.459C525.8 186.88 525.634 187.284 525.337 187.583C525.041 187.882 524.638 188.051 524.217 188.053V188.053Z" fill="#E94F2E"/>
<path d="M524.217 199.342H479.103C478.893 199.344 478.684 199.304 478.49 199.224C478.296 199.144 478.119 199.027 477.97 198.879C477.821 198.731 477.703 198.555 477.622 198.361C477.542 198.167 477.5 197.959 477.5 197.748C477.5 197.538 477.542 197.33 477.622 197.136C477.703 196.942 477.821 196.766 477.97 196.618C478.119 196.47 478.296 196.352 478.49 196.273C478.684 196.193 478.893 196.153 479.103 196.154H524.217C524.638 196.157 525.041 196.326 525.337 196.625C525.634 196.923 525.8 197.327 525.8 197.748C525.8 198.17 525.634 198.573 525.337 198.872C525.041 199.171 524.638 199.34 524.217 199.342V199.342Z" fill="#E94F2E"/>
<path d="M190.349 81.8399H120.959C119.083 81.8377 117.284 81.0906 115.957 79.7626C114.63 78.4346 113.884 76.634 113.881 74.7559V25.0613C113.883 23.1831 114.63 21.3824 115.957 20.0542C117.284 18.726 119.083 17.9788 120.959 17.9766H190.349C192.225 17.9786 194.025 18.7257 195.352 20.0539C196.679 21.3821 197.425 23.183 197.427 25.0613V74.7559C197.425 76.6341 196.679 78.4348 195.352 79.7628C194.025 81.0909 192.225 81.8378 190.349 81.8399V81.8399ZM120.959 21.1648C119.927 21.1661 118.938 21.577 118.208 22.3075C117.478 23.038 117.068 24.0284 117.067 25.0613V74.7559C117.068 75.7888 117.478 76.779 118.208 77.5094C118.938 78.2398 119.927 78.6505 120.959 78.6516H190.349C191.381 78.6506 192.37 78.2398 193.1 77.5095C193.83 76.7791 194.241 75.7889 194.242 74.7559V25.0613C194.241 24.0283 193.83 23.0379 193.1 22.3074C192.37 21.577 191.381 21.166 190.349 21.1648H120.959Z" fill="#3F3D56"/>
<path d="M178.212 40.2155H133.097C132.676 40.213 132.274 40.0439 131.977 39.7452C131.681 39.4465 131.514 39.0426 131.514 38.6215C131.514 38.2004 131.681 37.7964 131.977 37.4977C132.274 37.199 132.676 37.03 133.097 37.0274H178.212C178.422 37.0261 178.63 37.0664 178.825 37.1459C179.019 37.2254 179.196 37.3426 179.345 37.4908C179.494 37.639 179.612 37.8151 179.692 38.0092C179.773 38.2032 179.815 38.4113 179.815 38.6215C179.815 38.8316 179.773 39.0397 179.692 39.2338C179.612 39.4278 179.494 39.604 179.345 39.7521C179.196 39.9003 179.019 40.0175 178.825 40.097C178.63 40.1766 178.422 40.2168 178.212 40.2155V40.2155Z" fill="#E94F2E"/>
<path d="M178.212 51.5046H133.097C132.676 51.502 132.274 51.3329 131.977 51.0343C131.681 50.7356 131.514 50.3316 131.514 49.9105C131.514 49.4894 131.681 49.0854 131.977 48.7868C132.274 48.4881 132.676 48.319 133.097 48.3164H178.212C178.422 48.3151 178.63 48.3554 178.825 48.435C179.019 48.5145 179.196 48.6317 179.345 48.7799C179.494 48.928 179.612 49.1042 179.692 49.2982C179.773 49.4923 179.815 49.7004 179.815 49.9105C179.815 50.1207 179.773 50.3288 179.692 50.5228C179.612 50.7169 179.494 50.893 179.345 51.0412C179.196 51.1893 179.019 51.3066 178.825 51.3861C178.63 51.4656 178.422 51.5059 178.212 51.5046V51.5046Z" fill="#E94F2E"/>
<path d="M178.212 62.7917H133.097C132.676 62.7891 132.274 62.62 131.977 62.3214C131.681 62.0227 131.514 61.6187 131.514 61.1976C131.514 60.7765 131.681 60.3726 131.977 60.0739C132.274 59.7752 132.676 59.6061 133.097 59.6035H178.212C178.422 59.6023 178.63 59.6425 178.825 59.7221C179.019 59.8016 179.196 59.9188 179.345 60.067C179.494 60.2151 179.612 60.3913 179.692 60.5853C179.773 60.7794 179.815 60.9875 179.815 61.1976C179.815 61.4078 179.773 61.6159 179.692 61.8099C179.612 62.004 179.494 62.1801 179.345 62.3283C179.196 62.4764 179.019 62.5937 178.825 62.6732C178.63 62.7527 178.422 62.793 178.212 62.7917V62.7917Z" fill="#E94F2E"/>
<path d="M420.594 109.378L353.951 90.0344C352.149 89.5092 350.629 88.2902 349.724 86.6448C348.82 84.9995 348.604 83.0621 349.124 81.2577L362.954 33.5296C363.478 31.7262 364.696 30.2048 366.34 29.2991C367.984 28.3933 369.92 28.1773 371.723 28.6982L438.367 48.0415C440.169 48.5667 441.689 49.7858 442.594 51.4313C443.499 53.0769 443.714 55.0146 443.194 56.8192L429.364 104.547C428.84 106.351 427.621 107.872 425.977 108.777C424.333 109.683 422.397 109.899 420.594 109.378V109.378ZM370.836 31.7603C369.844 31.4738 368.78 31.5927 367.875 32.0909C366.971 32.589 366.302 33.4258 366.013 34.4176L352.184 82.1457C351.897 83.138 352.016 84.2035 352.514 85.1084C353.011 86.0133 353.847 86.6836 354.838 86.9724L421.482 106.316C422.473 106.602 423.538 106.484 424.442 105.986C425.346 105.488 426.016 104.651 426.305 103.659L440.134 55.9312C440.421 54.9387 440.302 53.873 439.804 52.968C439.306 52.063 438.47 51.3925 437.479 51.1036L370.836 31.7603Z" fill="#3F3D56"/>
<path d="M420.522 66.0151L377.192 53.4387C376.787 53.3203 376.446 53.046 376.243 52.6758C376.039 52.3057 375.991 51.8701 376.109 51.4646C376.226 51.059 376.5 50.7167 376.869 50.5128C377.239 50.3088 377.674 50.2599 378.079 50.3767L421.409 62.953C421.815 63.0708 422.157 63.345 422.361 63.7154C422.564 64.0858 422.613 64.522 422.495 64.9281C422.377 65.3341 422.103 65.6768 421.733 65.8806C421.363 66.0845 420.927 66.1329 420.522 66.0151H420.522Z" fill="#E94F2E"/>
<path d="M417.38 76.8578L374.05 64.2814C373.85 64.2231 373.662 64.1257 373.499 63.9949C373.336 63.8641 373.2 63.7024 373.099 63.519C372.998 63.3356 372.934 63.1341 372.911 62.9261C372.888 62.718 372.906 62.5074 372.964 62.3064C373.023 62.1053 373.12 61.9177 373.251 61.7543C373.381 61.5908 373.543 61.4547 373.726 61.3538C373.909 61.2529 374.111 61.189 374.319 61.166C374.526 61.1429 374.737 61.161 374.938 61.2193L418.267 73.7957C418.672 73.9141 419.014 74.1885 419.217 74.5586C419.42 74.9287 419.468 75.3643 419.35 75.7699C419.233 76.1754 418.959 76.5177 418.59 76.7217C418.221 76.9256 417.785 76.9746 417.38 76.8578V76.8578Z" fill="#E94F2E"/>
<path d="M414.239 87.6987L370.909 75.1223C370.504 75.0039 370.163 74.7296 369.96 74.3594C369.757 73.9893 369.709 73.5537 369.826 73.1482C369.944 72.7426 370.217 72.4003 370.587 72.1964C370.956 71.9924 371.391 71.9435 371.797 72.0603L415.126 84.6366C415.532 84.7544 415.874 85.0286 416.078 85.399C416.282 85.7694 416.33 86.2056 416.212 86.6117C416.095 87.0177 415.821 87.3604 415.451 87.5642C415.08 87.7681 414.645 87.8165 414.239 87.6987V87.6987Z" fill="#E94F2E"/>
<path d="M855 607.998H156.029V610.999H855V607.998Z" fill="#3F3D56"/>
<path d="M561.865 603.306H448.202L452.055 553.176H558.012L561.865 603.306Z" fill="#E6E6E6"/>
<path d="M569.57 597.523H442.422V609.092H569.57V597.523Z" fill="#E6E6E6"/>
<path d="M722.726 230.213H288.303C285.237 230.213 282.297 231.432 280.13 233.601C277.962 235.771 276.744 238.713 276.744 241.782V241.782V506.901H734.285V241.782C734.285 240.262 733.986 238.758 733.405 237.355C732.824 235.951 731.973 234.676 730.899 233.601C729.826 232.527 728.552 231.675 727.149 231.094C725.747 230.512 724.244 230.213 722.726 230.213H722.726Z" fill="#3F3D56"/>
<path d="M276.744 506.9V550.284C276.744 551.803 277.043 553.307 277.624 554.711C278.205 556.114 279.056 557.39 280.13 558.464C281.203 559.538 282.477 560.39 283.88 560.972C285.282 561.553 286.785 561.852 288.303 561.852H722.726C725.792 561.852 728.732 560.634 730.899 558.464C733.067 556.294 734.285 553.352 734.285 550.284V506.9H276.744Z" fill="#E6E6E6"/>
<path d="M712.131 254.314H299.862V485.691H712.131V254.314Z" fill="#E6E6E6"/>
<path d="M505.996 545.464C512.38 545.464 517.555 540.284 517.555 533.895C517.555 527.506 512.38 522.326 505.996 522.326C499.613 522.326 494.438 527.506 494.438 533.895C494.438 540.284 499.613 545.464 505.996 545.464Z" fill="#3F3D56"/>
<path d="M312.717 264.086C313.929 264.086 314.911 263.103 314.911 261.891C314.911 260.678 313.929 259.695 312.717 259.695C311.506 259.695 310.523 260.678 310.523 261.891C310.523 263.103 311.506 264.086 312.717 264.086Z" fill="white"/>
<path d="M321.043 264.086C322.255 264.086 323.237 263.103 323.237 261.891C323.237 260.678 322.255 259.695 321.043 259.695C319.832 259.695 318.85 260.678 318.85 261.891C318.85 263.103 319.832 264.086 321.043 264.086Z" fill="white"/>
<path d="M329.369 264.086C330.581 264.086 331.563 263.103 331.563 261.891C331.563 260.678 330.581 259.695 329.369 259.695C328.158 259.695 327.176 260.678 327.176 261.891C327.176 263.103 328.158 264.086 329.369 264.086Z" fill="white"/>
<path d="M700.249 269.352H310.523V463.67H700.249V269.352Z" fill="white"/>
<path d="M336.43 298.908C336.064 298.909 335.714 299.054 335.456 299.312C335.197 299.571 335.052 299.922 335.052 300.287V369.989C335.052 370.354 335.197 370.705 335.456 370.963C335.714 371.222 336.064 371.367 336.43 371.367H416.854C417.22 371.367 417.57 371.222 417.828 370.963C418.087 370.705 418.232 370.354 418.232 369.989V300.287C418.232 299.922 418.087 299.571 417.828 299.312C417.57 299.054 417.22 298.909 416.854 298.908H336.43Z" fill="#E6E6E6"/>
<path d="M593.34 298.404C592.975 298.405 592.625 298.55 592.367 298.809C592.108 299.067 591.963 299.418 591.963 299.783V369.989C591.963 370.354 592.108 370.705 592.367 370.963C592.625 371.222 592.975 371.367 593.34 371.368H674.343C674.708 371.367 675.058 371.222 675.316 370.963C675.574 370.705 675.719 370.354 675.72 369.989V299.783C675.719 299.418 675.574 299.067 675.316 298.809C675.058 298.55 674.708 298.405 674.343 298.404H593.34Z" fill="#E6E6E6"/>
<path d="M337.9 405.869C337.145 405.871 336.422 406.172 335.889 406.706C335.356 407.241 335.057 407.965 335.057 408.72C335.057 409.475 335.356 410.2 335.889 410.734C336.422 411.269 337.145 411.57 337.9 411.571H413.515C414.27 411.57 414.993 411.269 415.526 410.734C416.059 410.2 416.358 409.475 416.358 408.72C416.358 407.965 416.059 407.241 415.526 406.706C414.993 406.172 414.27 405.871 413.515 405.869H337.9Z" fill="#E6E6E6"/>
<path d="M337.9 419.43C337.145 419.431 336.422 419.732 335.889 420.267C335.356 420.801 335.057 421.526 335.057 422.281C335.057 423.036 335.356 423.76 335.889 424.295C336.422 424.83 337.145 425.131 337.9 425.132H371.945C372.7 425.131 373.423 424.83 373.956 424.295C374.489 423.76 374.789 423.036 374.789 422.281C374.789 421.526 374.489 420.801 373.956 420.267C373.423 419.732 372.7 419.431 371.945 419.43H337.9Z" fill="#E94F2E"/>
<path d="M468.42 405.869C467.666 405.871 466.943 406.172 466.41 406.706C465.877 407.241 465.577 407.965 465.577 408.72C465.577 409.475 465.877 410.2 466.41 410.734C466.943 411.269 467.666 411.57 468.42 411.571H544.036C544.79 411.57 545.513 411.269 546.046 410.734C546.579 410.2 546.879 409.475 546.879 408.72C546.879 407.965 546.579 407.241 546.046 406.706C545.513 406.172 544.79 405.871 544.036 405.869H468.42Z" fill="#E6E6E6"/>
<path d="M468.42 419.43C467.665 419.431 466.942 419.732 466.409 420.267C465.876 420.801 465.577 421.526 465.577 422.281C465.577 423.036 465.876 423.76 466.409 424.295C466.942 424.83 467.665 425.131 468.42 425.132H502.466C503.22 425.131 503.944 424.83 504.477 424.295C505.01 423.76 505.309 423.036 505.309 422.281C505.309 421.526 505.01 420.801 504.477 420.267C503.944 419.732 503.22 419.431 502.466 419.43H468.42Z" fill="#E94F2E"/>
<path d="M595.678 405.869C594.924 405.871 594.2 406.172 593.667 406.706C593.134 407.241 592.835 407.965 592.835 408.72C592.835 409.475 593.134 410.2 593.667 410.734C594.2 411.269 594.924 411.57 595.678 411.571H671.293C672.048 411.57 672.771 411.269 673.304 410.734C673.837 410.2 674.137 409.475 674.137 408.72C674.137 407.965 673.837 407.241 673.304 406.706C672.771 406.172 672.048 405.871 671.293 405.869H595.678Z" fill="#E6E6E6"/>
<path d="M337.9 391.865C337.145 391.867 336.422 392.168 335.889 392.702C335.356 393.237 335.057 393.961 335.057 394.716C335.057 395.471 335.356 396.196 335.889 396.73C336.422 397.265 337.145 397.566 337.9 397.567H413.515C414.27 397.566 414.993 397.265 415.526 396.73C416.059 396.196 416.358 395.471 416.358 394.716C416.358 393.961 416.059 393.237 415.526 392.702C414.993 392.168 414.27 391.867 413.515 391.865H337.9Z" fill="#E6E6E6"/>
<path d="M468.42 391.865C467.666 391.867 466.943 392.168 466.41 392.702C465.877 393.237 465.577 393.961 465.577 394.716C465.577 395.471 465.877 396.196 466.41 396.73C466.943 397.265 467.666 397.566 468.42 397.567H544.036C544.79 397.566 545.513 397.265 546.046 396.73C546.579 396.196 546.879 395.471 546.879 394.716C546.879 393.961 546.579 393.237 546.046 392.702C545.513 392.168 544.79 391.867 544.036 391.865H468.42Z" fill="#E6E6E6"/>
<path d="M595.678 391.865C594.924 391.867 594.2 392.168 593.667 392.702C593.134 393.237 592.835 393.961 592.835 394.716C592.835 395.471 593.134 396.196 593.667 396.73C594.2 397.265 594.924 397.566 595.678 397.567H671.293C672.048 397.566 672.771 397.265 673.304 396.73C673.837 396.196 674.137 395.471 674.137 394.716C674.137 393.961 673.837 393.237 673.304 392.702C672.771 392.168 672.048 391.867 671.293 391.865H595.678Z" fill="#E6E6E6"/>
<path d="M595.678 419.43C594.924 419.431 594.201 419.732 593.668 420.267C593.134 420.801 592.835 421.526 592.835 422.281C592.835 423.036 593.134 423.76 593.668 424.295C594.201 424.83 594.924 425.131 595.678 425.132H629.723C630.478 425.131 631.201 424.83 631.734 424.295C632.267 423.76 632.567 423.036 632.567 422.281C632.567 421.526 632.267 420.801 631.734 420.267C631.201 419.732 630.478 419.431 629.723 419.43H595.678Z" fill="#E94F2E"/>
</svg>
