<svg width="120" height="134" viewBox="0 0 120 134" fill="none" xmlns="http://www.w3.org/2000/svg">
<path d="M53.3333 87H66.6667V100.333H53.3333V87ZM66.6667 76.0334V80.3334H53.3333V70.3334C53.3333 68.5653 54.0357 66.8696 55.286 65.6193C56.5362 64.3691 58.2319 63.6667 60 63.6667C61.8939 63.6666 63.7487 63.1287 65.3488 62.1156C66.9489 61.1025 68.2284 59.6558 69.0385 57.9439C69.8485 56.2321 70.1558 54.3253 69.9245 52.4457C69.6933 50.566 68.933 48.7906 67.7322 47.3261C66.5314 45.8616 64.9394 44.7682 63.1415 44.1732C61.3435 43.5781 59.4136 43.5058 57.5762 43.9647C55.7388 44.4237 54.0694 45.3949 52.7624 46.7655C51.4555 48.1361 50.5645 49.8496 50.1933 51.7067L37.1133 49.0867C37.9242 45.0339 39.7967 41.2692 42.5395 38.1773C45.2822 35.0854 48.7968 32.7773 52.7239 31.4888C56.6511 30.2004 60.8499 29.9779 64.8912 30.8441C68.9325 31.7103 72.6713 33.6341 75.7255 36.4189C78.7796 39.2036 81.0395 42.7494 82.2741 46.6938C83.5087 50.6382 83.6738 54.8397 82.7524 58.8688C81.8311 62.8979 79.8564 66.61 77.0301 69.6258C74.2039 72.6416 70.6276 74.8528 66.6667 76.0334ZM80 13.6667H13.3333V120.333H106.667V40.3334H80V13.6667ZM0 6.94671C0 3.29338 2.98 0.333374 6.66 0.333374H86.6667L120 33.6667V126.953C120.006 127.829 119.84 128.697 119.51 129.508C119.181 130.319 118.695 131.058 118.08 131.681C117.466 132.305 116.734 132.801 115.928 133.141C115.121 133.482 114.255 133.661 113.38 133.667H6.62C4.86919 133.655 3.19345 132.954 1.95478 131.717C0.71612 130.479 0.0139643 128.804 0 127.053V6.94671Z" fill="#E5E7EB"/>
</svg>
