<svg xmlns="http://www.w3.org/2000/svg" xmlns:xlink="http://www.w3.org/1999/xlink" width="500" zoomAndPan="magnify" viewBox="0 0 375 374.999991" height="500" preserveAspectRatio="xMidYMid meet" version="1.0"><defs><clipPath id="02ff35a808"><path d="M 70 58.125 L 311.976562 58.125 L 311.976562 303 L 70 303 Z M 70 58.125 " clip-rule="nonzero"/></clipPath><clipPath id="3b198049f4"><path d="M 70 98 L 251 98 L 251 316.875 L 70 316.875 Z M 70 98 " clip-rule="nonzero"/></clipPath></defs><g clip-path="url(#02ff35a808)"><path fill="#ac79f2" d="M 70.503906 178.726562 C 70.503906 112.117188 124.5 58.125 191.105469 58.125 C 257.710938 58.125 311.707031 112.117188 311.707031 178.726562 C 311.707031 219.226562 291.738281 255.074219 261.101562 276.9375 C 260.839844 277.125 275.761719 302.878906 275.761719 302.878906 L 260.089844 277.035156 L 243.621094 244.402344 L 233.023438 237.941406 L 244.589844 231.257812 L 233.125 222.683594 L 268.054688 229.265625 L 243.738281 189.003906 L 224.140625 183.902344 C 217.613281 165.699219 207.214844 149.164062 191.410156 137.035156 C 184.25 131.542969 176.164062 127.136719 167.597656 124.28125 C 164.195312 123.148438 160.066406 122.003906 156.46875 121.644531 L 152.9375 121.285156 L 151.488281 124.523438 C 150.003906 127.8125 148.925781 131.976562 148.207031 135.476562 C 146.398438 144.328125 146.15625 153.535156 147.34375 162.472656 C 149.949219 182.222656 159.074219 199.488281 171.574219 214.246094 L 166.203125 233.777344 L 188.914062 274.964844 L 200.675781 241.417969 L 202.375 255.640625 L 213.941406 248.960938 L 214.246094 261.363281 L 233.960938 291.476562 C 233.613281 291.609375 233.265625 291.738281 232.917969 291.871094 C 219.902344 296.675781 205.832031 299.304688 191.140625 299.304688 C 124.535156 299.304688 70.539062 245.308594 70.539062 178.703125 Z M 230.867188 242.160156 L 227.871094 240.925781 L 230.53125 239.390625 L 230.878906 242.160156 Z M 216.402344 247.542969 L 219.0625 246.007812 L 218.636719 249.222656 L 216.414062 247.542969 Z M 216.402344 247.542969 " fill-opacity="1" fill-rule="evenodd"/></g><g clip-path="url(#3b198049f4)"><path fill="#7326e4" d="M 70.503906 178.726562 C 70.503906 147.726562 82.199219 119.464844 101.425781 98.101562 C 101.273438 98.605469 63.269531 227.042969 184.730469 267.445312 L 188.882812 274.988281 L 190.855469 269.363281 C 200.871094 272.328125 211.902344 274.738281 224.066406 276.449219 L 250.648438 316.839844 C 250.648438 316.839844 232.992188 291.847656 232.992188 291.847656 C 219.945312 296.6875 205.832031 299.324219 191.09375 299.324219 C 124.488281 299.324219 70.496094 245.332031 70.496094 178.726562 Z M 70.503906 178.726562 " fill-opacity="1" fill-rule="evenodd"/></g><path fill="#7326e4" d="M 227.664062 222.582031 C 218.070312 132.882812 155.957031 126.550781 155.957031 126.550781 C 155.957031 126.550781 130.386719 183.507812 203.269531 236.664062 Z M 171.714844 153.839844 C 163.617188 158.515625 160.839844 168.871094 165.515625 176.96875 C 170.191406 185.066406 180.546875 187.847656 188.644531 183.171875 C 196.742188 178.496094 199.519531 168.140625 194.84375 160.042969 C 190.167969 151.945312 179.816406 149.164062 171.714844 153.839844 Z M 251.183594 291.476562 L 223.519531 249.765625 L 224.195312 244.730469 L 228.894531 246.660156 Z M 206.34375 247.675781 L 205.4375 240.066406 L 229.539062 226.148438 L 235.671875 230.738281 L 206.34375 247.664062 Z M 224.152344 189.003906 L 240.558594 193.273438 L 258.148438 222.410156 L 231.859375 217.449219 C 231.859375 217.449219 228.371094 199.335938 224.140625 188.992188 Z M 218.996094 255.675781 L 219.097656 259.871094 L 237.125 287.402344 L 222.257812 258.136719 L 218.988281 255.664062 Z M 175.957031 216.839844 L 171.453125 233.179688 L 187.890625 262.988281 L 196.742188 237.746094 C 196.742188 237.746094 182.800781 225.667969 175.957031 216.839844 Z M 236.273438 245.699219 L 239.859375 247.890625 L 254.691406 277.265625 L 236.785156 249.765625 L 236.285156 245.699219 Z M 236.273438 245.699219 " fill-opacity="1" fill-rule="evenodd"/><path fill="#7326e4" d="M 196.566406 95.957031 C 196.566406 96.484375 196.59375 97.011719 196.644531 97.539062 C 196.695312 98.066406 196.773438 98.589844 196.878906 99.109375 C 196.980469 99.628906 197.109375 100.144531 197.261719 100.652344 C 197.417969 101.15625 197.59375 101.65625 197.796875 102.144531 C 198 102.632812 198.226562 103.113281 198.476562 103.578125 C 198.726562 104.046875 199 104.5 199.292969 104.941406 C 199.585938 105.382812 199.902344 105.808594 200.238281 106.214844 C 200.574219 106.625 200.929688 107.019531 201.304688 107.390625 C 201.679688 107.765625 202.070312 108.121094 202.480469 108.457031 C 202.890625 108.792969 203.316406 109.109375 203.753906 109.402344 C 204.195312 109.699219 204.648438 109.96875 205.117188 110.21875 C 205.585938 110.46875 206.0625 110.695312 206.550781 110.898438 C 207.042969 111.101562 207.539062 111.28125 208.046875 111.433594 C 208.554688 111.585938 209.066406 111.714844 209.585938 111.820312 C 210.105469 111.921875 210.628906 112 211.15625 112.050781 C 211.683594 112.105469 212.210938 112.128906 212.742188 112.128906 C 213.269531 112.128906 213.800781 112.105469 214.328125 112.050781 C 214.855469 112 215.378906 111.921875 215.898438 111.820312 C 216.417969 111.714844 216.929688 111.585938 217.4375 111.433594 C 217.945312 111.28125 218.441406 111.101562 218.929688 110.898438 C 219.421875 110.695312 219.898438 110.46875 220.367188 110.21875 C 220.832031 109.96875 221.289062 109.699219 221.726562 109.402344 C 222.167969 109.109375 222.59375 108.792969 223.003906 108.457031 C 223.414062 108.121094 223.804688 107.765625 224.179688 107.390625 C 224.554688 107.019531 224.910156 106.625 225.246094 106.214844 C 225.582031 105.808594 225.894531 105.382812 226.191406 104.941406 C 226.484375 104.5 226.757812 104.046875 227.007812 103.578125 C 227.257812 103.113281 227.480469 102.632812 227.683594 102.144531 C 227.886719 101.65625 228.066406 101.15625 228.21875 100.652344 C 228.375 100.144531 228.503906 99.628906 228.605469 99.109375 C 228.707031 98.589844 228.785156 98.066406 228.839844 97.539062 C 228.890625 97.011719 228.917969 96.484375 228.917969 95.957031 C 228.917969 95.425781 228.890625 94.898438 228.839844 94.371094 C 228.785156 93.84375 228.707031 93.320312 228.605469 92.800781 C 228.503906 92.28125 228.375 91.765625 228.21875 91.261719 C 228.066406 90.753906 227.886719 90.253906 227.683594 89.765625 C 227.480469 89.277344 227.257812 88.796875 227.007812 88.332031 C 226.757812 87.863281 226.484375 87.410156 226.191406 86.96875 C 225.894531 86.527344 225.582031 86.105469 225.246094 85.695312 C 224.910156 85.285156 224.554688 84.894531 224.179688 84.519531 C 223.804688 84.144531 223.414062 83.789062 223.003906 83.453125 C 222.59375 83.117188 222.167969 82.800781 221.726562 82.507812 C 221.289062 82.210938 220.832031 81.941406 220.367188 81.691406 C 219.898438 81.441406 219.421875 81.214844 218.929688 81.011719 C 218.441406 80.808594 217.945312 80.632812 217.4375 80.476562 C 216.929688 80.324219 216.417969 80.195312 215.898438 80.089844 C 215.378906 79.988281 214.855469 79.910156 214.328125 79.859375 C 213.800781 79.808594 213.269531 79.78125 212.742188 79.78125 C 212.210938 79.78125 211.683594 79.808594 211.15625 79.859375 C 210.628906 79.910156 210.105469 79.988281 209.585938 80.089844 C 209.066406 80.195312 208.554688 80.324219 208.046875 80.476562 C 207.539062 80.632812 207.042969 80.808594 206.550781 81.011719 C 206.0625 81.214844 205.585938 81.441406 205.117188 81.691406 C 204.648438 81.941406 204.195312 82.210938 203.753906 82.507812 C 203.316406 82.800781 202.890625 83.117188 202.480469 83.453125 C 202.070312 83.789062 201.679688 84.144531 201.304688 84.519531 C 200.929688 84.894531 200.574219 85.285156 200.238281 85.695312 C 199.902344 86.105469 199.585938 86.527344 199.292969 86.96875 C 199 87.410156 198.726562 87.863281 198.476562 88.332031 C 198.226562 88.796875 198 89.277344 197.796875 89.765625 C 197.59375 90.253906 197.417969 90.753906 197.261719 91.261719 C 197.109375 91.765625 196.980469 92.28125 196.878906 92.800781 C 196.773438 93.320312 196.695312 93.84375 196.644531 94.371094 C 196.59375 94.898438 196.566406 95.425781 196.566406 95.957031 Z M 196.566406 95.957031 " fill-opacity="1" fill-rule="nonzero"/><path fill="#7326e4" d="M 238.234375 148.851562 C 238.234375 149.585938 238.308594 150.316406 238.449219 151.042969 C 238.59375 151.765625 238.808594 152.46875 239.089844 153.148438 C 239.371094 153.832031 239.71875 154.480469 240.128906 155.09375 C 240.539062 155.707031 241.003906 156.273438 241.527344 156.796875 C 242.046875 157.316406 242.617188 157.785156 243.230469 158.191406 C 243.84375 158.601562 244.492188 158.949219 245.171875 159.230469 C 245.855469 159.515625 246.554688 159.726562 247.28125 159.871094 C 248.003906 160.015625 248.734375 160.085938 249.472656 160.085938 C 250.210938 160.085938 250.941406 160.015625 251.664062 159.871094 C 252.386719 159.726562 253.089844 159.515625 253.773438 159.230469 C 254.453125 158.949219 255.101562 158.601562 255.714844 158.191406 C 256.328125 157.785156 256.898438 157.316406 257.417969 156.796875 C 257.941406 156.273438 258.40625 155.707031 258.816406 155.09375 C 259.226562 154.480469 259.570312 153.832031 259.855469 153.148438 C 260.136719 152.46875 260.351562 151.765625 260.492188 151.042969 C 260.636719 150.316406 260.710938 149.585938 260.710938 148.851562 C 260.710938 148.113281 260.636719 147.382812 260.492188 146.65625 C 260.351562 145.933594 260.136719 145.230469 259.855469 144.550781 C 259.570312 143.867188 259.226562 143.21875 258.816406 142.605469 C 258.40625 141.992188 257.941406 141.425781 257.417969 140.902344 C 256.898438 140.382812 256.328125 139.917969 255.714844 139.507812 C 255.101562 139.097656 254.453125 138.75 253.773438 138.46875 C 253.089844 138.183594 252.386719 137.972656 251.664062 137.828125 C 250.941406 137.683594 250.210938 137.613281 249.472656 137.613281 C 248.734375 137.613281 248.003906 137.683594 247.28125 137.828125 C 246.554688 137.972656 245.855469 138.183594 245.171875 138.46875 C 244.492188 138.75 243.84375 139.097656 243.230469 139.507812 C 242.617188 139.917969 242.046875 140.382812 241.527344 140.902344 C 241.003906 141.425781 240.539062 141.992188 240.128906 142.605469 C 239.71875 143.21875 239.371094 143.867188 239.089844 144.550781 C 238.808594 145.230469 238.59375 145.933594 238.449219 146.65625 C 238.308594 147.382812 238.234375 148.113281 238.234375 148.851562 Z M 238.234375 148.851562 " fill-opacity="1" fill-rule="nonzero"/><path fill="#051d40" d="M 222.015625 219.519531 L 219.421875 215.105469 L 221.753906 213.636719 L 224.371094 218.09375 Z M 222.015625 219.519531 " fill-opacity="1" fill-rule="evenodd"/><path fill="#7326e4" d="M 221.753906 213.636719 L 219.421875 215.105469 L 218.320312 215.171875 L 220.675781 213.796875 Z M 221.753906 213.636719 " fill-opacity="1" fill-rule="evenodd"/><path fill="#ac79f2" d="M 219.421875 215.105469 L 222.015625 219.519531 L 220.917969 219.683594 L 218.320312 215.171875 Z M 219.421875 215.105469 " fill-opacity="1" fill-rule="evenodd"/><path fill="#051d40" d="M 218.441406 221.613281 L 215.238281 216.152344 L 217.570312 214.683594 L 220.796875 220.1875 Z M 218.441406 221.613281 " fill-opacity="1" fill-rule="evenodd"/><path fill="#7326e4" d="M 217.570312 214.683594 L 215.238281 216.152344 L 214.136719 216.21875 L 216.492188 214.84375 Z M 217.570312 214.683594 " fill-opacity="1" fill-rule="evenodd"/><path fill="#ac79f2" d="M 215.238281 216.152344 L 218.441406 221.613281 L 217.339844 221.777344 L 214.136719 216.21875 Z M 215.238281 216.152344 " fill-opacity="1" fill-rule="evenodd"/><path fill="#051d40" d="M 214.835938 223.738281 L 210.855469 216.96875 L 213.1875 215.5 L 217.1875 222.3125 Z M 214.835938 223.738281 " fill-opacity="1" fill-rule="evenodd"/><path fill="#7326e4" d="M 213.1875 215.5 L 210.855469 216.96875 L 209.765625 217.023438 L 212.109375 215.664062 Z M 213.1875 215.5 " fill-opacity="1" fill-rule="evenodd"/><path fill="#ac79f2" d="M 210.855469 216.96875 L 214.835938 223.738281 L 213.734375 223.890625 L 209.765625 217.023438 Z M 210.855469 216.96875 " fill-opacity="1" fill-rule="evenodd"/><path fill="#051d40" d="M 211.171875 225.898438 L 206.160156 217.363281 L 208.492188 215.890625 L 213.527344 224.457031 Z M 211.171875 225.898438 " fill-opacity="1" fill-rule="evenodd"/><path fill="#7326e4" d="M 208.492188 215.890625 L 206.160156 217.363281 L 205.058594 217.429688 L 207.410156 216.054688 Z M 208.492188 215.890625 " fill-opacity="1" fill-rule="evenodd"/><path fill="#ac79f2" d="M 206.160156 217.363281 L 211.171875 225.898438 L 210.058594 226.050781 L 205.058594 217.429688 Z M 206.160156 217.363281 " fill-opacity="1" fill-rule="evenodd"/><path fill="#051d40" d="M 207.574219 228 L 201.265625 217.265625 L 203.597656 215.792969 L 209.929688 226.574219 Z M 207.574219 228 " fill-opacity="1" fill-rule="evenodd"/><path fill="#7326e4" d="M 203.597656 215.792969 L 201.265625 217.265625 L 200.175781 217.332031 L 202.527344 215.957031 Z M 203.597656 215.792969 " fill-opacity="1" fill-rule="evenodd"/><path fill="#ac79f2" d="M 201.265625 217.265625 L 207.574219 228 L 206.472656 228.164062 L 200.175781 217.332031 Z M 201.265625 217.265625 " fill-opacity="1" fill-rule="evenodd"/><path fill="#051d40" d="M 203.945312 230.136719 L 196.078125 216.742188 L 198.410156 215.269531 L 206.300781 228.699219 Z M 203.945312 230.136719 " fill-opacity="1" fill-rule="evenodd"/><path fill="#7326e4" d="M 198.410156 215.269531 L 196.078125 216.742188 L 194.988281 216.808594 L 197.339844 215.433594 Z M 198.410156 215.269531 " fill-opacity="1" fill-rule="evenodd"/><path fill="#ac79f2" d="M 196.078125 216.742188 L 203.945312 230.136719 L 202.84375 230.289062 L 194.988281 216.808594 Z M 196.078125 216.742188 " fill-opacity="1" fill-rule="evenodd"/><path fill="#051d40" d="M 200.339844 232.25 L 190.660156 215.792969 L 192.992188 214.320312 L 202.691406 230.824219 Z M 200.339844 232.25 " fill-opacity="1" fill-rule="evenodd"/><path fill="#7326e4" d="M 192.992188 214.320312 L 190.660156 215.792969 L 189.570312 215.859375 L 191.925781 214.484375 Z M 192.992188 214.320312 " fill-opacity="1" fill-rule="evenodd"/><path fill="#ac79f2" d="M 190.660156 215.792969 L 200.339844 232.25 L 199.226562 232.414062 L 189.570312 215.859375 Z M 190.660156 215.792969 " fill-opacity="1" fill-rule="evenodd"/></svg>