<svg width="133" height="24" viewBox="0 0 133 24" fill="none" xmlns="http://www.w3.org/2000/svg">
<path d="M58.1781 1.05855C58.2865 1.08358 58.3706 1.16904 58.3939 1.2778L58.9826 4.0243C59.0166 4.18262 58.9128 4.33762 58.7534 4.36649L53.0068 5.40771C52.8164 5.44222 52.6472 5.282 52.6712 5.08996L53.2776 0.251134C53.2987 0.0825371 53.461 -0.030794 53.6266 0.00743938L58.1781 1.05855Z" fill="#E94F2E"/>
<path fill-rule="evenodd" clip-rule="evenodd" d="M90.3239 24.0001C92.3183 24.0001 94.066 23.2601 95.1322 21.9504C95.3113 21.7305 95.7221 21.8215 95.7514 22.1036L95.8792 23.333C95.8943 23.4791 96.0175 23.5901 96.1643 23.5901H99.1513C99.3096 23.5901 99.438 23.4617 99.438 23.3034V0.413648C99.438 0.255311 99.3096 0.126953 99.1513 0.126953H95.9087C95.7504 0.126953 95.622 0.25531 95.622 0.413648V9.00846C95.622 9.29568 95.208 9.43024 95.006 9.22613C93.9435 8.15288 92.3289 7.53802 90.5447 7.53802C89.6887 7.53802 88.8945 7.65313 88.168 7.87076V12.1471C88.9044 11.4064 89.927 10.9755 91.1754 10.9755C93.856 10.9755 95.5905 12.9308 95.5905 15.7375C95.5905 18.5442 93.856 20.468 91.1754 20.468C89.927 20.468 88.9044 20.0439 88.168 19.3105V23.7193C88.8333 23.9035 89.5538 24.0001 90.3239 24.0001ZM109.471 24.0001C113.402 24.0001 116.185 22.0861 116.965 18.8842C117.008 18.709 116.872 18.5442 116.692 18.5442H113.69C113.563 18.5442 113.453 18.6283 113.408 18.7471C112.904 20.1011 111.549 20.8464 109.534 20.8464C107.079 20.8464 105.644 19.5651 105.284 17.0304C105.26 16.8624 105.392 16.7147 105.562 16.7143L116.691 16.6844C116.849 16.6839 116.977 16.5557 116.977 16.3977V15.5167C116.977 10.6601 114.012 7.53802 109.345 7.53802C104.772 7.53802 101.587 10.9124 101.587 15.8006C101.587 20.6257 104.835 24.0001 109.471 24.0001ZM109.376 10.6917C111.574 10.6917 113.025 11.9851 113.152 13.9683C113.162 14.1263 113.032 14.2553 112.874 14.2553H105.677C105.5 14.2553 105.365 14.0963 105.402 13.9235C105.855 11.8052 107.216 10.6917 109.376 10.6917ZM126.705 23.4137C126.661 23.5205 126.556 23.5901 126.441 23.5901H123.042C122.925 23.5901 122.819 23.5184 122.776 23.4091L116.822 8.4035C116.747 8.21528 116.886 8.01107 117.088 8.01107H120.568C120.687 8.01107 120.794 8.08477 120.836 8.19619L123.478 15.1698C123.895 16.341 124.262 17.4122 124.524 18.2576C124.614 18.55 125.118 18.5502 125.21 18.2583C125.492 17.3669 125.884 16.2818 126.316 15.1698L129.083 8.1921C129.126 8.08282 129.232 8.01107 129.349 8.01107H132.698C132.903 8.01107 133.041 8.21925 132.963 8.40811L126.705 23.4137Z" fill="url(#paint0_linear_309_85)"/>
<path d="M0 15.769C0 20.7203 3.09057 24.0001 7.82104 24.0001C11.7674 24.0001 14.7344 21.6557 15.3404 18.2048C15.3704 18.0344 15.2363 17.882 15.0633 17.882H11.7367C11.6042 17.882 11.49 17.9734 11.4518 18.1003C10.9815 19.6656 9.66092 20.531 7.82104 20.531C5.3612 20.531 3.84745 18.7019 3.84745 15.769C3.84745 12.8361 5.48734 10.9755 7.94719 10.9755C9.70015 10.9755 10.9607 11.8155 11.4513 13.4399C11.4893 13.5659 11.6031 13.6561 11.7347 13.6561H15.0385C15.2092 13.6561 15.3425 13.5075 15.3172 13.3388C14.7819 9.77042 11.9256 7.53802 7.78951 7.53802C3.18518 7.53802 0 10.944 0 15.769Z" fill="#140505"/>
<path d="M27.0837 8.17184C27.0837 8.04029 26.9942 7.92506 26.8658 7.89643C26.3273 7.7764 25.854 7.72724 25.3807 7.72724C23.7672 7.72724 22.5138 8.3526 21.7233 9.35359C21.5395 9.58639 21.0753 9.49516 21.0466 9.19991L20.9592 8.30156C20.9449 8.15466 20.8215 8.0426 20.6739 8.0426H17.594C17.4357 8.0426 17.3074 8.17096 17.3074 8.3293V23.3034C17.3074 23.4617 17.4357 23.5901 17.594 23.5901H20.8681C21.0264 23.5901 21.1548 23.4617 21.1548 23.3034V16.0213C21.1548 12.9938 22.8893 11.5116 25.6645 11.5116H26.797C26.9553 11.5116 27.0837 11.3833 27.0837 11.2249V8.17184Z" fill="#140505"/>
<path d="M27.3037 15.769C27.3037 20.6257 30.8042 23.9685 35.6293 23.9685C40.4544 23.9685 43.9549 20.6257 43.9549 15.769C43.9549 10.9124 40.4544 7.56956 35.6293 7.56956C30.8042 7.56956 27.3037 10.9124 27.3037 15.769ZM31.1511 15.769C31.1511 12.9308 32.9802 11.007 35.6293 11.007C38.2784 11.007 40.1075 12.9308 40.1075 15.769C40.1075 18.6073 38.2784 20.531 35.6293 20.531C32.9802 20.531 31.1511 18.6073 31.1511 15.769Z" fill="#140505"/>
<path d="M75.1051 24.0001C77.0994 24.0001 78.8472 23.2601 79.9134 21.9504C80.0925 21.7304 80.5033 21.8215 80.5326 22.1036L80.6603 23.333C80.6755 23.4791 80.7986 23.5901 80.9455 23.5901H83.9324C84.0907 23.5901 84.2191 23.4617 84.2191 23.3034V0.413648C84.2191 0.255311 84.0907 0.126953 83.9324 0.126953H80.6899C80.5316 0.126953 80.4032 0.255311 80.4032 0.413648V9.00847C80.4032 9.29568 79.9892 9.43024 79.7871 9.22613C78.7246 8.15288 77.11 7.53802 75.3258 7.53802C70.6269 7.53802 67.7886 11.007 67.7886 15.8636C67.7886 20.6887 70.5954 24.0001 75.1051 24.0001ZM75.9566 20.468C73.276 20.468 71.6361 18.5127 71.6361 15.7375C71.6361 12.9623 73.276 10.9755 75.9566 10.9755C78.6372 10.9755 80.3717 12.9308 80.3717 15.7375C80.3717 18.5442 78.6372 20.468 75.9566 20.468Z" fill="#140505"/>
<path fill-rule="evenodd" clip-rule="evenodd" d="M45.1421 11.4699C44.9713 11.5009 44.867 11.6752 44.9205 11.8403L48.6618 23.3917C48.7001 23.51 48.8103 23.5901 48.9346 23.5901H52.2698C52.3944 23.5901 52.5047 23.5096 52.5428 23.391L54.6234 16.9044C55.0237 15.6074 55.2939 14.6844 55.4836 13.995C55.5676 13.6894 56.0915 13.6999 56.1665 14.0078C56.352 14.7687 56.6121 15.7201 56.9571 16.8413L59.038 23.3902C59.0759 23.5092 59.1864 23.5901 59.3113 23.5901H62.4926C62.6147 23.5901 62.7235 23.5126 62.7635 23.3972L67.9577 8.39154C68.0222 8.20531 67.8839 8.01107 67.6868 8.01107H64.2323C64.1067 8.01107 63.9958 8.09271 63.9585 8.21254L61.9398 14.6968C61.7546 15.3347 61.4754 16.3487 61.2337 17.3005C61.1564 17.6045 60.6594 17.6006 60.5843 17.296C60.3292 16.261 60.0143 15.1112 59.89 14.6968L57.8713 8.21254C57.834 8.09271 57.723 8.01107 57.5975 8.01107H54.1072C53.9825 8.01107 53.8722 8.09155 53.8342 8.2102L51.7536 14.6968C51.4287 15.6917 51.1953 16.4513 50.9946 17.2702C50.9193 17.5771 50.4448 17.5768 50.3766 17.2683C50.1763 16.3629 49.9625 15.5028 49.7352 14.6968L48.6308 11.0948C48.5882 10.9559 48.4485 10.8708 48.3056 10.8967L45.1421 11.4699Z" fill="#140505"/>
<defs>
<linearGradient id="paint0_linear_309_85" x1="94.9167" y1="15.2409" x2="85.7803" y2="16.2561" gradientUnits="userSpaceOnUse">
<stop stop-color="#E94F2E"/>
<stop offset="1" stop-color="#CA2400"/>
</linearGradient>
</defs>
</svg>
