<svg width="40" height="41" viewBox="0 0 40 41" fill="none" xmlns="http://www.w3.org/2000/svg">
<path d="M23.0075 1.83558C23.1954 1.87898 23.3413 2.02717 23.3817 2.21577L24.4026 6.97835C24.4615 7.25289 24.2815 7.52167 24.0052 7.57172L14.0402 9.37726C13.71 9.4371 13.4166 9.15927 13.4583 8.82627L14.5098 0.435479C14.5464 0.143124 14.8279 -0.0533984 15.115 0.0129003L23.0075 1.83558Z" fill="#E94F2E"/>
<path fill-rule="evenodd" clip-rule="evenodd" d="M0.408718 19.9002C0.112586 19.9538 -0.0683301 20.2562 0.0244019 20.5425L6.51207 40.5732C6.57849 40.7783 6.76949 40.9172 6.98503 40.9172H12.7685C12.9845 40.9172 13.1759 40.7776 13.2419 40.5719L16.8497 29.3238C17.5439 27.0747 18.0125 25.4742 18.3414 24.2788C18.4872 23.7489 19.3955 23.7671 19.5257 24.3011C19.8473 25.6205 20.2983 27.2702 20.8965 29.2144L24.505 40.5706C24.5706 40.777 24.7623 40.9172 24.9788 40.9172H30.4953C30.7072 40.9172 30.8958 40.7829 30.9651 40.5827L39.9722 14.5621C40.084 14.2392 39.8442 13.9023 39.5025 13.9023H33.5121C33.2944 13.9023 33.1021 14.0439 33.0374 14.2517L29.5369 25.4958C29.2157 26.602 28.7316 28.3602 28.3123 30.0106C28.1784 30.5379 27.3165 30.5311 27.1864 30.0029C26.744 28.2081 26.1979 26.2144 25.9823 25.4958L22.4818 14.2517C22.4171 14.0439 22.2248 13.9023 22.0071 13.9023H15.9546C15.7385 13.9023 15.5472 14.0419 15.4812 14.2476L11.8733 25.4958C11.31 27.221 10.9053 28.5382 10.5572 29.9582C10.4267 30.4903 9.60387 30.4899 9.48555 29.9549C9.13832 28.3849 8.76762 26.8933 8.37343 25.4958L6.45834 19.2497C6.38451 19.0088 6.14225 18.8613 5.89441 18.9062L0.408718 19.9002Z" fill="#140505"/>
</svg>
