<svg width="16" height="16" viewBox="0 0 16 16" fill="none" xmlns="http://www.w3.org/2000/svg">
<path d="M0.580144 11.7366C0.414665 12.0065 0.228818 12.3196 0.0709765 12.5691C0.00306178 12.6839 -0.0171163 12.8207 0.0147792 12.9502C0.0466746 13.0797 0.128097 13.1915 0.241548 13.2616L3.55114 15.2982C3.60865 15.3337 3.67265 15.3574 3.73942 15.368C3.80619 15.3785 3.87438 15.3756 3.94002 15.3595C4.00566 15.3434 4.06743 15.3143 4.12174 15.2741C4.17605 15.2339 4.2218 15.1832 4.25633 15.1251C4.38872 14.9036 4.55929 14.616 4.74513 14.3079C6.05624 12.1439 7.37498 12.4087 9.7528 13.5442L13.0344 15.1048C13.0959 15.134 13.1627 15.1507 13.2307 15.1537C13.2988 15.1567 13.3668 15.146 13.4306 15.1223C13.4945 15.0985 13.5529 15.0622 13.6025 15.0155C13.6521 14.9687 13.6918 14.9125 13.7192 14.8502L15.2951 11.286C15.3486 11.1636 15.3519 11.0252 15.3043 10.9004C15.2567 10.7756 15.1619 10.6746 15.0405 10.619C14.348 10.2931 12.9707 9.64393 11.7309 9.04566C7.27061 6.87915 3.47985 7.01917 0.580144 11.7366Z" fill="url(#paint0_linear_428_11821)"/>
<path d="M15.4201 3.64848C15.5856 3.37863 15.7715 3.06549 15.9293 2.816C15.9972 2.70123 16.0174 2.5644 15.9855 2.43491C15.9536 2.30542 15.8722 2.19362 15.7587 2.12353L12.4491 0.0868574C12.3912 0.0478326 12.3259 0.021148 12.2572 0.0084637C12.1885 -0.00422055 12.1179 -0.00263307 12.0498 0.0131273C11.9818 0.0288877 11.9177 0.0584839 11.8616 0.100075C11.8054 0.141665 11.7585 0.194361 11.7236 0.254883C11.5912 0.476371 11.4206 0.76405 11.2348 1.0721C9.92368 3.23606 8.60493 2.97129 6.22712 1.83585L2.95572 0.282887C2.8942 0.253607 2.82743 0.23697 2.75937 0.233962C2.69131 0.230954 2.62333 0.241637 2.55947 0.265376C2.49561 0.289116 2.43717 0.32543 2.3876 0.372168C2.33803 0.418906 2.29834 0.475117 2.27089 0.537471L0.695013 4.10164C0.641498 4.224 0.638195 4.36248 0.685816 4.48724C0.733436 4.61201 0.828168 4.71307 0.949597 4.76865C1.64206 5.09452 3.01936 5.74371 4.25919 6.34198C8.72968 8.50594 12.5204 8.36083 15.4201 3.64848Z" fill="url(#paint1_linear_428_11821)"/>
<defs>
<linearGradient id="paint0_linear_428_11821" x1="15.206" y1="16.3497" x2="5.1932" y2="10.5961" gradientUnits="userSpaceOnUse">
<stop offset="0.18" stop-color="#0052CC"/>
<stop offset="1" stop-color="#2684FF"/>
</linearGradient>
<linearGradient id="paint1_linear_428_11821" x1="0.794301" y1="-0.96712" x2="10.8096" y2="4.78902" gradientUnits="userSpaceOnUse">
<stop offset="0.18" stop-color="#0052CC"/>
<stop offset="1" stop-color="#2684FF"/>
</linearGradient>
</defs>
</svg>
