<?xml version="1.0" encoding="UTF-8" standalone="no"?>
<!DOCTYPE svg PUBLIC "-//W3C//DTD SVG 1.1//EN" "http://www.w3.org/Graphics/SVG/1.1/DTD/svg11.dtd">
<svg xmlns="http://www.w3.org/2000/svg" version="1.1" viewBox="0.00 0.00 231.00 231.00">
<g stroke-width="2.00" fill="none" stroke-linecap="butt">
<path stroke="#92cfef" vector-effect="non-scaling-stroke" d="
  M 201.43 76.97
  C 214.56 69.72 216.09 51.21 203.05 43.29
  C 193.73 37.63 183.12 40.30 176.60 48.84
  A 1.05 1.03 18.3 0 1 175.77 49.25
  L 55.26 49.25
  A 0.94 0.94 0.0 0 1 54.57 48.95
  Q 50.15 44.38 48.41 43.35
  C 24.95 29.48 5.82 64.71 29.68 76.98
  A 0.58 0.58 0.0 0 1 30.00 77.50
  L 30.00 153.99
  A 0.82 0.81 76.0 0 1 29.57 154.71
  C 14.48 162.82 15.06 184.60 31.99 190.12
  Q 44.90 194.33 54.19 182.63
  Q 54.49 182.25 54.97 182.25
  L 175.80 182.25
  Q 176.30 182.25 176.62 182.64
  Q 186.75 195.04 200.00 189.68
  C 215.59 183.38 216.16 162.51 201.49 154.85
  Q 201.00 154.60 201.00 154.05
  L 201.00 77.71
  A 0.85 0.84 75.7 0 1 201.43 76.97"
/>
<path stroke="#92cfef" vector-effect="non-scaling-stroke" d="
  M 57.69 68.56
  Q 79.97 88.76 102.49 108.89
  A 0.65 0.65 0.0 0 0 103.33 108.92
  Q 116.20 99.00 129.30 108.71
  Q 129.76 109.05 130.19 108.66
  L 174.69 67.72
  A 0.96 0.94 62.2 0 0 174.97 66.78
  L 173.67 61.68
  A 0.57 0.57 0.0 0 0 173.12 61.25
  L 57.95 61.25
  Q 57.38 61.25 57.19 61.78
  C 56.25 64.49 55.34 66.43 57.69 68.56"
/>
<path stroke="#92cfef" vector-effect="non-scaling-stroke" d="
  M 42.31 153.09
  C 50.65 155.92 55.72 160.78 57.05 169.67
  A 0.69 0.69 0.0 0 0 57.73 170.25
  L 173.02 170.25
  Q 173.67 170.25 173.78 169.61
  Q 175.87 156.70 188.47 153.20
  A 0.73 0.71 82.8 0 0 189.00 152.50
  L 189.00 78.97
  A 0.78 0.78 0.0 0 0 188.47 78.23
  L 183.59 76.59
  A 0.88 0.87 32.5 0 0 182.71 76.78
  L 136.01 119.77
  Q 135.62 120.13 135.65 120.65
  C 137.25 148.53 97.82 149.51 97.45 123.49
  Q 97.43 122.13 97.14 120.72
  Q 97.04 120.22 96.66 119.88
  L 48.37 76.61
  Q 47.95 76.22 47.42 76.43
  L 42.34 78.40
  Q 41.75 78.63 41.75 79.26
  L 41.75 152.30
  Q 41.75 152.90 42.31 153.09"
/>
</g>
<path fill="#ffffff" d="
  M 0.00 0.00
  L 231.00 0.00
  L 231.00 231.00
  L 0.00 231.00
  L 0.00 0.00
  Z
  M 201.43 76.97
  C 214.56 69.72 216.09 51.21 203.05 43.29
  C 193.73 37.63 183.12 40.30 176.60 48.84
  A 1.05 1.03 18.3 0 1 175.77 49.25
  L 55.26 49.25
  A 0.94 0.94 0.0 0 1 54.57 48.95
  Q 50.15 44.38 48.41 43.35
  C 24.95 29.48 5.82 64.71 29.68 76.98
  A 0.58 0.58 0.0 0 1 30.00 77.50
  L 30.00 153.99
  A 0.82 0.81 76.0 0 1 29.57 154.71
  C 14.48 162.82 15.06 184.60 31.99 190.12
  Q 44.90 194.33 54.19 182.63
  Q 54.49 182.25 54.97 182.25
  L 175.80 182.25
  Q 176.30 182.25 176.62 182.64
  Q 186.75 195.04 200.00 189.68
  C 215.59 183.38 216.16 162.51 201.49 154.85
  Q 201.00 154.60 201.00 154.05
  L 201.00 77.71
  A 0.85 0.84 75.7 0 1 201.43 76.97
  Z"
/>
<path fill="#249fdf" d="
  M 201.43 76.97
  A 0.85 0.84 75.7 0 0 201.00 77.71
  L 201.00 154.05
  Q 201.00 154.60 201.49 154.85
  C 216.16 162.51 215.59 183.38 200.00 189.68
  Q 186.75 195.04 176.62 182.64
  Q 176.30 182.25 175.80 182.25
  L 54.97 182.25
  Q 54.49 182.25 54.19 182.63
  Q 44.90 194.33 31.99 190.12
  C 15.06 184.60 14.48 162.82 29.57 154.71
  A 0.82 0.81 76.0 0 0 30.00 153.99
  L 30.00 77.50
  A 0.58 0.58 0.0 0 0 29.68 76.98
  C 5.82 64.71 24.95 29.48 48.41 43.35
  Q 50.15 44.38 54.57 48.95
  A 0.94 0.94 0.0 0 0 55.26 49.25
  L 175.77 49.25
  A 1.05 1.03 18.3 0 0 176.60 48.84
  C 183.12 40.30 193.73 37.63 203.05 43.29
  C 216.09 51.21 214.56 69.72 201.43 76.97
  Z
  M 57.69 68.56
  Q 79.97 88.76 102.49 108.89
  A 0.65 0.65 0.0 0 0 103.33 108.92
  Q 116.20 99.00 129.30 108.71
  Q 129.76 109.05 130.19 108.66
  L 174.69 67.72
  A 0.96 0.94 62.2 0 0 174.97 66.78
  L 173.67 61.68
  A 0.57 0.57 0.0 0 0 173.12 61.25
  L 57.95 61.25
  Q 57.38 61.25 57.19 61.78
  C 56.25 64.49 55.34 66.43 57.69 68.56
  Z
  M 42.31 153.09
  C 50.65 155.92 55.72 160.78 57.05 169.67
  A 0.69 0.69 0.0 0 0 57.73 170.25
  L 173.02 170.25
  Q 173.67 170.25 173.78 169.61
  Q 175.87 156.70 188.47 153.20
  A 0.73 0.71 82.8 0 0 189.00 152.50
  L 189.00 78.97
  A 0.78 0.78 0.0 0 0 188.47 78.23
  L 183.59 76.59
  A 0.88 0.87 32.5 0 0 182.71 76.78
  L 136.01 119.77
  Q 135.62 120.13 135.65 120.65
  C 137.25 148.53 97.82 149.51 97.45 123.49
  Q 97.43 122.13 97.14 120.72
  Q 97.04 120.22 96.66 119.88
  L 48.37 76.61
  Q 47.95 76.22 47.42 76.43
  L 42.34 78.40
  Q 41.75 78.63 41.75 79.26
  L 41.75 152.30
  Q 41.75 152.90 42.31 153.09
  Z"
/>
<path fill="#ffffff" d="
  M 57.69 68.56
  C 55.34 66.43 56.25 64.49 57.19 61.78
  Q 57.38 61.25 57.95 61.25
  L 173.12 61.25
  A 0.57 0.57 0.0 0 1 173.67 61.68
  L 174.97 66.78
  A 0.96 0.94 62.2 0 1 174.69 67.72
  L 130.19 108.66
  Q 129.76 109.05 129.30 108.71
  Q 116.20 99.00 103.33 108.92
  A 0.65 0.65 0.0 0 1 102.49 108.89
  Q 79.97 88.76 57.69 68.56
  Z"
/>
<path fill="#ffffff" d="
  M 57.05 169.67
  C 55.72 160.78 50.65 155.92 42.31 153.09
  Q 41.75 152.90 41.75 152.30
  L 41.75 79.26
  Q 41.75 78.63 42.34 78.40
  L 47.42 76.43
  Q 47.95 76.22 48.37 76.61
  L 96.66 119.88
  Q 97.04 120.22 97.14 120.72
  Q 97.43 122.13 97.45 123.49
  C 97.82 149.51 137.25 148.53 135.65 120.65
  Q 135.62 120.13 136.01 119.77
  L 182.71 76.78
  A 0.88 0.87 32.5 0 1 183.59 76.59
  L 188.47 78.23
  A 0.78 0.78 0.0 0 1 189.00 78.97
  L 189.00 152.50
  A 0.73 0.71 82.8 0 1 188.47 153.20
  Q 175.87 156.70 173.78 169.61
  Q 173.67 170.25 173.02 170.25
  L 57.73 170.25
  A 0.69 0.69 0.0 0 1 57.05 169.67
  Z"
/>
</svg>
