<svg width="16" height="16" viewBox="0 0 16 16" fill="none" xmlns="http://www.w3.org/2000/svg">
<path d="M8.66667 13.9999V15.6666L6.66667 14.3333L4.66667 15.6666V13.9999H4.33333C3.04467 13.9999 2 12.9553 2 11.6666V3.33325C2 2.22869 2.89543 1.33325 4 1.33325H13.3333C13.7015 1.33325 14 1.63173 14 1.99992V13.3333C14 13.7015 13.7015 13.9999 13.3333 13.9999H8.66667ZM8.66667 12.6666H12.6667V10.6666H4.33333C3.78105 10.6666 3.33333 11.1143 3.33333 11.6666C3.33333 12.2189 3.78105 12.6666 4.33333 12.6666H4.66667V11.3333H8.66667V12.6666ZM12.6667 9.33325V2.66659H4V9.35685C4.10887 9.34132 4.22016 9.33325 4.33333 9.33325H12.6667ZM4.66667 3.33325H6V4.66658H4.66667V3.33325ZM4.66667 5.33325H6V6.66658H4.66667V5.33325ZM4.66667 7.33325H6V8.66658H4.66667V7.33325Z" fill="black"/>
</svg>
