<?xml version="1.0" encoding="UTF-8"?>
<svg xmlns="http://www.w3.org/2000/svg" xmlns:xlink="http://www.w3.org/1999/xlink">
    <symbol id="google">
        <svg viewBox="0 0 20 20">
            <g>
                <path
                    d="M19.7875 10.2252C19.7875 9.56683 19.7292 8.94183 19.6292 8.3335H10.2125V12.0918H15.6042C15.3625 13.3252 14.6542 14.3668 13.6042 15.0752V17.5752H16.8209C18.7042 15.8335 19.7875 13.2668 19.7875 10.2252Z"
                    fill="#4285F4" />
                <path
                    d="M10.2125 19.9999C12.9125 19.9999 15.1708 19.0999 16.8208 17.5749L13.6041 15.0749C12.7041 15.6749 11.5625 16.0415 10.2125 16.0415C7.60414 16.0415 5.39581 14.2832 4.60414 11.9082H1.28748V14.4832C2.92914 17.7499 6.30414 19.9999 10.2125 19.9999Z"
                    fill="#34A853" />
                <path
                    d="M4.60419 11.9083C4.39586 11.3083 4.28752 10.6666 4.28752 9.99993C4.28752 9.33327 4.40419 8.6916 4.60419 8.0916V5.5166H1.28752C0.60419 6.8666 0.212524 8.38327 0.212524 9.99993C0.212524 11.6166 0.60419 13.1333 1.28752 14.4833L4.60419 11.9083Z"
                    fill="#FBBC05" />
                <path
                    d="M10.2125 3.95833C11.6875 3.95833 13.0041 4.46667 14.0458 5.45834L16.8958 2.60833C15.1708 0.991668 12.9125 0 10.2125 0C6.30414 0 2.92914 2.25 1.28748 5.51667L4.60414 8.09167C5.39581 5.71667 7.60414 3.95833 10.2125 3.95833Z"
                    fill="#EA4335" />
            </g>
        </svg>
    </symbol>
    <symbol id="discord">
        <svg class="svg-icon" width="16" height="13" viewBox="0 0 16 13"
            xmlns="http://www.w3.org/2000/svg">
            <path
                d="M13.5447 1.81368C12.5249 1.34576 11.4313 1.00101 10.2879 0.803563C10.2671 0.799752 10.2463 0.809275 10.2356 0.828322C10.0949 1.07847 9.93915 1.4048 9.83006 1.66129C8.60027 1.47718 7.37679 1.47718 6.17221 1.66129C6.0631 1.3991 5.90166 1.07847 5.76038 0.828322C5.74966 0.809911 5.72886 0.800387 5.70803 0.803563C4.56527 1.00038 3.47171 1.34512 2.45129 1.81368C2.44246 1.81748 2.43488 1.82384 2.42986 1.83209C0.355594 4.93099 -0.212633 7.95373 0.0661201 10.939C0.0673814 10.9536 0.0755799 10.9676 0.086932 10.9764C1.45547 11.9815 2.78114 12.5916 4.08219 12.996C4.10301 13.0024 4.12507 12.9948 4.13832 12.9776C4.44608 12.5573 4.72043 12.1142 4.95565 11.6482C4.96953 11.6209 4.95628 11.5885 4.92791 11.5777C4.49275 11.4126 4.0784 11.2114 3.67982 10.9828C3.64829 10.9644 3.64577 10.9193 3.67477 10.8977C3.75865 10.8349 3.84255 10.7695 3.92264 10.7034C3.93713 10.6914 3.95732 10.6888 3.97435 10.6964C6.59286 11.892 9.4277 11.892 12.0153 10.6964C12.0323 10.6882 12.0525 10.6907 12.0677 10.7028C12.1478 10.7688 12.2316 10.8349 12.3161 10.8977C12.3451 10.9193 12.3433 10.9644 12.3117 10.9828C11.9131 11.2158 11.4988 11.4126 11.063 11.5771C11.0346 11.5879 11.022 11.6209 11.0359 11.6482C11.2762 12.1135 11.5505 12.5567 11.8526 12.977C11.8652 12.9948 11.8879 13.0024 11.9087 12.996C13.2161 12.5916 14.5417 11.9815 15.9103 10.9764C15.9223 10.9676 15.9298 10.9542 15.9311 10.9396C16.2647 7.48834 15.3723 4.49039 13.5655 1.83272C13.5611 1.82384 13.5535 1.81748 13.5447 1.81368ZM5.34668 9.12128C4.55833 9.12128 3.90876 8.39752 3.90876 7.50866C3.90876 6.61981 4.54574 5.89604 5.34668 5.89604C6.15392 5.89604 6.79721 6.62616 6.78459 7.50866C6.78459 8.39752 6.14761 9.12128 5.34668 9.12128ZM10.6632 9.12128C9.87484 9.12128 9.22526 8.39752 9.22526 7.50866C9.22526 6.61981 9.86222 5.89604 10.6632 5.89604C11.4704 5.89604 12.1137 6.62616 12.1011 7.50866C12.1011 8.39752 11.4704 9.12128 10.6632 9.12128Z" />
        </svg>
    </symbol>
    <symbol id="slack">
        <svg class="svg-icon" width="16" height="16" viewBox="70 70 130 130" xmlns="http://www.w3.org/2000/svg">
            <g>
                <g>
                    <path d="M99.4,151.2c0,7.1-5.8,12.9-12.9,12.9s-12.9-5.8-12.9-12.9c0-7.1,5.8-12.9,12.9-12.9h12.9V151.2z"/>
                    <path d="M105.9,151.2c0-7.1,5.8-12.9,12.9-12.9s12.9,5.8,12.9,12.9v32.3c0,7.1-5.8,12.9-12.9,12.9s-12.9-5.8-12.9-12.9
			C105.9,183.5,105.9,151.2,105.9,151.2z"/>
                </g>
                <g>
                    <path d="M118.8,99.4c-7.1,0-12.9-5.8-12.9-12.9s5.8-12.9,12.9-12.9s12.9,5.8,12.9,12.9v12.9H118.8z"/>
                    <path d="M118.8,105.9c7.1,0,12.9,5.8,12.9,12.9s-5.8,12.9-12.9,12.9H86.5c-7.1,0-12.9-5.8-12.9-12.9s5.8-12.9,12.9-12.9
			C86.5,105.9,118.8,105.9,118.8,105.9z"/>
                </g>
                <g>
                    <path d="M170.6,118.8c0-7.1,5.8-12.9,12.9-12.9c7.1,0,12.9,5.8,12.9,12.9s-5.8,12.9-12.9,12.9h-12.9V118.8z"/>
                    <path d="M164.1,118.8c0,7.1-5.8,12.9-12.9,12.9c-7.1,0-12.9-5.8-12.9-12.9V86.5c0-7.1,5.8-12.9,12.9-12.9
			c7.1,0,12.9,5.8,12.9,12.9V118.8z"/>
                </g>
                <g>
                    <path d="M151.2,170.6c7.1,0,12.9,5.8,12.9,12.9c0,7.1-5.8,12.9-12.9,12.9c-7.1,0-12.9-5.8-12.9-12.9v-12.9H151.2z"/>
                    <path d="M151.2,164.1c-7.1,0-12.9-5.8-12.9-12.9c0-7.1,5.8-12.9,12.9-12.9h32.3c7.1,0,12.9,5.8,12.9,12.9
			c0,7.1-5.8,12.9-12.9,12.9H151.2z"/>
                </g>
            </g>        </svg>
    </symbol>
    <symbol id="twitter">
        <svg xmlns="http://www.w3.org/2000/svg">
            <path d="M18.89 1h3.66l-8 9.2 9.45 12.49h-7.42l-5.78-7.57-6.65 7.57H.48l8.58-9.83L0 1h7.61l5.26 6.94L18.89 1zm-1.3 19.47h2.02L6.5 3.07h-2.22l13.3 17.4z" fill="black"/>
        </svg>
    </symbol>
    <symbol id="github">
        <svg width="16" height="16" viewBox="0 0 16 16" xmlns="http://www.w3.org/2000/svg">
            <path d="M8 0C3.58 0 1.16763e-06 3.67064 1.16763e-06 8.20255C-0.000906207 9.92449 0.527052 11.603 1.50897 13C2.4909 14.3969 3.87692 15.4414 5.4704 15.9851C5.8704 16.0565 6.02 15.8104 6.02 15.5947C6.02 15.4003 6.0096 14.7547 6.0096 14.0674C4 14.4472 3.48 13.5654 3.32 13.1036C3.2296 12.8673 2.84 12.1398 2.5 11.9446C2.22 11.7912 1.82 11.4114 2.4896 11.4015C3.12 11.3909 3.5696 11.9962 3.72 12.2423C4.44 13.4825 5.5904 13.1339 6.0496 12.919C6.12 12.3859 6.3296 12.0274 6.56 11.8223C4.78 11.6173 2.92 10.9094 2.92 7.77192C2.92 6.87948 3.2296 6.14207 3.74 5.56707C3.66 5.36201 3.38 4.52125 3.82 3.3934C3.82 3.3934 4.4896 3.17849 6.02 4.23498C6.67125 4.04965 7.34413 3.95637 8.02 3.95773C8.7 3.95773 9.38 4.0496 10.02 4.23416C11.5496 3.16783 12.22 3.39422 12.22 3.39422C12.66 4.52207 12.38 5.36283 12.3 5.56789C12.8096 6.14207 13.12 6.86964 13.12 7.77192C13.12 10.9201 11.2504 11.6173 9.4704 11.8223C9.76 12.0783 10.0104 12.5704 10.0104 13.3398C10.0104 14.4365 10 15.3183 10 15.5955C10 15.8104 10.1504 16.0663 10.5504 15.9843C12.1384 15.4346 13.5183 14.3881 14.4959 12.9921C15.4735 11.5962 15.9995 9.92108 16 8.20255C16 3.67064 12.42 0 8 0Z"/>
        </svg>
    </symbol>
    <symbol id="confluence">
        <svg xmlns="http://www.w3.org/2000/svg"  viewBox="0 0 48 48" width="16px" height="16px"><linearGradient id="~hhCEjI~ovLo7bTsUTFpDa" x1="2" x2="44" y1="34.5" y2="34.5" gradientUnits="userSpaceOnUse"><stop offset="0" stop-color="#2684ff"/><stop offset=".28" stop-color="#1f7bf6"/><stop offset=".742" stop-color="#0c62dd"/><stop offset=".994" stop-color="#0052cc"/></linearGradient><path fill="url(#~hhCEjI~ovLo7bTsUTFpDa)" d="M3.589,35.049c-0.453,0.738-0.962,1.595-1.394,2.277c-0.387,0.653-0.179,1.495,0.467,1.894	l9.063,5.572c0.655,0.404,1.514,0.201,1.919-0.453c0.004-0.007,0.008-0.013,0.012-0.02c0.363-0.606,0.83-1.393,1.338-2.236	c3.59-5.92,7.201-5.196,13.713-2.089l8.986,4.269c0.695,0.331,1.527,0.036,1.858-0.659c0.006-0.012,0.012-0.025,0.017-0.037	l4.315-9.75c0.305-0.696-0.005-1.508-0.697-1.825c-1.896-0.891-5.668-2.667-9.063-4.304C21.909,21.76,11.529,22.143,3.589,35.049z"/><linearGradient id="~hhCEjI~ovLo7bTsUTFpDb" x1="4" x2="46" y1="12.5" y2="12.5" gradientUnits="userSpaceOnUse"><stop offset="0" stop-color="#0052cc"/><stop offset=".044" stop-color="#0255cf"/><stop offset=".665" stop-color="#1c77f2"/><stop offset="1" stop-color="#2684ff"/></linearGradient><path fill="url(#~hhCEjI~ovLo7bTsUTFpDb)" d="M44.412,11.968c0.453-0.737,0.961-1.593,1.393-2.274c0.387-0.652,0.179-1.494-0.467-1.892	l-9.057-5.564c-0.638-0.429-1.504-0.261-1.934,0.377c-0.018,0.027-0.035,0.054-0.051,0.082c-0.362,0.605-0.829,1.391-1.338,2.233	c-3.588,5.912-7.197,5.189-13.703,2.087l-8.952-4.243c-0.695-0.33-1.526-0.035-1.857,0.658C8.441,3.444,8.435,3.456,8.429,3.469	l-4.312,9.738c-0.305,0.695,0.005,1.506,0.697,1.822c1.895,0.89,5.664,2.664,9.057,4.299C26.104,25.239,36.477,24.843,44.412,11.968	z"/></svg>
    </symbol>
    <symbol id="devto">
        <svg width="16" height="16" viewBox="0 0 16 16" xmlns="http://www.w3.org/2000/svg">
            <path
                d="M4.29 6.29607C4.15143 6.1925 4.0125 6.14071 3.87393 6.14071H3.25107V9.87179H3.87429C4.01286 9.87179 4.15179 9.82 4.29036 9.71643C4.42893 9.61286 4.49821 9.4575 4.49821 9.25V6.7625C4.49786 6.55536 4.42821 6.39964 4.29 6.29607ZM14.4321 0H1.56786C0.703571 0 0.00214286 0.699643 0 1.56429V14.4357C0.00214286 15.3004 0.703571 16 1.56786 16H14.4321C15.2968 16 15.9979 15.3004 16 14.4357V1.56429C15.9979 0.699643 15.2964 0 14.4321 0ZM5.50714 9.25679C5.50714 9.92857 5.0925 10.9464 3.78 10.9443H2.12286V5.035H3.815C5.08071 5.035 5.50643 6.05143 5.50679 6.72357L5.50714 9.25679ZM9.10286 6.09036H7.2V7.4625H8.36321V8.51857H7.2V9.89036H9.10321V10.9464H6.8825C6.48393 10.9568 6.1525 10.6418 6.1425 10.2432V5.775C6.13286 5.37679 6.44821 5.04607 6.84643 5.03607H9.10321L9.10286 6.09036ZM12.8043 10.2079C12.3329 11.3061 11.4882 11.0875 11.11 10.2079L9.73393 5.03643H10.8971L11.9582 9.09786L13.0143 5.03643H14.1779L12.8043 10.2079Z" />
        </svg>
    </symbol>
    <symbol id="lfx">
        <svg width="16" height="16" viewBox="0 0 32 32" xmlns="http://www.w3.org/2000/svg">
            <path d="M6.41 25.602V12.806H.003V32h19.2v-6.398z" fill="#009bde" />
            <path d="M6.4 6.425h19.2v19.177h-3.194V32h9.59V0H.008v9.597H6.4z" fill="#003764" />
        </svg>
    </symbol>
    <symbol id="cvent">
        <svg width="16" height="16" viewBox="0 0 414 414" fill="none" xmlns="http://www.w3.org/2000/svg">
            <g filter="url(#filter0_di_274_1403)">
            <rect x="4" width="406" height="406" rx="32" fill="#9CA3AF" shape-rendering="crispEdges"/>
            <path d="M334.389 248.782C334.389 266.806 334.639 277.772 334.389 296.344C185.79 328.386 79.5 289.335 79.5 205.726C79.5 100.088 216.811 79.5613 327.384 113.606V161.669C245.83 130.628 138.636 138.138 138.636 205.726C138.636 255.791 233.322 279.322 334.389 248.782Z" fill="#FBFEFF"/>
            </g>
            <defs>
            <filter id="filter0_di_274_1403" x="0" y="-1" width="414" height="415" filterUnits="userSpaceOnUse" color-interpolation-filters="sRGB">
            <feFlood flood-opacity="0" result="BackgroundImageFix"/>
            <feColorMatrix in="SourceAlpha" type="matrix" values="0 0 0 0 0 0 0 0 0 0 0 0 0 0 0 0 0 0 127 0" result="hardAlpha"/>
            <feOffset dy="4"/>
            <feGaussianBlur stdDeviation="2"/>
            <feComposite in2="hardAlpha" operator="out"/>
            <feColorMatrix type="matrix" values="0 0 0 0 0 0 0 0 0 0 0 0 0 0 0 0 0 0 0.25 0"/>
            <feBlend mode="normal" in2="BackgroundImageFix" result="effect1_dropShadow_274_1403"/>
            <feBlend mode="normal" in="SourceGraphic" in2="effect1_dropShadow_274_1403" result="shape"/>
            <feColorMatrix in="SourceAlpha" type="matrix" values="0 0 0 0 0 0 0 0 0 0 0 0 0 0 0 0 0 0 127 0" result="hardAlpha"/>
            <feOffset dx="-1" dy="-1"/>
            <feGaussianBlur stdDeviation="2"/>
            <feComposite in2="hardAlpha" operator="arithmetic" k2="-1" k3="1"/>
            <feColorMatrix type="matrix" values="0 0 0 0 0 0 0 0 0 0 0 0 0 0 0 0 0 0 0.5 0"/>
            <feBlend mode="normal" in2="shape" result="effect2_innerShadow_274_1403"/>
            </filter>
            <linearGradient id="paint0_linear_274_1403" x1="512" y1="-160" x2="15.5" y2="398" gradientUnits="userSpaceOnUse">
            <stop stop-color="#23D5C7"/>
            <stop offset="1" stop-color="#2C5AED"/>
            </linearGradient>
            </defs>
        </svg>
    </symbol>
    <symbol id="tnc">
        <svg width="16" height="16" viewBox="0 0 225 225" fill="none" xmlns="http://www.w3.org/2000/svg">
            <rect width="45" height="45" fill="#9DD0CB"/>
            <rect width="45" height="45" transform="translate(45)" fill="#9DD0CB"/>
            <rect width="45" height="45" transform="translate(90)" fill="#9DD0CB"/>
            <rect width="45" height="45" transform="translate(135)" fill="#9DD0CB"/>
            <rect width="45" height="45" transform="translate(180)" fill="white"/>
            <rect width="45" height="45" transform="translate(0 45)" fill="#9DD0CB"/>
            <rect width="45" height="45" transform="translate(45 45)" fill="white"/>
            <rect width="45" height="45" transform="translate(90 45)" fill="white"/>
            <rect width="45" height="45" transform="translate(135 45)" fill="white"/>
            <rect width="45" height="45" transform="translate(180 45)" fill="#A4BAC3"/>
            <rect width="45" height="45" transform="translate(0 90)" fill="white"/>
            <rect width="45" height="45" transform="translate(45 90)" fill="#E7D220"/>
            <rect width="45" height="45" transform="translate(90 90)" fill="white"/>
            <rect width="45" height="45" transform="translate(135 90)" fill="#E7D220"/>
            <rect width="45" height="45" transform="translate(180 90)" fill="white"/>
            <rect width="45" height="45" transform="translate(0 135)" fill="white"/>
            <rect width="45" height="45" transform="translate(45 135)" fill="#E7D220"/>
            <rect width="45" height="45" transform="translate(90 135)" fill="white"/>
            <rect width="45" height="45" transform="translate(135 135)" fill="#E7D220"/>
            <rect width="45" height="45" transform="translate(180 135)" fill="white"/>
            <rect width="45" height="45" transform="translate(0 180)" fill="white"/>
            <rect width="45" height="45" transform="translate(45 180)" fill="#E7D220"/>
            <rect width="45" height="45" transform="translate(90 180)" fill="white"/>
            <rect width="45" height="45" transform="translate(135 180)" fill="white"/>
            <rect width="45" height="45" transform="translate(180 180)" fill="white"/>
        </svg>
    </symbol>
    <symbol id="config">
        <svg width="16" height="16" viewBox="0 0 16 16" xmlns="http://www.w3.org/2000/svg">
            <path
                d="M3.36156 10.111C3.36156 11.036 2.60586 11.7917 1.68078 11.7917C0.755701 11.7917 0 11.036 0 10.111C0 9.18588 0.755701 8.43018 1.68078 8.43018H3.36156V10.111Z" />
            <path
                d="M4.20847 10.111C4.20847 9.18588 4.96417 8.43018 5.88926 8.43018C6.81434 8.43018 7.57004 9.18588 7.57004 10.111V14.3194C7.57004 15.2445 6.81434 16.0002 5.88926 16.0002C4.96417 16.0002 4.20847 15.2445 4.20847 14.3194V10.111Z" />
            <path
                d="M5.88926 3.36156C4.96417 3.36156 4.20847 2.60586 4.20847 1.68078C4.20847 0.755701 4.96417 0 5.88926 0C6.81434 0 7.57004 0.755701 7.57004 1.68078V3.36156H5.88926Z" />
            <path
                d="M5.88925 4.2085C6.81433 4.2085 7.57003 4.9642 7.57003 5.88928C7.57003 6.81436 6.81433 7.57006 5.88925 7.57006H1.68078C0.755701 7.57006 0 6.81436 0 5.88928C0 4.9642 0.755701 4.2085 1.68078 4.2085H5.88925Z" />
            <path
                d="M12.6383 5.88928C12.6383 4.9642 13.394 4.2085 14.3191 4.2085C15.2441 4.2085 15.9998 4.9642 15.9998 5.88928C15.9998 6.81436 15.2441 7.57006 14.3191 7.57006H12.6383V5.88928Z" />
            <path
                d="M11.7915 5.88925C11.7915 6.81433 11.0358 7.57003 10.1107 7.57003C9.18565 7.57003 8.42995 6.81433 8.42995 5.88925V1.68078C8.42995 0.755701 9.18565 0 10.1107 0C11.0358 0 11.7915 0.755701 11.7915 1.68078V5.88925Z" />
            <path
                d="M10.1106 12.6387C11.0357 12.6387 11.7914 13.3944 11.7914 14.3195C11.7914 15.2445 11.0357 16.0002 10.1106 16.0002C9.18552 16.0002 8.42982 15.2445 8.42982 14.3195V12.6387H10.1106Z" />
            <path
                d="M10.1107 11.7917C9.18565 11.7917 8.42995 11.036 8.42995 10.111C8.42995 9.18588 9.18565 8.43018 10.1107 8.43018H14.3192C15.2443 8.43018 16 9.18588 16 10.111C16 11.036 15.2443 11.7917 14.3192 11.7917H10.1107Z" />
        </svg>
    </symbol>
    <symbol id="stackoverflow">
        <svg width="16px" height="16px" viewBox="0 0 32 32">
            <path
                d="M8.696 23.002v2.662h13.321v-2.662h-13.321zM3.366 20.336v10.659h23.981v-10.659h-2.666v7.994h-18.652v-7.993h-2.663zM9.483 16.928l-0.55 2.616 13.087 2.75 0.55-2.614-13.087-2.753zM11.795 10.855l-1.131 2.424 12.124 5.645 1.13-2.424zM15.731 5.276l-1.711 2.054 10.278 8.56 1.711-2.054zM20.655 1.004l-2.149 1.596 7.985 10.732 2.144-1.596z" />
        </svg>
    </symbol>

    <symbol id="hackernews">
        <svg width="16" height="16" viewBox="0 0 16 16" fill="none"
            xmlns="http://www.w3.org/2000/svg">
            <path d="M16 0H0V16H16V0Z" fill="#D1D5DB" />
        </svg>
        <svg width="8" height="10" viewBox="0 0 8 10" fill="none" xmlns="http://www.w3.org/2000/svg">
            <path
                d="M3.46089 6.04662L0.7146 0.901978H1.96969L3.58516 4.15776C3.61001 4.21576 3.63901 4.27582 3.67215 4.33795C3.70528 4.40008 3.73428 4.46429 3.75913 4.53056C3.7757 4.55542 3.78813 4.5782 3.79641 4.59891C3.8047 4.61962 3.81298 4.63826 3.82127 4.65483C3.86269 4.73768 3.89997 4.81845 3.93311 4.89715C3.96624 4.97585 3.99524 5.04834 4.02009 5.11462C4.08637 4.97378 4.15886 4.82259 4.23756 4.66104C4.31626 4.4995 4.39703 4.33174 4.47988 4.15776L6.1202 0.901978H7.28831L4.51716 6.10875V9.42667H3.46089V6.04662Z"
                fill="white" />
        </svg>
    </symbol>
    <symbol id="reddit">
        <svg width="16" height="16" viewBox="0 0 16 16" xmlns="http://www.w3.org/2000/svg">
            <path
                d="M6.167 8a.831.831 0 0 0-.83.83c0 .459.372.84.83.831a.831.831 0 0 0 0-1.661zm1.843 3.647c.315 0 1.403-.038 1.976-.611a.232.232 0 0 0 0-.306.213.213 0 0 0-.306 0c-.353.363-1.126.487-1.67.487-.545 0-1.308-.124-1.671-.487a.213.213 0 0 0-.306 0 .213.213 0 0 0 0 .306c.564.563 1.652.61 1.977.61zm.992-2.807c0 .458.373.83.831.83.458 0 .83-.381.83-.83a.831.831 0 0 0-1.66 0z" />
            <path
                d="M16 8A8 8 0 1 1 0 8a8 8 0 0 1 16 0zm-3.828-1.165c-.315 0-.602.124-.812.325-.801-.573-1.9-.945-3.121-.993l.534-2.501 1.738.372a.83.83 0 1 0 .83-.869.83.83 0 0 0-.744.468l-1.938-.41a.203.203 0 0 0-.153.028.186.186 0 0 0-.086.134l-.592 2.788c-1.24.038-2.358.41-3.17.992-.21-.2-.496-.324-.81-.324a1.163 1.163 0 0 0-.478 2.224c-.02.115-.029.23-.029.353 0 1.795 2.091 3.256 4.669 3.256 2.577 0 4.668-1.451 4.668-3.256 0-.114-.01-.238-.029-.353.401-.181.688-.592.688-1.069 0-.65-.525-1.165-1.165-1.165z" />
        </svg>
    </symbol>
    <symbol id="linkedin" viewBox="0 0 16 16">
        <svg width="16" height="16" viewBox="2 2 12 12" fill="none"
            xmlns="http://www.w3.org/2000/svg">
            <path
                d="M12.2233 12.226H10.4467V9.44133C10.4467 8.77733 10.4333 7.92267 9.52 7.92267C8.594 7.92267 8.45267 8.64533 8.45267 9.39267V12.226H6.67533V6.5H8.382V7.28H8.40533C8.644 6.83067 9.224 6.35533 10.0907 6.35533C11.8907 6.35533 12.224 7.54067 12.224 9.08267V12.226H12.2233ZM4.66867 5.71667C4.53304 5.71684 4.39871 5.69025 4.27338 5.6384C4.14804 5.58656 4.03418 5.51049 3.9383 5.41456C3.84243 5.31862 3.76644 5.20471 3.71467 5.07934C3.66291 4.95398 3.6364 4.81963 3.63667 4.684C3.6368 4.47989 3.69745 4.2804 3.81096 4.11076C3.92447 3.94113 4.08573 3.80896 4.27435 3.73097C4.46298 3.65298 4.67049 3.63268 4.87065 3.67263C5.07082 3.71258 5.25464 3.81098 5.39887 3.9554C5.54311 4.09983 5.64128 4.28377 5.68097 4.48399C5.72066 4.6842 5.70009 4.89169 5.62185 5.08021C5.54362 5.26873 5.41125 5.42983 5.24146 5.54311C5.07168 5.6564 4.87211 5.7168 4.668 5.71667H4.66867ZM5.55933 12.226H3.77733V6.5H5.56V12.226H5.55933ZM13.1133 2H2.886C2.39533 2 2 2.38667 2 2.86467V13.1353C2 13.6133 2.396 14 2.88533 14H13.1107C13.6 14 14 13.6133 14 13.1353V2.86467C14 2.38667 13.6 2 13.1107 2H13.1127H13.1133Z"
                fill="#D1D5DB" />
        </svg>
    </symbol>
    <symbol id="enrichment">
        <svg width="16" height="16" viewBox="0 0 16 16" xmlns="http://www.w3.org/2000/svg">
            <path
                d="M12.8668 6.36667L12.1501 4.70001L10.4168 3.93334L12.1501 3.18334L12.8668 1.60001L13.5835 3.18334L15.3168 3.93334L13.5835 4.70001L12.8668 6.36667ZM5.55013 13.7167L4.01679 10.4333L0.666794 8.93334L4.01679 7.43334L5.55013 4.16667L7.10013 7.43334L10.4335 8.93334L7.10013 10.4333L5.55013 13.7167Z" />
        </svg>
    </symbol>
    <symbol id="git">
        <svg width="16" height="16" viewBox="0 0 16 16" fill="none"
            xmlns="http://www.w3.org/2000/svg">
            <g clip-path="url(#clip)">
                <mask id="mask0_203_2" style="mask-type:luminance" maskUnits="userSpaceOnUse" x="0"
                    y="0"
                    width="16" height="16">
                    <path d="M0 0.0196533H15.9803V16H0V0.0196533Z" fill="white" />
                </mask>
                <g mask="url(#mask0_203_2)">
                    <path
                        d="M15.6795 7.29827L8.70214 0.321399C8.60656 0.225757 8.49307 0.149886 8.36815 0.098122C8.24324 0.0463577 8.10935 0.0197144 7.97414 0.0197144C7.83892 0.0197144 7.70503 0.0463577 7.58012 0.098122C7.45521 0.149886 7.34172 0.225757 7.24614 0.321399L5.79779 1.77044L7.63535 3.60801C7.85139 3.53464 8.08365 3.52318 8.30586 3.57494C8.52807 3.6267 8.73136 3.7396 8.89275 3.90088C9.05503 4.06332 9.16831 4.26817 9.21964 4.49197C9.27097 4.71578 9.25828 4.94951 9.18301 5.16644L10.9547 6.93757C11.1716 6.86221 11.4055 6.84951 11.6293 6.90094C11.8532 6.95237 12.0581 7.06585 12.2204 7.22836C12.3341 7.34205 12.4243 7.47703 12.4859 7.62559C12.5474 7.77415 12.5791 7.93338 12.5791 8.09418C12.5791 8.25498 12.5474 8.41421 12.4859 8.56277C12.4243 8.71133 12.3341 8.84631 12.2204 8.96001C11.9905 9.18967 11.6788 9.31867 11.3539 9.31867C11.0289 9.31867 10.7173 9.18967 10.4874 8.96001C10.3166 8.78894 10.2002 8.57118 10.1529 8.33413C10.1056 8.09708 10.1295 7.85133 10.2216 7.62783L8.56944 5.97618V10.3235C8.74383 10.4096 8.89518 10.5361 9.01096 10.6924C9.12675 10.8486 9.20363 11.0303 9.23525 11.2222C9.26687 11.4141 9.25231 11.6108 9.19278 11.7959C9.13325 11.9811 9.03046 12.1494 8.89292 12.287C8.77923 12.4007 8.64424 12.4909 8.49568 12.5524C8.34712 12.614 8.1879 12.6456 8.02709 12.6456C7.86629 12.6456 7.70706 12.614 7.5585 12.5524C7.40994 12.4909 7.27496 12.4007 7.16127 12.287C7.04753 12.1733 6.9573 12.0383 6.89574 11.8897C6.83418 11.7411 6.8025 11.5819 6.8025 11.4211C6.8025 11.2602 6.83418 11.101 6.89574 10.9524C6.9573 10.8038 7.04753 10.6688 7.16127 10.5551C7.27584 10.4403 7.41203 10.3494 7.56196 10.2875V5.90018C7.41264 5.83868 7.27695 5.74828 7.16267 5.63417C7.04839 5.52007 6.95778 5.38451 6.89605 5.23529C6.83432 5.08606 6.80268 4.92611 6.80295 4.76462C6.80322 4.60313 6.83539 4.44329 6.89762 4.29427L5.08579 2.48209L0.301094 7.26557C0.108286 7.45876 0 7.72055 0 7.99349C0 8.26642 0.108286 8.52821 0.301094 8.7214L7.27883 15.6991C7.47201 15.8919 7.73376 16.0001 8.00666 16.0001C8.27955 16.0001 8.54131 15.8919 8.73449 15.6991L15.6795 8.75409C15.8723 8.56091 15.9806 8.29912 15.9806 8.02618C15.9806 7.75324 15.8723 7.49145 15.6795 7.29827Z"
                        fill="#D1D5DB" />
                </g>
            </g>
            <defs>
                <clipPath id="clip">
                    <rect width="16" height="16" fill="white" />
                </clipPath>
            </defs>
        </svg>
    </symbol>
    <symbol id="discourse">
        <svg width="16" height="16" viewBox="0 0 448 512" xmlns="http://www.w3.org/2000/svg">
            <path
                d="M225.9 32C103.3 32 0 130.5 0 252.1 0 256 .1 480 .1 480l225.8-.2c122.7 0 222.1-102.3 222.1-223.9C448 134.3 348.6 32 225.9 32zM224 384c-19.4 0-37.9-4.3-54.4-12.1L88.5 392l22.9-75c-9.8-18.1-15.4-38.9-15.4-61 0-70.7 57.3-128 128-128s128 57.3 128 128-57.3 128-128 128z"
                fill="#D1D5DB" />
        </svg>
    </symbol>
    <symbol id="hubspot">
        <svg viewBox="0 0 16 16">
            <path id="Vector" d="M11.6709 5.26815V3.36282C11.9214 3.24514 12.1334 3.05838 12.2823 2.82426C12.4313 2.59014 12.5111 2.3183 12.5123 2.04038V1.99662C12.5123 1.18631 11.859 0.529407 11.0531 0.529407H11.0095C10.6225 0.529407 10.2513 0.683988 9.97768 0.959145C9.70401 1.2343 9.55027 1.60749 9.55027 1.99662V2.04038C9.55155 2.3183 9.63131 2.59014 9.78026 2.82426C9.92922 3.05838 10.1412 3.24514 10.3917 3.36282V5.26815C9.67194 5.37895 8.99411 5.67899 8.4268 6.13789L3.22963 2.06793C3.2667 1.93342 3.28605 1.79512 3.2882 1.65629C3.28883 1.3293 3.193 1.00947 3.01283 0.737249C2.83266 0.465027 2.57624 0.252647 2.276 0.126971C1.97576 0.00129538 1.64519 -0.0320291 1.32612 0.0312127C1.00704 0.0944545 0.713786 0.251421 0.483447 0.482259C0.253108 0.713096 0.096033 1.00743 0.0320909 1.32804C-0.0318512 1.64864 0.000215103 1.98111 0.124228 2.2834C0.248241 2.58568 0.45863 2.84419 0.728786 3.02623C0.998943 3.20827 1.31673 3.30567 1.64195 3.3061C1.92647 3.30475 2.20566 3.22838 2.45164 3.08461L7.56929 7.08866C7.10955 7.78698 6.86971 8.60835 6.88102 9.44571C6.89233 10.2831 7.15427 11.0976 7.6327 11.7831L6.07617 13.3486C5.95035 13.3082 5.81926 13.2867 5.68718 13.2849C5.42023 13.2851 5.15933 13.3649 4.93745 13.5141C4.71558 13.6634 4.54269 13.8754 4.44062 14.1234C4.33856 14.3714 4.31192 14.6443 4.36405 14.9076C4.41618 15.1708 4.54475 15.4126 4.73352 15.6024C4.92228 15.7922 5.16276 15.9214 5.42458 15.9739C5.68639 16.0263 5.95778 15.9995 6.20446 15.8969C6.45113 15.7943 6.66202 15.6204 6.81046 15.3973C6.9589 15.1743 7.03824 14.9119 7.03846 14.6435C7.03672 14.5107 7.01536 14.3789 6.97506 14.2524L8.51492 12.7036C9.01706 13.0923 9.60102 13.3603 10.2221 13.487C10.8431 13.6137 11.4848 13.5958 12.0979 13.4347C12.711 13.2736 13.2793 12.9735 13.7592 12.5574C14.2392 12.1413 14.618 11.6203 14.8668 11.0343C15.1155 10.4483 15.2275 9.81277 15.1943 9.17649C15.161 8.54021 14.9833 7.92002 14.6749 7.36345C14.3664 6.80687 13.9353 6.32867 13.4146 5.96549C12.8939 5.6023 12.2975 5.36376 11.6709 5.26815ZM11.0326 11.5346C10.7481 11.5425 10.4648 11.4929 10.1996 11.3889C9.93437 11.2848 9.69259 11.1283 9.48853 10.9287C9.28448 10.7291 9.12228 10.4904 9.01153 10.2268C8.90077 9.96306 8.84371 9.67972 8.84371 9.39348C8.84371 9.10723 8.90077 8.8239 9.01153 8.5602C9.12228 8.29651 9.28448 8.05781 9.48853 7.85821C9.69259 7.65861 9.93437 7.50215 10.1996 7.39809C10.4648 7.29403 10.7481 7.24447 11.0326 7.25235C11.5842 7.27177 12.1068 7.50565 12.4902 7.90474C12.8737 8.30384 13.0882 8.83698 13.0884 9.39189C13.0887 9.94681 12.8748 10.4802 12.4917 10.8796C12.1087 11.2791 11.5863 11.5135 11.0348 11.5335" fill="currentColor"/>
        </svg>
    </symbol>
    <symbol id="groupsio">
        <svg xmlns="http://www.w3.org/2000/svg" width="16" height="16" viewBox="0 0 231 231"><g stroke-width="2" fill="none"><path vector-effect="non-scaling-stroke" d="M201.43 76.97c13.13-7.25 14.66-25.76 1.62-33.68-9.32-5.66-19.93-2.99-26.45 5.55a1.05 1.03 18.3 0 1-.83.41H55.26a.94.94 0 0 1-.69-.3q-4.42-4.57-6.16-5.6C24.95 29.48 5.82 64.71 29.68 76.98a.58.58 0 0 1 .32.52v76.49a.82.81 76 0 1-.43.72c-15.09 8.11-14.51 29.89 2.42 35.41q12.91 4.21 22.2-7.49.3-.38.78-.38H175.8q.5 0 .82.39 10.13 12.4 23.38 7.04c15.59-6.3 16.16-27.17 1.49-34.83q-.49-.25-.49-.8V77.71a.85.84 75.7 0 1 .43-.74"/><path vector-effect="non-scaling-stroke" d="M57.69 68.56q22.28 20.2 44.8 40.33a.65.65 0 0 0 .84.03q12.87-9.92 25.97-.21.46.34.89-.05l44.5-40.94a.96.94 62.2 0 0 .28-.94l-1.3-5.1a.57.57 0 0 0-.55-.43H57.95q-.57 0-.76.53c-.94 2.71-1.85 4.65.5 6.78"/><path vector-effect="non-scaling-stroke" d="M42.31 153.09c8.34 2.83 13.41 7.69 14.74 16.58a.69.69 0 0 0 .68.58h115.29q.65 0 .76-.64 2.09-12.91 14.69-16.41a.73.71 82.8 0 0 .53-.7V78.97a.78.78 0 0 0-.53-.74l-4.88-1.64a.88.87 32.5 0 0-.88.19l-46.7 42.99q-.39.36-.36.88c1.6 27.88-37.83 28.86-38.2 2.84q-.02-1.36-.31-2.77-.1-.5-.48-.84L48.37 76.61q-.42-.39-.95-.18l-5.08 1.97q-.59.23-.59.86v73.04q0 .6.56.79"/></g><path fill="#fff" d="M0 0h231v231H0V0Zm201.43 76.97c13.13-7.25 14.66-25.76 1.62-33.68-9.32-5.66-19.93-2.99-26.45 5.55a1.05 1.03 18.3 0 1-.83.41H55.26a.94.94 0 0 1-.69-.3q-4.42-4.57-6.16-5.6C24.95 29.48 5.82 64.71 29.68 76.98a.58.58 0 0 1 .32.52v76.49a.82.81 76 0 1-.43.72c-15.09 8.11-14.51 29.89 2.42 35.41q12.91 4.21 22.2-7.49.3-.38.78-.38H175.8q.5 0 .82.39 10.13 12.4 23.38 7.04c15.59-6.3 16.16-27.17 1.49-34.83q-.49-.25-.49-.8V77.71a.85.84 75.7 0 1 .43-.74Z"/><path d="M201.43 76.97a.85.84 75.7 0 0-.43.74v76.34q0 .55.49.8c14.67 7.66 14.1 28.53-1.49 34.83q-13.25 5.36-23.38-7.04-.32-.39-.82-.39H54.97q-.48 0-.78.38-9.29 11.7-22.2 7.49c-16.93-5.52-17.51-27.3-2.42-35.41a.82.81 76 0 0 .43-.72V77.5a.58.58 0 0 0-.32-.52c-23.86-12.27-4.73-47.5 18.73-33.63q1.74 1.03 6.16 5.6a.94.94 0 0 0 .69.3h120.51a1.05 1.03 18.3 0 0 .83-.41c6.52-8.54 17.13-11.21 26.45-5.55 13.04 7.92 11.51 26.43-1.62 33.68ZM57.69 68.56q22.28 20.2 44.8 40.33a.65.65 0 0 0 .84.03q12.87-9.92 25.97-.21.46.34.89-.05l44.5-40.94a.96.94 62.2 0 0 .28-.94l-1.3-5.1a.57.57 0 0 0-.55-.43H57.95q-.57 0-.76.53c-.94 2.71-1.85 4.65.5 6.78Zm-15.38 84.53c8.34 2.83 13.41 7.69 14.74 16.58a.69.69 0 0 0 .68.58h115.29q.65 0 .76-.64 2.09-12.91 14.69-16.41a.73.71 82.8 0 0 .53-.7V78.97a.78.78 0 0 0-.53-.74l-4.88-1.64a.88.87 32.5 0 0-.88.19l-46.7 42.99q-.39.36-.36.88c1.6 27.88-37.83 28.86-38.2 2.84q-.02-1.36-.31-2.77-.1-.5-.48-.84L48.37 76.61q-.42-.39-.95-.18l-5.08 1.97q-.59.23-.59.86v73.04q0 .6.56.79Z"/><path fill="#fff" d="M57.69 68.56c-2.35-2.13-1.44-4.07-.5-6.78q.19-.53.76-.53h115.17a.57.57 0 0 1 .55.43l1.3 5.1a.96.94 62.2 0 1-.28.94l-44.5 40.94q-.43.39-.89.05-13.1-9.71-25.97.21a.65.65 0 0 1-.84-.03q-22.52-20.13-44.8-40.33Z"/><path fill="#fff" d="M57.05 169.67c-1.33-8.89-6.4-13.75-14.74-16.58q-.56-.19-.56-.79V79.26q0-.63.59-.86l5.08-1.97q.53-.21.95.18l48.29 43.27q.38.34.48.84.29 1.41.31 2.77c.37 26.02 39.8 25.04 38.2-2.84q-.03-.52.36-.88l46.7-42.99a.88.87 32.5 0 1 .88-.19l4.88 1.64a.78.78 0 0 1 .53.74v73.53a.73.71 82.8 0 1-.53.7q-12.6 3.5-14.69 16.41-.11.64-.76.64H57.73a.69.69 0 0 1-.68-.58Z"/></svg>
    </symbol>
</svg>
