<?xml version="1.0" encoding="UTF-8"?>
<svg xmlns="http://www.w3.org/2000/svg" xmlns:xlink="http://www.w3.org/1999/xlink">
    <symbol id="google">
        <svg viewBox="0 0 20 20">
            <g>
                <path d="M19.7875 10.2252C19.7875 9.56683 19.7292 8.94183 19.6292 8.3335H10.2125V12.0918H15.6042C15.3625 13.3252 14.6542 14.3668 13.6042 15.0752V17.5752H16.8209C18.7042 15.8335 19.7875 13.2668 19.7875 10.2252Z" fill="#4285F4"/>
                <path d="M10.2125 19.9999C12.9125 19.9999 15.1708 19.0999 16.8208 17.5749L13.6041 15.0749C12.7041 15.6749 11.5625 16.0415 10.2125 16.0415C7.60414 16.0415 5.39581 14.2832 4.60414 11.9082H1.28748V14.4832C2.92914 17.7499 6.30414 19.9999 10.2125 19.9999Z" fill="#34A853"/>
                <path d="M4.60419 11.9083C4.39586 11.3083 4.28752 10.6666 4.28752 9.99993C4.28752 9.33327 4.40419 8.6916 4.60419 8.0916V5.5166H1.28752C0.60419 6.8666 0.212524 8.38327 0.212524 9.99993C0.212524 11.6166 0.60419 13.1333 1.28752 14.4833L4.60419 11.9083Z" fill="#FBBC05"/>
                <path d="M10.2125 3.95833C11.6875 3.95833 13.0041 4.46667 14.0458 5.45834L16.8958 2.60833C15.1708 0.991668 12.9125 0 10.2125 0C6.30414 0 2.92914 2.25 1.28748 5.51667L4.60414 8.09167C5.39581 5.71667 7.60414 3.95833 10.2125 3.95833Z" fill="#EA4335"/>
            </g>
        </svg>
    </symbol>
    <symbol id="discord">
        <svg class="svg-icon" width="16" height="13" viewBox="0 0 16 13" xmlns="http://www.w3.org/2000/svg">
            <path d="M13.5447 1.81368C12.5249 1.34576 11.4313 1.00101 10.2879 0.803563C10.2671 0.799752 10.2463 0.809275 10.2356 0.828322C10.0949 1.07847 9.93915 1.4048 9.83006 1.66129C8.60027 1.47718 7.37679 1.47718 6.17221 1.66129C6.0631 1.3991 5.90166 1.07847 5.76038 0.828322C5.74966 0.809911 5.72886 0.800387 5.70803 0.803563C4.56527 1.00038 3.47171 1.34512 2.45129 1.81368C2.44246 1.81748 2.43488 1.82384 2.42986 1.83209C0.355594 4.93099 -0.212633 7.95373 0.0661201 10.939C0.0673814 10.9536 0.0755799 10.9676 0.086932 10.9764C1.45547 11.9815 2.78114 12.5916 4.08219 12.996C4.10301 13.0024 4.12507 12.9948 4.13832 12.9776C4.44608 12.5573 4.72043 12.1142 4.95565 11.6482C4.96953 11.6209 4.95628 11.5885 4.92791 11.5777C4.49275 11.4126 4.0784 11.2114 3.67982 10.9828C3.64829 10.9644 3.64577 10.9193 3.67477 10.8977C3.75865 10.8349 3.84255 10.7695 3.92264 10.7034C3.93713 10.6914 3.95732 10.6888 3.97435 10.6964C6.59286 11.892 9.4277 11.892 12.0153 10.6964C12.0323 10.6882 12.0525 10.6907 12.0677 10.7028C12.1478 10.7688 12.2316 10.8349 12.3161 10.8977C12.3451 10.9193 12.3433 10.9644 12.3117 10.9828C11.9131 11.2158 11.4988 11.4126 11.063 11.5771C11.0346 11.5879 11.022 11.6209 11.0359 11.6482C11.2762 12.1135 11.5505 12.5567 11.8526 12.977C11.8652 12.9948 11.8879 13.0024 11.9087 12.996C13.2161 12.5916 14.5417 11.9815 15.9103 10.9764C15.9223 10.9676 15.9298 10.9542 15.9311 10.9396C16.2647 7.48834 15.3723 4.49039 13.5655 1.83272C13.5611 1.82384 13.5535 1.81748 13.5447 1.81368ZM5.34668 9.12128C4.55833 9.12128 3.90876 8.39752 3.90876 7.50866C3.90876 6.61981 4.54574 5.89604 5.34668 5.89604C6.15392 5.89604 6.79721 6.62616 6.78459 7.50866C6.78459 8.39752 6.14761 9.12128 5.34668 9.12128ZM10.6632 9.12128C9.87484 9.12128 9.22526 8.39752 9.22526 7.50866C9.22526 6.61981 9.86222 5.89604 10.6632 5.89604C11.4704 5.89604 12.1137 6.62616 12.1011 7.50866C12.1011 8.39752 11.4704 9.12128 10.6632 9.12128Z"/>
        </svg>
    </symbol>
    <symbol id="twitter">
        <svg width="16" height="14" viewBox="0 0 16 14" xmlns="http://www.w3.org/2000/svg">
            <path d="M14.362 3.72046C14.3717 3.86151 14.3717 4.00256 14.3717 4.14491C14.3717 8.48243 11.0697 13.4849 5.03173 13.4849V13.4823C3.2481 13.4849 1.50152 12.974 0 12.0107C0.259354 12.0419 0.520008 12.0575 0.781312 12.0581C2.25944 12.0594 3.69531 11.5635 4.85818 10.6502C3.4535 10.6236 2.22173 9.7077 1.79143 8.37063C2.28349 8.46553 2.79049 8.44603 3.27345 8.31408C1.74203 8.00467 0.64026 6.65915 0.64026 5.09653C0.64026 5.08223 0.64026 5.06858 0.64026 5.05493C1.09657 5.30908 1.60748 5.45014 2.13008 5.46574C0.687711 4.50177 0.243104 2.58294 1.11412 1.08272C2.78074 3.1335 5.23973 4.38022 7.87942 4.51217C7.61487 3.37205 7.97627 2.17733 8.82909 1.37587C10.1512 0.133052 12.2306 0.196753 13.4734 1.51822C14.2086 1.37327 14.9132 1.10352 15.558 0.721311C15.3129 1.48117 14.8001 2.12663 14.115 2.53679C14.7656 2.46009 15.4013 2.28589 16 2.02003C15.5593 2.68044 15.0042 3.2557 14.362 3.72046Z"/>
        </svg>
    </symbol>
    <symbol id="github">
        <svg width="16" height="16" viewBox="0 0 16 16" xmlns="http://www.w3.org/2000/svg">
            <path d="M8 0C3.58 0 1.16763e-06 3.67064 1.16763e-06 8.20255C-0.000906207 9.92449 0.527052 11.603 1.50897 13C2.4909 14.3969 3.87692 15.4414 5.4704 15.9851C5.8704 16.0565 6.02 15.8104 6.02 15.5947C6.02 15.4003 6.0096 14.7547 6.0096 14.0674C4 14.4472 3.48 13.5654 3.32 13.1036C3.2296 12.8673 2.84 12.1398 2.5 11.9446C2.22 11.7912 1.82 11.4114 2.4896 11.4015C3.12 11.3909 3.5696 11.9962 3.72 12.2423C4.44 13.4825 5.5904 13.1339 6.0496 12.919C6.12 12.3859 6.3296 12.0274 6.56 11.8223C4.78 11.6173 2.92 10.9094 2.92 7.77192C2.92 6.87948 3.2296 6.14207 3.74 5.56707C3.66 5.36201 3.38 4.52125 3.82 3.3934C3.82 3.3934 4.4896 3.17849 6.02 4.23498C6.67125 4.04965 7.34413 3.95637 8.02 3.95773C8.7 3.95773 9.38 4.0496 10.02 4.23416C11.5496 3.16783 12.22 3.39422 12.22 3.39422C12.66 4.52207 12.38 5.36283 12.3 5.56789C12.8096 6.14207 13.12 6.86964 13.12 7.77192C13.12 10.9201 11.2504 11.6173 9.4704 11.8223C9.76 12.0783 10.0104 12.5704 10.0104 13.3398C10.0104 14.4365 10 15.3183 10 15.5955C10 15.8104 10.1504 16.0663 10.5504 15.9843C12.1384 15.4346 13.5183 14.3881 14.4959 12.9921C15.4735 11.5962 15.9995 9.92108 16 8.20255C16 3.67064 12.42 0 8 0Z"/>
        </svg>    
    </symbol>
    <symbol id="devto">
        <svg width="16" height="16" viewBox="0 0 16 16" xmlns="http://www.w3.org/2000/svg">
            <path d="M4.29 6.29607C4.15143 6.1925 4.0125 6.14071 3.87393 6.14071H3.25107V9.87179H3.87429C4.01286 9.87179 4.15179 9.82 4.29036 9.71643C4.42893 9.61286 4.49821 9.4575 4.49821 9.25V6.7625C4.49786 6.55536 4.42821 6.39964 4.29 6.29607ZM14.4321 0H1.56786C0.703571 0 0.00214286 0.699643 0 1.56429V14.4357C0.00214286 15.3004 0.703571 16 1.56786 16H14.4321C15.2968 16 15.9979 15.3004 16 14.4357V1.56429C15.9979 0.699643 15.2964 0 14.4321 0ZM5.50714 9.25679C5.50714 9.92857 5.0925 10.9464 3.78 10.9443H2.12286V5.035H3.815C5.08071 5.035 5.50643 6.05143 5.50679 6.72357L5.50714 9.25679ZM9.10286 6.09036H7.2V7.4625H8.36321V8.51857H7.2V9.89036H9.10321V10.9464H6.8825C6.48393 10.9568 6.1525 10.6418 6.1425 10.2432V5.775C6.13286 5.37679 6.44821 5.04607 6.84643 5.03607H9.10321L9.10286 6.09036ZM12.8043 10.2079C12.3329 11.3061 11.4882 11.0875 11.11 10.2079L9.73393 5.03643H10.8971L11.9582 9.09786L13.0143 5.03643H14.1779L12.8043 10.2079Z"/>
        </svg>
    </symbol>
    <symbol id="slack">
        <svg width="16" height="16" viewBox="0 0 16 16" xmlns="http://www.w3.org/2000/svg">
            <path d="M3.36156 10.111C3.36156 11.036 2.60586 11.7917 1.68078 11.7917C0.755701 11.7917 0 11.036 0 10.111C0 9.18588 0.755701 8.43018 1.68078 8.43018H3.36156V10.111Z"/>
            <path d="M4.20847 10.111C4.20847 9.18588 4.96417 8.43018 5.88926 8.43018C6.81434 8.43018 7.57004 9.18588 7.57004 10.111V14.3194C7.57004 15.2445 6.81434 16.0002 5.88926 16.0002C4.96417 16.0002 4.20847 15.2445 4.20847 14.3194V10.111Z"/>
            <path d="M5.88926 3.36156C4.96417 3.36156 4.20847 2.60586 4.20847 1.68078C4.20847 0.755701 4.96417 0 5.88926 0C6.81434 0 7.57004 0.755701 7.57004 1.68078V3.36156H5.88926Z"/>
            <path d="M5.88925 4.2085C6.81433 4.2085 7.57003 4.9642 7.57003 5.88928C7.57003 6.81436 6.81433 7.57006 5.88925 7.57006H1.68078C0.755701 7.57006 0 6.81436 0 5.88928C0 4.9642 0.755701 4.2085 1.68078 4.2085H5.88925Z"/>
            <path d="M12.6383 5.88928C12.6383 4.9642 13.394 4.2085 14.3191 4.2085C15.2441 4.2085 15.9998 4.9642 15.9998 5.88928C15.9998 6.81436 15.2441 7.57006 14.3191 7.57006H12.6383V5.88928Z"/>
            <path d="M11.7915 5.88925C11.7915 6.81433 11.0358 7.57003 10.1107 7.57003C9.18565 7.57003 8.42995 6.81433 8.42995 5.88925V1.68078C8.42995 0.755701 9.18565 0 10.1107 0C11.0358 0 11.7915 0.755701 11.7915 1.68078V5.88925Z"/>
            <path d="M10.1106 12.6387C11.0357 12.6387 11.7914 13.3944 11.7914 14.3195C11.7914 15.2445 11.0357 16.0002 10.1106 16.0002C9.18552 16.0002 8.42982 15.2445 8.42982 14.3195V12.6387H10.1106Z"/>
            <path d="M10.1107 11.7917C9.18565 11.7917 8.42995 11.036 8.42995 10.111C8.42995 9.18588 9.18565 8.43018 10.1107 8.43018H14.3192C15.2443 8.43018 16 9.18588 16 10.111C16 11.036 15.2443 11.7917 14.3192 11.7917H10.1107Z"/>
        </svg>
    </symbol>
    <symbol id="hackernews">
    <svg width="16" height="16" viewBox="0 0 16 16" xmlns="http://www.w3.org/2000/svg">
            <path d="M3.36156 10.111C3.36156 11.036 2.60586 11.7917 1.68078 11.7917C0.755701 11.7917 0 11.036 0 10.111C0 9.18588 0.755701 8.43018 1.68078 8.43018H3.36156V10.111Z"/>
            <path d="M4.20847 10.111C4.20847 9.18588 4.96417 8.43018 5.88926 8.43018C6.81434 8.43018 7.57004 9.18588 7.57004 10.111V14.3194C7.57004 15.2445 6.81434 16.0002 5.88926 16.0002C4.96417 16.0002 4.20847 15.2445 4.20847 14.3194V10.111Z"/>
            <path d="M5.88926 3.36156C4.96417 3.36156 4.20847 2.60586 4.20847 1.68078C4.20847 0.755701 4.96417 0 5.88926 0C6.81434 0 7.57004 0.755701 7.57004 1.68078V3.36156H5.88926Z"/>
            <path d="M5.88925 4.2085C6.81433 4.2085 7.57003 4.9642 7.57003 5.88928C7.57003 6.81436 6.81433 7.57006 5.88925 7.57006H1.68078C0.755701 7.57006 0 6.81436 0 5.88928C0 4.9642 0.755701 4.2085 1.68078 4.2085H5.88925Z"/>
            <path d="M12.6383 5.88928C12.6383 4.9642 13.394 4.2085 14.3191 4.2085C15.2441 4.2085 15.9998 4.9642 15.9998 5.88928C15.9998 6.81436 15.2441 7.57006 14.3191 7.57006H12.6383V5.88928Z"/>
            <path d="M11.7915 5.88925C11.7915 6.81433 11.0358 7.57003 10.1107 7.57003C9.18565 7.57003 8.42995 6.81433 8.42995 5.88925V1.68078C8.42995 0.755701 9.18565 0 10.1107 0C11.0358 0 11.7915 0.755701 11.7915 1.68078V5.88925Z"/>
            <path d="M10.1106 12.6387C11.0357 12.6387 11.7914 13.3944 11.7914 14.3195C11.7914 15.2445 11.0357 16.0002 10.1106 16.0002C9.18552 16.0002 8.42982 15.2445 8.42982 14.3195V12.6387H10.1106Z"/>
            <path d="M10.1107 11.7917C9.18565 11.7917 8.42995 11.036 8.42995 10.111C8.42995 9.18588 9.18565 8.43018 10.1107 8.43018H14.3192C15.2443 8.43018 16 9.18588 16 10.111C16 11.036 15.2443 11.7917 14.3192 11.7917H10.1107Z"/>
        </svg>
</symbol>   
</svg>
