<?xml version="1.0" encoding="UTF-8"?>
<svg xmlns="http://www.w3.org/2000/svg" xmlns:xlink="http://www.w3.org/1999/xlink">
    <symbol id="google">
        <svg viewBox="0 0 20 20">
            <g>
                <path d="M19.7875 10.2252C19.7875 9.56683 19.7292 8.94183 19.6292 8.3335H10.2125V12.0918H15.6042C15.3625 13.3252 14.6542 14.3668 13.6042 15.0752V17.5752H16.8209C18.7042 15.8335 19.7875 13.2668 19.7875 10.2252Z" fill="#4285F4"/>
                <path d="M10.2125 19.9999C12.9125 19.9999 15.1708 19.0999 16.8208 17.5749L13.6041 15.0749C12.7041 15.6749 11.5625 16.0415 10.2125 16.0415C7.60414 16.0415 5.39581 14.2832 4.60414 11.9082H1.28748V14.4832C2.92914 17.7499 6.30414 19.9999 10.2125 19.9999Z" fill="#34A853"/>
                <path d="M4.60419 11.9083C4.39586 11.3083 4.28752 10.6666 4.28752 9.99993C4.28752 9.33327 4.40419 8.6916 4.60419 8.0916V5.5166H1.28752C0.60419 6.8666 0.212524 8.38327 0.212524 9.99993C0.212524 11.6166 0.60419 13.1333 1.28752 14.4833L4.60419 11.9083Z" fill="#FBBC05"/>
                <path d="M10.2125 3.95833C11.6875 3.95833 13.0041 4.46667 14.0458 5.45834L16.8958 2.60833C15.1708 0.991668 12.9125 0 10.2125 0C6.30414 0 2.92914 2.25 1.28748 5.51667L4.60414 8.09167C5.39581 5.71667 7.60414 3.95833 10.2125 3.95833Z" fill="#EA4335"/>
            </g>
        </svg>
    </symbol>
</svg>
