<?xml version="1.0" encoding="UTF-8"?>
<svg xmlns="http://www.w3.org/2000/svg" xmlns:xlink="http://www.w3.org/1999/xlink">
    <symbol id="google">
        <svg viewBox="0 0 20 20">
            <g>
                <path
                    d="M19.7875 10.2252C19.7875 9.56683 19.7292 8.94183 19.6292 8.3335H10.2125V12.0918H15.6042C15.3625 13.3252 14.6542 14.3668 13.6042 15.0752V17.5752H16.8209C18.7042 15.8335 19.7875 13.2668 19.7875 10.2252Z"
                    fill="#4285F4" />
                <path
                    d="M10.2125 19.9999C12.9125 19.9999 15.1708 19.0999 16.8208 17.5749L13.6041 15.0749C12.7041 15.6749 11.5625 16.0415 10.2125 16.0415C7.60414 16.0415 5.39581 14.2832 4.60414 11.9082H1.28748V14.4832C2.92914 17.7499 6.30414 19.9999 10.2125 19.9999Z"
                    fill="#34A853" />
                <path
                    d="M4.60419 11.9083C4.39586 11.3083 4.28752 10.6666 4.28752 9.99993C4.28752 9.33327 4.40419 8.6916 4.60419 8.0916V5.5166H1.28752C0.60419 6.8666 0.212524 8.38327 0.212524 9.99993C0.212524 11.6166 0.60419 13.1333 1.28752 14.4833L4.60419 11.9083Z"
                    fill="#FBBC05" />
                <path
                    d="M10.2125 3.95833C11.6875 3.95833 13.0041 4.46667 14.0458 5.45834L16.8958 2.60833C15.1708 0.991668 12.9125 0 10.2125 0C6.30414 0 2.92914 2.25 1.28748 5.51667L4.60414 8.09167C5.39581 5.71667 7.60414 3.95833 10.2125 3.95833Z"
                    fill="#EA4335" />
            </g>
        </svg>
    </symbol>
    <symbol id="discord">
        <svg class="svg-icon" width="16" height="13" viewBox="0 0 16 13"
            xmlns="http://www.w3.org/2000/svg">
            <path
                d="M13.5447 1.81368C12.5249 1.34576 11.4313 1.00101 10.2879 0.803563C10.2671 0.799752 10.2463 0.809275 10.2356 0.828322C10.0949 1.07847 9.93915 1.4048 9.83006 1.66129C8.60027 1.47718 7.37679 1.47718 6.17221 1.66129C6.0631 1.3991 5.90166 1.07847 5.76038 0.828322C5.74966 0.809911 5.72886 0.800387 5.70803 0.803563C4.56527 1.00038 3.47171 1.34512 2.45129 1.81368C2.44246 1.81748 2.43488 1.82384 2.42986 1.83209C0.355594 4.93099 -0.212633 7.95373 0.0661201 10.939C0.0673814 10.9536 0.0755799 10.9676 0.086932 10.9764C1.45547 11.9815 2.78114 12.5916 4.08219 12.996C4.10301 13.0024 4.12507 12.9948 4.13832 12.9776C4.44608 12.5573 4.72043 12.1142 4.95565 11.6482C4.96953 11.6209 4.95628 11.5885 4.92791 11.5777C4.49275 11.4126 4.0784 11.2114 3.67982 10.9828C3.64829 10.9644 3.64577 10.9193 3.67477 10.8977C3.75865 10.8349 3.84255 10.7695 3.92264 10.7034C3.93713 10.6914 3.95732 10.6888 3.97435 10.6964C6.59286 11.892 9.4277 11.892 12.0153 10.6964C12.0323 10.6882 12.0525 10.6907 12.0677 10.7028C12.1478 10.7688 12.2316 10.8349 12.3161 10.8977C12.3451 10.9193 12.3433 10.9644 12.3117 10.9828C11.9131 11.2158 11.4988 11.4126 11.063 11.5771C11.0346 11.5879 11.022 11.6209 11.0359 11.6482C11.2762 12.1135 11.5505 12.5567 11.8526 12.977C11.8652 12.9948 11.8879 13.0024 11.9087 12.996C13.2161 12.5916 14.5417 11.9815 15.9103 10.9764C15.9223 10.9676 15.9298 10.9542 15.9311 10.9396C16.2647 7.48834 15.3723 4.49039 13.5655 1.83272C13.5611 1.82384 13.5535 1.81748 13.5447 1.81368ZM5.34668 9.12128C4.55833 9.12128 3.90876 8.39752 3.90876 7.50866C3.90876 6.61981 4.54574 5.89604 5.34668 5.89604C6.15392 5.89604 6.79721 6.62616 6.78459 7.50866C6.78459 8.39752 6.14761 9.12128 5.34668 9.12128ZM10.6632 9.12128C9.87484 9.12128 9.22526 8.39752 9.22526 7.50866C9.22526 6.61981 9.86222 5.89604 10.6632 5.89604C11.4704 5.89604 12.1137 6.62616 12.1011 7.50866C12.1011 8.39752 11.4704 9.12128 10.6632 9.12128Z" />
        </svg>
    </symbol>
    <symbol id="slack">
        <svg class="svg-icon" width="16" height="16" viewBox="70 70 130 130" xmlns="http://www.w3.org/2000/svg">
            <g>
                <g>
                    <path d="M99.4,151.2c0,7.1-5.8,12.9-12.9,12.9s-12.9-5.8-12.9-12.9c0-7.1,5.8-12.9,12.9-12.9h12.9V151.2z"/>
                    <path d="M105.9,151.2c0-7.1,5.8-12.9,12.9-12.9s12.9,5.8,12.9,12.9v32.3c0,7.1-5.8,12.9-12.9,12.9s-12.9-5.8-12.9-12.9
			C105.9,183.5,105.9,151.2,105.9,151.2z"/>
                </g>
                <g>
                    <path d="M118.8,99.4c-7.1,0-12.9-5.8-12.9-12.9s5.8-12.9,12.9-12.9s12.9,5.8,12.9,12.9v12.9H118.8z"/>
                    <path d="M118.8,105.9c7.1,0,12.9,5.8,12.9,12.9s-5.8,12.9-12.9,12.9H86.5c-7.1,0-12.9-5.8-12.9-12.9s5.8-12.9,12.9-12.9
			C86.5,105.9,118.8,105.9,118.8,105.9z"/>
                </g>
                <g>
                    <path d="M170.6,118.8c0-7.1,5.8-12.9,12.9-12.9c7.1,0,12.9,5.8,12.9,12.9s-5.8,12.9-12.9,12.9h-12.9V118.8z"/>
                    <path d="M164.1,118.8c0,7.1-5.8,12.9-12.9,12.9c-7.1,0-12.9-5.8-12.9-12.9V86.5c0-7.1,5.8-12.9,12.9-12.9
			c7.1,0,12.9,5.8,12.9,12.9V118.8z"/>
                </g>
                <g>
                    <path d="M151.2,170.6c7.1,0,12.9,5.8,12.9,12.9c0,7.1-5.8,12.9-12.9,12.9c-7.1,0-12.9-5.8-12.9-12.9v-12.9H151.2z"/>
                    <path d="M151.2,164.1c-7.1,0-12.9-5.8-12.9-12.9c0-7.1,5.8-12.9,12.9-12.9h32.3c7.1,0,12.9,5.8,12.9,12.9
			c0,7.1-5.8,12.9-12.9,12.9H151.2z"/>
                </g>
            </g>        </svg>
    </symbol>
    <symbol id="twitter">
        <svg  width="16" height="16" viewBox="0 0 16 16" xmlns="http://www.w3.org/2000/svg">
            <path d="M9.31264 6.77143L15.1379 0H13.7575L8.69942 5.87954L4.65953 0H0L6.10911 8.8909L0 15.9918H1.38049L6.72197 9.78279L10.9884 15.9918H15.6479L9.3123 6.77143H9.31264ZM7.42187 8.96923L6.80289 8.0839L1.87789 1.03921H3.99824L7.97277 6.7245L8.59175 7.60983L13.7582 14.9998H11.6378L7.42187 8.96957V8.96923Z" />
        </svg>
    </symbol>
    <symbol id="github">
        <svg width="16" height="16" viewBox="0 0 16 16" xmlns="http://www.w3.org/2000/svg">
            <path d="M8 0C3.58 0 1.16763e-06 3.67064 1.16763e-06 8.20255C-0.000906207 9.92449 0.527052 11.603 1.50897 13C2.4909 14.3969 3.87692 15.4414 5.4704 15.9851C5.8704 16.0565 6.02 15.8104 6.02 15.5947C6.02 15.4003 6.0096 14.7547 6.0096 14.0674C4 14.4472 3.48 13.5654 3.32 13.1036C3.2296 12.8673 2.84 12.1398 2.5 11.9446C2.22 11.7912 1.82 11.4114 2.4896 11.4015C3.12 11.3909 3.5696 11.9962 3.72 12.2423C4.44 13.4825 5.5904 13.1339 6.0496 12.919C6.12 12.3859 6.3296 12.0274 6.56 11.8223C4.78 11.6173 2.92 10.9094 2.92 7.77192C2.92 6.87948 3.2296 6.14207 3.74 5.56707C3.66 5.36201 3.38 4.52125 3.82 3.3934C3.82 3.3934 4.4896 3.17849 6.02 4.23498C6.67125 4.04965 7.34413 3.95637 8.02 3.95773C8.7 3.95773 9.38 4.0496 10.02 4.23416C11.5496 3.16783 12.22 3.39422 12.22 3.39422C12.66 4.52207 12.38 5.36283 12.3 5.56789C12.8096 6.14207 13.12 6.86964 13.12 7.77192C13.12 10.9201 11.2504 11.6173 9.4704 11.8223C9.76 12.0783 10.0104 12.5704 10.0104 13.3398C10.0104 14.4365 10 15.3183 10 15.5955C10 15.8104 10.1504 16.0663 10.5504 15.9843C12.1384 15.4346 13.5183 14.3881 14.4959 12.9921C15.4735 11.5962 15.9995 9.92108 16 8.20255C16 3.67064 12.42 0 8 0Z"/>
        </svg>
    </symbol>
    <symbol id="confluence">
        <svg xmlns="http://www.w3.org/2000/svg"  viewBox="0 0 48 48" width="16px" height="16px"><linearGradient id="~hhCEjI~ovLo7bTsUTFpDa" x1="2" x2="44" y1="34.5" y2="34.5" gradientUnits="userSpaceOnUse"><stop offset="0" stop-color="#2684ff"/><stop offset=".28" stop-color="#1f7bf6"/><stop offset=".742" stop-color="#0c62dd"/><stop offset=".994" stop-color="#0052cc"/></linearGradient><path fill="url(#~hhCEjI~ovLo7bTsUTFpDa)" d="M3.589,35.049c-0.453,0.738-0.962,1.595-1.394,2.277c-0.387,0.653-0.179,1.495,0.467,1.894	l9.063,5.572c0.655,0.404,1.514,0.201,1.919-0.453c0.004-0.007,0.008-0.013,0.012-0.02c0.363-0.606,0.83-1.393,1.338-2.236	c3.59-5.92,7.201-5.196,13.713-2.089l8.986,4.269c0.695,0.331,1.527,0.036,1.858-0.659c0.006-0.012,0.012-0.025,0.017-0.037	l4.315-9.75c0.305-0.696-0.005-1.508-0.697-1.825c-1.896-0.891-5.668-2.667-9.063-4.304C21.909,21.76,11.529,22.143,3.589,35.049z"/><linearGradient id="~hhCEjI~ovLo7bTsUTFpDb" x1="4" x2="46" y1="12.5" y2="12.5" gradientUnits="userSpaceOnUse"><stop offset="0" stop-color="#0052cc"/><stop offset=".044" stop-color="#0255cf"/><stop offset=".665" stop-color="#1c77f2"/><stop offset="1" stop-color="#2684ff"/></linearGradient><path fill="url(#~hhCEjI~ovLo7bTsUTFpDb)" d="M44.412,11.968c0.453-0.737,0.961-1.593,1.393-2.274c0.387-0.652,0.179-1.494-0.467-1.892	l-9.057-5.564c-0.638-0.429-1.504-0.261-1.934,0.377c-0.018,0.027-0.035,0.054-0.051,0.082c-0.362,0.605-0.829,1.391-1.338,2.233	c-3.588,5.912-7.197,5.189-13.703,2.087l-8.952-4.243c-0.695-0.33-1.526-0.035-1.857,0.658C8.441,3.444,8.435,3.456,8.429,3.469	l-4.312,9.738c-0.305,0.695,0.005,1.506,0.697,1.822c1.895,0.89,5.664,2.664,9.057,4.299C26.104,25.239,36.477,24.843,44.412,11.968	z"/></svg>
    </symbol>
    <symbol id="gerrit">
        <svg width="16" height="15" viewBox="0 0 16 15" fill="none" xmlns="http://www.w3.org/2000/svg">
            <g clip-path="url(#clip0_7_5)">
                <path d="M9.08374 1.50558C9.05245 1.52371 9.02881 1.53029 9.01281 1.52531C7.93548 1.17065 6.72161 1.11411 5.64801 1.51625C5.15148 1.70185 4.88001 1.98078 4.58881 2.38452C4.57265 2.40704 4.55047 2.42455 4.52481 2.43502C4.49914 2.44549 4.47104 2.44851 4.44374 2.44372C4.39716 2.43589 4.3577 2.44763 4.32534 2.47892C4.32164 2.48251 4.31882 2.48691 4.3171 2.49176C4.31538 2.49662 4.31481 2.50179 4.31543 2.50687C4.31605 2.51195 4.31785 2.51679 4.32068 2.52102C4.32352 2.52524 4.3273 2.52872 4.33174 2.53118C4.70081 2.73634 5.09459 2.86683 5.51308 2.92265C5.52309 2.92404 5.5333 2.92188 5.54195 2.91653C5.5506 2.91118 5.55717 2.90298 5.56054 2.89332C5.79841 2.20638 6.39361 1.77331 7.09334 1.58718C7.74401 1.41438 8.40605 1.42718 9.07948 1.62558C9.08979 1.62843 9.09992 1.62843 9.10987 1.62558C9.12552 1.62167 9.13565 1.61207 9.14028 1.59678C9.14266 1.58935 9.14242 1.58133 9.13961 1.57405C9.13679 1.56677 9.13157 1.56068 9.12481 1.55678C9.09779 1.54114 9.08641 1.52354 9.09067 1.50398" stroke="#010080" stroke-width="2"/>
                <path d="M9.51151 1.672C9.49516 1.68231 9.47276 1.68746 9.44431 1.68746C9.42014 1.68746 9.41498 1.69724 9.42885 1.7168C9.48591 1.79626 9.64645 1.84373 9.73765 1.88693C9.73978 1.88835 9.74156 1.88782 9.74298 1.88533L9.74991 1.87306C9.75418 1.8656 9.7524 1.85955 9.74458 1.85493C9.6724 1.81191 9.6036 1.76497 9.53818 1.71413C9.53285 1.70986 9.52947 1.70542 9.52805 1.7008C9.52627 1.69333 9.52698 1.68729 9.53018 1.68266" stroke="#010041" stroke-width="2"/>
                <path d="M8.62672 0.0864091C8.60218 0.0711202 8.58281 0.076098 8.56858 0.101342C8.41445 0.373876 8.20965 0.592009 7.95578 0.789876C7.80609 0.906498 7.658 1.02916 7.51152 1.15788C7.48663 1.17992 7.49072 1.19148 7.52378 1.19254C7.94476 1.20819 8.37676 1.28161 8.81978 1.41281C8.8404 1.41885 8.85854 1.41459 8.87418 1.40001C9.08752 1.19521 9.29961 0.961965 9.51045 0.700276C9.51444 0.695418 9.51735 0.689765 9.51899 0.683693C9.52063 0.677622 9.52095 0.671272 9.51994 0.665065C9.51893 0.658858 9.51661 0.652938 9.51314 0.647698C9.50966 0.642458 9.50511 0.638019 9.49978 0.634676L8.62672 0.0864091Z" stroke="#808081" stroke-width="2"/>
                <path d="M6.10035 1.28316C5.80915 1.26716 5.50462 1.28103 5.18675 1.32476C4.70195 1.39143 4.23689 1.68796 4.13822 2.1973C4.10409 2.3733 4.14586 2.39356 4.26355 2.2581C4.45378 2.03836 4.68435 1.88423 4.95529 1.7957C5.04098 1.76761 5.12311 1.72921 5.20169 1.6805C5.47475 1.51054 5.77538 1.39107 6.10355 1.3221C6.20098 1.30183 6.19991 1.28885 6.10035 1.28316Z" stroke="#808081" stroke-width="2"/>
                <path d="M6.9936 2.85652C7.73334 2.61918 8.40054 2.19678 9.00694 1.71518C9.04676 1.68389 9.04214 1.66185 8.99307 1.64905C7.792 1.34078 6.13014 1.56158 5.61974 2.88852C5.61767 2.89371 5.61679 2.8993 5.61714 2.90488C5.61749 2.91046 5.61908 2.9159 5.62178 2.92079C5.62448 2.92569 5.62824 2.92992 5.63277 2.93319C5.6373 2.93647 5.64251 2.93869 5.648 2.93972C6.09814 3.02718 6.54667 2.99945 6.9936 2.85652Z" stroke="#010041" stroke-width="2"/>
                <path d="M4.42191 2.63949C4.41409 2.63558 4.40556 2.63345 4.39631 2.63309C4.39205 2.63309 4.39169 2.63434 4.39525 2.63683C4.79809 2.92483 5.22156 3.15789 5.66565 3.33603C6.02511 3.48003 6.36467 3.53176 6.68431 3.49123C7.01036 3.44963 7.37089 3.37496 7.76591 3.26723C8.60894 3.03754 9.44431 2.77265 10.272 2.47256C10.2749 2.47161 10.2774 2.4699 10.2794 2.46761C10.2813 2.46533 10.2826 2.46256 10.2831 2.4596C10.2836 2.45664 10.2833 2.4536 10.2822 2.45081C10.2811 2.44802 10.2792 2.44558 10.2768 2.44376L9.22618 1.63309C9.21962 1.62798 9.21145 1.62534 9.20308 1.62563C9.19471 1.62592 9.18666 1.62913 9.18031 1.63469C8.37391 2.32963 7.19898 3.06136 6.14511 3.04429C5.5236 3.03434 4.9492 2.8994 4.42191 2.63949Z" stroke="#808081" stroke-width="2"/>
                <path d="M9.9675 2.10075L10.3723 2.45649C10.3759 2.45968 10.3786 2.46376 10.3802 2.46833C10.3818 2.47291 10.3821 2.4778 10.3812 2.48254C10.3803 2.48729 10.3781 2.49171 10.375 2.49537C10.3718 2.49903 10.3678 2.5018 10.3632 2.50342C9.3147 2.86449 8.2715 3.21435 7.18564 3.46342C6.91364 3.52564 6.64999 3.5564 6.3947 3.55569C6.13177 3.55515 5.86404 3.47515 5.62084 3.38289C5.61621 3.38118 5.61121 3.38073 5.60635 3.3816C5.60149 3.38247 5.59696 3.38462 5.59321 3.38782C5.58946 3.39103 5.58663 3.39518 5.58502 3.39984C5.58341 3.40451 5.58307 3.40951 5.58404 3.41435C5.6859 3.87462 5.96964 4.31355 6.2539 4.68049C6.57035 5.08937 6.89995 5.46857 7.2427 5.81809C7.44573 6.02502 7.6395 6.24351 7.82404 6.47355C8.01355 6.71035 8.2011 6.9388 8.3867 7.15889C8.40661 7.18235 8.43079 7.19995 8.45924 7.21169C8.80324 7.35462 9.12164 7.53595 9.44964 7.69595C9.93888 7.9356 10.3945 8.15053 10.8166 8.34075C11.3613 8.58644 11.9348 8.79178 12.5371 8.95675C12.5702 8.96564 12.5903 8.95338 12.5974 8.91995L12.6795 8.53435C12.6825 8.52038 12.6827 8.50593 12.6799 8.4919C12.6772 8.47787 12.6716 8.46455 12.6635 8.45275C12.6048 8.36671 12.5396 8.28315 12.4678 8.20209C12.0507 7.7324 11.5787 7.28617 11.0518 6.86342C11.0397 6.85382 11.0365 6.84173 11.0422 6.82715C11.0475 6.81364 11.0569 6.80937 11.0704 6.81435C11.7524 7.07035 12.3072 7.45364 12.735 7.96422C12.7403 7.97066 12.7475 7.97538 12.7555 7.97777C12.7636 7.98017 12.7722 7.98014 12.7802 7.9777C12.7882 7.97525 12.7953 7.97049 12.8007 7.96401C12.806 7.95754 12.8093 7.94963 12.8102 7.94129C12.8315 7.73969 12.8495 7.5484 12.864 7.36742C12.8694 7.30093 12.85 7.24546 12.8059 7.20102C12.4244 6.8156 11.9709 6.4092 11.4454 5.98182C11.4423 5.97925 11.4398 5.97605 11.4381 5.97244C11.4364 5.96882 11.4355 5.96488 11.4354 5.96088C11.4354 5.95687 11.4362 5.95291 11.4378 5.94925C11.4394 5.94559 11.4418 5.94233 11.4448 5.93969C11.4591 5.92724 11.4754 5.92386 11.4939 5.92955C12.0123 6.08955 12.4534 6.42982 12.8187 6.81542C12.8745 6.8748 12.9026 6.86377 12.903 6.78235C12.9033 6.5804 12.8998 6.37293 12.8923 6.15995C12.8902 6.09773 12.866 6.04689 12.8198 6.00742C12.5172 5.75 12.2187 5.51835 11.9243 5.31249C11.9062 5.29969 11.8976 5.28315 11.8987 5.26289C11.8989 5.25997 11.8997 5.25713 11.9012 5.25458C11.9026 5.25204 11.9046 5.24986 11.9071 5.24822C11.9095 5.24657 11.9122 5.2455 11.9151 5.24508C11.918 5.24467 11.921 5.24492 11.9238 5.24582C12.2402 5.35142 12.5238 5.49186 12.7744 5.66715C12.7785 5.67012 12.7834 5.67186 12.7884 5.67218C12.7935 5.67249 12.7986 5.67137 12.803 5.66893C12.8075 5.66649 12.8113 5.66284 12.8138 5.65838C12.8164 5.65392 12.8177 5.64883 12.8176 5.64369C12.8166 5.59746 12.8084 5.55266 12.7931 5.50929C12.3504 4.25329 11.4678 3.17969 10.4235 2.36689C10.2781 2.25346 10.122 2.15391 9.95524 2.06822C9.93426 2.0572 9.93355 2.05844 9.9531 2.07195C9.95701 2.0748 9.95933 2.07924 9.96004 2.08529C9.9602 2.08831 9.96095 2.09125 9.96223 2.09391C9.96351 2.09657 9.96531 2.0989 9.9675 2.10075Z" stroke="#010041" stroke-width="2"/>
                <path d="M1.77815 3.42667C1.60535 3.55147 1.45549 3.87787 1.39895 4.07787C1.38935 4.11094 1.39913 4.11805 1.42829 4.0992C1.74722 3.89014 2.05833 3.69405 2.36162 3.51094C2.94349 3.15947 3.65602 2.8 4.27522 2.44054C4.31291 2.41849 4.31006 2.40427 4.26669 2.39787C4.18384 2.38542 4.09958 2.38454 4.01389 2.3952C3.45389 2.4656 2.99042 2.59467 2.51202 2.91627C2.24002 3.09902 1.9954 3.26916 1.77815 3.42667Z" stroke="#808081" stroke-width="2"/>
                <path d="M3.22834 2.47259C3.23474 2.47223 3.24097 2.47259 3.24701 2.47365C3.24701 2.47259 3.24683 2.47294 3.24648 2.47472C3.24612 2.47685 3.24488 2.47757 3.24274 2.47685C3.21074 2.46477 3.18141 2.46832 3.15474 2.48752C3.13946 2.49854 3.12274 2.50637 3.10461 2.51099C2.65163 2.62548 2.26888 2.85054 1.95634 3.18619C1.95137 3.19152 1.94941 3.19774 1.95048 3.20485C1.95368 3.22441 1.96346 3.2285 1.97981 3.21712C2.22337 3.04717 2.46603 2.88645 2.70781 2.73499C2.86283 2.63757 3.02212 2.5629 3.18568 2.51099C3.20239 2.51454 3.21057 2.5085 3.21021 2.49285C3.20986 2.48005 3.2159 2.4733 3.22834 2.47259Z" stroke="#010080" stroke-width="2"/>
                <path d="M1.40643 4.17391C1.3099 4.23631 1.31257 4.41498 1.30777 4.51471C1.30756 4.51993 1.3085 4.52512 1.31052 4.52993C1.31254 4.53474 1.31559 4.53905 1.31945 4.54256C1.32332 4.54607 1.3279 4.54869 1.33288 4.55023C1.33787 4.55178 1.34313 4.55222 1.3483 4.55151C1.53426 4.52662 1.71843 4.51685 1.90083 4.52218C2.02172 4.52609 2.10101 4.58565 2.1387 4.70085C2.24963 5.03951 2.33977 5.44591 2.29977 5.81498C2.2763 6.03471 1.9995 5.96965 1.85603 5.99258C1.83221 5.99649 1.82972 6.00591 1.84857 6.02085C2.0955 6.21871 2.3835 6.29231 2.68697 6.35418C2.70994 6.35905 2.73382 6.3572 2.75577 6.34885C3.17248 6.19453 3.61603 6.01782 4.08643 5.81871C4.26243 5.74405 4.4155 5.63205 4.5339 5.48538C4.93177 4.99365 5.22777 4.47738 5.8555 4.25711C5.85958 4.25574 5.86328 4.25344 5.86633 4.25039C5.86937 4.24733 5.87167 4.24361 5.87306 4.23949C5.87445 4.23538 5.87489 4.23098 5.87434 4.22664C5.87379 4.2223 5.87227 4.21813 5.8699 4.21445C5.69141 3.94422 5.57319 3.66067 5.51523 3.36378C5.51132 3.3428 5.49959 3.32787 5.48003 3.31898C5.01888 3.11276 4.59488 2.86138 4.20803 2.56485C4.20347 2.56135 4.19796 2.55928 4.19217 2.5589C4.18639 2.55852 4.18059 2.55985 4.1755 2.56271C3.76448 2.79169 3.34954 3.01925 2.9307 3.24538C2.57194 3.4388 2.06386 3.74831 1.40643 4.17391Z" stroke="#010080" stroke-width="2"/>
                <path d="M5.07204 6.46193C5.91577 6.57873 6.72324 6.70406 7.51417 6.9638C7.76964 7.04753 8.00164 7.0966 8.25124 7.14886C8.29995 7.15882 8.30795 7.14495 8.27524 7.10726C7.93924 6.71633 7.62724 6.29873 7.2667 5.9254C6.7851 5.42673 6.31204 4.903 5.9339 4.32113C5.92324 4.30513 5.90884 4.30015 5.8907 4.3062C5.3099 4.49926 5.0043 4.94886 4.6459 5.4342C4.4955 5.63757 4.30919 5.78566 4.08697 5.87846C3.68946 6.04415 3.28306 6.20735 2.86777 6.36806C2.83684 6.38015 2.83755 6.38957 2.8699 6.39633C3.3931 6.50513 3.87257 6.48806 4.39684 6.43633C4.58706 6.41749 4.81213 6.42602 5.07204 6.46193Z" stroke="#803301" stroke-width="2"/>
                <path d="M0.831493 6.24374C1.26954 6.01476 1.71469 5.90561 2.16696 5.91628C2.1803 5.91656 2.19333 5.91233 2.2039 5.90429C2.21447 5.89624 2.22194 5.88485 2.22509 5.87201C2.30989 5.52214 2.19896 5.07788 2.09229 4.73494C2.05745 4.62401 1.97763 4.56943 1.85283 4.57121C1.52963 4.57619 1.24269 4.61174 0.992026 4.67788C0.774426 4.73548 0.61176 4.86401 0.46776 5.02988C0.154871 5.39005 0.021004 5.80392 0.0661595 6.27148C0.0732706 6.3433 0.0928262 6.40996 0.124826 6.47148C0.138688 6.49796 0.162348 6.51799 0.19081 6.52735C0.219272 6.5367 0.250307 6.53464 0.27736 6.52161C0.470782 6.42845 0.655493 6.33583 0.831493 6.24374Z" stroke="#808001" stroke-width="2"/>
                <path d="M11.6422 6.0283C11.5874 6.01621 11.5807 6.02919 11.6219 6.06723L11.7345 6.17177C11.7414 6.17846 11.7507 6.18231 11.7604 6.18256C11.7701 6.18281 11.7795 6.17944 11.7868 6.17311C11.7942 6.16678 11.7989 6.15794 11.8 6.14832C11.8012 6.1387 11.7987 6.129 11.7931 6.1211C11.7618 6.07488 11.7115 6.04394 11.6422 6.0283Z" stroke="#010041" stroke-width="2"/>
                <path d="M5.94397 7.54291C6.05135 7.53296 6.05775 7.55393 5.96317 7.60584C5.71997 7.73953 5.47784 7.8766 5.23677 8.01705C5.16424 8.05936 5.0901 8.11464 5.01437 8.18291C4.97419 8.21953 4.98095 8.23411 5.03464 8.22664C5.07944 8.22024 5.12851 8.21064 5.16797 8.18824C5.59357 7.94664 6.03571 7.72531 6.51091 7.63038C6.86451 7.55944 7.20317 7.69331 7.51037 7.86184C7.53313 7.87429 7.54131 7.86789 7.53491 7.84264C7.52068 7.78433 7.48637 7.73882 7.43197 7.70611C7.31179 7.63393 7.18415 7.5534 7.04904 7.46451C6.95908 7.40549 6.93597 7.32584 6.9797 7.22558C7.02593 7.12033 7.08477 7.01811 7.15624 6.91891C7.15685 6.9181 7.15724 6.91715 7.15738 6.91614C7.15752 6.91513 7.15741 6.91409 7.15704 6.9131C7.15668 6.91211 7.15608 6.9112 7.15529 6.91045C7.1545 6.9097 7.15354 6.90913 7.15251 6.90878C6.99713 6.86327 6.84371 6.82647 6.69224 6.79838C6.68691 6.79731 6.68264 6.79927 6.67944 6.80424L6.42557 7.22291C6.42141 7.22995 6.41535 7.23568 6.40809 7.23945C6.40083 7.24323 6.39266 7.24489 6.38451 7.24424C5.68904 7.19518 4.94504 7.68531 4.50237 8.22984C4.4917 8.24264 4.49437 8.25118 4.51037 8.25544L4.53064 8.26024C4.54113 8.26286 4.55208 8.26286 4.56251 8.26026C4.57293 8.25765 4.5825 8.25252 4.59037 8.24531C4.77313 8.07536 4.95375 7.93296 5.13224 7.81811C5.37295 7.66273 5.64353 7.571 5.94397 7.54291Z" stroke="#808001" stroke-width="2"/>
                <path d="M12.4859 8.07891C12.4255 7.94629 12.3688 7.80958 12.3158 7.66878C12.2895 7.5998 12.2461 7.54238 12.1857 7.49651C11.9108 7.28887 11.6157 7.11109 11.3003 6.96318C11.2499 6.93936 11.2438 6.94771 11.2822 6.98825C11.3366 7.04531 11.4097 7.09278 11.4726 7.14665C11.8207 7.4446 12.151 7.76922 12.4635 8.12051C12.4657 8.12318 12.4685 8.12534 12.4716 8.12681C12.4747 8.12829 12.4782 8.12905 12.4817 8.12905C12.5211 8.1294 12.5268 8.1182 12.4987 8.09544C12.4931 8.09118 12.4888 8.08567 12.4859 8.07891Z" stroke="#010080" stroke-width="2"/>
                <path d="M7.86778 8.24747C7.87332 8.24969 7.8781 8.2535 7.88149 8.25841C7.88489 8.26333 7.88676 8.26914 7.88688 8.27512C7.88699 8.28109 7.88534 8.28697 7.88213 8.29201C7.87893 8.29705 7.8743 8.30104 7.86884 8.30347C7.51293 8.46134 7.1844 8.63982 6.88324 8.83894C6.83204 8.87271 6.8372 8.89156 6.89871 8.89547C6.95524 8.8992 7.01764 8.8928 7.06831 8.8656C7.60591 8.57974 8.30617 8.24267 8.89977 8.32054C9.09391 8.34614 9.27702 8.37867 9.44911 8.41814C9.45302 8.4192 9.45711 8.41902 9.46137 8.4176C9.46777 8.41547 9.47169 8.41049 9.47311 8.40267C9.47489 8.39022 9.47062 8.38045 9.46031 8.37334C9.29426 8.26062 9.10991 8.16427 8.90724 8.08427C8.89658 8.08019 8.88794 8.07211 8.88315 8.06175C8.87837 8.05138 8.87783 8.03956 8.88164 8.0288L9.04378 7.57387C9.04514 7.56988 9.04502 7.56555 9.04345 7.56171C9.04187 7.55787 9.03895 7.55479 9.03524 7.55307L8.59951 7.33814C8.58991 7.33351 8.58333 7.33618 8.57977 7.34614L8.38884 7.9376C8.38569 7.94739 8.3797 7.95602 8.37162 7.96238C8.36355 7.96874 8.35376 7.97256 8.34351 7.97334C7.62618 8.03414 6.91418 8.37974 6.32431 8.8272C6.29693 8.84782 6.30031 8.86009 6.33444 8.864C6.37213 8.86827 6.41018 8.8704 6.44858 8.8704C6.47062 8.87005 6.49071 8.86365 6.50884 8.8512C6.63933 8.76054 6.77391 8.66934 6.91258 8.5776C7.17818 8.4016 7.47204 8.29529 7.79418 8.25867C7.80769 8.25725 7.82084 8.25387 7.83364 8.24854C7.84538 8.24356 7.85675 8.2432 7.86778 8.24747Z" stroke="#808001" stroke-width="2"/>
                <path d="M13.4806 11.1888C13.4923 11.1764 13.5035 11.1767 13.5142 11.1899L15.3766 13.4432C15.3793 13.4464 15.3827 13.4489 15.3866 13.4505C15.3905 13.4521 15.3947 13.4527 15.3988 13.4523C15.403 13.4518 15.407 13.4504 15.4104 13.4481C15.4139 13.4458 15.4168 13.4426 15.4187 13.439L15.9195 12.5339C15.9259 12.5224 15.9284 12.5092 15.9264 12.4962C15.9245 12.4833 15.9183 12.4714 15.9089 12.4624C15.0154 11.5952 14.2168 10.7229 13.5131 9.84537C13.2155 9.47382 12.9647 9.08679 12.7606 8.6843C12.7336 8.63133 12.714 8.63382 12.7019 8.69177L12.6411 8.9835C12.6337 9.02084 12.6115 9.03453 12.5745 9.02457C12.1581 8.91328 11.7288 8.77159 11.2865 8.5995C11.2835 8.59829 11.2803 8.59796 11.2772 8.59855C11.274 8.59914 11.2711 8.60062 11.2688 8.60282C11.2665 8.60502 11.2649 8.60784 11.2641 8.61094C11.2634 8.61404 11.2636 8.6173 11.2646 8.6203C11.4676 9.22439 11.6902 9.78279 11.9323 10.2955C12.0618 10.5696 12.2275 10.8839 12.4294 11.2384C13.0868 12.3933 13.8026 13.5638 14.5766 14.7499C14.5802 14.7554 14.585 14.76 14.5908 14.7632C14.5965 14.7663 14.603 14.768 14.6095 14.7681C14.6161 14.7681 14.6226 14.7666 14.6284 14.7635C14.6342 14.7604 14.6391 14.7559 14.6427 14.7504L15.1803 13.9558C15.1884 13.9437 15.1928 13.9296 15.193 13.9151C15.1932 13.9006 15.1892 13.8864 15.1814 13.8742L13.4673 11.2171C13.4634 11.2114 13.4639 11.2061 13.4689 11.2011L13.4806 11.1888Z" stroke="#010080" stroke-width="2"/>
                <path d="M8.49763 1.17707L8.95896 0.630937C8.96829 0.61976 8.9728 0.605336 8.9715 0.590836C8.9702 0.576336 8.96319 0.562944 8.95203 0.553604L8.86936 0.483737C8.85315 0.470055 8.83449 0.460627 8.81749 0.457527C8.80049 0.454426 8.78653 0.457907 8.77869 0.467204L8.30563 1.0272C8.29787 1.03651 8.29683 1.05082 8.30272 1.06701C8.30862 1.08319 8.32098 1.09994 8.33709 1.1136L8.42029 1.18347C8.4314 1.19286 8.44578 1.19746 8.46028 1.19626C8.47478 1.19506 8.48821 1.18816 8.49763 1.17707Z" stroke="#FF8080" stroke-width="2"/>
                <path d="M9.01336 2.30611C9.01575 2.30782 9.01769 2.31009 9.01901 2.31271C9.02033 2.31534 9.02099 2.31825 9.02094 2.32119C9.02089 2.32413 9.02012 2.32701 9.01871 2.32958C9.01729 2.33216 9.01527 2.33436 9.01282 2.33598L8.77656 2.48851C8.77402 2.49016 8.77194 2.49241 8.7705 2.49507C8.76906 2.49772 8.76831 2.50069 8.76831 2.50371C8.76831 2.50673 8.76906 2.5097 8.7705 2.51236C8.77194 2.51501 8.77402 2.51727 8.77656 2.51891L8.94082 2.62238C8.94375 2.6241 8.9471 2.62496 8.9505 2.62486C8.95389 2.62477 8.95719 2.62372 8.96002 2.62185L9.21122 2.46238C9.21427 2.46044 9.21783 2.45945 9.22144 2.45955C9.22505 2.45964 9.22855 2.46082 9.23149 2.46291L9.47096 2.63411C9.47368 2.63616 9.47693 2.63739 9.48033 2.63767C9.48372 2.63796 9.48713 2.63728 9.49016 2.63571L9.65976 2.54131C9.66238 2.5398 9.66458 2.53766 9.66617 2.53508C9.66775 2.5325 9.66866 2.52957 9.66882 2.52655C9.66898 2.52353 9.66838 2.52051 9.66708 2.51778C9.66577 2.51505 9.66381 2.51269 9.66136 2.51091L9.43202 2.34825C9.42955 2.34651 9.42754 2.34419 9.42619 2.34148C9.42485 2.33878 9.42419 2.33578 9.4243 2.33276C9.42441 2.32974 9.42527 2.32679 9.4268 2.32419C9.42834 2.32158 9.4305 2.3194 9.43309 2.31785L9.67629 2.16905C9.67896 2.16747 9.68119 2.16524 9.68276 2.16255C9.68432 2.15987 9.68517 2.15683 9.68523 2.15373C9.68528 2.15062 9.68453 2.14756 9.68306 2.14482C9.68159 2.14209 9.67944 2.13978 9.67682 2.13811L9.51362 2.02825C9.51063 2.02623 9.5071 2.02515 9.50349 2.02515C9.49988 2.02515 9.49635 2.02623 9.49336 2.02825L9.23842 2.19251C9.23543 2.19453 9.2319 2.19561 9.22829 2.19561C9.22468 2.19561 9.22115 2.19453 9.21816 2.19251L8.97016 2.01491C8.96727 2.01293 8.96387 2.01182 8.96037 2.01173C8.95687 2.01163 8.95341 2.01255 8.95042 2.01438L8.78509 2.11465C8.7825 2.1162 8.78034 2.11838 8.7788 2.12099C8.77727 2.12359 8.77641 2.12654 8.7763 2.12956C8.7762 2.13258 8.77685 2.13558 8.77819 2.13828C8.77954 2.14099 8.78155 2.14331 8.78402 2.14505L9.01336 2.30611Z" stroke="#80C080" stroke-width="2"/>
                <path d="M2.98823 4.95096C3.36903 4.9915 3.92957 4.77976 4.23463 4.53923C4.46077 4.36145 4.69152 4.1435 4.9269 3.88536C4.92894 3.88314 4.93049 3.88052 4.93146 3.87766C4.93244 3.87481 4.93281 3.87179 4.93256 3.86878C4.93231 3.86578 4.93144 3.86285 4.93001 3.8602C4.92858 3.85755 4.92661 3.85522 4.92423 3.85336C4.38877 3.4379 3.6629 3.1547 3.01917 3.4315C2.6181 3.60376 2.26717 4.02616 2.25437 4.48963C2.25152 4.60234 2.31357 4.69123 2.4405 4.7563C2.66521 4.8715 2.84779 4.93639 2.98823 4.95096Z" stroke="#010080" stroke-width="2"/>
                <path d="M3.51204 3.37064C2.89497 3.40157 2.40057 3.82344 2.3067 4.44797C2.29212 4.54504 2.32501 4.61917 2.40537 4.67037C2.53088 4.75073 2.67844 4.81633 2.84804 4.86717C3.17924 4.96637 3.5723 4.8341 3.87524 4.69224C4.25444 4.51517 4.56804 4.18824 4.85177 3.88637C4.85345 3.88467 4.85474 3.88262 4.85556 3.88037C4.85637 3.87813 4.85669 3.87573 4.85649 3.87334C4.85628 3.87096 4.85556 3.86865 4.85438 3.86657C4.8532 3.86449 4.85158 3.8627 4.84964 3.8613C4.48217 3.59197 3.9723 3.3477 3.51204 3.37064Z" stroke="#800001" stroke-width="2"/>
                <path d="M3.92699 4.53227C4.10779 4.34934 4.15686 4.06187 4.05286 3.82667C3.95579 3.60765 3.77766 3.47556 3.51846 3.43041C3.50566 3.42825 3.49255 3.42899 3.48008 3.43259C3.46762 3.43619 3.45613 3.44256 3.44646 3.45121C3.24699 3.63396 3.04521 3.81796 2.84112 4.00321C2.78939 4.05014 2.79472 4.10987 2.80486 4.17227C2.89766 4.72214 3.54192 4.92107 3.92699 4.53227Z" stroke="#800001" stroke-width="2"/>
                <path d="M2.92373 4.23046C2.95893 3.76752 3.63413 3.83366 3.60693 4.25392C3.59306 4.46975 3.46826 4.58228 3.23253 4.59152C3.20479 4.59259 3.20408 4.59792 3.23039 4.60752C4.01013 4.90032 4.39146 3.73179 3.54719 3.51526C3.51875 3.50815 3.49386 3.51455 3.47253 3.53446C3.2919 3.70121 3.10559 3.87064 2.91359 4.04272C2.86026 4.09019 2.88213 4.17659 2.90613 4.23312C2.91573 4.25624 2.92159 4.25535 2.92373 4.23046Z" stroke="#808001" stroke-width="2"/>
                <path d="M9.08373 1.50561C9.05245 1.52374 9.0288 1.53032 9.0128 1.52534C7.93547 1.17068 6.7216 1.11414 5.648 1.51628C5.15147 1.70188 4.88 1.98081 4.5888 2.38454C4.57265 2.40707 4.55046 2.42458 4.5248 2.43505C4.49913 2.44552 4.47103 2.44854 4.44373 2.44374C4.39716 2.43592 4.35769 2.44766 4.32533 2.47894C4.32164 2.48254 4.31881 2.48694 4.31709 2.49179C4.31537 2.49665 4.3148 2.50182 4.31542 2.5069C4.31604 2.51198 4.31784 2.51682 4.32067 2.52104C4.32351 2.52527 4.32729 2.52875 4.33173 2.53121C4.7008 2.73637 5.09458 2.86686 5.51307 2.92268C5.52308 2.92407 5.53329 2.92191 5.54194 2.91656C5.5506 2.91121 5.55717 2.90301 5.56053 2.89334C5.7984 2.20641 6.3936 1.77334 7.09333 1.58721C7.744 1.41441 8.40604 1.42721 9.07947 1.62561C9.08978 1.62846 9.09991 1.62846 9.10987 1.62561C9.12551 1.6217 9.13564 1.6121 9.14027 1.59681C9.14265 1.58938 9.14241 1.58136 9.1396 1.57408C9.13679 1.5668 9.13156 1.56071 9.1248 1.55681C9.09778 1.54117 9.0864 1.52357 9.09067 1.50401L9.51147 1.67201C9.49511 1.68232 9.47271 1.68748 9.44427 1.68748C9.42009 1.68748 9.41493 1.69726 9.4288 1.71681C9.48587 1.79628 9.6464 1.84374 9.7376 1.88694C9.73973 1.88837 9.74151 1.88783 9.74293 1.88534L9.74987 1.87308C9.75413 1.86561 9.75236 1.85957 9.74453 1.85494C9.67236 1.81192 9.60356 1.76499 9.53813 1.71414C9.5328 1.70988 9.52942 1.70543 9.528 1.70081C9.52622 1.69334 9.52693 1.6873 9.53013 1.68268C9.64498 1.72926 9.74667 1.79219 9.8352 1.87148C9.93938 1.96499 10.0169 2.02828 10.0677 2.06134C10.5673 2.38703 11.0245 2.77566 11.4395 3.22721C12.1163 3.96374 12.6949 4.83628 12.9227 5.77334C12.9365 5.82917 12.9202 5.84001 12.8736 5.80588C12.65 5.64197 12.4112 5.50134 12.1573 5.38401C12.1559 5.3833 12.1547 5.38383 12.1536 5.38561L12.1472 5.39734C12.145 5.40105 12.1444 5.40547 12.1453 5.40972C12.1463 5.41397 12.1489 5.41774 12.1525 5.42028C12.427 5.60126 12.6756 5.79788 12.8981 6.01014C12.9252 6.03578 12.9412 6.07096 12.9429 6.10828C12.9586 6.40126 12.9602 6.69174 12.9477 6.97974C12.9463 7.01245 12.9346 7.01672 12.9125 6.99254C12.6059 6.66028 12.2571 6.34401 11.8581 6.13281C11.8414 6.12392 11.8334 6.1289 11.8341 6.14774C11.8366 6.20606 11.8592 6.2537 11.9019 6.29068C12.2421 6.58401 12.6176 6.89441 12.9019 7.23628C12.918 7.25616 12.9258 7.28137 12.9237 7.30668L12.8507 8.14454C12.8478 8.17654 12.8368 8.17992 12.8176 8.15468C12.6935 7.99254 12.5636 7.8457 12.4277 7.71414C12.384 7.67148 12.3735 7.67841 12.3963 7.73494C12.4809 7.9465 12.5671 8.1449 12.6549 8.33014C12.6816 8.38668 12.7216 8.41441 12.7381 8.47734C12.7616 8.56694 12.7968 8.65406 12.8437 8.73868C13.104 9.20801 13.4219 9.66579 13.7973 10.112C14.4875 10.9319 15.2123 11.7113 15.9717 12.4501C15.9823 12.4602 15.9892 12.4735 15.9913 12.488C15.9934 12.5025 15.9907 12.5173 15.9835 12.5301L15.4229 13.5477C15.4215 13.5504 15.4195 13.5526 15.417 13.5542C15.4145 13.5559 15.4117 13.5569 15.4087 13.5571C15.4057 13.5574 15.4026 13.5569 15.3998 13.5558C15.397 13.5546 15.3945 13.5527 15.3925 13.5504C14.8955 12.9517 14.3876 12.3332 13.8688 11.6949C13.8681 11.6942 13.8674 11.6941 13.8667 11.6944L13.856 11.7024C13.8503 11.7067 13.8492 11.7117 13.8528 11.7173L15.2581 13.8928C15.2684 13.9088 15.2683 13.9248 15.2576 13.9408L14.6341 14.8587C14.6309 14.8633 14.6266 14.8671 14.6216 14.8697C14.6166 14.8723 14.6111 14.8737 14.6055 14.8736C14.5999 14.8736 14.5944 14.8721 14.5895 14.8694C14.5847 14.8667 14.5806 14.8629 14.5776 14.8581C13.7516 13.5888 12.9943 12.3477 12.3056 11.1349C11.8864 10.3961 11.5157 9.54685 11.1936 8.58721C11.1883 8.57157 11.178 8.56037 11.1627 8.55361C10.485 8.25459 9.80942 7.93672 9.136 7.60001C9.11147 7.58792 9.09458 7.59486 9.08533 7.62081L8.95253 7.99361C8.94187 8.02383 8.95164 8.04481 8.98187 8.05654C9.22933 8.15414 9.50027 8.28054 9.6192 8.51468C9.62702 8.52961 9.62293 8.53441 9.60693 8.52908C9.27271 8.41708 8.94933 8.36321 8.6368 8.36748C8.43733 8.37032 8.1808 8.43308 7.8672 8.55574C7.62436 8.65032 7.38311 8.76214 7.14347 8.89121C6.992 8.97228 6.8416 8.94721 6.6832 8.94028C6.66222 8.93957 6.66009 8.93299 6.6768 8.92054C6.94596 8.71823 7.22098 8.55112 7.50187 8.41921C7.59004 8.37797 7.58596 8.36392 7.4896 8.37708C7.37724 8.39237 7.25031 8.44143 7.1088 8.52428C6.91716 8.63663 6.72444 8.7641 6.53067 8.90668C6.51467 8.91841 6.49653 8.9241 6.47627 8.92374L6.17173 8.91681C6.14364 8.9161 6.14044 8.90686 6.16213 8.88908C6.7584 8.39681 7.5392 7.98241 8.30613 7.92374C8.31513 7.92311 8.32373 7.91977 8.33086 7.91417C8.33798 7.90856 8.3433 7.90094 8.34613 7.89228L8.52373 7.34401C8.53013 7.3241 8.5248 7.30792 8.50773 7.29548C8.45013 7.25388 8.38418 7.22668 8.30987 7.21388C7.95609 7.15379 7.60373 7.06134 7.2528 6.93654C7.23396 6.92979 7.21831 6.93423 7.20587 6.94988C7.12764 7.04872 7.06667 7.15557 7.02293 7.27041C7.00124 7.32659 7.01493 7.37174 7.064 7.40588C7.18311 7.48908 7.30969 7.56943 7.44373 7.64694C7.55413 7.71094 7.60427 7.85441 7.65973 7.96428C7.68142 8.0073 7.67165 8.01637 7.6304 7.99148C7.26347 7.77281 6.8688 7.58881 6.43413 7.69974C6.01067 7.80801 5.6112 7.99628 5.23733 8.21494C5.1104 8.28908 4.97387 8.28268 4.8336 8.31254C4.7984 8.31966 4.7936 8.31077 4.8192 8.28588C5.07947 8.03041 5.36747 7.86028 5.69813 7.69388C5.81156 7.63663 5.80604 7.62099 5.6816 7.64694C5.28907 7.72961 4.97813 7.96801 4.68373 8.23788C4.6016 8.31308 4.49547 8.31841 4.39467 8.34508C4.34844 8.35717 4.34009 8.34437 4.3696 8.30668C4.832 7.71414 5.57333 7.15788 6.34773 7.18721C6.37013 7.18792 6.3872 7.17886 6.39893 7.16001L6.6128 6.81281C6.62631 6.79077 6.62044 6.77726 6.5952 6.77228C5.89298 6.62899 5.27911 6.53334 4.7536 6.48534C4.6 6.47148 4.44124 6.47557 4.27733 6.49761C3.63253 6.58508 2.9904 6.51628 2.32533 6.32321C2.11947 6.26348 1.92729 6.16143 1.7488 6.01708C1.736 6.00677 1.72124 6.0025 1.70453 6.00428C1.568 6.02028 1.43716 6.05192 1.312 6.09921C0.994133 6.21974 0.675378 6.36979 0.355733 6.54934C0.214933 6.62828 0.0837333 6.57921 0.0432 6.41228C0.0282667 6.3497 0.0138667 6.28659 0 6.22294V5.96801C0.0469333 5.54952 0.218311 5.19361 0.514133 4.90028C0.701156 4.71468 0.929778 4.60677 1.2 4.57654C1.21468 4.57498 1.22827 4.56803 1.2382 4.55702C1.24813 4.54601 1.2537 4.5317 1.25387 4.51681C1.25547 4.05281 1.53547 3.57228 1.85493 3.22081C2.42827 2.58881 3.16587 2.32961 4.0096 2.34508C4.02382 2.34534 4.03764 2.34039 4.04845 2.33115C4.05926 2.32191 4.06631 2.30903 4.06827 2.29494C4.09529 2.09832 4.14471 1.94792 4.21653 1.84374C4.38756 1.59486 4.6128 1.42614 4.89227 1.33761C5.26933 1.21814 5.78347 1.20428 6.2 1.23094C6.35716 1.2409 6.51876 1.23592 6.6848 1.21601C6.90773 1.1897 7.13511 1.1785 7.36693 1.18241C7.38898 1.18277 7.40836 1.17566 7.42507 1.16108C7.83413 0.800544 8.28213 0.525344 8.544 0.0336108C8.54715 0.0277194 8.55147 0.0225405 8.55671 0.0183982C8.56195 0.0142559 8.56799 0.0112393 8.57445 0.00953727C8.5809 0.00783519 8.58764 0.00748424 8.59424 0.00850636C8.60084 0.00952849 8.60716 0.0119017 8.6128 0.0154775L9.5952 0.632544C9.59832 0.63455 9.601 0.637173 9.60306 0.640245C9.60512 0.643317 9.60653 0.64677 9.60718 0.650384C9.60783 0.653998 9.60772 0.657694 9.60685 0.661234C9.60598 0.664774 9.60437 0.668081 9.60213 0.670944C9.40089 0.9305 9.18187 1.1753 8.94507 1.40534C8.94133 1.40903 8.93857 1.41359 8.93704 1.41862C8.93552 1.42364 8.93528 1.42897 8.93634 1.43411C8.9374 1.43925 8.93973 1.44405 8.94311 1.44806C8.9465 1.45207 8.95084 1.45517 8.95573 1.45708L9.08373 1.50561ZM8.62667 0.0864108C8.60213 0.071122 8.58276 0.0760997 8.56853 0.101344C8.4144 0.373878 8.2096 0.592011 7.95573 0.789878C7.80604 0.9065 7.65796 1.02917 7.51147 1.15788C7.48658 1.17992 7.49067 1.19148 7.52373 1.19254C7.94471 1.20819 8.37671 1.28161 8.81973 1.41281C8.84036 1.41886 8.85849 1.41459 8.87413 1.40001C9.08747 1.19521 9.29956 0.961966 9.5104 0.700278C9.51439 0.695419 9.5173 0.689767 9.51894 0.683695C9.52058 0.677624 9.5209 0.671273 9.51989 0.665067C9.51889 0.65886 9.51656 0.652939 9.51309 0.647699C9.50961 0.64246 9.50506 0.63802 9.49973 0.634677L8.62667 0.0864108ZM6.10027 1.28321C5.80907 1.26721 5.50453 1.28108 5.18667 1.32481C4.70187 1.39148 4.2368 1.68801 4.13813 2.19734C4.104 2.37334 4.14578 2.39361 4.26347 2.25814C4.45369 2.03841 4.68427 1.88428 4.9552 1.79574C5.04089 1.76766 5.12302 1.72926 5.2016 1.68054C5.47467 1.51059 5.77529 1.39112 6.10347 1.32214C6.20089 1.30188 6.19982 1.2889 6.10027 1.28321ZM6.9936 2.85654C7.73333 2.61921 8.40053 2.19681 9.00693 1.71521C9.04676 1.68392 9.04213 1.66188 8.99307 1.64908C7.792 1.34081 6.13013 1.56161 5.61973 2.88854C5.61767 2.89374 5.61678 2.89933 5.61714 2.90491C5.61749 2.91049 5.61908 2.91592 5.62178 2.92082C5.62448 2.92571 5.62823 2.92995 5.63277 2.93322C5.6373 2.93649 5.6425 2.93872 5.648 2.93974C6.09813 3.02721 6.54667 2.99948 6.9936 2.85654ZM4.42187 2.63948C4.41404 2.63557 4.40551 2.63343 4.39627 2.63308C4.392 2.63308 4.39164 2.63432 4.3952 2.63681C4.79804 2.92481 5.22151 3.15788 5.6656 3.33601C6.02507 3.48001 6.36462 3.53174 6.68427 3.49121C7.01031 3.44961 7.37084 3.37494 7.76587 3.26721C8.60889 3.03752 9.44427 2.77263 10.272 2.47254C10.2748 2.47159 10.2774 2.46988 10.2793 2.4676C10.2813 2.46532 10.2826 2.46255 10.2831 2.45959C10.2835 2.45663 10.2832 2.45359 10.2821 2.4508C10.281 2.44801 10.2792 2.44557 10.2768 2.44374L9.22613 1.63308C9.21958 1.62796 9.21141 1.62532 9.20303 1.62562C9.19466 1.62591 9.18661 1.62911 9.18027 1.63468C8.37387 2.32961 7.19893 3.06134 6.14507 3.04428C5.52356 3.03432 4.94916 2.89939 4.42187 2.63948ZM4.91307 1.91308C4.92267 1.90703 4.9296 1.89903 4.93387 1.88908C4.93535 1.88586 4.9358 1.88229 4.93517 1.87883C4.93454 1.87536 4.93285 1.87216 4.93032 1.86963C4.92779 1.8671 4.92455 1.86537 4.92099 1.86465C4.91744 1.86394 4.91375 1.86427 4.9104 1.86561C4.66258 1.96552 4.45973 2.10934 4.30187 2.29708C4.27556 2.32801 4.28196 2.34863 4.32107 2.35894L4.44587 2.39201C4.48889 2.40339 4.52284 2.39059 4.54773 2.35361C4.6512 2.20037 4.76284 2.0617 4.88267 1.93761C4.89227 1.92801 4.9024 1.91983 4.91307 1.91308ZM9.96747 2.10081L10.3723 2.45654C10.3759 2.45974 10.3786 2.46382 10.3802 2.46839C10.3817 2.47296 10.3821 2.47786 10.3812 2.4826C10.3802 2.48734 10.3781 2.49176 10.3749 2.49542C10.3718 2.49909 10.3678 2.50186 10.3632 2.50348C9.31467 2.86454 8.27147 3.21441 7.1856 3.46348C6.9136 3.5257 6.64996 3.55646 6.39467 3.55574C6.13173 3.55521 5.864 3.47521 5.6208 3.38294C5.61617 3.38123 5.61117 3.38079 5.60631 3.38166C5.60146 3.38253 5.59692 3.38468 5.59317 3.38788C5.58942 3.39109 5.58659 3.39524 5.58498 3.3999C5.58337 3.40456 5.58303 3.40957 5.584 3.41441C5.68587 3.87468 5.9696 4.31361 6.25387 4.68054C6.57031 5.08943 6.89991 5.46863 7.24267 5.81814C7.44569 6.02508 7.63947 6.24357 7.824 6.47361C8.01351 6.71041 8.20107 6.93885 8.38667 7.15894C8.40658 7.18241 8.43076 7.20001 8.4592 7.21174C8.8032 7.35468 9.1216 7.53601 9.4496 7.69601C9.93884 7.93566 10.3945 8.15059 10.8165 8.34081C11.3612 8.5865 11.9348 8.79183 12.5371 8.95681C12.5701 8.9657 12.5902 8.95343 12.5973 8.92001L12.6795 8.53441C12.6825 8.52044 12.6826 8.50599 12.6799 8.49196C12.6771 8.47793 12.6715 8.46461 12.6635 8.45281C12.6048 8.36677 12.5396 8.28321 12.4677 8.20214C12.0507 7.73245 11.5787 7.28623 11.0517 6.86348C11.0396 6.85388 11.0364 6.84179 11.0421 6.82721C11.0475 6.8137 11.0569 6.80943 11.0704 6.81441C11.7524 7.07041 12.3072 7.4537 12.7349 7.96428C12.7403 7.97072 12.7475 7.97543 12.7555 7.97783C12.7635 7.98023 12.7721 7.9802 12.7801 7.97775C12.7882 7.97531 12.7953 7.97055 12.8006 7.96407C12.806 7.95759 12.8093 7.94969 12.8101 7.94134C12.8315 7.73974 12.8494 7.54846 12.864 7.36748C12.8693 7.30099 12.85 7.24552 12.8059 7.20108C12.4244 6.81566 11.9708 6.40926 11.4453 5.98188C11.4423 5.97931 11.4398 5.97611 11.4381 5.9725C11.4363 5.96888 11.4354 5.96494 11.4354 5.96093C11.4353 5.95693 11.4361 5.95296 11.4378 5.94931C11.4394 5.94565 11.4418 5.94239 11.4448 5.93974C11.459 5.9273 11.4754 5.92392 11.4939 5.92961C12.0123 6.08961 12.4533 6.42988 12.8187 6.81548C12.8745 6.87486 12.9026 6.86383 12.9029 6.78241C12.9033 6.58046 12.8997 6.37299 12.8923 6.16001C12.8901 6.09779 12.866 6.04694 12.8197 6.00748C12.5172 5.75006 12.2187 5.51841 11.9243 5.31254C11.9061 5.29974 11.8976 5.28321 11.8987 5.26294C11.8989 5.26002 11.8997 5.25718 11.9011 5.25464C11.9026 5.2521 11.9046 5.24992 11.907 5.24828C11.9094 5.24663 11.9122 5.24556 11.9151 5.24514C11.918 5.24473 11.921 5.24498 11.9237 5.24588C12.2402 5.35148 12.5237 5.49192 12.7744 5.66721C12.7785 5.67018 12.7834 5.67192 12.7884 5.67224C12.7935 5.67255 12.7985 5.67142 12.803 5.66899C12.8075 5.66655 12.8112 5.6629 12.8138 5.65844C12.8164 5.65398 12.8177 5.64889 12.8176 5.64374C12.8165 5.59752 12.8084 5.55272 12.7931 5.50934C12.3504 4.25334 11.4677 3.17974 10.4235 2.36694C10.278 2.25352 10.122 2.15397 9.9552 2.06828C9.93422 2.05726 9.93351 2.0585 9.95307 2.07201C9.95698 2.07486 9.95929 2.0793 9.96 2.08534C9.96016 2.08837 9.96091 2.09131 9.96219 2.09397C9.96348 2.09663 9.96527 2.09896 9.96747 2.10081ZM1.77813 3.42668C1.60533 3.55148 1.45547 3.87788 1.39893 4.07788C1.38933 4.11094 1.39911 4.11806 1.42827 4.09921C1.7472 3.89014 2.05831 3.69406 2.3616 3.51094C2.94347 3.15948 3.656 2.80001 4.2752 2.44054C4.31289 2.4185 4.31004 2.40428 4.26667 2.39788C4.18382 2.38543 4.09956 2.38454 4.01387 2.39521C3.45387 2.46561 2.9904 2.59468 2.512 2.91628C2.24 3.09903 1.99538 3.26917 1.77813 3.42668ZM3.22827 2.47254C3.23467 2.47219 3.24089 2.47254 3.24693 2.47361C3.24693 2.47254 3.24676 2.4729 3.2464 2.47468C3.24604 2.47681 3.2448 2.47752 3.24267 2.47681C3.21067 2.46472 3.18133 2.46828 3.15467 2.48748C3.13938 2.4985 3.12267 2.50632 3.10453 2.51094C2.65156 2.62543 2.2688 2.8505 1.95627 3.18614C1.95129 3.19148 1.94933 3.1977 1.9504 3.20481C1.9536 3.22437 1.96338 3.22846 1.97973 3.21708C2.22329 3.04712 2.46596 2.88641 2.70773 2.73494C2.86276 2.63752 3.02204 2.56286 3.1856 2.51094C3.20231 2.5145 3.21049 2.50846 3.21013 2.49281C3.20978 2.48001 3.21582 2.47326 3.22827 2.47254ZM1.4064 4.17388C1.30987 4.23628 1.31253 4.41494 1.30773 4.51468C1.30753 4.51989 1.30847 4.52509 1.31049 4.5299C1.31251 4.53471 1.31556 4.53902 1.31942 4.54253C1.32328 4.54604 1.32787 4.54865 1.33285 4.5502C1.33783 4.55175 1.3431 4.55218 1.34827 4.55148C1.53422 4.52659 1.7184 4.51681 1.9008 4.52214C2.02169 4.52606 2.10098 4.58561 2.13867 4.70081C2.2496 5.03948 2.33973 5.44588 2.29973 5.81494C2.27627 6.03468 1.99947 5.96961 1.856 5.99254C1.83218 5.99646 1.82969 6.00588 1.84853 6.02081C2.09547 6.21868 2.38347 6.29228 2.68693 6.35414C2.7099 6.35902 2.73379 6.35717 2.75573 6.34881C3.17244 6.1945 3.616 6.01779 4.0864 5.81868C4.2624 5.74401 4.41547 5.63201 4.53387 5.48534C4.93173 4.99361 5.22773 4.47734 5.85547 4.25708C5.85955 4.25571 5.86325 4.25341 5.86629 4.25035C5.86934 4.2473 5.87164 4.24357 5.87303 4.23946C5.87442 4.23534 5.87485 4.23095 5.87431 4.22661C5.87376 4.22227 5.87224 4.2181 5.86987 4.21441C5.69138 3.94419 5.57316 3.66063 5.5152 3.36374C5.51129 3.34277 5.49956 3.32783 5.48 3.31894C5.01884 3.11272 4.59484 2.86134 4.208 2.56481C4.20344 2.56131 4.19792 2.55925 4.19214 2.55887C4.18636 2.55849 4.18056 2.55981 4.17547 2.56268C3.76444 2.79166 3.34951 3.01921 2.93067 3.24534C2.57191 3.43877 2.06382 3.74828 1.4064 4.17388ZM5.072 6.46188C5.91573 6.57868 6.7232 6.70401 7.51413 6.96374C7.7696 7.04748 8.0016 7.09654 8.2512 7.14881C8.29991 7.15877 8.30791 7.1449 8.2752 7.10721C7.9392 6.71628 7.6272 6.29868 7.26667 5.92534C6.78507 5.42668 6.312 4.90294 5.93387 4.32108C5.9232 4.30508 5.9088 4.3001 5.89067 4.30614C5.30987 4.49921 5.00427 4.94881 4.64587 5.43414C4.49547 5.63752 4.30916 5.78561 4.08693 5.87841C3.68942 6.0441 3.28302 6.2073 2.86773 6.36801C2.8368 6.3801 2.83751 6.38952 2.86987 6.39628C3.39307 6.50508 3.87253 6.48801 4.3968 6.43628C4.58702 6.41743 4.81209 6.42597 5.072 6.46188ZM0.831467 6.24374C1.26951 6.01477 1.71467 5.90561 2.16693 5.91628C2.18027 5.91657 2.1933 5.91234 2.20387 5.90429C2.21444 5.89624 2.22192 5.88486 2.22507 5.87201C2.30987 5.52214 2.19893 5.07788 2.09227 4.73494C2.05742 4.62401 1.9776 4.56943 1.8528 4.57121C1.5296 4.57619 1.24267 4.61174 0.992 4.67788C0.7744 4.73548 0.611733 4.86401 0.467733 5.02988C0.154844 5.39006 0.0209778 5.80392 0.0661333 6.27148C0.0732444 6.3433 0.0928 6.40997 0.1248 6.47148C0.138662 6.49796 0.162322 6.51799 0.190784 6.52735C0.219246 6.5367 0.250281 6.53465 0.277333 6.52161C0.470756 6.42846 0.655467 6.33583 0.831467 6.24374ZM11.6421 6.02828C11.5874 6.01619 11.5806 6.02917 11.6219 6.06721L11.7344 6.17174C11.7414 6.17844 11.7506 6.18229 11.7603 6.18254C11.77 6.18279 11.7794 6.17942 11.7868 6.17309C11.7941 6.16676 11.7988 6.15792 11.8 6.1483C11.8011 6.13868 11.7987 6.12898 11.7931 6.12108C11.7618 6.07486 11.7115 6.04392 11.6421 6.02828ZM5.944 7.54294C6.05138 7.53299 6.05778 7.55397 5.9632 7.60588C5.72 7.73957 5.47787 7.87663 5.2368 8.01708C5.16427 8.05939 5.09013 8.11468 5.0144 8.18294C4.97422 8.21957 4.98098 8.23414 5.03467 8.22668C5.07947 8.22028 5.12853 8.21068 5.168 8.18828C5.5936 7.94668 6.03573 7.72534 6.51093 7.63041C6.86453 7.55948 7.2032 7.69334 7.5104 7.86188C7.53316 7.87432 7.54133 7.86792 7.53493 7.84268C7.52071 7.78437 7.4864 7.73886 7.432 7.70614C7.31182 7.63397 7.18418 7.55343 7.04907 7.46454C6.95911 7.40552 6.936 7.32588 6.97973 7.22561C7.02596 7.12037 7.0848 7.01814 7.15627 6.91894C7.15688 6.91813 7.15727 6.91718 7.15741 6.91617C7.15755 6.91516 7.15743 6.91412 7.15707 6.91313C7.15671 6.91214 7.1561 6.91123 7.15532 6.91048C7.15453 6.90973 7.15357 6.90916 7.15253 6.90881C6.99716 6.8633 6.84373 6.8265 6.69227 6.79841C6.68693 6.79734 6.68267 6.7993 6.67947 6.80428L6.4256 7.22294C6.42144 7.22998 6.41538 7.23572 6.40812 7.23949C6.40086 7.24326 6.39269 7.24492 6.38453 7.24428C5.68907 7.19521 4.94507 7.68534 4.5024 8.22988C4.49173 8.24268 4.4944 8.25121 4.5104 8.25548L4.53067 8.26028C4.54116 8.26289 4.55211 8.2629 4.56253 8.26029C4.57296 8.25769 4.58253 8.25255 4.5904 8.24534C4.77316 8.07539 4.95378 7.93299 5.13227 7.81814C5.37298 7.66277 5.64356 7.57103 5.944 7.54294ZM12.4859 8.07894C12.4254 7.94632 12.3687 7.80961 12.3157 7.66881C12.2894 7.59983 12.246 7.54241 12.1856 7.49654C11.9108 7.2889 11.6156 7.11112 11.3003 6.96321C11.2498 6.93939 11.2437 6.94774 11.2821 6.98828C11.3365 7.04534 11.4096 7.09281 11.4725 7.14668C11.8206 7.44463 12.1509 7.76925 12.4635 8.12054C12.4656 8.12322 12.4684 8.12537 12.4715 8.12685C12.4747 8.12832 12.4781 8.12909 12.4816 8.12908C12.5211 8.12943 12.5268 8.11823 12.4987 8.09548C12.493 8.09121 12.4887 8.0857 12.4859 8.07894ZM7.86773 8.24748C7.87328 8.2497 7.87805 8.2535 7.88145 8.25842C7.88485 8.26334 7.88672 8.26915 7.88684 8.27512C7.88695 8.2811 7.8853 8.28698 7.88209 8.29202C7.87888 8.29706 7.87426 8.30105 7.8688 8.30348C7.51289 8.46134 7.18436 8.63983 6.8832 8.83894C6.832 8.87272 6.83716 8.89157 6.89867 8.89548C6.9552 8.89921 7.0176 8.89281 7.06827 8.86561C7.60587 8.57974 8.30613 8.24268 8.89973 8.32054C9.09387 8.34614 9.27698 8.37868 9.44907 8.41814C9.45298 8.41921 9.45707 8.41903 9.46133 8.41761C9.46773 8.41548 9.47164 8.4105 9.47307 8.40268C9.47484 8.39023 9.47058 8.38046 9.46027 8.37334C9.29422 8.26063 9.10987 8.16428 8.9072 8.08428C8.89654 8.0802 8.88789 8.07212 8.88311 8.06175C8.87833 8.05139 8.87779 8.03957 8.8816 8.02881L9.04373 7.57388C9.0451 7.56989 9.04498 7.56555 9.04341 7.56171C9.04183 7.55787 9.03891 7.5548 9.0352 7.55308L8.59947 7.33814C8.58987 7.33352 8.58329 7.33619 8.57973 7.34614L8.3888 7.93761C8.38565 7.9474 8.37965 7.95602 8.37158 7.96239C8.36351 7.96875 8.35372 7.97257 8.34347 7.97334C7.62613 8.03414 6.91413 8.37974 6.32427 8.82721C6.29689 8.84783 6.30027 8.8601 6.3344 8.86401C6.37209 8.86828 6.41013 8.87041 6.44853 8.87041C6.47058 8.87006 6.49067 8.86366 6.5088 8.85121C6.63929 8.76054 6.77387 8.66934 6.91253 8.57761C7.17813 8.40161 7.472 8.2953 7.79413 8.25868C7.80764 8.25726 7.8208 8.25388 7.8336 8.24854C7.84533 8.24357 7.85671 8.24321 7.86773 8.24748ZM13.4805 11.1888C13.4923 11.1764 13.5035 11.1767 13.5141 11.1899L15.3765 13.4432C15.3792 13.4464 15.3826 13.4489 15.3865 13.4505C15.3904 13.4521 15.3946 13.4527 15.3987 13.4522C15.4029 13.4518 15.4069 13.4504 15.4103 13.4481C15.4138 13.4457 15.4167 13.4426 15.4187 13.4389L15.9195 12.5339C15.9259 12.5224 15.9283 12.5091 15.9264 12.4962C15.9244 12.4833 15.9182 12.4714 15.9088 12.4624C15.0153 11.5952 14.2167 10.7229 13.5131 9.84534C13.2155 9.47379 12.9646 9.08677 12.7605 8.68428C12.7335 8.6313 12.714 8.63379 12.7019 8.69174L12.6411 8.98348C12.6336 9.02081 12.6114 9.0345 12.5744 9.02454C12.158 8.91326 11.7287 8.77157 11.2864 8.59948C11.2834 8.59827 11.2802 8.59793 11.2771 8.59852C11.2739 8.59911 11.271 8.6006 11.2687 8.60279C11.2664 8.60499 11.2648 8.60781 11.264 8.61092C11.2633 8.61402 11.2635 8.61727 11.2645 8.62028C11.4676 9.22437 11.6901 9.78277 11.9323 10.2955C12.0617 10.5696 12.2274 10.8839 12.4293 11.2384C13.0868 12.3933 13.8025 13.5637 14.5765 14.7499C14.5801 14.7554 14.5849 14.76 14.5907 14.7631C14.5964 14.7663 14.6029 14.768 14.6095 14.7681C14.616 14.7681 14.6225 14.7665 14.6283 14.7635C14.6341 14.7604 14.639 14.7559 14.6427 14.7504L15.1803 13.9557C15.1883 13.9437 15.1927 13.9296 15.1929 13.9151C15.1931 13.9006 15.1891 13.8864 15.1813 13.8741L13.4672 11.2171C13.4633 11.2114 13.4638 11.2061 13.4688 11.2011L13.4805 11.1888Z" fill="#010002"/>
                <path d="M8.62672 0.0864091L9.49978 0.634676C9.50511 0.638019 9.50966 0.642458 9.51314 0.647698C9.51661 0.652938 9.51893 0.658858 9.51994 0.665065C9.52095 0.671272 9.52063 0.677622 9.51899 0.683693C9.51735 0.689765 9.51444 0.695418 9.51045 0.700276C9.29961 0.961965 9.08752 1.19521 8.87418 1.40001C8.85854 1.41459 8.8404 1.41885 8.81978 1.41281C8.37676 1.28161 7.94476 1.20819 7.52378 1.19254C7.49072 1.19148 7.48663 1.17992 7.51152 1.15788C7.658 1.02916 7.80609 0.906498 7.95578 0.789876C8.20965 0.592009 8.41445 0.373876 8.56858 0.101342C8.58281 0.076098 8.60218 0.0711202 8.62672 0.0864091ZM8.49765 1.17708L8.95898 0.630942C8.96831 0.619765 8.97282 0.605341 8.97152 0.590841C8.97022 0.576341 8.96322 0.562949 8.95205 0.553609L8.86938 0.483742C8.85317 0.47006 8.83452 0.460632 8.81751 0.457532C8.80051 0.454431 8.78656 0.457912 8.77872 0.467209L8.30565 1.02721C8.2979 1.03652 8.29685 1.05082 8.30275 1.06701C8.30864 1.0832 8.321 1.09995 8.33712 1.11361L8.42032 1.18348C8.43143 1.19287 8.44581 1.19747 8.46031 1.19627C8.4748 1.19507 8.48823 1.18816 8.49765 1.17708Z" fill="white"/>
                <path d="M8.49763 1.17707C8.48821 1.18816 8.47478 1.19506 8.46028 1.19626C8.44578 1.19746 8.4314 1.19286 8.42029 1.18347L8.33709 1.1136C8.32098 1.09994 8.30862 1.08319 8.30272 1.06701C8.29683 1.05082 8.29787 1.03651 8.30563 1.0272L8.77869 0.467204C8.78653 0.457907 8.80049 0.454426 8.81749 0.457527C8.83449 0.460627 8.85315 0.470055 8.86936 0.483737L8.95203 0.553604C8.96319 0.562944 8.9702 0.576336 8.9715 0.590836C8.9728 0.605336 8.96829 0.61976 8.95896 0.630937L8.49763 1.17707Z" fill="#FF0000"/>
                <path d="M9.08374 1.50558C9.08588 1.50523 9.08819 1.50469 9.09067 1.50398C9.08641 1.52354 9.09779 1.54114 9.12481 1.55678C9.13157 1.56068 9.13679 1.56677 9.13961 1.57405C9.14242 1.58133 9.14266 1.58935 9.14028 1.59678C9.13565 1.61207 9.12552 1.62167 9.10987 1.62558C9.09992 1.62843 9.08979 1.62843 9.07948 1.62558C8.40605 1.42718 7.74401 1.41438 7.09334 1.58718C6.39361 1.77331 5.79841 2.20638 5.56054 2.89332C5.55717 2.90298 5.5506 2.91118 5.54195 2.91653C5.5333 2.92188 5.52309 2.92404 5.51308 2.92265C5.09459 2.86683 4.70081 2.73634 4.33174 2.53118C4.3273 2.52872 4.32352 2.52524 4.32068 2.52102C4.31785 2.51679 4.31605 2.51195 4.31543 2.50687C4.31481 2.50179 4.31538 2.49662 4.3171 2.49176C4.31882 2.48691 4.32164 2.48251 4.32534 2.47892C4.3577 2.44763 4.39716 2.43589 4.44374 2.44372C4.47104 2.44851 4.49914 2.44549 4.52481 2.43502C4.55047 2.42455 4.57265 2.40704 4.58881 2.38452C4.88001 1.98078 5.15148 1.70185 5.64801 1.51625C6.72161 1.11411 7.93548 1.17065 9.01281 1.52531C9.02881 1.53029 9.05245 1.52371 9.08374 1.50558Z" fill="#0000FE"/>
                <path d="M6.10023 1.28316C6.19979 1.28885 6.20085 1.30183 6.10343 1.3221C5.77525 1.39107 5.47463 1.51054 5.20156 1.6805C5.12299 1.72921 5.04085 1.76761 4.95516 1.7957C4.68423 1.88423 4.45365 2.03836 4.26343 2.2581C4.14574 2.39356 4.10396 2.3733 4.1381 2.1973C4.23676 1.68796 4.70183 1.39143 5.18663 1.32476C5.5045 1.28103 5.80903 1.26716 6.10023 1.28316Z" fill="white"/>
                <path d="M6.9936 2.85652C6.54667 2.99945 6.09814 3.02718 5.648 2.93972C5.64251 2.93869 5.6373 2.93647 5.63277 2.93319C5.62824 2.92992 5.62448 2.92569 5.62178 2.92079C5.61908 2.9159 5.61749 2.91046 5.61714 2.90488C5.61679 2.8993 5.61767 2.89371 5.61974 2.88852C6.13014 1.56158 7.792 1.34078 8.99307 1.64905C9.04214 1.66185 9.04676 1.68389 9.00694 1.71518C8.40054 2.19678 7.73334 2.61918 6.9936 2.85652Z" fill="#000080"/>
                <path d="M4.42191 2.63949C4.9492 2.8994 5.5236 3.03434 6.14511 3.04429C7.19898 3.06136 8.37391 2.32963 9.18031 1.63469C9.18666 1.62913 9.19471 1.62592 9.20308 1.62563C9.21145 1.62534 9.21962 1.62798 9.22618 1.63309L10.2768 2.44376C10.2792 2.44558 10.2811 2.44802 10.2822 2.45081C10.2833 2.4536 10.2836 2.45664 10.2831 2.4596C10.2826 2.46256 10.2813 2.46533 10.2794 2.46761C10.2774 2.4699 10.2749 2.47161 10.272 2.47256C9.44431 2.77265 8.60894 3.03754 7.76591 3.26723C7.37089 3.37496 7.01036 3.44963 6.68431 3.49123C6.36467 3.53176 6.02511 3.48003 5.66565 3.33603C5.22156 3.15789 4.79809 2.92483 4.39525 2.63683C4.39169 2.63434 4.39205 2.63309 4.39631 2.63309C4.40556 2.63345 4.41409 2.63558 4.42191 2.63949ZM9.01338 2.30616C9.01577 2.30787 9.01771 2.31014 9.01903 2.31276C9.02035 2.31539 9.02101 2.31829 9.02096 2.32123C9.02091 2.32417 9.02014 2.32705 9.01873 2.32963C9.01732 2.33221 9.0153 2.3344 9.01285 2.33603L8.77658 2.48856C8.77405 2.49021 8.77197 2.49246 8.77053 2.49511C8.76909 2.49777 8.76833 2.50074 8.76833 2.50376C8.76833 2.50678 8.76909 2.50975 8.77053 2.51241C8.77197 2.51506 8.77405 2.51731 8.77658 2.51896L8.94085 2.62243C8.94378 2.62414 8.94713 2.62501 8.95052 2.62491C8.95392 2.62482 8.95722 2.62377 8.96005 2.62189L9.21125 2.46243C9.21429 2.46049 9.21785 2.4595 9.22146 2.4596C9.22507 2.45969 9.22857 2.46086 9.23151 2.46296L9.47098 2.63416C9.47371 2.6362 9.47695 2.63744 9.48035 2.63772C9.48375 2.638 9.48715 2.63732 9.49018 2.63576L9.65978 2.54136C9.6624 2.53985 9.66461 2.53771 9.66619 2.53513C9.66777 2.53255 9.66869 2.52962 9.66885 2.5266C9.669 2.52357 9.66841 2.52056 9.6671 2.51783C9.6658 2.5151 9.66383 2.51274 9.66138 2.51096L9.43205 2.34829C9.42957 2.34656 9.42757 2.34423 9.42622 2.34153C9.42487 2.33882 9.42422 2.33582 9.42433 2.3328C9.42443 2.32978 9.42529 2.32684 9.42683 2.32423C9.42836 2.32163 9.43052 2.31945 9.43311 2.31789L9.67631 2.16909C9.67899 2.16752 9.68122 2.16528 9.68278 2.1626C9.68435 2.15992 9.6852 2.15688 9.68525 2.15378C9.6853 2.15067 9.68456 2.14761 9.68309 2.14487C9.68162 2.14214 9.67947 2.13983 9.67685 2.13816L9.51365 2.02829C9.51065 2.02628 9.50712 2.0252 9.50351 2.0252C9.4999 2.0252 9.49637 2.02628 9.49338 2.02829L9.23845 2.19256C9.23545 2.19458 9.23192 2.19566 9.22831 2.19566C9.2247 2.19566 9.22117 2.19458 9.21818 2.19256L8.97018 2.01496C8.96729 2.01297 8.96389 2.01187 8.96039 2.01177C8.95689 2.01168 8.95344 2.0126 8.95045 2.01443L8.78511 2.11469C8.78252 2.11625 8.78036 2.11843 8.77883 2.12103C8.77729 2.12364 8.77643 2.12658 8.77633 2.1296C8.77622 2.13262 8.77687 2.13562 8.77822 2.13833C8.77957 2.14103 8.78157 2.14336 8.78405 2.14509L9.01338 2.30616Z" fill="white"/>
                <path d="M9.51151 1.672C9.51685 1.67804 9.52307 1.6816 9.53018 1.68266C9.52698 1.68729 9.52627 1.69333 9.52805 1.7008C9.52947 1.70542 9.53285 1.70986 9.53818 1.71413C9.6036 1.76497 9.6724 1.81191 9.74458 1.85493C9.7524 1.85955 9.75418 1.8656 9.74991 1.87306L9.74298 1.88533C9.74156 1.88782 9.73978 1.88835 9.73765 1.88693C9.64645 1.84373 9.48591 1.79626 9.42885 1.7168C9.41498 1.69724 9.42014 1.68746 9.44431 1.68746C9.47276 1.68746 9.49516 1.68231 9.51151 1.672Z" fill="#000080"/>
                <path d="M9.01336 2.30611L8.78402 2.14505C8.78155 2.14331 8.77954 2.14099 8.77819 2.13828C8.77685 2.13558 8.7762 2.13258 8.7763 2.12956C8.77641 2.12654 8.77727 2.12359 8.7788 2.12099C8.78034 2.11838 8.7825 2.1162 8.78509 2.11465L8.95042 2.01438C8.95341 2.01255 8.95687 2.01163 8.96037 2.01173C8.96387 2.01182 8.96727 2.01293 8.97016 2.01491L9.21816 2.19251C9.22115 2.19453 9.22468 2.19561 9.22829 2.19561C9.2319 2.19561 9.23543 2.19453 9.23842 2.19251L9.49336 2.02825C9.49635 2.02623 9.49988 2.02515 9.50349 2.02515C9.5071 2.02515 9.51063 2.02623 9.51362 2.02825L9.67682 2.13811C9.67944 2.13978 9.68159 2.14209 9.68306 2.14482C9.68453 2.14756 9.68528 2.15062 9.68523 2.15373C9.68517 2.15683 9.68432 2.15987 9.68276 2.16255C9.68119 2.16524 9.67896 2.16747 9.67629 2.16905L9.43309 2.31785C9.4305 2.3194 9.42834 2.32158 9.4268 2.32419C9.42527 2.32679 9.42441 2.32974 9.4243 2.33276C9.42419 2.33578 9.42485 2.33878 9.42619 2.34148C9.42754 2.34419 9.42955 2.34651 9.43202 2.34825L9.66136 2.51091C9.66381 2.51269 9.66577 2.51505 9.66708 2.51778C9.66838 2.52051 9.66898 2.52353 9.66882 2.52655C9.66866 2.52957 9.66775 2.5325 9.66617 2.53508C9.66458 2.53766 9.66238 2.5398 9.65976 2.54131L9.49016 2.63571C9.48713 2.63728 9.48372 2.63796 9.48033 2.63767C9.47693 2.63739 9.47368 2.63616 9.47096 2.63411L9.23149 2.46291C9.22855 2.46082 9.22505 2.45964 9.22144 2.45955C9.21783 2.45945 9.21427 2.46044 9.21122 2.46238L8.96002 2.62185C8.95719 2.62372 8.95389 2.62477 8.9505 2.62486C8.9471 2.62496 8.94375 2.6241 8.94082 2.62238L8.77656 2.51891C8.77402 2.51727 8.77194 2.51501 8.7705 2.51236C8.76906 2.5097 8.76831 2.50673 8.76831 2.50371C8.76831 2.50069 8.76906 2.49772 8.7705 2.49507C8.77194 2.49241 8.77402 2.49016 8.77656 2.48851L9.01282 2.33598C9.01527 2.33436 9.01729 2.33216 9.01871 2.32958C9.02012 2.32701 9.02089 2.32413 9.02094 2.32119C9.02099 2.31825 9.02033 2.31534 9.01901 2.31271C9.01769 2.31009 9.01575 2.30782 9.01336 2.30611Z" fill="#008000"/>
                <path d="M10.3723 2.45649L9.9675 2.10075C9.96531 2.0989 9.96351 2.09657 9.96223 2.09391C9.96095 2.09125 9.9602 2.08831 9.96004 2.08529C9.95933 2.07924 9.95701 2.0748 9.9531 2.07195C9.93355 2.05844 9.93426 2.0572 9.95524 2.06822C10.122 2.15391 10.2781 2.25346 10.4235 2.36689C11.4678 3.17969 12.3504 4.25329 12.7931 5.50929C12.8084 5.55266 12.8166 5.59746 12.8176 5.64369C12.8177 5.64883 12.8164 5.65392 12.8138 5.65838C12.8113 5.66284 12.8075 5.66649 12.803 5.66893C12.7986 5.67137 12.7935 5.67249 12.7884 5.67218C12.7834 5.67186 12.7785 5.67012 12.7744 5.66715C12.5238 5.49186 12.2402 5.35142 11.9238 5.24582C11.921 5.24492 11.918 5.24467 11.9151 5.24508C11.9122 5.2455 11.9095 5.24657 11.9071 5.24822C11.9046 5.24986 11.9026 5.25204 11.9012 5.25458C11.8997 5.25713 11.8989 5.25997 11.8987 5.26289C11.8976 5.28315 11.9062 5.29969 11.9243 5.31249C12.2187 5.51835 12.5172 5.75 12.8198 6.00742C12.866 6.04689 12.8902 6.09773 12.8923 6.15995C12.8998 6.37293 12.9033 6.5804 12.903 6.78235C12.9026 6.86377 12.8745 6.8748 12.8187 6.81542C12.4534 6.42982 12.0123 6.08955 11.4939 5.92955C11.4754 5.92386 11.4591 5.92724 11.4448 5.93969C11.4418 5.94233 11.4394 5.94559 11.4378 5.94925C11.4362 5.95291 11.4354 5.95687 11.4354 5.96088C11.4355 5.96488 11.4364 5.96882 11.4381 5.97244C11.4398 5.97605 11.4423 5.97925 11.4454 5.98182C11.9709 6.4092 12.4244 6.8156 12.8059 7.20102C12.85 7.24546 12.8694 7.30093 12.864 7.36742C12.8495 7.5484 12.8315 7.73969 12.8102 7.94129C12.8093 7.94963 12.806 7.95754 12.8007 7.96401C12.7953 7.97049 12.7882 7.97525 12.7802 7.9777C12.7722 7.98014 12.7636 7.98017 12.7555 7.97777C12.7475 7.97538 12.7403 7.97066 12.735 7.96422C12.3072 7.45364 11.7524 7.07035 11.0704 6.81435C11.0569 6.80937 11.0475 6.81364 11.0422 6.82715C11.0365 6.84173 11.0397 6.85382 11.0518 6.86342C11.5787 7.28617 12.0507 7.7324 12.4678 8.20209C12.5396 8.28315 12.6048 8.36671 12.6635 8.45275C12.6716 8.46455 12.6772 8.47787 12.6799 8.4919C12.6827 8.50593 12.6825 8.52038 12.6795 8.53435L12.5974 8.91995C12.5903 8.95338 12.5702 8.96564 12.5371 8.95675C11.9348 8.79178 11.3613 8.58644 10.8166 8.34075C10.3945 8.15053 9.93888 7.9356 9.44964 7.69595C9.12164 7.53595 8.80324 7.35462 8.45924 7.21169C8.43079 7.19995 8.40661 7.18235 8.3867 7.15889C8.2011 6.9388 8.01355 6.71035 7.82404 6.47355C7.6395 6.24351 7.44573 6.02502 7.2427 5.81809C6.89995 5.46857 6.57035 5.08937 6.2539 4.68049C5.96964 4.31355 5.6859 3.87462 5.58404 3.41435C5.58307 3.40951 5.58341 3.40451 5.58502 3.39984C5.58663 3.39518 5.58946 3.39103 5.59321 3.38782C5.59696 3.38462 5.60149 3.38247 5.60635 3.3816C5.61121 3.38073 5.61621 3.38118 5.62084 3.38289C5.86404 3.47515 6.13177 3.55515 6.3947 3.55569C6.64999 3.5564 6.91364 3.52564 7.18564 3.46342C8.2715 3.21435 9.3147 2.86449 10.3632 2.50342C10.3678 2.5018 10.3718 2.49903 10.375 2.49537C10.3781 2.49171 10.3803 2.48729 10.3812 2.48254C10.3821 2.4778 10.3818 2.47291 10.3802 2.46833C10.3786 2.46376 10.3759 2.45968 10.3723 2.45649Z" fill="#000080"/>
                <path d="M1.39895 4.07787C1.45549 3.87787 1.60535 3.55147 1.77815 3.42667C1.9954 3.26916 2.24002 3.09902 2.51202 2.91627C2.99042 2.59467 3.45389 2.4656 4.01389 2.3952C4.09958 2.38454 4.18384 2.38542 4.26669 2.39787C4.31006 2.40427 4.31291 2.41849 4.27522 2.44054C3.65602 2.8 2.94349 3.15947 2.36162 3.51094C2.05833 3.69405 1.74722 3.89014 1.42829 4.0992C1.39913 4.11805 1.38935 4.11094 1.39895 4.07787Z" fill="white"/>
                <path d="M3.21009 2.49285C3.21044 2.5085 3.20227 2.51454 3.18556 2.51099C3.022 2.5629 2.86271 2.63757 2.70769 2.73499C2.46591 2.88645 2.22324 3.04717 1.97969 3.21712C1.96333 3.2285 1.95356 3.22441 1.95036 3.20485C1.94929 3.19774 1.95124 3.19152 1.95622 3.18619C2.26876 2.85054 2.65151 2.62548 3.10449 2.51099C3.12262 2.50637 3.13933 2.49854 3.15462 2.48752C3.18129 2.46832 3.21062 2.46477 3.24262 2.47685C3.24476 2.47757 3.246 2.47685 3.24636 2.47472C3.24671 2.47294 3.24689 2.47259 3.24689 2.47365C3.24084 2.47259 3.23462 2.47223 3.22822 2.47259C3.21578 2.4733 3.20973 2.48005 3.21009 2.49285Z" fill="#0000FE"/>
                <path d="M1.30777 4.51471C1.31257 4.41498 1.3099 4.23631 1.40643 4.17391C2.06386 3.74831 2.57194 3.4388 2.9307 3.24538C3.34954 3.01925 3.76448 2.79169 4.1755 2.56271C4.18059 2.55985 4.18639 2.55852 4.19217 2.5589C4.19796 2.55928 4.20347 2.56135 4.20803 2.56485C4.59488 2.86138 5.01888 3.11276 5.48003 3.31898C5.49959 3.32787 5.51132 3.3428 5.51523 3.36378C5.57319 3.66067 5.69141 3.94422 5.8699 4.21445C5.87227 4.21813 5.87379 4.2223 5.87434 4.22664C5.87489 4.23098 5.87445 4.23538 5.87306 4.23949C5.87167 4.24361 5.86937 4.24733 5.86633 4.25039C5.86328 4.25344 5.85958 4.25574 5.8555 4.25711C5.22777 4.47738 4.93177 4.99365 4.5339 5.48538C4.4155 5.63205 4.26243 5.74405 4.08643 5.81871C3.61603 6.01782 3.17248 6.19453 2.75577 6.34885C2.73382 6.3572 2.70994 6.35905 2.68697 6.35418C2.3835 6.29231 2.0955 6.21871 1.84857 6.02085C1.82972 6.00591 1.83221 5.99649 1.85603 5.99258C1.9995 5.96965 2.2763 6.03471 2.29977 5.81498C2.33977 5.44591 2.24963 5.03951 2.1387 4.70085C2.10101 4.58565 2.02172 4.52609 1.90083 4.52218C1.71843 4.51685 1.53426 4.52662 1.3483 4.55151C1.34313 4.55222 1.33787 4.55178 1.33288 4.55023C1.3279 4.54869 1.32332 4.54607 1.31945 4.54256C1.31559 4.53905 1.31254 4.53474 1.31052 4.52993C1.3085 4.52512 1.30756 4.51993 1.30777 4.51471ZM2.9883 4.95098C3.3691 4.99151 3.92963 4.77978 4.2347 4.53925C4.46083 4.36147 4.69159 4.14351 4.92697 3.88538C4.929 3.88315 4.93056 3.88053 4.93153 3.87768C4.93251 3.87483 4.93288 3.8718 4.93263 3.8688C4.93238 3.86579 4.93151 3.86287 4.93008 3.86022C4.92864 3.85756 4.92668 3.85524 4.9243 3.85338C4.38883 3.43791 3.66297 3.15471 3.01923 3.43151C2.61817 3.60378 2.26723 4.02618 2.25443 4.48965C2.25159 4.60236 2.31363 4.69125 2.44057 4.75631C2.66528 4.87151 2.84786 4.9364 2.9883 4.95098Z" fill="#0000FE"/>
                <path d="M4.23463 4.53923C3.92957 4.77976 3.36903 4.9915 2.98823 4.95096C2.84779 4.93639 2.66521 4.8715 2.4405 4.7563C2.31357 4.69123 2.25152 4.60234 2.25437 4.48963C2.26717 4.02616 2.6181 3.60376 3.01917 3.4315C3.6629 3.1547 4.38877 3.4379 4.92423 3.85336C4.92661 3.85522 4.92858 3.85755 4.93001 3.8602C4.93144 3.86285 4.93231 3.86578 4.93256 3.86878C4.93281 3.87179 4.93244 3.87481 4.93146 3.87766C4.93049 3.88052 4.92894 3.88314 4.9269 3.88536C4.69152 4.1435 4.46077 4.36145 4.23463 4.53923ZM3.51197 3.3707C2.8949 3.40163 2.4005 3.8235 2.30663 4.44803C2.29205 4.5451 2.32494 4.61923 2.4053 4.67043C2.53081 4.75079 2.67837 4.81639 2.84797 4.86723C3.17917 4.96643 3.57223 4.83416 3.87517 4.6923C4.25437 4.51523 4.56797 4.1883 4.8517 3.88643C4.85338 3.88473 4.85467 3.88268 4.85549 3.88044C4.8563 3.87819 4.85662 3.87579 4.85642 3.8734C4.85621 3.87102 4.85549 3.86871 4.85431 3.86663C4.85313 3.86455 4.85151 3.86276 4.84957 3.86136C4.4821 3.59203 3.97223 3.34776 3.51197 3.3707Z" fill="#010002"/>
                <path d="M3.51204 3.37064C3.9723 3.3477 4.48217 3.59197 4.84964 3.8613C4.85158 3.8627 4.8532 3.86449 4.85438 3.86657C4.85556 3.86865 4.85628 3.87096 4.85649 3.87334C4.85669 3.87573 4.85637 3.87813 4.85556 3.88037C4.85474 3.88262 4.85345 3.88467 4.85177 3.88637C4.56804 4.18824 4.25444 4.51517 3.87524 4.69224C3.5723 4.8341 3.17924 4.96637 2.84804 4.86717C2.67844 4.81633 2.53088 4.75073 2.40537 4.67037C2.32501 4.61917 2.29212 4.54504 2.3067 4.44797C2.40057 3.82344 2.89497 3.40157 3.51204 3.37064ZM3.92697 4.53224C4.10777 4.3493 4.15684 4.06184 4.05284 3.82664C3.95577 3.60761 3.77764 3.47553 3.51844 3.43037C3.50564 3.42821 3.49253 3.42896 3.48006 3.43256C3.4676 3.43616 3.45611 3.44252 3.44644 3.45117C3.24697 3.63393 3.04519 3.81793 2.8411 4.00317C2.78937 4.0501 2.7947 4.10984 2.80484 4.17224C2.89764 4.7221 3.5419 4.92104 3.92697 4.53224Z" fill="#FF0000"/>
                <path d="M3.92699 4.53227C3.54192 4.92107 2.89766 4.72214 2.80486 4.17227C2.79472 4.10987 2.78939 4.05014 2.84112 4.00321C3.04521 3.81796 3.24699 3.63396 3.44646 3.45121C3.45613 3.44256 3.46762 3.43619 3.48008 3.43259C3.49255 3.42899 3.50566 3.42825 3.51846 3.43041C3.77766 3.47556 3.95579 3.60765 4.05286 3.82667C4.15686 4.06187 4.10779 4.34934 3.92699 4.53227ZM2.92379 4.23041C2.95899 3.76747 3.63419 3.83361 3.60699 4.25387C3.59312 4.4697 3.46832 4.58223 3.23259 4.59147C3.20486 4.59254 3.20415 4.59787 3.23046 4.60747C4.01019 4.90027 4.39152 3.73174 3.54726 3.51521C3.51881 3.5081 3.49392 3.5145 3.47259 3.53441C3.29197 3.70116 3.10566 3.87058 2.91366 4.04267C2.86032 4.09014 2.88219 4.17654 2.90619 4.23307C2.91579 4.25618 2.92166 4.2553 2.92379 4.23041Z" fill="#010002"/>
                <path d="M2.92373 4.23046C2.92159 4.25535 2.91573 4.25624 2.90613 4.23312C2.88213 4.17659 2.86026 4.09019 2.91359 4.04272C3.10559 3.87064 3.2919 3.70121 3.47253 3.53446C3.49386 3.51455 3.51875 3.50815 3.54719 3.51526C4.39146 3.73179 4.01013 4.90032 3.23039 4.60752C3.20408 4.59792 3.20479 4.59259 3.23253 4.59152C3.46826 4.58228 3.59306 4.46975 3.60693 4.25392C3.63413 3.83366 2.95893 3.76752 2.92373 4.23046Z" fill="#FFFF00"/>
                <path d="M7.51417 6.96368C6.72324 6.70394 5.91577 6.57861 5.07204 6.46181C4.81213 6.4259 4.58706 6.41736 4.39684 6.43621C3.87257 6.48794 3.3931 6.50501 2.8699 6.39621C2.83755 6.38945 2.83684 6.38003 2.86777 6.36794C3.28306 6.20723 3.68946 6.04403 4.08697 5.87834C4.30919 5.78554 4.4955 5.63745 4.6459 5.43408C5.0043 4.94874 5.3099 4.49914 5.8907 4.30607C5.90884 4.30003 5.92324 4.30501 5.9339 4.32101C6.31204 4.90287 6.7851 5.42661 7.2667 5.92528C7.62724 6.29861 7.93924 6.71621 8.27524 7.10714C8.30795 7.14483 8.29995 7.1587 8.25124 7.14874C8.00164 7.09647 7.76964 7.04741 7.51417 6.96368Z" fill="#FF6600"/>
                <path d="M0.831493 6.24374C0.655493 6.33583 0.470782 6.42845 0.27736 6.52161C0.250307 6.53464 0.219272 6.5367 0.19081 6.52735C0.162348 6.51799 0.138688 6.49796 0.124826 6.47148C0.0928262 6.40996 0.0732706 6.3433 0.0661595 6.27148C0.021004 5.80392 0.154871 5.39005 0.46776 5.02988C0.61176 4.86401 0.774426 4.73548 0.992026 4.67788C1.24269 4.61174 1.52963 4.57619 1.85283 4.57121C1.97763 4.56943 2.05745 4.62401 2.09229 4.73494C2.19896 5.07788 2.30989 5.52214 2.22509 5.87201C2.22194 5.88485 2.21447 5.89624 2.2039 5.90429C2.19333 5.91233 2.1803 5.91656 2.16696 5.91628C1.71469 5.90561 1.26954 6.01476 0.831493 6.24374Z" fill="#FFFF00"/>
                <path d="M11.6422 6.0283C11.7115 6.04394 11.7618 6.07488 11.7931 6.1211C11.7987 6.129 11.8012 6.1387 11.8 6.14832C11.7989 6.15794 11.7942 6.16678 11.7868 6.17311C11.7795 6.17944 11.7701 6.18281 11.7604 6.18256C11.7507 6.18231 11.7414 6.17846 11.7345 6.17177L11.6219 6.06723C11.5807 6.02919 11.5874 6.01621 11.6422 6.0283Z" fill="#000080"/>
                <path d="M5.94397 7.54291C5.64353 7.571 5.37295 7.66273 5.13224 7.81811C4.95375 7.93296 4.77313 8.07536 4.59037 8.24531C4.5825 8.25252 4.57293 8.25765 4.56251 8.26026C4.55208 8.26286 4.54113 8.26286 4.53064 8.26024L4.51037 8.25544C4.49437 8.25118 4.4917 8.24264 4.50237 8.22984C4.94504 7.68531 5.68904 7.19518 6.38451 7.24424C6.39266 7.24489 6.40083 7.24323 6.40809 7.23945C6.41535 7.23568 6.42141 7.22995 6.42557 7.22291L6.67944 6.80424C6.68264 6.79927 6.68691 6.79731 6.69224 6.79838C6.84371 6.82647 6.99713 6.86327 7.15251 6.90878C7.15354 6.90913 7.1545 6.9097 7.15529 6.91045C7.15608 6.9112 7.15668 6.91211 7.15704 6.9131C7.15741 6.91409 7.15752 6.91513 7.15738 6.91614C7.15724 6.91715 7.15685 6.9181 7.15624 6.91891C7.08477 7.01811 7.02593 7.12033 6.9797 7.22558C6.93597 7.32584 6.95908 7.40549 7.04904 7.46451C7.18415 7.5534 7.31179 7.63393 7.43197 7.70611C7.48637 7.73882 7.52068 7.78433 7.53491 7.84264C7.54131 7.86789 7.53313 7.87429 7.51037 7.86184C7.20317 7.69331 6.86451 7.55944 6.51091 7.63038C6.03571 7.72531 5.59357 7.94664 5.16797 8.18824C5.12851 8.21064 5.07944 8.22024 5.03464 8.22664C4.98095 8.23411 4.97419 8.21953 5.01437 8.18291C5.0901 8.11464 5.16424 8.05936 5.23677 8.01705C5.47784 7.8766 5.71997 7.73953 5.96317 7.60584C6.05775 7.55393 6.05135 7.53296 5.94397 7.54291Z" fill="#FFFF00"/>
                <path d="M12.4986 8.09544C12.5267 8.1182 12.521 8.1294 12.4816 8.12905C12.4781 8.12905 12.4746 8.12829 12.4715 8.12681C12.4683 8.12534 12.4656 8.12318 12.4634 8.12051C12.1509 7.76922 11.8206 7.4446 11.4725 7.14665C11.4096 7.09278 11.3365 7.04531 11.2821 6.98825C11.2437 6.94771 11.2497 6.93936 11.3002 6.96318C11.6156 7.11109 11.9107 7.28887 12.1856 7.49651C12.246 7.54238 12.2894 7.5998 12.3157 7.66878C12.3687 7.80958 12.4254 7.94629 12.4858 8.07891C12.4887 8.08567 12.4929 8.09118 12.4986 8.09544Z" fill="#0000FE"/>
                <path d="M7.86778 8.24747C7.85675 8.2432 7.84538 8.24356 7.83364 8.24854C7.82084 8.25387 7.80769 8.25725 7.79418 8.25867C7.47204 8.29529 7.17818 8.4016 6.91258 8.5776C6.77391 8.66934 6.63933 8.76054 6.50884 8.8512C6.49071 8.86365 6.47062 8.87005 6.44858 8.8704C6.41018 8.8704 6.37213 8.86827 6.33444 8.864C6.30031 8.86009 6.29693 8.84782 6.32431 8.8272C6.91418 8.37974 7.62618 8.03414 8.34351 7.97334C8.35376 7.97256 8.36355 7.96874 8.37162 7.96238C8.3797 7.95602 8.38569 7.94739 8.38884 7.9376L8.57977 7.34614C8.58333 7.33618 8.58991 7.33351 8.59951 7.33814L9.03524 7.55307C9.03895 7.55479 9.04187 7.55787 9.04345 7.56171C9.04502 7.56555 9.04514 7.56988 9.04378 7.57387L8.88164 8.0288C8.87783 8.03956 8.87837 8.05138 8.88315 8.06175C8.88794 8.07211 8.89658 8.08019 8.90724 8.08427C9.10991 8.16427 9.29426 8.26062 9.46031 8.37334C9.47062 8.38045 9.47489 8.39022 9.47311 8.40267C9.47169 8.41049 9.46777 8.41547 9.46137 8.4176C9.45711 8.41902 9.45302 8.4192 9.44911 8.41814C9.27702 8.37867 9.09391 8.34614 8.89977 8.32054C8.30617 8.24267 7.60591 8.57974 7.06831 8.8656C7.01764 8.8928 6.95524 8.8992 6.89871 8.89547C6.8372 8.89156 6.83204 8.87271 6.88324 8.83894C7.1844 8.63982 7.51293 8.46134 7.86884 8.30347C7.8743 8.30104 7.87893 8.29705 7.88213 8.29201C7.88534 8.28697 7.88699 8.28109 7.88688 8.27512C7.88676 8.26914 7.88489 8.26333 7.88149 8.25841C7.8781 8.2535 7.87332 8.24969 7.86778 8.24747Z" fill="#FFFF00"/>
                <path d="M13.4805 11.1888L13.4688 11.2011C13.4638 11.2061 13.4632 11.2114 13.4672 11.2171L15.1813 13.8742C15.1891 13.8864 15.1931 13.9006 15.1929 13.9151C15.1927 13.9296 15.1883 13.9437 15.1802 13.9558L14.6426 14.7504C14.639 14.7559 14.6341 14.7604 14.6283 14.7635C14.6225 14.7666 14.616 14.7681 14.6094 14.7681C14.6028 14.768 14.5964 14.7663 14.5906 14.7632C14.5849 14.76 14.58 14.7554 14.5765 14.7499C13.8024 13.5638 13.0867 12.3933 12.4293 11.2384C12.2273 10.8839 12.0616 10.5696 11.9322 10.2955C11.6901 9.78279 11.4675 9.22439 11.2645 8.6203C11.2634 8.6173 11.2633 8.61404 11.264 8.61094C11.2648 8.60784 11.2664 8.60502 11.2687 8.60282C11.271 8.60062 11.2739 8.59914 11.277 8.59855C11.2802 8.59796 11.2834 8.59829 11.2864 8.5995C11.7287 8.77159 12.158 8.91328 12.5744 9.02457C12.6113 9.03453 12.6336 9.02084 12.641 8.9835L12.7018 8.69177C12.7139 8.63382 12.7335 8.63133 12.7605 8.6843C12.9646 9.08679 13.2154 9.47382 13.513 9.84537C14.2167 10.7229 15.0152 11.5952 15.9088 12.4624C15.9182 12.4714 15.9244 12.4833 15.9263 12.4962C15.9282 12.5092 15.9258 12.5224 15.9194 12.5339L15.4186 13.439C15.4166 13.4426 15.4138 13.4458 15.4103 13.4481C15.4068 13.4504 15.4028 13.4518 15.3987 13.4523C15.3945 13.4527 15.3903 13.4521 15.3865 13.4505C15.3826 13.4489 15.3792 13.4464 15.3765 13.4432L13.5141 11.1899C13.5034 11.1767 13.4922 11.1764 13.4805 11.1888Z" fill="#0000FE"/>
            </g>
            <defs>
                <clipPath id="clip0_7_5">
                    <rect width="16" height="14.88" fill="white"/>
                </clipPath>
            </defs>
        </svg>
    </symbol>
    <symbol id="devto">
        <svg width="16" height="16" viewBox="0 0 16 16" xmlns="http://www.w3.org/2000/svg">
            <path
                d="M4.29 6.29607C4.15143 6.1925 4.0125 6.14071 3.87393 6.14071H3.25107V9.87179H3.87429C4.01286 9.87179 4.15179 9.82 4.29036 9.71643C4.42893 9.61286 4.49821 9.4575 4.49821 9.25V6.7625C4.49786 6.55536 4.42821 6.39964 4.29 6.29607ZM14.4321 0H1.56786C0.703571 0 0.00214286 0.699643 0 1.56429V14.4357C0.00214286 15.3004 0.703571 16 1.56786 16H14.4321C15.2968 16 15.9979 15.3004 16 14.4357V1.56429C15.9979 0.699643 15.2964 0 14.4321 0ZM5.50714 9.25679C5.50714 9.92857 5.0925 10.9464 3.78 10.9443H2.12286V5.035H3.815C5.08071 5.035 5.50643 6.05143 5.50679 6.72357L5.50714 9.25679ZM9.10286 6.09036H7.2V7.4625H8.36321V8.51857H7.2V9.89036H9.10321V10.9464H6.8825C6.48393 10.9568 6.1525 10.6418 6.1425 10.2432V5.775C6.13286 5.37679 6.44821 5.04607 6.84643 5.03607H9.10321L9.10286 6.09036ZM12.8043 10.2079C12.3329 11.3061 11.4882 11.0875 11.11 10.2079L9.73393 5.03643H10.8971L11.9582 9.09786L13.0143 5.03643H14.1779L12.8043 10.2079Z" />
        </svg>
    </symbol>
    <symbol id="lfx">
        <svg width="16" height="16" viewBox="0 0 32 32" xmlns="http://www.w3.org/2000/svg">
            <path d="M6.41 25.602V12.806H.003V32h19.2v-6.398z" fill="#009bde" />
            <path d="M6.4 6.425h19.2v19.177h-3.194V32h9.59V0H.008v9.597H6.4z" fill="#003764" />
        </svg>
    </symbol>
    <symbol id="cvent">
        <svg width="16" height="16" viewBox="0 0 414 414" fill="none" xmlns="http://www.w3.org/2000/svg">
            <g filter="url(#filter0_di_274_1403)">
            <rect x="4" width="406" height="406" rx="32" fill="#9CA3AF" shape-rendering="crispEdges"/>
            <path d="M334.389 248.782C334.389 266.806 334.639 277.772 334.389 296.344C185.79 328.386 79.5 289.335 79.5 205.726C79.5 100.088 216.811 79.5613 327.384 113.606V161.669C245.83 130.628 138.636 138.138 138.636 205.726C138.636 255.791 233.322 279.322 334.389 248.782Z" fill="#FBFEFF"/>
            </g>
            <defs>
            <filter id="filter0_di_274_1403" x="0" y="-1" width="414" height="415" filterUnits="userSpaceOnUse" color-interpolation-filters="sRGB">
            <feFlood flood-opacity="0" result="BackgroundImageFix"/>
            <feColorMatrix in="SourceAlpha" type="matrix" values="0 0 0 0 0 0 0 0 0 0 0 0 0 0 0 0 0 0 127 0" result="hardAlpha"/>
            <feOffset dy="4"/>
            <feGaussianBlur stdDeviation="2"/>
            <feComposite in2="hardAlpha" operator="out"/>
            <feColorMatrix type="matrix" values="0 0 0 0 0 0 0 0 0 0 0 0 0 0 0 0 0 0 0.25 0"/>
            <feBlend mode="normal" in2="BackgroundImageFix" result="effect1_dropShadow_274_1403"/>
            <feBlend mode="normal" in="SourceGraphic" in2="effect1_dropShadow_274_1403" result="shape"/>
            <feColorMatrix in="SourceAlpha" type="matrix" values="0 0 0 0 0 0 0 0 0 0 0 0 0 0 0 0 0 0 127 0" result="hardAlpha"/>
            <feOffset dx="-1" dy="-1"/>
            <feGaussianBlur stdDeviation="2"/>
            <feComposite in2="hardAlpha" operator="arithmetic" k2="-1" k3="1"/>
            <feColorMatrix type="matrix" values="0 0 0 0 0 0 0 0 0 0 0 0 0 0 0 0 0 0 0.5 0"/>
            <feBlend mode="normal" in2="shape" result="effect2_innerShadow_274_1403"/>
            </filter>
            <linearGradient id="paint0_linear_274_1403" x1="512" y1="-160" x2="15.5" y2="398" gradientUnits="userSpaceOnUse">
            <stop stop-color="#23D5C7"/>
            <stop offset="1" stop-color="#2C5AED"/>
            </linearGradient>
            </defs>
        </svg>
    </symbol>
    <symbol id="tnc">
        <svg width="16" height="16" viewBox="0 0 225 225" fill="none" xmlns="http://www.w3.org/2000/svg">
            <rect width="45" height="45" fill="#9DD0CB"/>
            <rect width="45" height="45" transform="translate(45)" fill="#9DD0CB"/>
            <rect width="45" height="45" transform="translate(90)" fill="#9DD0CB"/>
            <rect width="45" height="45" transform="translate(135)" fill="#9DD0CB"/>
            <rect width="45" height="45" transform="translate(180)" fill="white"/>
            <rect width="45" height="45" transform="translate(0 45)" fill="#9DD0CB"/>
            <rect width="45" height="45" transform="translate(45 45)" fill="white"/>
            <rect width="45" height="45" transform="translate(90 45)" fill="white"/>
            <rect width="45" height="45" transform="translate(135 45)" fill="white"/>
            <rect width="45" height="45" transform="translate(180 45)" fill="#A4BAC3"/>
            <rect width="45" height="45" transform="translate(0 90)" fill="white"/>
            <rect width="45" height="45" transform="translate(45 90)" fill="#E7D220"/>
            <rect width="45" height="45" transform="translate(90 90)" fill="white"/>
            <rect width="45" height="45" transform="translate(135 90)" fill="#E7D220"/>
            <rect width="45" height="45" transform="translate(180 90)" fill="white"/>
            <rect width="45" height="45" transform="translate(0 135)" fill="white"/>
            <rect width="45" height="45" transform="translate(45 135)" fill="#E7D220"/>
            <rect width="45" height="45" transform="translate(90 135)" fill="white"/>
            <rect width="45" height="45" transform="translate(135 135)" fill="#E7D220"/>
            <rect width="45" height="45" transform="translate(180 135)" fill="white"/>
            <rect width="45" height="45" transform="translate(0 180)" fill="white"/>
            <rect width="45" height="45" transform="translate(45 180)" fill="#E7D220"/>
            <rect width="45" height="45" transform="translate(90 180)" fill="white"/>
            <rect width="45" height="45" transform="translate(135 180)" fill="white"/>
            <rect width="45" height="45" transform="translate(180 180)" fill="white"/>
        </svg>
    </symbol>
    <symbol id="config">
        <svg width="16" height="16" viewBox="0 0 16 16" xmlns="http://www.w3.org/2000/svg">
            <path
                d="M3.36156 10.111C3.36156 11.036 2.60586 11.7917 1.68078 11.7917C0.755701 11.7917 0 11.036 0 10.111C0 9.18588 0.755701 8.43018 1.68078 8.43018H3.36156V10.111Z" />
            <path
                d="M4.20847 10.111C4.20847 9.18588 4.96417 8.43018 5.88926 8.43018C6.81434 8.43018 7.57004 9.18588 7.57004 10.111V14.3194C7.57004 15.2445 6.81434 16.0002 5.88926 16.0002C4.96417 16.0002 4.20847 15.2445 4.20847 14.3194V10.111Z" />
            <path
                d="M5.88926 3.36156C4.96417 3.36156 4.20847 2.60586 4.20847 1.68078C4.20847 0.755701 4.96417 0 5.88926 0C6.81434 0 7.57004 0.755701 7.57004 1.68078V3.36156H5.88926Z" />
            <path
                d="M5.88925 4.2085C6.81433 4.2085 7.57003 4.9642 7.57003 5.88928C7.57003 6.81436 6.81433 7.57006 5.88925 7.57006H1.68078C0.755701 7.57006 0 6.81436 0 5.88928C0 4.9642 0.755701 4.2085 1.68078 4.2085H5.88925Z" />
            <path
                d="M12.6383 5.88928C12.6383 4.9642 13.394 4.2085 14.3191 4.2085C15.2441 4.2085 15.9998 4.9642 15.9998 5.88928C15.9998 6.81436 15.2441 7.57006 14.3191 7.57006H12.6383V5.88928Z" />
            <path
                d="M11.7915 5.88925C11.7915 6.81433 11.0358 7.57003 10.1107 7.57003C9.18565 7.57003 8.42995 6.81433 8.42995 5.88925V1.68078C8.42995 0.755701 9.18565 0 10.1107 0C11.0358 0 11.7915 0.755701 11.7915 1.68078V5.88925Z" />
            <path
                d="M10.1106 12.6387C11.0357 12.6387 11.7914 13.3944 11.7914 14.3195C11.7914 15.2445 11.0357 16.0002 10.1106 16.0002C9.18552 16.0002 8.42982 15.2445 8.42982 14.3195V12.6387H10.1106Z" />
            <path
                d="M10.1107 11.7917C9.18565 11.7917 8.42995 11.036 8.42995 10.111C8.42995 9.18588 9.18565 8.43018 10.1107 8.43018H14.3192C15.2443 8.43018 16 9.18588 16 10.111C16 11.036 15.2443 11.7917 14.3192 11.7917H10.1107Z" />
        </svg>
    </symbol>
    <symbol id="stackoverflow">
        <svg width="16px" height="16px" viewBox="0 0 32 32">
            <path
                d="M8.696 23.002v2.662h13.321v-2.662h-13.321zM3.366 20.336v10.659h23.981v-10.659h-2.666v7.994h-18.652v-7.993h-2.663zM9.483 16.928l-0.55 2.616 13.087 2.75 0.55-2.614-13.087-2.753zM11.795 10.855l-1.131 2.424 12.124 5.645 1.13-2.424zM15.731 5.276l-1.711 2.054 10.278 8.56 1.711-2.054zM20.655 1.004l-2.149 1.596 7.985 10.732 2.144-1.596z" />
        </svg>
    </symbol>

    <symbol id="hackernews">
        <svg width="16" height="16" viewBox="0 0 16 16" fill="none"
            xmlns="http://www.w3.org/2000/svg">
            <path d="M16 0H0V16H16V0Z" fill="#D1D5DB" />
        </svg>
        <svg width="8" height="10" viewBox="0 0 8 10" fill="none" xmlns="http://www.w3.org/2000/svg">
            <path
                d="M3.46089 6.04662L0.7146 0.901978H1.96969L3.58516 4.15776C3.61001 4.21576 3.63901 4.27582 3.67215 4.33795C3.70528 4.40008 3.73428 4.46429 3.75913 4.53056C3.7757 4.55542 3.78813 4.5782 3.79641 4.59891C3.8047 4.61962 3.81298 4.63826 3.82127 4.65483C3.86269 4.73768 3.89997 4.81845 3.93311 4.89715C3.96624 4.97585 3.99524 5.04834 4.02009 5.11462C4.08637 4.97378 4.15886 4.82259 4.23756 4.66104C4.31626 4.4995 4.39703 4.33174 4.47988 4.15776L6.1202 0.901978H7.28831L4.51716 6.10875V9.42667H3.46089V6.04662Z"
                fill="white" />
        </svg>
    </symbol>
    <symbol id="reddit">
        <svg width="16" height="16" viewBox="0 0 16 16" xmlns="http://www.w3.org/2000/svg">
            <path
                d="M6.167 8a.831.831 0 0 0-.83.83c0 .459.372.84.83.831a.831.831 0 0 0 0-1.661zm1.843 3.647c.315 0 1.403-.038 1.976-.611a.232.232 0 0 0 0-.306.213.213 0 0 0-.306 0c-.353.363-1.126.487-1.67.487-.545 0-1.308-.124-1.671-.487a.213.213 0 0 0-.306 0 .213.213 0 0 0 0 .306c.564.563 1.652.61 1.977.61zm.992-2.807c0 .458.373.83.831.83.458 0 .83-.381.83-.83a.831.831 0 0 0-1.66 0z" />
            <path
                d="M16 8A8 8 0 1 1 0 8a8 8 0 0 1 16 0zm-3.828-1.165c-.315 0-.602.124-.812.325-.801-.573-1.9-.945-3.121-.993l.534-2.501 1.738.372a.83.83 0 1 0 .83-.869.83.83 0 0 0-.744.468l-1.938-.41a.203.203 0 0 0-.153.028.186.186 0 0 0-.086.134l-.592 2.788c-1.24.038-2.358.41-3.17.992-.21-.2-.496-.324-.81-.324a1.163 1.163 0 0 0-.478 2.224c-.02.115-.029.23-.029.353 0 1.795 2.091 3.256 4.669 3.256 2.577 0 4.668-1.451 4.668-3.256 0-.114-.01-.238-.029-.353.401-.181.688-.592.688-1.069 0-.65-.525-1.165-1.165-1.165z" />
        </svg>
    </symbol>
    <symbol id="linkedin" viewBox="0 0 16 16">
        <svg width="16" height="16" viewBox="2 2 12 12" fill="none"
            xmlns="http://www.w3.org/2000/svg">
            <path
                d="M12.2233 12.226H10.4467V9.44133C10.4467 8.77733 10.4333 7.92267 9.52 7.92267C8.594 7.92267 8.45267 8.64533 8.45267 9.39267V12.226H6.67533V6.5H8.382V7.28H8.40533C8.644 6.83067 9.224 6.35533 10.0907 6.35533C11.8907 6.35533 12.224 7.54067 12.224 9.08267V12.226H12.2233ZM4.66867 5.71667C4.53304 5.71684 4.39871 5.69025 4.27338 5.6384C4.14804 5.58656 4.03418 5.51049 3.9383 5.41456C3.84243 5.31862 3.76644 5.20471 3.71467 5.07934C3.66291 4.95398 3.6364 4.81963 3.63667 4.684C3.6368 4.47989 3.69745 4.2804 3.81096 4.11076C3.92447 3.94113 4.08573 3.80896 4.27435 3.73097C4.46298 3.65298 4.67049 3.63268 4.87065 3.67263C5.07082 3.71258 5.25464 3.81098 5.39887 3.9554C5.54311 4.09983 5.64128 4.28377 5.68097 4.48399C5.72066 4.6842 5.70009 4.89169 5.62185 5.08021C5.54362 5.26873 5.41125 5.42983 5.24146 5.54311C5.07168 5.6564 4.87211 5.7168 4.668 5.71667H4.66867ZM5.55933 12.226H3.77733V6.5H5.56V12.226H5.55933ZM13.1133 2H2.886C2.39533 2 2 2.38667 2 2.86467V13.1353C2 13.6133 2.396 14 2.88533 14H13.1107C13.6 14 14 13.6133 14 13.1353V2.86467C14 2.38667 13.6 2 13.1107 2H13.1127H13.1133Z"
                fill="#D1D5DB" />
        </svg>
    </symbol>
    <symbol id="enrichment">
        <svg width="16" height="16" viewBox="0 0 16 16" xmlns="http://www.w3.org/2000/svg">
            <path
                d="M12.8668 6.36667L12.1501 4.70001L10.4168 3.93334L12.1501 3.18334L12.8668 1.60001L13.5835 3.18334L15.3168 3.93334L13.5835 4.70001L12.8668 6.36667ZM5.55013 13.7167L4.01679 10.4333L0.666794 8.93334L4.01679 7.43334L5.55013 4.16667L7.10013 7.43334L10.4335 8.93334L7.10013 10.4333L5.55013 13.7167Z" />
        </svg>
    </symbol>
    <symbol id="source">
        <svg xmlns="http://www.w3.org/2000/svg" width="12" height="12" viewBox="0 0 12 12" fill="none">
            <path d="M0.5 5.93385C3.38978 5.6936 5.6936 3.38978 5.93385 0.5H6.06615C6.3064 3.38978 8.61024 5.6936 11.5 5.93385V6.06615C8.61024 6.3064 6.3064 8.61024 6.06615 11.5H5.93385C5.6936 8.61024 3.38978 6.3064 0.5 6.06615V5.93385Z" fill="#DDD6FE" stroke="#8B5CF6" stroke-linejoin="round"/>
        </svg>
    </symbol>
    <symbol id="source">
        <svg xmlns="http://www.w3.org/2000/svg" width="12" height="12" viewBox="0 0 12 12" fill="none">
            <path d="M0.5 5.93385C3.38978 5.6936 5.6936 3.38978 5.93385 0.5H6.06615C6.3064 3.38978 8.61024 5.6936 11.5 5.93385V6.06615C8.61024 6.3064 6.3064 8.61024 6.06615 11.5H5.93385C5.6936 8.61024 3.38978 6.3064 0.5 6.06615V5.93385Z" fill="#DDD6FE" stroke="#8B5CF6" stroke-linejoin="round"/>
        </svg>
    </symbol>
    <symbol id="white-source">
        <svg xmlns="http://www.w3.org/2000/svg" width="12" height="12" viewBox="0 0 12 12" fill="none">
            <path d="M0.5 5.93385C3.38978 5.6936 5.6936 3.38978 5.93385 0.5H6.06615C6.3064 3.38978 8.61024 5.6936 11.5 5.93385V6.06615C8.61024 6.3064 6.3064 8.61024 6.06615 11.5H5.93385C5.6936 8.61024 3.38978 6.3064 0.5 6.06615V5.93385Z" fill="#ffffff" stroke="#ffffff" stroke-linejoin="round"/>
        </svg>
    </symbol>

    <symbol id="enrichment-star">
        <svg xmlns="http://www.w3.org/2000/svg" width="12" height="12" viewBox="0 0 12 12" fill="none">
            <path d="M0.5 5.93385C3.38978 5.6936 5.6936 3.38978 5.93385 0.5H6.06615C6.3064 3.38978 8.61024 5.6936 11.5 5.93385V6.06615C8.61024 6.3064 6.3064 8.61024 6.06615 11.5H5.93385C5.6936 8.61024 3.38978 6.3064 0.5 6.06615V5.93385Z" fill="currentColor" stroke="currentColor" stroke-linejoin="round"/>
        </svg>
    </symbol>
    <symbol id="git">
        <svg width="16" height="16" viewBox="0 0 16 16" fill="none"
            xmlns="http://www.w3.org/2000/svg">
            <g clip-path="url(#clip)">
                <mask id="mask0_203_2" style="mask-type:luminance" maskUnits="userSpaceOnUse" x="0"
                    y="0"
                    width="16" height="16">
                    <path d="M0 0.0196533H15.9803V16H0V0.0196533Z" fill="white" />
                </mask>
                <g mask="url(#mask0_203_2)">
                    <path
                        d="M15.6795 7.29827L8.70214 0.321399C8.60656 0.225757 8.49307 0.149886 8.36815 0.098122C8.24324 0.0463577 8.10935 0.0197144 7.97414 0.0197144C7.83892 0.0197144 7.70503 0.0463577 7.58012 0.098122C7.45521 0.149886 7.34172 0.225757 7.24614 0.321399L5.79779 1.77044L7.63535 3.60801C7.85139 3.53464 8.08365 3.52318 8.30586 3.57494C8.52807 3.6267 8.73136 3.7396 8.89275 3.90088C9.05503 4.06332 9.16831 4.26817 9.21964 4.49197C9.27097 4.71578 9.25828 4.94951 9.18301 5.16644L10.9547 6.93757C11.1716 6.86221 11.4055 6.84951 11.6293 6.90094C11.8532 6.95237 12.0581 7.06585 12.2204 7.22836C12.3341 7.34205 12.4243 7.47703 12.4859 7.62559C12.5474 7.77415 12.5791 7.93338 12.5791 8.09418C12.5791 8.25498 12.5474 8.41421 12.4859 8.56277C12.4243 8.71133 12.3341 8.84631 12.2204 8.96001C11.9905 9.18967 11.6788 9.31867 11.3539 9.31867C11.0289 9.31867 10.7173 9.18967 10.4874 8.96001C10.3166 8.78894 10.2002 8.57118 10.1529 8.33413C10.1056 8.09708 10.1295 7.85133 10.2216 7.62783L8.56944 5.97618V10.3235C8.74383 10.4096 8.89518 10.5361 9.01096 10.6924C9.12675 10.8486 9.20363 11.0303 9.23525 11.2222C9.26687 11.4141 9.25231 11.6108 9.19278 11.7959C9.13325 11.9811 9.03046 12.1494 8.89292 12.287C8.77923 12.4007 8.64424 12.4909 8.49568 12.5524C8.34712 12.614 8.1879 12.6456 8.02709 12.6456C7.86629 12.6456 7.70706 12.614 7.5585 12.5524C7.40994 12.4909 7.27496 12.4007 7.16127 12.287C7.04753 12.1733 6.9573 12.0383 6.89574 11.8897C6.83418 11.7411 6.8025 11.5819 6.8025 11.4211C6.8025 11.2602 6.83418 11.101 6.89574 10.9524C6.9573 10.8038 7.04753 10.6688 7.16127 10.5551C7.27584 10.4403 7.41203 10.3494 7.56196 10.2875V5.90018C7.41264 5.83868 7.27695 5.74828 7.16267 5.63417C7.04839 5.52007 6.95778 5.38451 6.89605 5.23529C6.83432 5.08606 6.80268 4.92611 6.80295 4.76462C6.80322 4.60313 6.83539 4.44329 6.89762 4.29427L5.08579 2.48209L0.301094 7.26557C0.108286 7.45876 0 7.72055 0 7.99349C0 8.26642 0.108286 8.52821 0.301094 8.7214L7.27883 15.6991C7.47201 15.8919 7.73376 16.0001 8.00666 16.0001C8.27955 16.0001 8.54131 15.8919 8.73449 15.6991L15.6795 8.75409C15.8723 8.56091 15.9806 8.29912 15.9806 8.02618C15.9806 7.75324 15.8723 7.49145 15.6795 7.29827Z"
                        fill="#D1D5DB" />
                </g>
            </g>
            <defs>
                <clipPath id="clip">
                    <rect width="16" height="16" fill="white" />
                </clipPath>
            </defs>
        </svg>
    </symbol>
    <symbol id="discourse">
        <svg width="16" height="16" viewBox="0 0 448 512" xmlns="http://www.w3.org/2000/svg">
            <path
                d="M225.9 32C103.3 32 0 130.5 0 252.1 0 256 .1 480 .1 480l225.8-.2c122.7 0 222.1-102.3 222.1-223.9C448 134.3 348.6 32 225.9 32zM224 384c-19.4 0-37.9-4.3-54.4-12.1L88.5 392l22.9-75c-9.8-18.1-15.4-38.9-15.4-61 0-70.7 57.3-128 128-128s128 57.3 128 128-57.3 128-128 128z"
                fill="#D1D5DB" />
        </svg>
    </symbol>
<symbol id="enriched">
<svg xmlns="http://www.w3.org/2000/svg" width="20" height="20" viewBox="0 0 20 20" fill="none">
      <circle cx="10" cy="10" r="10" fill="#A78BFA"/>
      <path d="M4 9.45455C7.01246 9.45455 9.45455 7.01246 9.45455 4H10.5455C10.5455 7.01246 12.9876 9.45455 16 9.45455V10.5455C12.9876 10.5455 10.5455 12.9876 10.5455 16H9.45455C9.45455 12.9876 7.01246 10.5455 4 10.5455V9.45455Z" fill="#F5F3FF"/>
    </svg>
</symbol>
    <symbol id="hubspot">
        <svg viewBox="0 0 16 16">
            <path id="Vector" d="M11.6709 5.26815V3.36282C11.9214 3.24514 12.1334 3.05838 12.2823 2.82426C12.4313 2.59014 12.5111 2.3183 12.5123 2.04038V1.99662C12.5123 1.18631 11.859 0.529407 11.0531 0.529407H11.0095C10.6225 0.529407 10.2513 0.683988 9.97768 0.959145C9.70401 1.2343 9.55027 1.60749 9.55027 1.99662V2.04038C9.55155 2.3183 9.63131 2.59014 9.78026 2.82426C9.92922 3.05838 10.1412 3.24514 10.3917 3.36282V5.26815C9.67194 5.37895 8.99411 5.67899 8.4268 6.13789L3.22963 2.06793C3.2667 1.93342 3.28605 1.79512 3.2882 1.65629C3.28883 1.3293 3.193 1.00947 3.01283 0.737249C2.83266 0.465027 2.57624 0.252647 2.276 0.126971C1.97576 0.00129538 1.64519 -0.0320291 1.32612 0.0312127C1.00704 0.0944545 0.713786 0.251421 0.483447 0.482259C0.253108 0.713096 0.096033 1.00743 0.0320909 1.32804C-0.0318512 1.64864 0.000215103 1.98111 0.124228 2.2834C0.248241 2.58568 0.45863 2.84419 0.728786 3.02623C0.998943 3.20827 1.31673 3.30567 1.64195 3.3061C1.92647 3.30475 2.20566 3.22838 2.45164 3.08461L7.56929 7.08866C7.10955 7.78698 6.86971 8.60835 6.88102 9.44571C6.89233 10.2831 7.15427 11.0976 7.6327 11.7831L6.07617 13.3486C5.95035 13.3082 5.81926 13.2867 5.68718 13.2849C5.42023 13.2851 5.15933 13.3649 4.93745 13.5141C4.71558 13.6634 4.54269 13.8754 4.44062 14.1234C4.33856 14.3714 4.31192 14.6443 4.36405 14.9076C4.41618 15.1708 4.54475 15.4126 4.73352 15.6024C4.92228 15.7922 5.16276 15.9214 5.42458 15.9739C5.68639 16.0263 5.95778 15.9995 6.20446 15.8969C6.45113 15.7943 6.66202 15.6204 6.81046 15.3973C6.9589 15.1743 7.03824 14.9119 7.03846 14.6435C7.03672 14.5107 7.01536 14.3789 6.97506 14.2524L8.51492 12.7036C9.01706 13.0923 9.60102 13.3603 10.2221 13.487C10.8431 13.6137 11.4848 13.5958 12.0979 13.4347C12.711 13.2736 13.2793 12.9735 13.7592 12.5574C14.2392 12.1413 14.618 11.6203 14.8668 11.0343C15.1155 10.4483 15.2275 9.81277 15.1943 9.17649C15.161 8.54021 14.9833 7.92002 14.6749 7.36345C14.3664 6.80687 13.9353 6.32867 13.4146 5.96549C12.8939 5.6023 12.2975 5.36376 11.6709 5.26815ZM11.0326 11.5346C10.7481 11.5425 10.4648 11.4929 10.1996 11.3889C9.93437 11.2848 9.69259 11.1283 9.48853 10.9287C9.28448 10.7291 9.12228 10.4904 9.01153 10.2268C8.90077 9.96306 8.84371 9.67972 8.84371 9.39348C8.84371 9.10723 8.90077 8.8239 9.01153 8.5602C9.12228 8.29651 9.28448 8.05781 9.48853 7.85821C9.69259 7.65861 9.93437 7.50215 10.1996 7.39809C10.4648 7.29403 10.7481 7.24447 11.0326 7.25235C11.5842 7.27177 12.1068 7.50565 12.4902 7.90474C12.8737 8.30384 13.0882 8.83698 13.0884 9.39189C13.0887 9.94681 12.8748 10.4802 12.4917 10.8796C12.1087 11.2791 11.5863 11.5135 11.0348 11.5335" fill="currentColor"/>
        </svg>
    </symbol>
    <symbol id="groupsio">
        <svg xmlns="http://www.w3.org/2000/svg" width="16" height="16" viewBox="0 0 231 231"><g stroke-width="2" fill="none"><path vector-effect="non-scaling-stroke" d="M201.43 76.97c13.13-7.25 14.66-25.76 1.62-33.68-9.32-5.66-19.93-2.99-26.45 5.55a1.05 1.03 18.3 0 1-.83.41H55.26a.94.94 0 0 1-.69-.3q-4.42-4.57-6.16-5.6C24.95 29.48 5.82 64.71 29.68 76.98a.58.58 0 0 1 .32.52v76.49a.82.81 76 0 1-.43.72c-15.09 8.11-14.51 29.89 2.42 35.41q12.91 4.21 22.2-7.49.3-.38.78-.38H175.8q.5 0 .82.39 10.13 12.4 23.38 7.04c15.59-6.3 16.16-27.17 1.49-34.83q-.49-.25-.49-.8V77.71a.85.84 75.7 0 1 .43-.74"/><path vector-effect="non-scaling-stroke" d="M57.69 68.56q22.28 20.2 44.8 40.33a.65.65 0 0 0 .84.03q12.87-9.92 25.97-.21.46.34.89-.05l44.5-40.94a.96.94 62.2 0 0 .28-.94l-1.3-5.1a.57.57 0 0 0-.55-.43H57.95q-.57 0-.76.53c-.94 2.71-1.85 4.65.5 6.78"/><path vector-effect="non-scaling-stroke" d="M42.31 153.09c8.34 2.83 13.41 7.69 14.74 16.58a.69.69 0 0 0 .68.58h115.29q.65 0 .76-.64 2.09-12.91 14.69-16.41a.73.71 82.8 0 0 .53-.7V78.97a.78.78 0 0 0-.53-.74l-4.88-1.64a.88.87 32.5 0 0-.88.19l-46.7 42.99q-.39.36-.36.88c1.6 27.88-37.83 28.86-38.2 2.84q-.02-1.36-.31-2.77-.1-.5-.48-.84L48.37 76.61q-.42-.39-.95-.18l-5.08 1.97q-.59.23-.59.86v73.04q0 .6.56.79"/></g><path fill="#fff" d="M0 0h231v231H0V0Zm201.43 76.97c13.13-7.25 14.66-25.76 1.62-33.68-9.32-5.66-19.93-2.99-26.45 5.55a1.05 1.03 18.3 0 1-.83.41H55.26a.94.94 0 0 1-.69-.3q-4.42-4.57-6.16-5.6C24.95 29.48 5.82 64.71 29.68 76.98a.58.58 0 0 1 .32.52v76.49a.82.81 76 0 1-.43.72c-15.09 8.11-14.51 29.89 2.42 35.41q12.91 4.21 22.2-7.49.3-.38.78-.38H175.8q.5 0 .82.39 10.13 12.4 23.38 7.04c15.59-6.3 16.16-27.17 1.49-34.83q-.49-.25-.49-.8V77.71a.85.84 75.7 0 1 .43-.74Z"/><path d="M201.43 76.97a.85.84 75.7 0 0-.43.74v76.34q0 .55.49.8c14.67 7.66 14.1 28.53-1.49 34.83q-13.25 5.36-23.38-7.04-.32-.39-.82-.39H54.97q-.48 0-.78.38-9.29 11.7-22.2 7.49c-16.93-5.52-17.51-27.3-2.42-35.41a.82.81 76 0 0 .43-.72V77.5a.58.58 0 0 0-.32-.52c-23.86-12.27-4.73-47.5 18.73-33.63q1.74 1.03 6.16 5.6a.94.94 0 0 0 .69.3h120.51a1.05 1.03 18.3 0 0 .83-.41c6.52-8.54 17.13-11.21 26.45-5.55 13.04 7.92 11.51 26.43-1.62 33.68ZM57.69 68.56q22.28 20.2 44.8 40.33a.65.65 0 0 0 .84.03q12.87-9.92 25.97-.21.46.34.89-.05l44.5-40.94a.96.94 62.2 0 0 .28-.94l-1.3-5.1a.57.57 0 0 0-.55-.43H57.95q-.57 0-.76.53c-.94 2.71-1.85 4.65.5 6.78Zm-15.38 84.53c8.34 2.83 13.41 7.69 14.74 16.58a.69.69 0 0 0 .68.58h115.29q.65 0 .76-.64 2.09-12.91 14.69-16.41a.73.71 82.8 0 0 .53-.7V78.97a.78.78 0 0 0-.53-.74l-4.88-1.64a.88.87 32.5 0 0-.88.19l-46.7 42.99q-.39.36-.36.88c1.6 27.88-37.83 28.86-38.2 2.84q-.02-1.36-.31-2.77-.1-.5-.48-.84L48.37 76.61q-.42-.39-.95-.18l-5.08 1.97q-.59.23-.59.86v73.04q0 .6.56.79Z"/><path fill="#fff" d="M57.69 68.56c-2.35-2.13-1.44-4.07-.5-6.78q.19-.53.76-.53h115.17a.57.57 0 0 1 .55.43l1.3 5.1a.96.94 62.2 0 1-.28.94l-44.5 40.94q-.43.39-.89.05-13.1-9.71-25.97.21a.65.65 0 0 1-.84-.03q-22.52-20.13-44.8-40.33Z"/><path fill="#fff" d="M57.05 169.67c-1.33-8.89-6.4-13.75-14.74-16.58q-.56-.19-.56-.79V79.26q0-.63.59-.86l5.08-1.97q.53-.21.95.18l48.29 43.27q.38.34.48.84.29 1.41.31 2.77c.37 26.02 39.8 25.04 38.2-2.84q-.03-.52.36-.88l46.7-42.99a.88.87 32.5 0 1 .88-.19l4.88 1.64a.78.78 0 0 1 .53.74v73.53a.73.71 82.8 0 1-.53.7q-12.6 3.5-14.69 16.41-.11.64-.76.64H57.73a.69.69 0 0 1-.68-.58Z"/></svg>
    </symbol>
</svg>
