<svg width="16" height="16" viewBox="0 0 16 16" fill="none" xmlns="http://www.w3.org/2000/svg">
<path d="M1.82318 10.0567C1.51318 9.39 1.89652 9 2.34985 9C2.80318 9 3.14985 9.49333 3.80652 9.94333C4.54881 10.4135 5.31544 10.8441 6.10318 11.2333" fill="#BBA9D1"/>
<path d="M1.82318 10.0567C1.51318 9.39 1.89652 9 2.34985 9C2.80318 9 3.14985 9.49333 3.80652 9.94333C4.54881 10.4135 5.31544 10.8441 6.10318 11.2333" stroke="#493D57" stroke-width="0.5"/>
<path d="M14.5498 11.4397C14.9185 11.9132 15.0947 12.5084 15.0432 13.1063C14.9558 13.7525 14.6929 14.3624 14.2832 14.8697C14.1465 15.003 9.21982 14.3763 8.06649 14.1497C6.91315 13.923 1.34982 11.4763 1.13649 11.333C0.923154 11.1897 0.903154 10.293 1.51315 10.103C2.12315 9.91299 3.46649 10.8197 4.68982 11.0197C6.0911 11.2093 7.50257 11.3139 8.91649 11.333C9.74315 11.333 8.02315 10.613 7.61649 10.453C7.20982 10.293 6.54982 10.163 6.41315 9.733C6.27649 9.303 6.71982 8.98633 7.07982 8.98633C7.74909 9.08485 8.40681 9.25012 9.04315 9.47966C9.94014 9.4523 10.8331 9.61002 11.6665 9.943C12.3504 10.2356 12.9039 10.7678 13.2232 11.4397C13.3332 11.6663 14.4298 11.333 14.5498 11.4397Z" fill="#BBA9D1" stroke="#493D57" stroke-width="0.5"/>
<path d="M4.78653 3.54357C4.44145 3.20466 3.97605 3.01643 3.49239 3.02018C3.00873 3.02393 2.5463 3.21935 2.20653 3.56357C1.86425 3.9101 1.67011 4.37613 1.66514 4.86318C1.66016 5.35022 1.84474 5.82012 2.17986 6.17357L4.99986 9.00024L7.80986 6.17024C8.01588 5.95917 8.16916 5.70242 8.2572 5.42092C8.34524 5.13941 8.36557 4.84109 8.31653 4.55024C8.26995 4.26038 8.15493 3.98581 7.98102 3.74929C7.80711 3.51277 7.57931 3.32112 7.31653 3.19024C7.06286 3.06075 6.78129 2.99551 6.49653 3.00024C6.25531 3.00198 6.01683 3.05148 5.79485 3.14588C5.57286 3.24028 5.37178 3.37771 5.20319 3.55024L4.98986 3.75357L4.78653 3.54357Z" fill="#DF704D" stroke="#77280C" stroke-width="0.5" stroke-linecap="round" stroke-linejoin="round"/>
</svg>
