<svg width="16" height="16" viewBox="0 0 16 16" fill="none" xmlns="http://www.w3.org/2000/svg">
<g clip-path="url(#clip0_608_231)">
<path d="M7.82994 7.66667H3.37661C2.70994 7.66667 2.30661 8.06333 2.33328 8.66667C2.35212 8.9437 2.47759 9.20264 2.68333 9.38911C2.88907 9.57558 3.15907 9.67507 3.43661 9.66667H3.62661C3.38229 9.67365 3.1507 9.77722 2.98261 9.95467C2.81453 10.1321 2.72367 10.369 2.72994 10.6133C2.73007 10.8516 2.82005 11.0811 2.98194 11.256C3.14382 11.4308 3.3657 11.5382 3.60328 11.5567C3.46155 11.6678 3.35459 11.8171 3.29503 11.9871C3.23547 12.157 3.22581 12.3405 3.26717 12.5157C3.30853 12.691 3.3992 12.8508 3.52846 12.9762C3.65772 13.1015 3.82017 13.1873 3.99661 13.2233C3.8855 13.4268 3.85119 13.6634 3.89994 13.89C3.95727 14.1094 4.08747 14.3028 4.26917 14.4385C4.45088 14.5741 4.6733 14.644 4.89994 14.6367H7.62661C7.9831 14.6345 8.33798 14.5886 8.68328 14.5L10.3933 14C10.4933 13.97 11.9733 14 12.6399 14C13.8299 13.9533 14.1499 8.49333 12.6399 8.49333C12.6399 8.49333 12.0899 8.51333 11.9733 8.49333C11.9199 8.49333 11.7999 8.26667 11.5033 7.94667L11.4766 7.91333C11.0433 7.44333 10.5499 6.83667 10.2033 6.49333C9.35994 5.66667 8.65994 4.96 8.17328 3.88C7.93328 3.29 7.90328 3 7.33328 3C7.10014 3.0236 6.88583 3.13852 6.73717 3.31966C6.58852 3.50079 6.51761 3.73341 6.53994 3.96667C6.5653 4.28535 6.60758 4.60247 6.66661 4.91667C6.87661 6.04333 7.80994 7.58333 7.83661 7.65333L7.82994 7.66667Z" fill="#378FE9" stroke="#004182" stroke-width="0.5" stroke-linecap="round" stroke-linejoin="round"/>
</g>
<defs>
<clipPath id="clip0_608_231">
<rect width="16" height="16" fill="white"/>
</clipPath>
</defs>
</svg>
