<svg width="16" height="16" viewBox="0 0 16 16" fill="none" xmlns="http://www.w3.org/2000/svg">
<g clip-path="url(#clip0_608_216)">
<path d="M12.5338 9.46668C12.4505 8.84334 12.3971 6.97668 12.1105 6.67334C11.4138 5.93668 10.8305 5.49001 10.5371 4.47668C10.3538 3.85001 10.2238 3.62668 9.66046 3.61668C9.54742 3.62748 9.43767 3.66065 9.33757 3.71425C9.23747 3.76785 9.14903 3.84081 9.07738 3.9289C9.00573 4.01698 8.95231 4.11844 8.92022 4.22735C8.88813 4.33627 8.87801 4.45048 8.89046 4.56334C8.89931 4.84794 8.92491 5.13176 8.96712 5.41334C9.12562 6.19924 9.3486 6.97073 9.63379 7.72001L4.27046 3.66668C3.88712 3.38001 3.33379 3.25001 2.96046 3.75001C2.58712 4.25001 2.88712 4.71001 3.27046 5.00001L5.93712 7.00001L6.73379 7.60001L2.47046 4.40334C2.08712 4.11668 1.53379 3.98668 1.15712 4.48668C0.780456 4.98668 1.08712 5.44668 1.46712 5.73668L4.13379 7.73668L5.73379 8.94001L2.26712 6.33334C1.88379 6.04668 1.33046 5.91668 0.953789 6.41668C0.577122 6.91668 0.883789 7.38001 1.26712 7.66668L3.93379 9.66668L5.26712 10.6667L2.60046 8.66668C2.21712 8.38001 1.67379 8.23668 1.31379 8.71668C0.953789 9.19668 1.21712 9.71668 1.60046 10L6.44379 13.56C6.79424 13.8205 7.19351 14.0079 7.61783 14.1109C8.04216 14.214 8.48288 14.2307 8.91379 14.16" fill="#49992A"/>
<path d="M12.5338 9.46668C12.4505 8.84334 12.3971 6.97668 12.1105 6.67334C11.4138 5.93668 10.8305 5.49001 10.5371 4.47668C10.3538 3.85001 10.2238 3.62668 9.66046 3.61668C9.54742 3.62748 9.43767 3.66065 9.33757 3.71425C9.23747 3.76785 9.14903 3.84081 9.07738 3.9289C9.00573 4.01698 8.95231 4.11844 8.92022 4.22735C8.88813 4.33627 8.87801 4.45048 8.89046 4.56334C8.89931 4.84794 8.92491 5.13176 8.96712 5.41334C9.12562 6.19924 9.3486 6.97073 9.63379 7.72001L4.27046 3.66668C3.88712 3.38001 3.33379 3.25001 2.96046 3.75001C2.58712 4.25001 2.88712 4.71001 3.27046 5.00001L5.93712 7.00001L6.73379 7.60001L2.47046 4.40334C2.08712 4.11668 1.53379 3.98668 1.15712 4.48668C0.780456 4.98668 1.08712 5.44668 1.46712 5.73668L4.13379 7.73668L5.73379 8.94001L2.26712 6.33334C1.88379 6.04668 1.33046 5.91668 0.953789 6.41668C0.577122 6.91668 0.883789 7.38001 1.26712 7.66668L3.93379 9.66668L5.26712 10.6667L2.60046 8.66668C2.21712 8.38001 1.67379 8.23668 1.31379 8.71668C0.953789 9.19668 1.21712 9.71668 1.60046 10L6.44379 13.56C6.79424 13.8205 7.19351 14.0079 7.61783 14.1109C8.04216 14.214 8.48288 14.2307 8.91379 14.16" stroke="#165209" stroke-width="0.5" stroke-linecap="round" stroke-linejoin="round"/>
<path d="M15.2567 10.6265C15.0167 10.372 14.8327 10.0699 14.7167 9.73985C14.6567 9.48985 14.6401 9.22985 14.5934 8.97652C14.5201 8.58652 14.4567 7.99985 14.1701 7.69652C13.4834 6.8782 12.9931 5.91357 12.7367 4.87652C12.5534 4.24985 12.4234 4.02652 11.8601 4.01652C11.7472 4.02691 11.6375 4.05968 11.5374 4.11293C11.4373 4.16618 11.3489 4.23884 11.2772 4.32666C11.2055 4.41449 11.152 4.51571 11.1199 4.62443C11.0878 4.73314 11.0776 4.84717 11.0901 4.95985C11.0989 5.24444 11.1245 5.52827 11.1667 5.80985C11.3767 6.90985 11.6034 7.80985 11.6301 7.86319L6.55006 4.06319C6.16673 3.77319 5.6134 3.64319 5.23673 4.14319C4.86006 4.64319 5.1634 5.10652 5.54673 5.39319L8.2134 7.39319L9.00006 7.99985L4.74673 4.79319C4.3634 4.50652 3.81006 4.37652 3.43673 4.87652C3.0634 5.37652 3.3634 5.83652 3.74673 6.12652L6.4134 8.12652L8.00006 9.33319L4.54673 6.72652C4.1634 6.43652 3.60673 6.30985 3.2334 6.80652C2.86006 7.30319 3.16006 7.76985 3.5434 8.05985L6.21006 10.0599L7.5434 11.0599L4.87673 9.05985C4.4934 8.77319 3.94673 8.62985 3.58673 9.10985C3.22673 9.58985 3.49006 10.1099 3.8734 10.3932L8.6434 13.9599C9.03744 14.2536 9.49356 14.4532 9.97673 14.5432C10.1901 14.5832 10.4167 14.6032 10.6667 14.6499C11.0249 14.704 11.3717 14.8166 11.6934 14.9832C11.917 15.0903 12.1724 15.1105 12.4101 15.0399C13.243 14.75 13.9698 14.217 14.4967 13.5099C14.9977 12.8313 15.2855 12.0191 15.3234 11.1765C15.3549 10.9906 15.3318 10.7995 15.2567 10.6265Z" fill="#6DAE4F" stroke="#165209" stroke-width="0.5" stroke-linecap="round" stroke-linejoin="round"/>
<path d="M4 0.549674L4.26333 1.72301M7.73333 1.99967L6.75333 2.66634M6.22667 0.333008L5.51 2.19967" stroke="#165209" stroke-width="0.5" stroke-linecap="round" stroke-linejoin="round"/>
</g>
<defs>
<clipPath id="clip0_608_216">
<rect width="16" height="16" fill="white"/>
</clipPath>
</defs>
</svg>
