<svg width="16" height="16" viewBox="0 0 16 16" fill="none" xmlns="http://www.w3.org/2000/svg">
<g clip-path="url(#clip0_608_238)">
<path d="M7.63342 4.9601C7.01336 4.36002 6.18256 4.02727 5.3197 4.03341C4.45685 4.03955 3.63086 4.38409 3.01941 4.99293C2.40795 5.60177 2.05987 6.42626 2.05002 7.28909C2.04017 8.15191 2.36935 8.98413 2.96676 9.60676L8.00009 14.6001L13.0334 9.6001C13.401 9.22939 13.675 8.77646 13.8327 8.2788C13.9904 7.78114 14.0273 7.25307 13.9403 6.73832C13.8533 6.22357 13.6449 5.73694 13.3325 5.31874C13.02 4.90053 12.6124 4.56277 12.1434 4.33343C11.6952 4.11037 11.2007 3.99617 10.7001 4.0001V4.0001C10.2661 3.99972 9.83632 4.08557 9.43577 4.25266C9.03521 4.41975 8.67184 4.66475 8.36676 4.97343L8.00009 5.33343L7.63342 4.9601Z" fill="#DF704D" stroke="#77280C" stroke-width="0.5" stroke-linecap="round" stroke-linejoin="round"/>
</g>
<defs>
<clipPath id="clip0_608_238">
<rect width="16" height="16" fill="white"/>
</clipPath>
</defs>
</svg>
