<svg width="48" height="48" viewBox="0 0 48 48" fill="none" xmlns="http://www.w3.org/2000/svg">
<path d="M24.5 41C33.6127 41 41 33.6127 41 24.5C41 15.3873 33.6127 8 24.5 8C15.3873 8 8 15.3873 8 24.5C8 33.6127 15.3873 41 24.5 41Z" fill="#72CBDC"/>
<path fill-rule="evenodd" clip-rule="evenodd" d="M24.5 9C15.9396 9 9 15.9396 9 24.5C9 33.0604 15.9396 40 24.5 40C33.0604 40 40 33.0604 40 24.5C40 15.9396 33.0604 9 24.5 9ZM7 24.5C7 14.835 14.835 7 24.5 7C34.165 7 42 14.835 42 24.5C42 34.165 34.165 42 24.5 42C14.835 42 7 34.165 7 24.5Z" fill="#185860"/>
<path fill-rule="evenodd" clip-rule="evenodd" d="M17.2157 16.6349C16.5131 17.0047 15.9695 17.4448 15.7071 17.7071C15.3166 18.0976 14.6834 18.0976 14.2929 17.7071C13.9024 17.3166 13.9024 16.6834 14.2929 16.2929C14.6972 15.8886 15.4036 15.3286 16.2843 14.8651C17.1642 14.402 18.285 14 19.5 14C20.0523 14 20.5 14.4477 20.5 15C20.5 15.5523 20.0523 16 19.5 16C18.715 16 17.9192 16.2647 17.2157 16.6349Z" fill="#15575F"/>
<path d="M18.3972 19C17.1972 19 15.5639 20 14.8972 20.5C13.8972 21.1472 14.9824 22 15.9824 21.5C16.9824 21 18.4824 20.5 20.4824 20.5C22.0824 20.5 21.7725 19.6251 21.3972 19.5C20.8972 19.3333 19.5972 19 18.3972 19Z" fill="#175560"/>
<path fill-rule="evenodd" clip-rule="evenodd" d="M31.7843 16.6349C32.4869 17.0047 33.0305 17.4448 33.2929 17.7071C33.6834 18.0976 34.3166 18.0976 34.7071 17.7071C35.0976 17.3166 35.0976 16.6834 34.7071 16.2929C34.3028 15.8886 33.5964 15.3286 32.7157 14.8651C31.8358 14.402 30.715 14 29.5 14C28.9477 14 28.5 14.4477 28.5 15C28.5 15.5523 28.9477 16 29.5 16C30.285 16 31.0808 16.2647 31.7843 16.6349Z" fill="#15575F"/>
<path d="M30.6028 19C31.8028 19 33.4361 20 34.1028 20.5C35.1028 21.1472 34.0176 22 33.0176 21.5C32.0176 21 30.5176 20.5 28.5176 20.5C26.9176 20.5 27.2275 19.6251 27.6028 19.5C28.1028 19.3333 29.4028 19 30.6028 19Z" fill="#175560"/>
<path fill-rule="evenodd" clip-rule="evenodd" d="M16.2486 25.5C14.7486 25.5 12.9594 25.9225 14.7486 29.5C17.2491 34.5 21.2486 36.5 24.2486 36.5V25.5H16.2486ZM32.2488 25.5C33.7488 25.5 35.5379 25.9225 33.7488 29.5C31.2482 34.5 27.2488 36.5 24.2488 36.5V25.5H32.2488Z" fill="#175660"/>
<path fill-rule="evenodd" clip-rule="evenodd" d="M24 31.01C22.4203 31.0704 20 31.4222 20 32.5C20 33.9142 21.3333 34.4395 24 34.495V34.5C24.0845 34.5 24.1679 34.4996 24.25 34.4988C24.3321 34.4996 24.4155 34.5 24.5 34.5V34.495C27.1667 34.4395 28.5 33.9142 28.5 32.5C28.5 31.4222 26.0797 31.0704 24.5 31.01V31C24.4206 31 24.3371 31.0008 24.25 31.0026C24.1629 31.0008 24.0794 31 24 31V31.01Z" fill="#73CBDC"/>
</svg>
