<svg width="16" height="16" viewBox="0 0 16 16" fill="none" xmlns="http://www.w3.org/2000/svg">
<path d="M8.00039 14.6004C11.6455 14.6004 14.6004 11.6455 14.6004 8.00039C14.6004 4.35531 11.6455 1.40039 8.00039 1.40039C4.35531 1.40039 1.40039 4.35531 1.40039 8.00039C1.40039 11.6455 4.35531 14.6004 8.00039 14.6004Z" fill="#72CBDC"/>
<path fill-rule="evenodd" clip-rule="evenodd" d="M5.0861 4.85377C4.80505 5.00169 4.58759 5.1777 4.48265 5.28265C4.32644 5.43886 4.07317 5.43886 3.91696 5.28265C3.76075 5.12644 3.76075 4.87317 3.91696 4.71696C4.07869 4.55524 4.36122 4.33125 4.71351 4.14584C5.06548 3.96059 5.51379 3.7998 5.9998 3.7998C6.22072 3.7998 6.3998 3.97889 6.3998 4.1998C6.3998 4.42072 6.22072 4.5998 5.9998 4.5998C5.68582 4.5998 5.36747 4.70569 5.0861 4.85377Z" fill="#15575F"/>
<path d="M5.55986 5.7998C5.07986 5.7998 4.42652 6.1998 4.15986 6.3998C3.75986 6.65866 4.19395 6.9998 4.59395 6.7998C4.99395 6.5998 5.59395 6.3998 6.39395 6.3998C7.03395 6.3998 6.90997 6.04984 6.75986 5.9998C6.55986 5.93314 6.03986 5.7998 5.55986 5.7998Z" fill="#175560"/>
<path fill-rule="evenodd" clip-rule="evenodd" d="M10.9139 4.85377C11.1949 5.00169 11.4124 5.1777 11.5174 5.28265C11.6736 5.43886 11.9268 5.43886 12.083 5.28265C12.2392 5.12644 12.2392 4.87317 12.083 4.71696C11.9213 4.55524 11.6388 4.33125 11.2865 4.14584C10.9345 3.96059 10.4862 3.7998 10.0002 3.7998C9.77928 3.7998 9.6002 3.97889 9.6002 4.1998C9.6002 4.42072 9.77928 4.5998 10.0002 4.5998C10.3142 4.5998 10.6325 4.70569 10.9139 4.85377Z" fill="#15575F"/>
<path d="M10.4401 5.7998C10.9201 5.7998 11.5735 6.1998 11.8401 6.3998C12.2401 6.65866 11.806 6.9998 11.406 6.7998C11.006 6.5998 10.4061 6.3998 9.60605 6.3998C8.96605 6.3998 9.09003 6.04984 9.24014 5.9998C9.44014 5.93314 9.96014 5.7998 10.4401 5.7998Z" fill="#175560"/>
<path fill-rule="evenodd" clip-rule="evenodd" d="M11.0992 8.39941C11.6992 8.39941 12.4149 8.5684 11.6992 9.99941C10.699 11.9994 9.09923 12.7994 7.89923 12.7994V12.7996C6.69923 12.7996 5.09946 11.9996 4.09923 9.99961C3.38355 8.56859 4.09923 8.39961 4.69923 8.39961H7.89919V8.39941H11.0992Z" fill="#175660"/>
<path fill-rule="evenodd" clip-rule="evenodd" d="M7.79967 10.6036C7.16777 10.6279 6.2002 10.7686 6.2002 11.1996C6.2002 11.7652 6.73336 11.9754 7.79967 11.9976V11.9996C7.83357 11.9996 7.86699 11.9994 7.89994 11.9991C7.93288 11.9994 7.9663 11.9996 8.0002 11.9996V11.9976C9.06651 11.9754 9.59967 11.7652 9.59967 11.1996C9.59967 10.7686 8.6321 10.6279 8.0002 10.6036V10.5996C7.96837 10.5996 7.93486 10.5999 7.89994 10.6007C7.86501 10.5999 7.8315 10.5996 7.79967 10.5996V10.6036Z" fill="#73CBDC"/>
<path fill-rule="evenodd" clip-rule="evenodd" d="M8 1.8C4.57583 1.8 1.8 4.57583 1.8 8C1.8 11.4242 4.57583 14.2 8 14.2C11.4242 14.2 14.2 11.4242 14.2 8C14.2 4.57583 11.4242 1.8 8 1.8ZM1 8C1 4.13401 4.13401 1 8 1C11.866 1 15 4.13401 15 8C15 11.866 11.866 15 8 15C4.13401 15 1 11.866 1 8Z" fill="#185860"/>
</svg>
