<svg width="16" height="16" viewBox="0 0 16 16" fill="none" xmlns="http://www.w3.org/2000/svg">
<path d="M9.66644 12.667C9.66644 11.457 9.80311 11.177 9.80311 11.177C9.91372 10.7905 10.1323 10.4436 10.4331 10.177C10.5864 10.0343 10.729 9.88056 10.8598 9.71699C11.1163 9.39088 11.3199 9.02642 11.4631 8.63699C11.6031 8.24071 11.6763 7.82393 11.6798 7.40366V7.38366C11.6842 6.40293 11.2991 5.46056 10.609 4.76364C9.919 4.06673 8.9805 3.67228 7.99977 3.66699C7.01993 3.67492 6.08331 4.07155 5.39577 4.76972C4.70823 5.46789 4.326 6.41047 4.33311 7.39033V7.41033C4.33657 7.8306 4.40978 8.24737 4.54977 8.64366C4.69296 9.03309 4.89656 9.39755 5.15311 9.72366C5.28388 9.88722 5.42649 10.041 5.57977 10.1837C5.8806 10.4503 6.09915 10.7972 6.20977 11.1837C6.20977 11.1837 6.3331 11.4637 6.3331 12.667" fill="#F5BB5C"/>
<path d="M9.66644 12.667C9.66644 11.457 9.80311 11.177 9.80311 11.177C9.91372 10.7905 10.1323 10.4436 10.4331 10.177C10.5864 10.0343 10.729 9.88056 10.8598 9.71699C11.1163 9.39088 11.3199 9.02642 11.4631 8.63699C11.6031 8.24071 11.6763 7.82393 11.6798 7.40366V7.38366C11.6842 6.40293 11.2991 5.46056 10.609 4.76364C9.919 4.06673 8.9805 3.67228 7.99977 3.66699C7.01993 3.67492 6.08331 4.07155 5.39577 4.76972C4.70823 5.46789 4.326 6.41047 4.33311 7.39033V7.41033C4.33657 7.8306 4.40978 8.24737 4.54977 8.64366C4.69296 9.03309 4.89656 9.39755 5.15311 9.72366C5.28388 9.88722 5.42649 10.041 5.57977 10.1837C5.8806 10.4503 6.09915 10.7972 6.20977 11.1837C6.20977 11.1837 6.3331 11.4637 6.3331 12.667" stroke="#5D3B01" stroke-width="0.5" stroke-linecap="round" stroke-linejoin="round"/>
<path d="M8 0.666992V2.25699M4 1.94033L4.80667 3.00033L4 1.94033ZM12 1.94033L11.1933 3.00033L12 1.94033Z" stroke="#5D3B01" stroke-width="0.5" stroke-linecap="round" stroke-linejoin="round"/>
<path d="M8.99967 14.6663H6.99967C6.82283 14.6496 6.65797 14.5696 6.53547 14.441C6.41296 14.3124 6.34106 14.1438 6.33301 13.9663V12.333H9.66634V13.9663C9.65829 14.1438 9.58638 14.3124 9.46388 14.441C9.34138 14.5696 9.17652 14.6496 8.99967 14.6663Z" fill="#C07800" stroke="#5D3B01" stroke-width="0.5" stroke-linecap="round" stroke-linejoin="round"/>
</svg>
