<svg width="16" height="16" viewBox="0 0 16 16" fill="none" xmlns="http://www.w3.org/2000/svg">
<path d="M8.16699 13.667C11.2046 13.667 13.667 11.2046 13.667 8.16699C13.667 5.12943 11.2046 2.66699 8.16699 2.66699C5.12943 2.66699 2.66699 5.12943 2.66699 8.16699C2.66699 11.2046 5.12943 13.667 8.16699 13.667Z" fill="#DEB8DC" stroke="#523951" stroke-width="0.5" stroke-miterlimit="10"/>
<path d="M8.82653 10.5801C8.90934 10.5659 8.99416 10.5682 9.07605 10.5871C9.15794 10.6059 9.23526 10.6409 9.30352 10.6899C9.37177 10.7389 9.42958 10.801 9.47359 10.8726C9.5176 10.9442 9.54693 11.0238 9.55986 11.1068C9.57853 11.2708 9.53568 11.4359 9.43962 11.5702C9.34356 11.7044 9.20112 11.7982 9.03986 11.8335L7.43653 12.1035C7.50469 12.0923 7.57441 12.0952 7.64145 12.1118C7.70849 12.1284 7.77146 12.1585 7.82653 12.2001C7.93655 12.2798 8.0108 12.3995 8.0332 12.5335C8.05471 12.6681 8.02484 12.8059 7.94951 12.9195C7.87418 13.0331 7.75889 13.1142 7.62653 13.1468C7.70036 13.1847 7.7642 13.2394 7.81286 13.3066C7.86151 13.3738 7.89361 13.4515 7.90653 13.5335C7.927 13.6573 7.90527 13.7845 7.84482 13.8945C7.78437 14.0045 7.68871 14.091 7.5732 14.1401C7.65399 14.2517 7.68752 14.3907 7.66653 14.5268C7.65273 14.656 7.59595 14.7769 7.50529 14.8699C7.41462 14.963 7.29533 15.023 7.16653 15.0401L6.97986 15.0802C6.49542 15.1824 6.00875 15.2624 5.51986 15.3201C4.96153 15.327 4.40372 15.2835 3.8532 15.1901C3.66802 15.1503 3.49623 15.0634 3.35436 14.9379C3.2125 14.8124 3.10533 14.6524 3.0432 14.4735C2.67986 13.7168 2.47986 12.2868 2.92653 11.8735C3.20962 11.6844 3.41635 11.4008 3.50986 11.0735C3.7232 10.5835 3.94653 10.0202 4.11653 9.54015C4.28653 9.06015 4.3532 8.84348 4.66986 8.72682C4.82262 8.68158 4.9867 8.69432 5.13065 8.7626C5.27459 8.83088 5.38826 8.94989 5.44986 9.09682C5.49758 9.43011 5.48174 9.76942 5.4032 10.0968C5.3232 10.7635 5.31986 10.9168 5.4032 11.1435L8.82653 10.5801ZM7.3332 9.00015H8.3332Z" fill="#DEB8DC"/>
<path d="M7.3332 9.00015H8.3332M8.82653 10.5801C8.90934 10.5659 8.99416 10.5682 9.07605 10.5871C9.15794 10.6059 9.23526 10.6409 9.30352 10.6899C9.37177 10.7389 9.42958 10.801 9.47359 10.8726C9.5176 10.9442 9.54693 11.0238 9.55986 11.1068C9.57853 11.2708 9.53568 11.4359 9.43962 11.5702C9.34356 11.7044 9.20112 11.7982 9.03986 11.8335L7.43653 12.1035C7.50469 12.0923 7.57441 12.0952 7.64145 12.1118C7.70849 12.1284 7.77146 12.1585 7.82653 12.2001C7.93655 12.2798 8.0108 12.3995 8.0332 12.5335C8.05471 12.6681 8.02484 12.8059 7.94951 12.9195C7.87418 13.0331 7.75889 13.1142 7.62653 13.1468C7.70036 13.1847 7.7642 13.2394 7.81286 13.3066C7.86151 13.3738 7.89361 13.4515 7.90653 13.5335C7.927 13.6573 7.90527 13.7845 7.84482 13.8945C7.78437 14.0045 7.68871 14.091 7.5732 14.1401C7.65399 14.2517 7.68752 14.3907 7.66653 14.5268C7.65273 14.656 7.59595 14.7769 7.50529 14.8699C7.41462 14.963 7.29533 15.023 7.16653 15.0401L6.97986 15.0802C6.49542 15.1824 6.00875 15.2624 5.51986 15.3201C4.96153 15.327 4.40372 15.2835 3.8532 15.1901C3.66802 15.1503 3.49623 15.0634 3.35436 14.9379C3.2125 14.8124 3.10533 14.6524 3.0432 14.4735C2.67986 13.7168 2.47986 12.2868 2.92653 11.8735C3.20962 11.6844 3.41635 11.4008 3.50986 11.0735C3.7232 10.5835 3.94653 10.0202 4.11653 9.54015C4.28653 9.06015 4.3532 8.84348 4.66986 8.72682C4.82262 8.68158 4.9867 8.69432 5.13065 8.7626C5.27459 8.83088 5.38826 8.94989 5.44986 9.09682C5.49758 9.43011 5.48174 9.76942 5.4032 10.0968C5.3232 10.7635 5.31986 10.9168 5.4032 11.1435L8.82653 10.5801Z" stroke="#523951" stroke-width="0.5" stroke-linecap="round" stroke-linejoin="round"/>
<path d="M5.33301 4.6668C5.57717 4.42122 5.90386 4.2751 6.24967 4.2568C6.59275 4.20672 6.94217 4.28635 7.22967 4.48014" stroke="#523951" stroke-width="0.5" stroke-linecap="round" stroke-linejoin="round"/>
<path d="M6.16667 7.33333C6.53486 7.33333 6.83333 7.03486 6.83333 6.66667C6.83333 6.29848 6.53486 6 6.16667 6C5.79848 6 5.5 6.29848 5.5 6.66667C5.5 7.03486 5.79848 7.33333 6.16667 7.33333Z" fill="#523951"/>
<path d="M9.99967 8.00033C10.3679 8.00033 10.6663 7.70185 10.6663 7.33366C10.6663 6.96547 10.3679 6.66699 9.99967 6.66699C9.63148 6.66699 9.33301 6.96547 9.33301 7.33366C9.33301 7.70185 9.63148 8.00033 9.99967 8.00033Z" fill="#523951"/>
<path d="M9.66699 5.56034C9.9889 5.43692 10.3451 5.43692 10.667 5.56034C10.9999 5.64382 11.2905 5.84666 11.4837 6.13034" stroke="#523951" stroke-width="0.5" stroke-linecap="round" stroke-linejoin="round"/>
</svg>
