<svg width="803" height="145" viewBox="0 0 803 145" fill="none" xmlns="http://www.w3.org/2000/svg">
<g clip-path="url(#clip0_142_19897)">
<path d="M351.271 6.39176C351.926 6.54289 352.434 7.05892 352.575 7.71565L356.129 24.2996C356.334 25.2557 355.707 26.1916 354.745 26.3659L320.046 32.653C318.896 32.8614 317.874 31.894 318.02 30.7344L321.681 1.5164C321.809 0.498378 322.789 -0.185941 323.788 0.0449207L351.271 6.39176Z" fill="#E94F2E"/>
<path fill-rule="evenodd" clip-rule="evenodd" d="M545.402 144.95C557.444 144.95 567.998 140.482 574.436 132.574C575.517 131.246 577.997 131.795 578.174 133.499L578.946 140.922C579.037 141.805 579.781 142.475 580.668 142.475H598.703C599.66 142.475 600.435 141.7 600.435 140.744V2.52996C600.435 1.57388 599.66 0.798828 598.703 0.798828H579.124C578.168 0.798828 577.393 1.57388 577.393 2.52996V54.4275C577.393 56.1618 574.893 56.9743 573.673 55.7418C567.258 49.2612 557.508 45.5486 546.735 45.5486C541.566 45.5486 536.771 46.2436 532.384 47.5577V73.3795C536.831 68.9067 543.006 66.3049 550.543 66.3049C566.729 66.3049 577.203 78.1112 577.203 95.059C577.203 112.007 566.729 123.623 550.543 123.623C543.006 123.623 536.831 121.062 532.384 116.634V143.255C536.401 144.367 540.752 144.95 545.402 144.95ZM661.016 144.95C684.753 144.95 701.555 133.393 706.269 114.059C706.527 113.002 705.707 112.007 704.618 112.007H686.491C685.725 112.007 685.058 112.514 684.79 113.232C681.744 121.407 673.561 125.908 661.397 125.908C646.575 125.908 637.908 118.171 635.733 102.866C635.588 101.852 636.389 100.96 637.414 100.957L704.611 100.776C705.565 100.774 706.337 99.9995 706.337 99.0452V93.726C706.337 64.4006 688.438 45.5486 660.255 45.5486C632.643 45.5486 613.41 65.924 613.41 95.4398C613.41 124.575 633.024 144.95 661.016 144.95ZM660.445 64.5911C673.716 64.5911 682.475 72.4011 683.241 84.376C683.302 85.3302 682.521 86.109 681.565 86.109H638.105C637.039 86.109 636.223 85.1488 636.446 84.1057C639.181 71.3147 647.4 64.5911 660.445 64.5911ZM765.081 141.41C764.812 142.055 764.182 142.475 763.483 142.475H742.962C742.252 142.475 741.614 142.042 741.353 141.382L705.403 50.7745C704.952 49.6381 705.79 48.405 707.012 48.405H728.023C728.742 48.405 729.387 48.85 729.642 49.5228L745.595 91.6313C748.112 98.7031 750.327 105.171 751.908 110.276C752.455 112.042 755.498 112.043 756.054 110.28C757.754 104.898 760.122 98.3458 762.733 91.6313L779.438 49.4981C779.699 48.8382 780.337 48.405 781.047 48.405H801.267C802.503 48.405 803.34 49.662 802.865 50.8024L765.081 141.41Z" fill="#E94F2E"/>
<path d="M0 95.2494C0 125.146 18.6616 144.95 47.2253 144.95C71.0541 144.95 88.9698 130.795 92.6292 109.957C92.8099 108.928 92.0006 108.008 90.9556 108.008H70.8688C70.0688 108.008 69.3791 108.56 69.1489 109.326C66.3091 118.778 58.3349 124.004 47.2253 124.004C32.3722 124.004 23.2318 112.959 23.2318 95.2494C23.2318 77.5399 33.1339 66.3049 47.987 66.3049C58.5718 66.3049 66.1833 71.3769 69.1454 81.1858C69.375 81.9462 70.0622 82.491 70.8566 82.491H90.8062C91.8367 82.491 92.6416 81.594 92.4887 80.5749C89.2564 59.0283 72.0098 45.5486 47.0349 45.5486C19.2329 45.5486 0 66.1144 0 95.2494Z" fill="white"/>
<path d="M163.537 49.3757C163.537 48.5814 162.997 47.8856 162.222 47.7128C158.971 46.988 156.113 46.6911 153.255 46.6911C143.512 46.6911 135.944 50.4672 131.17 56.5114C130.06 57.9171 127.257 57.3663 127.084 55.5835L126.557 50.159C126.47 49.272 125.725 48.5954 124.834 48.5954H106.237C105.281 48.5954 104.506 49.3704 104.506 50.3265V140.744C104.506 141.7 105.281 142.475 106.237 142.475H126.007C126.963 142.475 127.738 141.7 127.738 140.744V96.7728C127.738 78.492 138.211 69.5421 154.968 69.5421H161.806C162.762 69.5421 163.537 68.767 163.537 67.811V49.3757Z" fill="white"/>
<path d="M164.866 95.2494C164.866 124.575 186.003 144.76 215.138 144.76C244.273 144.76 265.41 124.575 265.41 95.2494C265.41 65.924 244.273 45.739 215.138 45.739C186.003 45.739 164.866 65.924 164.866 95.2494ZM188.098 95.2494C188.098 78.1112 199.142 66.4953 215.138 66.4953C231.134 66.4953 242.178 78.1112 242.178 95.2494C242.178 112.388 231.134 124.004 215.138 124.004C199.142 124.004 188.098 112.388 188.098 95.2494Z" fill="white"/>
<path d="M453.502 144.95C465.544 144.95 476.098 140.482 482.536 132.574C483.617 131.246 486.098 131.795 486.275 133.499L487.046 140.922C487.137 141.805 487.881 142.475 488.768 142.475H506.804C507.76 142.475 508.535 141.7 508.535 140.744V2.52996C508.535 1.57388 507.76 0.798828 506.804 0.798828H487.224C486.268 0.798828 485.493 1.57388 485.493 2.52996V54.4275C485.493 56.1618 482.994 56.9743 481.773 55.7418C475.358 49.2612 465.608 45.5486 454.835 45.5486C426.462 45.5486 409.323 66.4953 409.323 95.8207C409.323 124.956 426.271 144.95 453.502 144.95ZM458.643 123.623C442.457 123.623 432.555 111.816 432.555 95.059C432.555 78.3016 442.457 66.3049 458.643 66.3049C474.83 66.3049 485.303 78.1112 485.303 95.059C485.303 112.007 474.83 123.623 458.643 123.623Z" fill="white"/>
<path fill-rule="evenodd" clip-rule="evenodd" d="M272.579 69.2902C271.547 69.4771 270.917 70.5301 271.24 71.5271L293.831 141.277C294.063 141.991 294.728 142.475 295.478 142.475H315.617C316.369 142.475 317.036 141.989 317.266 141.272L329.829 102.105C332.246 94.2732 333.877 88.6999 335.023 84.5372C335.53 82.6922 338.694 82.7557 339.147 84.6149C340.267 89.2094 341.837 94.9539 343.92 101.724L356.485 141.268C356.714 141.987 357.381 142.475 358.135 142.475H377.345C378.083 142.475 378.739 142.007 378.981 141.31L410.345 50.7024C410.734 49.5778 409.899 48.405 408.709 48.405H387.849C387.092 48.405 386.422 48.8979 386.196 49.6215L374.007 88.775C372.889 92.627 371.203 98.7493 369.743 104.496C369.277 106.332 366.276 106.309 365.822 104.47C364.282 98.2198 362.38 91.2775 361.63 88.775L349.44 49.6215C349.215 48.8979 348.545 48.405 347.787 48.405H326.712C325.959 48.405 325.293 48.8909 325.063 49.6074L312.5 88.775C310.538 94.7825 309.129 99.3692 307.917 104.314C307.463 106.167 304.597 106.165 304.185 104.302C302.976 98.8352 301.686 93.6416 300.313 88.775L293.644 67.0251C293.387 66.1866 292.544 65.6728 291.681 65.8292L272.579 69.2902Z" fill="white"/>
</g>
<defs>
<clipPath id="clip0_142_19897">
<rect width="803" height="145" fill="white"/>
</clipPath>
</defs>
</svg>
